<svg version="1.1" xmlns="http://www.w3.org/2000/svg" xmlns:xlink="http://www.w3.org/1999/xlink" width="12.46989" height="16.6563" viewBox="0,0,12.46989,16.6563"><g transform="translate(-233.43638,-171.67185)"><g data-paper-data="{&quot;isPaintingLayer&quot;:true}" fill-rule="nonzero" stroke-linecap="square" stroke-linejoin="miter" stroke-miterlimit="10" stroke-dasharray="" stroke-dashoffset="0" style="mix-blend-mode: normal"><path d="M240.12498,186.57808c-0.89583,0 -1.66667,-0.19792 -2.3125,-0.59375c-0.63542,-0.39583 -1.125,-0.97396 -1.46875,-1.73437c-0.33333,-0.77083 -0.5,-1.71354 -0.5,-2.82812c0,-0.96875 0.10938,-1.86458 0.32813,-2.6875c0.21875,-0.82292 0.53646,-1.55729 0.95313,-2.20312c0.41667,-0.65625 0.91667,-1.21875 1.5,-1.6875c0.58333,-0.46875 1.24479,-0.82292 1.98438,-1.0625c0.73958,-0.23958 1.53646,-0.35937 2.39063,-0.35937c0.16667,0 0.30208,0.02083 0.40625,0.0625c0.10417,0.04167 0.1875,0.125 0.25,0.25c0.0625,0.11458 0.09375,0.29688 0.09375,0.54688c0,0.22917 -0.03646,0.40625 -0.10937,0.53125c-0.0625,0.11458 -0.15625,0.19271 -0.28125,0.23438c-0.125,0.03125 -0.27604,0.04688 -0.45312,0.04688c-0.64583,0 -1.23958,0.08333 -1.78125,0.25c-0.53125,0.15625 -1.01042,0.39063 -1.4375,0.70313c-0.42708,0.30208 -0.79167,0.66667 -1.09375,1.09375c-0.30208,0.41667 -0.53125,0.88021 -0.6875,1.39063c-0.15625,0.51042 -0.23958,1.05729 -0.25,1.64063l-0.3125,0.25c0.11458,-0.30208 0.3125,-0.58333 0.59375,-0.84375c0.28125,-0.26042 0.625,-0.46354 1.03125,-0.60937c0.40625,-0.15625 0.84896,-0.23437 1.32813,-0.23437c0.78125,0 1.45833,0.16667 2.03125,0.5c0.58333,0.32292 1.03125,0.77083 1.34375,1.34375c0.32292,0.5625 0.48438,1.20833 0.48438,1.9375c0,0.80208 -0.16146,1.51042 -0.48437,2.125c-0.32292,0.60417 -0.78646,1.07813 -1.39062,1.42188c-0.60417,0.34375 -1.32292,0.51563 -2.15625,0.51563zM240.06248,185.01558c0.53125,0 0.97917,-0.09896 1.34375,-0.29687c0.36458,-0.19792 0.64063,-0.47396 0.82813,-0.82812c0.19792,-0.36458 0.29688,-0.78125 0.29688,-1.25c0,-0.46875 -0.09375,-0.88021 -0.28125,-1.23437c-0.17708,-0.35417 -0.44271,-0.63021 -0.79687,-0.82812c-0.34375,-0.19792 -0.76562,-0.29687 -1.26562,-0.29687c-0.52083,0 -0.97917,0.09896 -1.375,0.29688c-0.38542,0.1875 -0.68229,0.45833 -0.89062,0.8125c-0.19792,0.34375 -0.29687,0.73958 -0.29687,1.1875c0,0.5 0.09375,0.93229 0.28125,1.29688c0.1875,0.35417 0.46354,0.63542 0.82813,0.84375c0.375,0.19792 0.81771,0.29688 1.32813,0.29688z" fill="#000000" stroke="#ffffff" stroke-width="3.5"/><path d="M240.12498,186.57808c-0.89583,0 -1.66667,-0.19792 -2.3125,-0.59375c-0.63542,-0.39583 -1.125,-0.97396 -1.46875,-1.73437c-0.33333,-0.77083 -0.5,-1.71354 -0.5,-2.82812c0,-0.96875 0.10938,-1.86458 0.32813,-2.6875c0.21875,-0.82292 0.53646,-1.55729 0.95313,-2.20312c0.41667,-0.65625 0.91667,-1.21875 1.5,-1.6875c0.58333,-0.46875 1.24479,-0.82292 1.98438,-1.0625c0.73958,-0.23958 1.53646,-0.35937 2.39063,-0.35937c0.16667,0 0.30208,0.02083 0.40625,0.0625c0.10417,0.04167 0.1875,0.125 0.25,0.25c0.0625,0.11458 0.09375,0.29688 0.09375,0.54688c0,0.22917 -0.03646,0.40625 -0.10937,0.53125c-0.0625,0.11458 -0.15625,0.19271 -0.28125,0.23438c-0.125,0.03125 -0.27604,0.04688 -0.45312,0.04688c-0.64583,0 -1.23958,0.08333 -1.78125,0.25c-0.53125,0.15625 -1.01042,0.39063 -1.4375,0.70313c-0.42708,0.30208 -0.79167,0.66667 -1.09375,1.09375c-0.30208,0.41667 -0.53125,0.88021 -0.6875,1.39063c-0.15625,0.51042 -0.23958,1.05729 -0.25,1.64063l-0.3125,0.25c0.11458,-0.30208 0.3125,-0.58333 0.59375,-0.84375c0.28125,-0.26042 0.625,-0.46354 1.03125,-0.60937c0.40625,-0.15625 0.84896,-0.23437 1.32813,-0.23437c0.78125,0 1.45833,0.16667 2.03125,0.5c0.58333,0.32292 1.03125,0.77083 1.34375,1.34375c0.32292,0.5625 0.48438,1.20833 0.48438,1.9375c0,0.80208 -0.16146,1.51042 -0.48437,2.125c-0.32292,0.60417 -0.78646,1.07813 -1.39062,1.42188c-0.60417,0.34375 -1.32292,0.51563 -2.15625,0.51563zM240.06248,185.01558c0.53125,0 0.97917,-0.09896 1.34375,-0.29687c0.36458,-0.19792 0.64063,-0.47396 0.82813,-0.82812c0.19792,-0.36458 0.29688,-0.78125 0.29688,-1.25c0,-0.46875 -0.09375,-0.88021 -0.28125,-1.23437c-0.17708,-0.35417 -0.44271,-0.63021 -0.79687,-0.82812c-0.34375,-0.19792 -0.76562,-0.29687 -1.26562,-0.29687c-0.52083,0 -0.97917,0.09896 -1.375,0.29688c-0.38542,0.1875 -0.68229,0.45833 -0.89062,0.8125c-0.19792,0.34375 -0.29687,0.73958 -0.29687,1.1875c0,0.5 0.09375,0.93229 0.28125,1.29688c0.1875,0.35417 0.46354,0.63542 0.82813,0.84375c0.375,0.19792 0.81771,0.29688 1.32813,0.29688z" fill="#000000" stroke="#000000" stroke-width="2.5"/><path d="M240.12498,186.57808c-0.89583,0 -1.66667,-0.19792 -2.3125,-0.59375c-0.63542,-0.39583 -1.125,-0.97396 -1.46875,-1.73437c-0.33333,-0.77083 -0.5,-1.71354 -0.5,-2.82812c0,-0.96875 0.10938,-1.86458 0.32813,-2.6875c0.21875,-0.82292 0.53646,-1.55729 0.95313,-2.20312c0.41667,-0.65625 0.91667,-1.21875 1.5,-1.6875c0.58333,-0.46875 1.24479,-0.82292 1.98438,-1.0625c0.73958,-0.23958 1.53646,-0.35937 2.39063,-0.35937c0.16667,0 0.30208,0.02083 0.40625,0.0625c0.10417,0.04167 0.1875,0.125 0.25,0.25c0.0625,0.11458 0.09375,0.29688 0.09375,0.54688c0,0.22917 -0.03646,0.40625 -0.10937,0.53125c-0.0625,0.11458 -0.15625,0.19271 -0.28125,0.23438c-0.125,0.03125 -0.27604,0.04688 -0.45312,0.04688c-0.64583,0 -1.23958,0.08333 -1.78125,0.25c-0.53125,0.15625 -1.01042,0.39063 -1.4375,0.70313c-0.42708,0.30208 -0.79167,0.66667 -1.09375,1.09375c-0.30208,0.41667 -0.53125,0.88021 -0.6875,1.39063c-0.15625,0.51042 -0.23958,1.05729 -0.25,1.64063l-0.3125,0.25c0.11458,-0.30208 0.3125,-0.58333 0.59375,-0.84375c0.28125,-0.26042 0.625,-0.46354 1.03125,-0.60937c0.40625,-0.15625 0.84896,-0.23437 1.32813,-0.23437c0.78125,0 1.45833,0.16667 2.03125,0.5c0.58333,0.32292 1.03125,0.77083 1.34375,1.34375c0.32292,0.5625 0.48438,1.20833 0.48438,1.9375c0,0.80208 -0.16146,1.51042 -0.48437,2.125c-0.32292,0.60417 -0.78646,1.07813 -1.39062,1.42188c-0.60417,0.34375 -1.32292,0.51563 -2.15625,0.51563zM240.06248,185.01558c0.53125,0 0.97917,-0.09896 1.34375,-0.29687c0.36458,-0.19792 0.64063,-0.47396 0.82813,-0.82812c0.19792,-0.36458 0.29688,-0.78125 0.29688,-1.25c0,-0.46875 -0.09375,-0.88021 -0.28125,-1.23437c-0.17708,-0.35417 -0.44271,-0.63021 -0.79687,-0.82812c-0.34375,-0.19792 -0.76562,-0.29687 -1.26562,-0.29687c-0.52083,0 -0.97917,0.09896 -1.375,0.29688c-0.38542,0.1875 -0.68229,0.45833 -0.89062,0.8125c-0.19792,0.34375 -0.29687,0.73958 -0.29687,1.1875c0,0.5 0.09375,0.93229 0.28125,1.29688c0.1875,0.35417 0.46354,0.63542 0.82813,0.84375c0.375,0.19792 0.81771,0.29688 1.32813,0.29688z" fill="#ffffff" stroke="none" stroke-width="1"/></g></g></svg>