<svg version="1.1" xmlns="http://www.w3.org/2000/svg" xmlns:xlink="http://www.w3.org/1999/xlink" width="246.9622" height="101.20928" viewBox="0,0,246.9622,101.20928"><g transform="translate(-116.5189,-129.39536)"><g data-paper-data="{&quot;isPaintingLayer&quot;:true}" stroke-linecap="square" stroke-linejoin="miter" stroke-miterlimit="10" stroke-dasharray="" stroke-dashoffset="0" style="mix-blend-mode: normal"><g fill="#ffffff" fill-rule="evenodd" stroke="#000000" stroke-width="4"><path d="M118.51894,144.56586v0c0,-7.27387 5.89663,-13.1705 13.1705,-13.1705l216.62116,0.17097v0c3.49302,0 6.84301,1.38759 9.31295,3.85755c2.46996,2.46996 3.85755,5.81993 3.85755,9.31295v30.20254c0,7.27387 -5.89662,13.1705 -13.1705,13.1705l-216.62118,-0.17097c-7.27388,0 -13.17052,-5.89663 -13.17052,-13.1705z"/><path d="M168.06045,185.06065v0c0,-7.27387 5.89663,-13.1705 13.1705,-13.1705l117.53815,0.17097v0c3.49302,0 6.84301,1.38759 9.31295,3.85753c2.46996,2.46996 3.85756,5.81993 3.85756,9.31295v30.20254c0,7.27387 -5.89663,13.1705 -13.1705,13.1705l-117.53815,-0.17097c-7.27387,0 -13.17052,-5.89663 -13.17052,-13.1705z"/></g><g fill="#ececec" fill-rule="evenodd" stroke="none" stroke-width="1"><path d="M118.51894,144.56586v0c0,-7.27387 5.89663,-13.1705 13.1705,-13.1705l216.62116,0.17097v0c3.49302,0 6.84301,1.38759 9.31295,3.85755c2.46996,2.46996 3.85755,5.81993 3.85755,9.31295v30.20254c0,7.27387 -5.89662,13.1705 -13.1705,13.1705l-216.62118,-0.17097c-7.27388,0 -13.17052,-5.89663 -13.17052,-13.1705z"/><path d="M168.06045,185.06065v0c0,-7.27387 5.89663,-13.1705 13.1705,-13.1705l117.53815,0.17097v0c3.49302,0 6.84301,1.38759 9.31295,3.85753c2.46996,2.46996 3.85756,5.81993 3.85756,9.31295v30.20254c0,7.27387 -5.89663,13.1705 -13.1705,13.1705l-117.53815,-0.17097c-7.27387,0 -13.17052,-5.89663 -13.17052,-13.1705z"/></g><path d="M118.51894,144.02391v0c0,-6.97457 5.89663,-12.62855 13.1705,-12.62855l216.62116,0.16394v0c3.49302,0 6.84301,1.3305 9.31295,3.69882c2.46996,2.36832 3.85755,5.58045 3.85755,8.92974v28.95975c0,6.97457 -5.89662,12.62856 -13.1705,12.62856l-216.62118,-0.16394c-7.27388,0 -13.17052,-5.65399 -13.17052,-12.62855z" fill="#ffffff" fill-rule="evenodd" stroke="none" stroke-width="1"/><path d="M168.06045,182.85241v0c0,-6.97457 5.89663,-12.62855 13.1705,-12.62855l117.53815,0.16394v0c3.49302,0 6.84301,1.3305 9.31295,3.6988c2.46996,2.36832 3.85756,5.58045 3.85756,8.92974v28.95975c0,6.97457 -5.89663,12.62855 -13.1705,12.62855l-117.53815,-0.16394c-7.27387,0 -13.17052,-5.65399 -13.17052,-12.62855z" fill="#ffffff" fill-rule="evenodd" stroke="none" stroke-width="1"/><g fill="#ffb905" fill-rule="nonzero" stroke="#000000" stroke-width="4"><path d="M134.97439,173.5949c-0.54153,0 -0.95354,-0.08241 -1.23608,-0.24722c-0.25898,-0.14127 -0.43558,-0.35317 -0.52975,-0.63569c-0.07062,-0.30607 -0.10594,-0.65926 -0.10594,-1.05952v-25.60466c0,-0.72988 0.14127,-1.22431 0.42379,-1.48331c0.30607,-0.25898 0.83582,-0.38849 1.58925,-0.38849h16.95206c0.40026,0 0.72988,0.04707 0.98888,0.14126c0.25898,0.07062 0.45913,0.24722 0.60037,0.52975c0.14127,0.28252 0.2119,0.69456 0.2119,1.23609c0,0.56507 -0.08241,0.98888 -0.24722,1.27143c-0.14127,0.25898 -0.35317,0.43558 -0.63572,0.52975c-0.28252,0.07062 -0.61216,0.10594 -0.98888,0.10594h-15.11558v8.72325h10.52442c0.37671,0 0.69456,0.04709 0.95354,0.14126c0.28252,0.09417 0.49445,0.27077 0.63571,0.52975c0.14127,0.23545 0.21188,0.62392 0.21188,1.16544c0,0.49443 -0.07062,0.87114 -0.21188,1.13014c-0.14127,0.25898 -0.35317,0.42381 -0.63571,0.49443c-0.25898,0.07062 -0.60037,0.10596 -1.02418,0.10596h-10.45377v11.40732c0,0.40026 -0.04707,0.74165 -0.14126,1.0242c-0.07062,0.28252 -0.24722,0.49443 -0.52975,0.63569c-0.25898,0.16481 -0.67104,0.24722 -1.23611,0.24722zM165.57337,173.5949c-0.89469,0 -1.70696,-0.08241 -2.43686,-0.24722c-0.70633,-0.14127 -1.33027,-0.37671 -1.8718,-0.70633c-0.54153,-0.35316 -0.98886,-0.78875 -1.34202,-1.30673c-0.35316,-0.54153 -0.61217,-1.18899 -0.77698,-1.94242c-0.14127,-0.77697 -0.21188,-1.67166 -0.21188,-2.68407v-21.08411c0,-0.42381 0.03532,-0.76518 0.10594,-1.02418c0.07062,-0.28252 0.24723,-0.5062 0.52975,-0.67101c0.28252,-0.16481 0.68279,-0.24722 1.20078,-0.24722c0.54153,0 0.94176,0.07064 1.20078,0.21191c0.28252,0.14127 0.45913,0.35316 0.52975,0.63569c0.09417,0.28252 0.14127,0.62394 0.14127,1.0242v21.11944c0,0.56507 0.05887,1.05949 0.17659,1.48331c0.11772,0.40026 0.2943,0.74164 0.52975,1.02418c0.23545,0.28252 0.52975,0.48268 0.88291,0.60039c0.37671,0.09417 0.82407,0.14126 1.34205,0.14126c0.32962,0 0.61216,0.0471 0.84759,0.14127c0.23545,0.07062 0.42381,0.23544 0.56507,0.49443c0.14127,0.25898 0.21191,0.64747 0.21191,1.16547c0,0.56507 -0.07064,0.98886 -0.21191,1.2714c-0.14127,0.25898 -0.32962,0.42381 -0.56507,0.49443c-0.23545,0.07062 -0.51797,0.10594 -0.84759,0.10594zM188.37083,173.55958c-0.61217,0 -1.05952,-0.12949 -1.34204,-0.38849c-0.25898,-0.25898 -0.41204,-0.64748 -0.45911,-1.16546l0.17658,-2.119c-0.28252,0.44734 -0.72988,0.96533 -1.34204,1.55395c-0.58862,0.56507 -1.36558,1.07127 -2.33091,1.5186c-0.94179,0.42381 -2.09546,0.63572 -3.46105,0.63572c-1.36557,0 -2.637,-0.25898 -3.81421,-0.77697c-1.15367,-0.54153 -2.17789,-1.29494 -3.07258,-2.26027c-0.87115,-0.96533 -1.55393,-2.06015 -2.04836,-3.28448c-0.49443,-1.24785 -0.74165,-2.56636 -0.74165,-3.95548c0,-1.38912 0.24722,-2.69586 0.74165,-3.92015c0.49443,-1.22431 1.18899,-2.2956 2.08368,-3.21384c0.91824,-0.94179 1.95418,-1.67166 3.10788,-2.18964c1.17721,-0.54153 2.42509,-0.81228 3.74359,-0.81228c1.22431,0 2.27205,0.16481 3.1432,0.49443c0.87115,0.32962 1.62457,0.75343 2.26026,1.27141c0.63571,0.51798 1.18902,1.09482 1.6599,1.73051l-0.07064,-1.76584c-0.02355,-0.61217 0.10596,-1.04773 0.38849,-1.30673c0.30607,-0.28252 0.77696,-0.42379 1.41267,-0.42379c0.54153,0 0.93001,0.08242 1.16546,0.24723c0.23545,0.16481 0.38849,0.41203 0.45913,0.74165c0.09417,0.30607 0.14127,0.68281 0.14127,1.13014v16.28103c0,0.37671 -0.04708,0.72988 -0.14127,1.0595c-0.07062,0.30607 -0.23545,0.52975 -0.49445,0.67101c-0.23545,0.16481 -0.62391,0.24723 -1.16544,0.24723zM180.24798,170.06322c1.10659,0 2.13077,-0.2943 3.07255,-0.88292c0.94179,-0.61217 1.68341,-1.41267 2.22496,-2.40154c0.56507,-0.98888 0.84762,-2.13077 0.84762,-3.42572c0,-1.3185 -0.2943,-2.47216 -0.88292,-3.46104c-0.56507,-1.01243 -1.31849,-1.80116 -2.26028,-2.36623c-0.94179,-0.58862 -1.97774,-0.88292 -3.10788,-0.88292c-1.3185,0 -2.4604,0.30607 -3.42572,0.91824c-0.96533,0.58862 -1.73051,1.38912 -2.29558,2.40152c-0.56507,1.01243 -0.84761,2.1661 -0.84761,3.46105c0,1.2714 0.28254,2.41332 0.84761,3.42573c0.56507,0.98888 1.34203,1.7776 2.33091,2.36622c1.01243,0.56507 2.17786,0.8476 3.49636,0.8476zM205.54741,173.41832c-1.38912,0 -2.64875,-0.24723 -3.77889,-0.74166c-1.10659,-0.51798 -2.06015,-1.22431 -2.86067,-2.119c-0.77697,-0.91824 -1.38914,-2.00131 -1.83648,-3.24916c-0.42381,-1.24785 -0.62392,-2.61343 -0.60037,-4.09673c0,-1.45976 0.2119,-2.80181 0.63571,-4.02612c0.42381,-1.24785 1.03596,-2.33091 1.83648,-3.24914c0.80052,-0.91824 1.75408,-1.6128 2.86066,-2.0837c1.10659,-0.49443 2.35445,-0.74164 3.74357,-0.74164c1.29495,0 2.50748,0.25898 3.63762,0.77697c1.13014,0.49443 2.11902,1.20076 2.96661,2.119c0.87115,0.89469 1.55393,1.97774 2.04836,3.24914c0.49443,1.2714 0.74166,2.637 0.74166,4.09676c0,1.45976 -0.24723,2.81359 -0.74166,4.06144c-0.49443,1.22431 -1.17721,2.28381 -2.04836,3.17852c-0.8476,0.89469 -1.83647,1.58925 -2.96661,2.08367c-1.13014,0.49443 -2.34267,0.74166 -3.63762,0.74166zM196.75353,181.89436c-0.51798,0 -0.91822,-0.08241 -1.20078,-0.24722c-0.25898,-0.14127 -0.43558,-0.35317 -0.52975,-0.63571c-0.09417,-0.28252 -0.14126,-0.62392 -0.14126,-1.02418v-24.89833c0,-0.40026 0.03532,-0.74165 0.10594,-1.0242c0.09417,-0.28252 0.27077,-0.49443 0.52975,-0.63569c0.28252,-0.16481 0.68279,-0.24723 1.20079,-0.24723c0.61217,0 1.07127,0.10594 1.37736,0.31785c0.30607,0.18836 0.48267,0.52975 0.52975,1.02418v25.4281c0.02355,0.40026 -0.01178,0.74165 -0.10594,1.02419c-0.07062,0.30607 -0.24722,0.52975 -0.52974,0.67102c-0.25898,0.16481 -0.67104,0.24722 -1.23611,0.24722zM204.98234,169.95727c1.17721,0 2.24849,-0.28252 3.21382,-0.84759c0.96533,-0.58862 1.71874,-1.38912 2.26026,-2.40154c0.54153,-1.01243 0.81229,-2.1661 0.81229,-3.46105c0,-1.3185 -0.27077,-2.4604 -0.81229,-3.42572c-0.54153,-0.98888 -1.28317,-1.75408 -2.22496,-2.2956c-0.94179,-0.56507 -2.02481,-0.84759 -3.24914,-0.84759c-1.17721,0 -2.23673,0.28252 -3.17852,0.84759c-0.94179,0.56507 -1.68341,1.34204 -2.22496,2.3309c-0.54153,0.96533 -0.81227,2.09547 -0.81227,3.39042c0,1.29495 0.27075,2.44864 0.81227,3.46105c0.54153,1.01243 1.28315,1.81293 2.22496,2.40154c0.94179,0.56507 2.00128,0.84759 3.17852,0.84759zM229.75197,173.41832c-1.38912,0 -2.64875,-0.24723 -3.77889,-0.74166c-1.10659,-0.51798 -2.06016,-1.22431 -2.86066,-2.119c-0.77697,-0.91824 -1.38912,-2.00131 -1.83647,-3.24916c-0.42381,-1.24785 -0.62392,-2.61343 -0.60037,-4.09673c0,-1.45976 0.2119,-2.80181 0.63569,-4.02612c0.42381,-1.24785 1.03598,-2.33091 1.83648,-3.24914c0.80052,-0.91824 1.75408,-1.6128 2.86066,-2.0837c1.10659,-0.49443 2.35445,-0.74164 3.74357,-0.74164c1.29495,0 2.50749,0.25898 3.63763,0.77697c1.13014,0.49443 2.11902,1.20076 2.96661,2.119c0.87115,0.89469 1.55394,1.97774 2.04837,3.24914c0.49443,1.2714 0.74164,2.637 0.74164,4.09676c0,1.45976 -0.24721,2.81359 -0.74164,4.06144c-0.49443,1.22431 -1.17723,2.28381 -2.04837,3.17852c-0.8476,0.89469 -1.83647,1.58925 -2.96661,2.08367c-1.13014,0.49443 -2.34268,0.74166 -3.63763,0.74166zM220.95808,181.89436c-0.51798,0 -0.91824,-0.08241 -1.20078,-0.24722c-0.25898,-0.14127 -0.43558,-0.35317 -0.52975,-0.63571c-0.09417,-0.28252 -0.14127,-0.62392 -0.14127,-1.02418v-24.89833c0,-0.40026 0.03533,-0.74165 0.10594,-1.0242c0.09417,-0.28252 0.27077,-0.49443 0.52975,-0.63569c0.28252,-0.16481 0.68278,-0.24723 1.20078,-0.24723c0.61217,0 1.07127,0.10594 1.37734,0.31785c0.30607,0.18836 0.48268,0.52975 0.52975,1.02418v25.4281c0.02355,0.40026 -0.01177,0.74165 -0.10594,1.02419c-0.07062,0.30607 -0.24723,0.52975 -0.52975,0.67102c-0.25898,0.16481 -0.67102,0.24722 -1.23609,0.24722zM229.1869,169.95727c1.17721,0 2.24849,-0.28252 3.21382,-0.84759c0.96533,-0.58862 1.71876,-1.38912 2.26028,-2.40154c0.54153,-1.01243 0.81227,-2.1661 0.81227,-3.46105c0,-1.3185 -0.27075,-2.4604 -0.81227,-3.42572c-0.54153,-0.98888 -1.28317,-1.75408 -2.22496,-2.2956c-0.94179,-0.56507 -2.02483,-0.84759 -3.24916,-0.84759c-1.17721,0 -2.23672,0.28252 -3.17852,0.84759c-0.94179,0.56507 -1.68343,1.34204 -2.22496,2.3309c-0.54153,0.96533 -0.81227,2.09547 -0.81227,3.39042c0,1.29495 0.27075,2.44864 0.81227,3.46105c0.54153,1.01243 1.28317,1.81293 2.22496,2.40154c0.94179,0.56507 2.00128,0.84759 3.17852,0.84759zM246.86356,181.78839c-0.68278,-0.28252 -1.08305,-0.61216 -1.20078,-0.98887c-0.09417,-0.35316 0.01177,-0.85937 0.31784,-1.51861l11.16011,-25.07491c0.30607,-0.65924 0.63572,-1.05952 0.98888,-1.20078c0.35316,-0.16481 0.85936,-0.10594 1.51862,0.17658c0.65924,0.30607 1.03598,0.64747 1.13015,1.02418c0.11771,0.35316 0.03532,0.83582 -0.24723,1.44799l-11.26606,25.25151c-0.28252,0.63571 -0.60039,1.01243 -0.95355,1.13014c-0.32962,0.11772 -0.81227,0.03532 -1.44798,-0.24723zM251.03096,170.91083l-9.64148,-14.90368c-0.37671,-0.56507 -0.52975,-1.03595 -0.45913,-1.41267c0.09417,-0.37671 0.42381,-0.75342 0.98888,-1.13014c0.63571,-0.37671 1.14191,-0.51798 1.51861,-0.42381c0.37671,0.09417 0.7652,0.42381 1.16546,0.98888l8.15818,12.8553zM276.75288,173.5949c-0.49443,0 -0.88291,-0.09417 -1.16546,-0.28252c-0.25898,-0.18836 -0.43558,-0.44733 -0.52975,-0.77697c-0.07062,-0.35316 -0.10594,-0.74165 -0.10594,-1.16546v-25.07491c0,-0.40026 0.04707,-0.7652 0.14126,-1.09484c0.09419,-0.32962 0.27077,-0.57684 0.52975,-0.74165c0.28255,-0.18836 0.67103,-0.28253 1.16546,-0.28253h11.7958c1.55393,0 2.93129,0.35317 4.13206,1.05952c1.20076,0.68278 2.13077,1.63634 2.79003,2.86065c0.68279,1.20078 1.01241,2.51928 0.98888,3.95548c0.02355,0.72988 -0.07062,1.44798 -0.28254,2.15432c-0.18836,0.70633 -0.4709,1.36558 -0.8476,1.97774c-0.37671,0.58862 -0.84762,1.08304 -1.41269,1.48331c0.77695,0.47088 1.42447,1.08305 1.94242,1.83647c0.54152,0.75342 0.95355,1.60102 1.2361,2.54281c0.28255,0.91824 0.42381,1.88357 0.42381,2.89598c-0.02355,1.22431 -0.24723,2.36622 -0.67104,3.42572c-0.42381,1.03598 -1.03595,1.95419 -1.83647,2.75472c-0.77695,0.77697 -1.68344,1.38912 -2.7194,1.83647c-1.03598,0.42381 -2.15434,0.63572 -3.3551,0.63572zM278.73062,169.95727h9.85338c1.08305,0 2.01306,-0.2119 2.79003,-0.63569c0.80052,-0.42381 1.41267,-1.03598 1.83648,-1.83648c0.42381,-0.82407 0.63569,-1.8247 0.63569,-3.00191c0,-1.01243 -0.14126,-1.8247 -0.42381,-2.43687c-0.28255,-0.61217 -0.67101,-1.08305 -1.16546,-1.41269c-0.4709,-0.32962 -0.97709,-0.56507 -1.51861,-0.70633c-0.54152,-0.14127 -1.07128,-0.21188 -1.58925,-0.21188c-0.51797,-0.02355 -0.98888,-0.03532 -1.41269,-0.03532h-2.57812c-0.56507,0 -0.97708,-0.14127 -1.23609,-0.42379c-0.25898,-0.28252 -0.38849,-0.72988 -0.38849,-1.34205c0,-0.58862 0.12948,-1.01241 0.38849,-1.2714c0.28255,-0.25898 0.70634,-0.38847 1.27141,-0.38847h2.57813c0.44734,0 0.95356,-0.01177 1.51863,-0.03532c0.56507,-0.02355 1.11835,-0.12949 1.65987,-0.31785c0.54152,-0.21191 0.98888,-0.58862 1.34204,-1.13014c0.35316,-0.54153 0.52975,-1.31849 0.52975,-2.3309c0,-1.57747 -0.42381,-2.74294 -1.27141,-3.49637c-0.8476,-0.75342 -2.23673,-1.13014 -4.16737,-1.13014h-8.6526zM304.22127,173.5949c-0.54152,0 -0.95354,-0.08241 -1.23609,-0.24722c-0.25898,-0.14127 -0.43558,-0.35317 -0.52975,-0.63569c-0.07062,-0.28252 -0.10594,-0.62394 -0.10594,-1.0242v-16.63421c0,-0.40026 0.03532,-0.74164 0.10594,-1.02418c0.09419,-0.28252 0.27077,-0.49445 0.52975,-0.63572c0.28255,-0.14127 0.70634,-0.21188 1.27141,-0.21188c0.54152,0 0.93001,0.08242 1.16546,0.24723c0.25898,0.14127 0.42381,0.35317 0.49443,0.63569c0.09419,0.28252 0.14127,0.63571 0.14127,1.05952v16.59887c0,0.40026 -0.0471,0.74166 -0.14127,1.0242c-0.07062,0.28252 -0.24722,0.49442 -0.52975,0.63569c-0.25898,0.14127 -0.64747,0.21191 -1.16544,0.21191zM304.22127,148.13151c-0.63569,0 -1.1066,-0.09417 -1.41269,-0.28252c-0.30607,-0.18836 -0.50622,-0.44734 -0.60037,-0.77698c-0.09419,-0.32962 -0.14126,-0.72988 -0.14126,-1.20078c0,-0.44734 0.04709,-0.82407 0.14126,-1.13014c0.11771,-0.32962 0.32963,-0.56507 0.63569,-0.70634c0.32962,-0.16481 0.8005,-0.24722 1.41267,-0.24722c0.58862,0 1.03598,0.08241 1.34204,0.24722c0.30607,0.16481 0.50622,0.42381 0.60037,0.77698c0.11771,0.32962 0.17658,0.71811 0.17658,1.16546c0,0.44734 -0.05887,0.83582 -0.17658,1.16546c-0.09419,0.30607 -0.2943,0.5533 -0.60037,0.74166c-0.30607,0.16481 -0.7652,0.24723 -1.37736,0.24723zM313.4551,173.5949c-0.54152,0 -0.95355,-0.08241 -1.2361,-0.24722c-0.25898,-0.14127 -0.42381,-0.35317 -0.49443,-0.63569c-0.07062,-0.30607 -0.10595,-0.65926 -0.10595,-1.05952v-16.59889c0,-0.42381 0.04707,-0.77695 0.14126,-1.0595c0.09419,-0.28252 0.25898,-0.48268 0.49443,-0.6004c0.25898,-0.14127 0.67103,-0.21188 1.2361,-0.21188c0.49443,0 0.87115,0.07062 1.13015,0.21188c0.28255,0.11772 0.4709,0.2943 0.56507,0.52975c0.09419,0.23545 0.14126,0.50623 0.14126,0.8123l-0.14126,1.2714c0.18836,-0.35316 0.41203,-0.71811 0.67101,-1.09482c0.28255,-0.37671 0.62394,-0.70633 1.0242,-0.98888c0.40026,-0.30607 0.88291,-0.55328 1.44798,-0.74164c0.58862,-0.18836 1.30673,-0.28252 2.15432,-0.28252c0.42381,0 0.82407,0.03533 1.20078,0.10594c0.37671,0.07062 0.74163,0.17658 1.09482,0.31785c0.35316,0.14127 0.65924,0.30607 0.91824,0.49443c0.25898,0.16481 0.45913,0.35317 0.60039,0.56507c0.16481,0.21191 0.24722,0.45913 0.24722,0.74165c0,0.61217 -0.20013,1.14192 -0.60039,1.58925c-0.40026,0.42381 -0.81227,0.63569 -1.23608,0.63569c-0.35316,0 -0.61217,-0.04707 -0.77698,-0.14126c-0.16481,-0.09417 -0.32962,-0.20015 -0.49443,-0.31787c-0.16481,-0.11772 -0.38847,-0.22366 -0.67102,-0.31785c-0.25898,-0.09417 -0.70633,-0.14126 -1.34204,-0.14126c-0.42381,0 -0.87115,0.08242 -1.34205,0.24723c-0.44734,0.16481 -0.88291,0.41201 -1.30672,0.74163c-0.42381,0.32962 -0.77697,0.75345 -1.05952,1.27143c-0.25898,0.49443 -0.38849,1.07127 -0.38849,1.73051v11.30137c0,0.40026 -0.04709,0.74166 -0.14126,1.0242c-0.07062,0.28252 -0.23543,0.49442 -0.49443,0.63569c-0.25898,0.14127 -0.67104,0.21191 -1.23611,0.21191zM336.26704,173.5949c-1.27141,0 -2.48396,-0.24723 -3.63763,-0.74166c-1.15369,-0.51798 -2.16609,-1.23608 -3.03724,-2.15432c-0.8476,-0.94179 -1.51862,-2.03661 -2.01306,-3.28446c-0.4709,-1.24785 -0.70633,-2.61345 -0.70633,-4.09676c0,-1.45976 0.23545,-2.81358 0.70633,-4.06143c0.49443,-1.24785 1.16546,-2.31913 2.01306,-3.21382c0.87115,-0.91824 1.88355,-1.62459 3.03724,-2.11902c1.15369,-0.51798 2.36622,-0.77697 3.63763,-0.77697c1.36557,0 2.60167,0.25898 3.70827,0.77697c1.13014,0.49443 2.09546,1.20078 2.89598,2.11902c0.80052,0.89469 1.40089,1.97776 1.80115,3.24916c0.42381,1.24785 0.63569,2.60166 0.63569,4.06142c0.0471,1.48331 -0.15303,2.8489 -0.60037,4.09676c-0.42381,1.22431 -1.03598,2.30736 -1.83648,3.24914c-0.77695,0.91824 -1.73054,1.63634 -2.86068,2.15432c-1.1066,0.49443 -2.35445,0.74166 -3.74357,0.74166zM336.79679,169.99259c1.17721,0 2.23674,-0.27075 3.17852,-0.81227c0.94178,-0.56507 1.68342,-1.34204 2.22494,-2.3309c0.56507,-1.01243 0.84762,-2.16609 0.84762,-3.46104c0,-1.3185 -0.28255,-2.47217 -0.84762,-3.46105c-0.54152,-1.01243 -1.28316,-1.80115 -2.22494,-2.36622c-0.94178,-0.56507 -2.00131,-0.84762 -3.17852,-0.84762c-1.17721,0 -2.24851,0.28255 -3.21384,0.84762c-0.94178,0.56507 -1.69519,1.3538 -2.26026,2.36622c-0.54152,0.98888 -0.8123,2.14255 -0.8123,3.46105c0,1.29495 0.27077,2.44862 0.8123,3.46104c0.56507,0.98888 1.33025,1.76583 2.29558,2.3309c0.96533,0.54153 2.02483,0.81227 3.17852,0.81227zM345.06095,173.5949c-0.61217,0 -1.0595,-0.11772 -1.34204,-0.35316c-0.28255,-0.21191 -0.44734,-0.58862 -0.49443,-1.13014v-26.38165c0,-0.42381 0.03533,-0.77697 0.10595,-1.05952c0.07062,-0.28252 0.23545,-0.49443 0.49443,-0.63569c0.25898,-0.16481 0.65926,-0.24723 1.20078,-0.24723c0.54152,0 0.94176,0.08242 1.20076,0.24723c0.25898,0.14127 0.43557,0.35317 0.52974,0.63569c0.09419,0.28252 0.14127,0.62394 0.14127,1.0242v25.95785c0,0.40026 -0.0471,0.75343 -0.14127,1.05952c-0.09419,0.28252 -0.27076,0.49443 -0.52974,0.63569c-0.23545,0.16481 -0.62392,0.24722 -1.16544,0.24722z"/><path d="M189.72178,213.58246c-0.36948,0 -0.65501,-0.05877 -0.85654,-0.17634c-0.20154,-0.10079 -0.32751,-0.25192 -0.37788,-0.45348c-0.0504,-0.21832 -0.07558,-0.47025 -0.07558,-0.75576v-18.28964c0,-0.2519 0.0336,-0.47025 0.10079,-0.65499c0.06718,-0.20154 0.19314,-0.36109 0.37788,-0.47865c0.20154,-0.11757 0.48704,-0.17634 0.85654,-0.17634h6.65079c0.99089,0 1.88943,0.14274 2.69556,0.42827c0.82296,0.28551 1.52833,0.71378 2.11616,1.28482c0.6046,0.55423 1.07487,1.25961 1.41077,2.11615c0.3359,0.85655 0.50383,1.83904 0.50383,2.94752c0,0.70539 -0.11758,1.43596 -0.3527,2.19173c-0.21832,0.75578 -0.5542,1.46954 -1.00768,2.14134c-0.43667,0.65499 -1.0077,1.20084 -1.71309,1.63751c-0.70539,0.43667 -1.56191,0.68859 -2.56961,0.75577h-6.37365v6.12173c0,0.28551 -0.0336,0.52903 -0.10079,0.73057c-0.06718,0.20154 -0.20153,0.35269 -0.40309,0.45348c-0.18474,0.11757 -0.47865,0.17634 -0.88173,0.17634zM202.64543,213.25495c-0.43667,0.28551 -0.79776,0.37789 -1.08327,0.27711c-0.28551,-0.10079 -0.56265,-0.3443 -0.83136,-0.73059l-4.81174,-7.70884l2.9727,-0.45348l4.15673,6.62558c0.20154,0.31909 0.32748,0.58783 0.37788,0.80617c0.0504,0.21832 0.00841,0.41986 -0.12596,0.6046c-0.11757,0.18474 -0.3359,0.37787 -0.65501,0.57943zM191.10735,203.45514h5.97056c0.45348,0 0.88175,-0.08398 1.28482,-0.25192c0.40309,-0.18474 0.75578,-0.44506 1.05808,-0.78097c0.3023,-0.3359 0.53744,-0.75578 0.70539,-1.25961c0.18474,-0.50385 0.27711,-1.10847 0.27711,-1.81386c0,-0.85655 -0.15956,-1.58713 -0.47867,-2.19173c-0.3023,-0.6046 -0.75577,-1.05808 -1.36038,-1.3604c-0.6046,-0.31909 -1.34358,-0.47865 -2.21692,-0.47865h-5.24001zM213.0288,213.73362c-1.19243,0 -2.25892,-0.20153 -3.19944,-0.60462c-0.9405,-0.40309 -1.73828,-0.94891 -2.39327,-1.63751c-0.65499,-0.68859 -1.15884,-1.48634 -1.51154,-2.39327c-0.3359,-0.90692 -0.50385,-1.88104 -0.50385,-2.92233c0,-1.37719 0.31909,-2.60319 0.95731,-3.67809c0.65499,-1.09168 1.54512,-1.94821 2.67038,-2.56961c1.14205,-0.6382 2.44366,-0.95731 3.90482,-0.95731c1.0077,0 1.90623,0.15954 2.69557,0.47865c0.78936,0.3023 1.46116,0.71377 2.01539,1.23444c0.57101,0.52065 1.0077,1.10006 1.31,1.73826c0.3023,0.6382 0.45346,1.27642 0.45346,1.91462c0,1.0245 -0.24353,1.74667 -0.73057,2.16653c-0.48706,0.40309 -1.08326,0.60461 -1.78865,0.60461h-8.69136c-0.01679,0.89013 0.21832,1.65429 0.70539,2.29251c0.50385,0.62141 1.12526,1.10846 1.86425,1.46116c0.75578,0.3359 1.51993,0.50385 2.2925,0.50385c0.55423,0 1.03289,-0.0336 1.43596,-0.10076c0.40309,-0.06718 0.75578,-0.15116 1.05808,-0.25193c0.3023,-0.10079 0.56264,-0.19313 0.78097,-0.27711c0.21832,-0.10079 0.41148,-0.20154 0.57943,-0.3023c0.16795,-0.10079 0.3359,-0.17634 0.50383,-0.22672c0.18474,-0.0336 0.36111,-0.01679 0.52906,0.05039c0.16795,0.06718 0.3023,0.20153 0.40307,0.40309c0.11757,0.16795 0.19316,0.31911 0.22674,0.45347c0.0504,0.13437 0.07558,0.28551 0.07558,0.45346c0,0.28551 -0.24353,0.59623 -0.73057,0.93213c-0.48706,0.3359 -1.15884,0.62141 -2.01539,0.85654c-0.83973,0.2519 -1.80544,0.37788 -2.89712,0.37788zM208.21708,205.34456h7.5577c0.38629,0 0.67181,-0.05038 0.85655,-0.15116c0.18474,-0.10079 0.27712,-0.36948 0.27712,-0.80615c0,-0.57101 -0.16796,-1.08326 -0.50386,-1.53674c-0.3359,-0.45348 -0.80617,-0.81455 -1.41077,-1.08327c-0.58781,-0.28551 -1.25961,-0.42827 -2.01539,-0.42827c-0.87333,0 -1.67948,0.17634 -2.41845,0.52904c-0.73899,0.3527 -1.31842,0.83135 -1.73828,1.43595c-0.41987,0.58781 -0.62141,1.26803 -0.6046,2.04058zM223.72951,213.58246c-0.38629,0 -0.67178,-0.05877 -0.85654,-0.17634c-0.18474,-0.11757 -0.31072,-0.27711 -0.37788,-0.47865c-0.0504,-0.20154 -0.07558,-0.44507 -0.07558,-0.73058v-11.91599c0,-0.28551 0.02518,-0.51224 0.07558,-0.68017c0.06718,-0.18474 0.19314,-0.32749 0.37788,-0.42827c0.20154,-0.10079 0.49544,-0.15116 0.88173,-0.15116c0.43667,0 0.74736,0.08398 0.93212,0.25192c0.20154,0.16795 0.3023,0.46186 0.3023,0.88173l-0.12596,1.31c0.13437,-0.3023 0.34428,-0.60461 0.62981,-0.90691c0.28551,-0.3023 0.62141,-0.57102 1.00769,-0.80616c0.38629,-0.2519 0.79778,-0.44506 1.23444,-0.57943c0.45348,-0.13437 0.90691,-0.20154 1.36038,-0.20154c0.70539,0 1.33519,0.12598 1.88943,0.37788c0.55423,0.2519 1.04968,0.6046 1.48635,1.05808c0.43667,0.45348 0.80615,1.0245 1.10847,1.71309c0.40309,-0.65499 0.83135,-1.21764 1.28481,-1.68788c0.45348,-0.47027 0.96571,-0.83136 1.53674,-1.08327c0.58781,-0.2519 1.24282,-0.37788 1.965,-0.37788c1.14205,0 2.09936,0.28551 2.87193,0.85652c0.77257,0.57101 1.352,1.37719 1.73828,2.41848c0.40309,1.0245 0.60461,2.25893 0.60461,3.70328v6.27289c0,0.28551 -0.02518,0.52903 -0.07558,0.73057c-0.0504,0.20154 -0.17634,0.35269 -0.37788,0.45348c-0.18474,0.11757 -0.47866,0.17634 -0.88173,0.17634c-0.38629,0 -0.67181,-0.05877 -0.85655,-0.17634c-0.18474,-0.11757 -0.3107,-0.27711 -0.37788,-0.47865c-0.0504,-0.20154 -0.07558,-0.44506 -0.07558,-0.73057v-6.29809c0,-0.89013 -0.10918,-1.66268 -0.32751,-2.31769c-0.21832,-0.65499 -0.54583,-1.15884 -0.9825,-1.51154c-0.41987,-0.36948 -0.9657,-0.55423 -1.63749,-0.55423c-0.72217,0 -1.36038,0.17634 -1.91463,0.52904c-0.55423,0.3527 -0.9825,0.86493 -1.28482,1.53674c-0.3023,0.65499 -0.45348,1.42757 -0.45348,2.31771v6.34847c0,0.3023 -0.05877,0.57103 -0.17634,0.80617c-0.11757,0.21832 -0.30232,0.36948 -0.55423,0.45346c-0.23512,0.08398 -0.52065,0.10077 -0.85655,0.05039c-0.31909,-0.0504 -0.56264,-0.13435 -0.73059,-0.25193c-0.15116,-0.11757 -0.2519,-0.26871 -0.3023,-0.45345c-0.0336,-0.20154 -0.05039,-0.41988 -0.05039,-0.655v-6.29809c0,-0.89013 -0.10916,-1.66268 -0.32749,-2.31769c-0.20154,-0.65499 -0.52064,-1.15886 -0.95731,-1.51154c-0.43667,-0.36948 -0.99089,-0.55423 -1.66268,-0.55423c-0.72217,0 -1.3604,0.18474 -1.91462,0.55423c-0.55423,0.36948 -0.9825,0.89013 -1.28482,1.56193c-0.3023,0.65499 -0.45346,1.41077 -0.45346,2.26731v6.32325c0,0.28551 -0.0336,0.52904 -0.10079,0.73058c-0.0504,0.20154 -0.17634,0.35269 -0.37788,0.45346c-0.18474,0.11757 -0.47025,0.17635 -0.85655,0.17635zM259.65991,213.55727c-0.43667,0 -0.75578,-0.09237 -0.95731,-0.27713c-0.18474,-0.18474 -0.29393,-0.46185 -0.32749,-0.83136l0.12595,-1.51154c-0.20153,0.31909 -0.52062,0.6886 -0.95729,1.10847c-0.41987,0.40309 -0.9741,0.76417 -1.66269,1.08326c-0.67181,0.3023 -1.49475,0.45346 -2.46885,0.45346c-0.9741,0 -1.88101,-0.18474 -2.72077,-0.55423c-0.82296,-0.38629 -1.55353,-0.92371 -2.19173,-1.6123c-0.62141,-0.68859 -1.10847,-1.46956 -1.46117,-2.34287c-0.3527,-0.89013 -0.52906,-1.83065 -0.52906,-2.82155c0,-0.99089 0.17636,-1.92299 0.52906,-2.79633c0.3527,-0.87333 0.84815,-1.63751 1.48635,-2.29252c0.65499,-0.67181 1.39396,-1.19243 2.21692,-1.56193c0.83973,-0.38629 1.72988,-0.57941 2.6704,-0.57941c0.87333,0 1.62072,0.11758 2.24213,0.35269c0.62141,0.23512 1.15884,0.53743 1.6123,0.90691c0.45348,0.36948 0.84815,0.78095 1.18405,1.23443l-0.05039,-1.25961c-0.01679,-0.43667 0.07558,-0.74736 0.27711,-0.93212c0.21832,-0.20154 0.55422,-0.3023 1.00768,-0.3023c0.3863,0 0.66341,0.05879 0.83136,0.17634c0.16795,0.11757 0.27711,0.29392 0.3275,0.52904c0.06718,0.21832 0.10077,0.48706 0.10077,0.80617v11.61365c0,0.26871 -0.03361,0.52064 -0.10077,0.75577c-0.05039,0.21832 -0.16795,0.37788 -0.35269,0.47867c-0.16795,0.11757 -0.44506,0.17635 -0.83134,0.17635zM253.86567,211.06322c0.78936,0 1.51993,-0.20993 2.19174,-0.62981c0.67181,-0.43667 1.20082,-1.00771 1.58712,-1.71309c0.40308,-0.70539 0.60462,-1.51993 0.60462,-2.44364c0,-0.9405 -0.20995,-1.76346 -0.62981,-2.46885c-0.40308,-0.72217 -0.94052,-1.2848 -1.6123,-1.68788c-0.67181,-0.41987 -1.41077,-0.6298 -2.21692,-0.6298c-0.9405,0 -1.75504,0.21832 -2.44364,0.65499c-0.68859,0.41987 -1.23445,0.99092 -1.63751,1.71309c-0.40309,0.72217 -0.60462,1.54511 -0.60462,2.46884c0,0.90692 0.20153,1.72149 0.60462,2.44367c0.40309,0.70539 0.95729,1.26801 1.66268,1.68788c0.72217,0.40309 1.55354,0.60462 2.49406,0.60462zM275.71637,211.23956c0.38628,0.3023 0.59625,0.59622 0.62983,0.88175c0.03358,0.26871 -0.10917,0.59623 -0.42828,0.9825c-0.25191,0.28551 -0.47027,0.47025 -0.65501,0.55423c-0.18474,0.08398 -0.37788,0.09237 -0.57941,0.02518c-0.20153,-0.06718 -0.43667,-0.20995 -0.70538,-0.42827l-6.80192,-5.54232v4.50942c0,0.28551 -0.0336,0.52903 -0.10077,0.73057c-0.06718,0.20154 -0.19314,0.3527 -0.37788,0.45348c-0.18474,0.11757 -0.47025,0.17634 -0.85654,0.17634c-0.36948,0 -0.65499,-0.05877 -0.85654,-0.17634c-0.20153,-0.10079 -0.32751,-0.25192 -0.37788,-0.45348c-0.05039,-0.21832 -0.07558,-0.47025 -0.07558,-0.75578v-18.56675c0,-0.26871 0.02519,-0.50385 0.07558,-0.70539c0.06718,-0.20154 0.20153,-0.35267 0.40308,-0.45345c0.20153,-0.11757 0.48704,-0.17635 0.85654,-0.17635c0.40308,0 0.6886,0.05879 0.85655,0.17635c0.18474,0.10079 0.3023,0.26032 0.35269,0.47867c0.06718,0.20154 0.10077,0.44504 0.10077,0.73057v10.63117l4.96288,-4.73616c0.21832,-0.23512 0.43667,-0.39467 0.65499,-0.47865c0.21832,-0.08398 0.42827,-0.09237 0.6298,-0.02518c0.21832,0.0504 0.43667,0.20153 0.65499,0.45346c0.35269,0.40309 0.52064,0.73897 0.50385,1.00769c0,0.26871 -0.17634,0.57942 -0.52904,0.93212l-4.88733,4.585zM285.18939,213.73362c-1.19243,0 -2.25892,-0.20153 -3.19944,-0.60462c-0.94052,-0.40309 -1.73827,-0.94891 -2.39326,-1.63751c-0.65499,-0.68859 -1.15884,-1.48634 -1.51154,-2.39327c-0.3359,-0.90692 -0.50385,-1.88104 -0.50385,-2.92233c0,-1.37719 0.31909,-2.60319 0.95729,-3.67809c0.65499,-1.09168 1.54512,-1.94821 2.6704,-2.56961c1.14206,-0.6382 2.44366,-0.95731 3.90483,-0.95731c1.00768,0 1.90623,0.15954 2.69557,0.47865c0.78936,0.3023 1.46116,0.71377 2.01537,1.23444c0.57101,0.52065 1.00768,1.10006 1.31,1.73826c0.3023,0.6382 0.45346,1.27642 0.45346,1.91462c0,1.0245 -0.24351,1.74667 -0.73057,2.16653c-0.48706,0.40309 -1.08329,0.60461 -1.78867,0.60461h-8.69136c-0.01679,0.89013 0.21832,1.65429 0.70538,2.29251c0.50385,0.62141 1.12527,1.10846 1.86423,1.46116c0.75578,0.3359 1.51993,0.50385 2.2925,0.50385c0.55422,0 1.03289,-0.0336 1.43596,-0.10076c0.40308,-0.06718 0.75578,-0.15116 1.05808,-0.25193c0.3023,-0.10079 0.56264,-0.19313 0.78097,-0.27711c0.21832,-0.10079 0.41148,-0.20154 0.57943,-0.3023c0.16795,-0.10079 0.33588,-0.17634 0.50383,-0.22672c0.18474,-0.0336 0.36109,-0.01679 0.52904,0.05039c0.16795,0.06718 0.3023,0.20153 0.40308,0.40309c0.11756,0.16795 0.19316,0.31911 0.22674,0.45347c0.05039,0.13437 0.07558,0.28551 0.07558,0.45346c0,0.28551 -0.24353,0.59623 -0.73059,0.93213c-0.48706,0.3359 -1.15885,0.62141 -2.01537,0.85654c-0.83974,0.2519 -1.80546,0.37788 -2.89712,0.37788zM280.37763,205.34456h7.5577c0.38628,0 0.67181,-0.05038 0.85655,-0.15116c0.18474,-0.10079 0.27711,-0.36948 0.27711,-0.80615c0,-0.57101 -0.16796,-1.08326 -0.50385,-1.53674c-0.3359,-0.45348 -0.80617,-0.81455 -1.41077,-1.08327c-0.58783,-0.28551 -1.2596,-0.42827 -2.01536,-0.42827c-0.87333,0 -1.67949,0.17634 -2.41845,0.52904c-0.73897,0.3527 -1.31843,0.83135 -1.73828,1.43595c-0.41985,0.58781 -0.62141,1.26803 -0.6046,2.04058z"/></g><g fill="#82b0ff" fill-rule="nonzero" stroke="#82b0ff" stroke-width="1.5"><path d="M134.97439,173.5949c-0.54153,0 -0.95354,-0.08241 -1.23608,-0.24722c-0.25898,-0.14127 -0.43558,-0.35317 -0.52975,-0.63569c-0.07062,-0.30607 -0.10594,-0.65926 -0.10594,-1.05952v-25.60466c0,-0.72988 0.14127,-1.22431 0.42379,-1.48331c0.30607,-0.25898 0.83582,-0.38849 1.58925,-0.38849h16.95206c0.40026,0 0.72988,0.04707 0.98888,0.14126c0.25898,0.07062 0.45913,0.24722 0.60037,0.52975c0.14127,0.28252 0.2119,0.69456 0.2119,1.23609c0,0.56507 -0.08241,0.98888 -0.24722,1.27143c-0.14127,0.25898 -0.35317,0.43558 -0.63572,0.52975c-0.28252,0.07062 -0.61216,0.10594 -0.98888,0.10594h-15.11558v8.72325h10.52442c0.37671,0 0.69456,0.04709 0.95354,0.14126c0.28252,0.09417 0.49445,0.27077 0.63571,0.52975c0.14127,0.23545 0.21188,0.62392 0.21188,1.16544c0,0.49443 -0.07062,0.87114 -0.21188,1.13014c-0.14127,0.25898 -0.35317,0.42381 -0.63571,0.49443c-0.25898,0.07062 -0.60037,0.10596 -1.02418,0.10596h-10.45377v11.40732c0,0.40026 -0.04707,0.74165 -0.14126,1.0242c-0.07062,0.28252 -0.24722,0.49443 -0.52975,0.63569c-0.25898,0.16481 -0.67104,0.24722 -1.23611,0.24722zM165.57337,173.5949c-0.89469,0 -1.70696,-0.08241 -2.43686,-0.24722c-0.70633,-0.14127 -1.33027,-0.37671 -1.8718,-0.70633c-0.54153,-0.35316 -0.98886,-0.78875 -1.34202,-1.30673c-0.35316,-0.54153 -0.61217,-1.18899 -0.77698,-1.94242c-0.14127,-0.77697 -0.21188,-1.67166 -0.21188,-2.68407v-21.08411c0,-0.42381 0.03532,-0.76518 0.10594,-1.02418c0.07062,-0.28252 0.24723,-0.5062 0.52975,-0.67101c0.28252,-0.16481 0.68279,-0.24722 1.20078,-0.24722c0.54153,0 0.94176,0.07064 1.20078,0.21191c0.28252,0.14127 0.45913,0.35316 0.52975,0.63569c0.09417,0.28252 0.14127,0.62394 0.14127,1.0242v21.11944c0,0.56507 0.05887,1.05949 0.17659,1.48331c0.11772,0.40026 0.2943,0.74164 0.52975,1.02418c0.23545,0.28252 0.52975,0.48268 0.88291,0.60039c0.37671,0.09417 0.82407,0.14126 1.34205,0.14126c0.32962,0 0.61216,0.0471 0.84759,0.14127c0.23545,0.07062 0.42381,0.23544 0.56507,0.49443c0.14127,0.25898 0.21191,0.64747 0.21191,1.16547c0,0.56507 -0.07064,0.98886 -0.21191,1.2714c-0.14127,0.25898 -0.32962,0.42381 -0.56507,0.49443c-0.23545,0.07062 -0.51797,0.10594 -0.84759,0.10594zM188.37083,173.55958c-0.61217,0 -1.05952,-0.12949 -1.34204,-0.38849c-0.25898,-0.25898 -0.41204,-0.64748 -0.45911,-1.16546l0.17658,-2.119c-0.28252,0.44734 -0.72988,0.96533 -1.34204,1.55395c-0.58862,0.56507 -1.36558,1.07127 -2.33091,1.5186c-0.94179,0.42381 -2.09546,0.63572 -3.46105,0.63572c-1.36557,0 -2.637,-0.25898 -3.81421,-0.77697c-1.15367,-0.54153 -2.17789,-1.29494 -3.07258,-2.26027c-0.87115,-0.96533 -1.55393,-2.06015 -2.04836,-3.28448c-0.49443,-1.24785 -0.74165,-2.56636 -0.74165,-3.95548c0,-1.38912 0.24722,-2.69586 0.74165,-3.92015c0.49443,-1.22431 1.18899,-2.2956 2.08368,-3.21384c0.91824,-0.94179 1.95418,-1.67166 3.10788,-2.18964c1.17721,-0.54153 2.42509,-0.81228 3.74359,-0.81228c1.22431,0 2.27205,0.16481 3.1432,0.49443c0.87115,0.32962 1.62457,0.75343 2.26026,1.27141c0.63571,0.51798 1.18902,1.09482 1.6599,1.73051l-0.07064,-1.76584c-0.02355,-0.61217 0.10596,-1.04773 0.38849,-1.30673c0.30607,-0.28252 0.77696,-0.42379 1.41267,-0.42379c0.54153,0 0.93001,0.08242 1.16546,0.24723c0.23545,0.16481 0.38849,0.41203 0.45913,0.74165c0.09417,0.30607 0.14127,0.68281 0.14127,1.13014v16.28103c0,0.37671 -0.04708,0.72988 -0.14127,1.0595c-0.07062,0.30607 -0.23545,0.52975 -0.49445,0.67101c-0.23545,0.16481 -0.62391,0.24723 -1.16544,0.24723zM180.24798,170.06322c1.10659,0 2.13077,-0.2943 3.07255,-0.88292c0.94179,-0.61217 1.68341,-1.41267 2.22496,-2.40154c0.56507,-0.98888 0.84762,-2.13077 0.84762,-3.42572c0,-1.3185 -0.2943,-2.47216 -0.88292,-3.46104c-0.56507,-1.01243 -1.31849,-1.80116 -2.26028,-2.36623c-0.94179,-0.58862 -1.97774,-0.88292 -3.10788,-0.88292c-1.3185,0 -2.4604,0.30607 -3.42572,0.91824c-0.96533,0.58862 -1.73051,1.38912 -2.29558,2.40152c-0.56507,1.01243 -0.84761,2.1661 -0.84761,3.46105c0,1.2714 0.28254,2.41332 0.84761,3.42573c0.56507,0.98888 1.34203,1.7776 2.33091,2.36622c1.01243,0.56507 2.17786,0.8476 3.49636,0.8476zM205.54741,173.41832c-1.38912,0 -2.64875,-0.24723 -3.77889,-0.74166c-1.10659,-0.51798 -2.06015,-1.22431 -2.86067,-2.119c-0.77697,-0.91824 -1.38914,-2.00131 -1.83648,-3.24916c-0.42381,-1.24785 -0.62392,-2.61343 -0.60037,-4.09673c0,-1.45976 0.2119,-2.80181 0.63571,-4.02612c0.42381,-1.24785 1.03596,-2.33091 1.83648,-3.24914c0.80052,-0.91824 1.75408,-1.6128 2.86066,-2.0837c1.10659,-0.49443 2.35445,-0.74164 3.74357,-0.74164c1.29495,0 2.50748,0.25898 3.63762,0.77697c1.13014,0.49443 2.11902,1.20076 2.96661,2.119c0.87115,0.89469 1.55393,1.97774 2.04836,3.24914c0.49443,1.2714 0.74166,2.637 0.74166,4.09676c0,1.45976 -0.24723,2.81359 -0.74166,4.06144c-0.49443,1.22431 -1.17721,2.28381 -2.04836,3.17852c-0.8476,0.89469 -1.83647,1.58925 -2.96661,2.08367c-1.13014,0.49443 -2.34267,0.74166 -3.63762,0.74166zM196.75353,181.89436c-0.51798,0 -0.91822,-0.08241 -1.20078,-0.24722c-0.25898,-0.14127 -0.43558,-0.35317 -0.52975,-0.63571c-0.09417,-0.28252 -0.14126,-0.62392 -0.14126,-1.02418v-24.89833c0,-0.40026 0.03532,-0.74165 0.10594,-1.0242c0.09417,-0.28252 0.27077,-0.49443 0.52975,-0.63569c0.28252,-0.16481 0.68279,-0.24723 1.20079,-0.24723c0.61217,0 1.07127,0.10594 1.37736,0.31785c0.30607,0.18836 0.48267,0.52975 0.52975,1.02418v25.4281c0.02355,0.40026 -0.01178,0.74165 -0.10594,1.02419c-0.07062,0.30607 -0.24722,0.52975 -0.52974,0.67102c-0.25898,0.16481 -0.67104,0.24722 -1.23611,0.24722zM204.98234,169.95727c1.17721,0 2.24849,-0.28252 3.21382,-0.84759c0.96533,-0.58862 1.71874,-1.38912 2.26026,-2.40154c0.54153,-1.01243 0.81229,-2.1661 0.81229,-3.46105c0,-1.3185 -0.27077,-2.4604 -0.81229,-3.42572c-0.54153,-0.98888 -1.28317,-1.75408 -2.22496,-2.2956c-0.94179,-0.56507 -2.02481,-0.84759 -3.24914,-0.84759c-1.17721,0 -2.23673,0.28252 -3.17852,0.84759c-0.94179,0.56507 -1.68341,1.34204 -2.22496,2.3309c-0.54153,0.96533 -0.81227,2.09547 -0.81227,3.39042c0,1.29495 0.27075,2.44864 0.81227,3.46105c0.54153,1.01243 1.28315,1.81293 2.22496,2.40154c0.94179,0.56507 2.00128,0.84759 3.17852,0.84759zM229.75197,173.41832c-1.38912,0 -2.64875,-0.24723 -3.77889,-0.74166c-1.10659,-0.51798 -2.06016,-1.22431 -2.86066,-2.119c-0.77697,-0.91824 -1.38912,-2.00131 -1.83647,-3.24916c-0.42381,-1.24785 -0.62392,-2.61343 -0.60037,-4.09673c0,-1.45976 0.2119,-2.80181 0.63569,-4.02612c0.42381,-1.24785 1.03598,-2.33091 1.83648,-3.24914c0.80052,-0.91824 1.75408,-1.6128 2.86066,-2.0837c1.10659,-0.49443 2.35445,-0.74164 3.74357,-0.74164c1.29495,0 2.50749,0.25898 3.63763,0.77697c1.13014,0.49443 2.11902,1.20076 2.96661,2.119c0.87115,0.89469 1.55394,1.97774 2.04837,3.24914c0.49443,1.2714 0.74164,2.637 0.74164,4.09676c0,1.45976 -0.24721,2.81359 -0.74164,4.06144c-0.49443,1.22431 -1.17723,2.28381 -2.04837,3.17852c-0.8476,0.89469 -1.83647,1.58925 -2.96661,2.08367c-1.13014,0.49443 -2.34268,0.74166 -3.63763,0.74166zM220.95808,181.89436c-0.51798,0 -0.91824,-0.08241 -1.20078,-0.24722c-0.25898,-0.14127 -0.43558,-0.35317 -0.52975,-0.63571c-0.09417,-0.28252 -0.14127,-0.62392 -0.14127,-1.02418v-24.89833c0,-0.40026 0.03533,-0.74165 0.10594,-1.0242c0.09417,-0.28252 0.27077,-0.49443 0.52975,-0.63569c0.28252,-0.16481 0.68278,-0.24723 1.20078,-0.24723c0.61217,0 1.07127,0.10594 1.37734,0.31785c0.30607,0.18836 0.48268,0.52975 0.52975,1.02418v25.4281c0.02355,0.40026 -0.01177,0.74165 -0.10594,1.02419c-0.07062,0.30607 -0.24723,0.52975 -0.52975,0.67102c-0.25898,0.16481 -0.67102,0.24722 -1.23609,0.24722zM229.1869,169.95727c1.17721,0 2.24849,-0.28252 3.21382,-0.84759c0.96533,-0.58862 1.71876,-1.38912 2.26028,-2.40154c0.54153,-1.01243 0.81227,-2.1661 0.81227,-3.46105c0,-1.3185 -0.27075,-2.4604 -0.81227,-3.42572c-0.54153,-0.98888 -1.28317,-1.75408 -2.22496,-2.2956c-0.94179,-0.56507 -2.02483,-0.84759 -3.24916,-0.84759c-1.17721,0 -2.23672,0.28252 -3.17852,0.84759c-0.94179,0.56507 -1.68343,1.34204 -2.22496,2.3309c-0.54153,0.96533 -0.81227,2.09547 -0.81227,3.39042c0,1.29495 0.27075,2.44864 0.81227,3.46105c0.54153,1.01243 1.28317,1.81293 2.22496,2.40154c0.94179,0.56507 2.00128,0.84759 3.17852,0.84759zM246.86356,181.78839c-0.68278,-0.28252 -1.08305,-0.61216 -1.20078,-0.98887c-0.09417,-0.35316 0.01177,-0.85937 0.31784,-1.51861l11.16011,-25.07491c0.30607,-0.65924 0.63572,-1.05952 0.98888,-1.20078c0.35316,-0.16481 0.85936,-0.10594 1.51862,0.17658c0.65924,0.30607 1.03598,0.64747 1.13015,1.02418c0.11771,0.35316 0.03532,0.83582 -0.24723,1.44799l-11.26606,25.25151c-0.28252,0.63571 -0.60039,1.01243 -0.95355,1.13014c-0.32962,0.11772 -0.81227,0.03532 -1.44798,-0.24723zM251.03096,170.91083l-9.64148,-14.90368c-0.37671,-0.56507 -0.52975,-1.03595 -0.45913,-1.41267c0.09417,-0.37671 0.42381,-0.75342 0.98888,-1.13014c0.63571,-0.37671 1.14191,-0.51798 1.51861,-0.42381c0.37671,0.09417 0.7652,0.42381 1.16546,0.98888l8.15818,12.8553zM276.75288,173.5949c-0.49443,0 -0.88291,-0.09417 -1.16546,-0.28252c-0.25898,-0.18836 -0.43558,-0.44733 -0.52975,-0.77697c-0.07062,-0.35316 -0.10594,-0.74165 -0.10594,-1.16546v-25.07491c0,-0.40026 0.04707,-0.7652 0.14126,-1.09484c0.09419,-0.32962 0.27077,-0.57684 0.52975,-0.74165c0.28255,-0.18836 0.67103,-0.28253 1.16546,-0.28253h11.7958c1.55393,0 2.93129,0.35317 4.13206,1.05952c1.20076,0.68278 2.13077,1.63634 2.79003,2.86065c0.68279,1.20078 1.01241,2.51928 0.98888,3.95548c0.02355,0.72988 -0.07062,1.44798 -0.28254,2.15432c-0.18836,0.70633 -0.4709,1.36558 -0.8476,1.97774c-0.37671,0.58862 -0.84762,1.08304 -1.41269,1.48331c0.77695,0.47088 1.42447,1.08305 1.94242,1.83647c0.54152,0.75342 0.95355,1.60102 1.2361,2.54281c0.28255,0.91824 0.42381,1.88357 0.42381,2.89598c-0.02355,1.22431 -0.24723,2.36622 -0.67104,3.42572c-0.42381,1.03598 -1.03595,1.95419 -1.83647,2.75472c-0.77695,0.77697 -1.68344,1.38912 -2.7194,1.83647c-1.03598,0.42381 -2.15434,0.63572 -3.3551,0.63572zM278.73062,169.95727h9.85338c1.08305,0 2.01306,-0.2119 2.79003,-0.63569c0.80052,-0.42381 1.41267,-1.03598 1.83648,-1.83648c0.42381,-0.82407 0.63569,-1.8247 0.63569,-3.00191c0,-1.01243 -0.14126,-1.8247 -0.42381,-2.43687c-0.28255,-0.61217 -0.67101,-1.08305 -1.16546,-1.41269c-0.4709,-0.32962 -0.97709,-0.56507 -1.51861,-0.70633c-0.54152,-0.14127 -1.07128,-0.21188 -1.58925,-0.21188c-0.51797,-0.02355 -0.98888,-0.03532 -1.41269,-0.03532h-2.57812c-0.56507,0 -0.97708,-0.14127 -1.23609,-0.42379c-0.25898,-0.28252 -0.38849,-0.72988 -0.38849,-1.34205c0,-0.58862 0.12948,-1.01241 0.38849,-1.2714c0.28255,-0.25898 0.70634,-0.38847 1.27141,-0.38847h2.57813c0.44734,0 0.95356,-0.01177 1.51863,-0.03532c0.56507,-0.02355 1.11835,-0.12949 1.65987,-0.31785c0.54152,-0.21191 0.98888,-0.58862 1.34204,-1.13014c0.35316,-0.54153 0.52975,-1.31849 0.52975,-2.3309c0,-1.57747 -0.42381,-2.74294 -1.27141,-3.49637c-0.8476,-0.75342 -2.23673,-1.13014 -4.16737,-1.13014h-8.6526zM304.22127,173.5949c-0.54152,0 -0.95354,-0.08241 -1.23609,-0.24722c-0.25898,-0.14127 -0.43558,-0.35317 -0.52975,-0.63569c-0.07062,-0.28252 -0.10594,-0.62394 -0.10594,-1.0242v-16.63421c0,-0.40026 0.03532,-0.74164 0.10594,-1.02418c0.09419,-0.28252 0.27077,-0.49445 0.52975,-0.63572c0.28255,-0.14127 0.70634,-0.21188 1.27141,-0.21188c0.54152,0 0.93001,0.08242 1.16546,0.24723c0.25898,0.14127 0.42381,0.35317 0.49443,0.63569c0.09419,0.28252 0.14127,0.63571 0.14127,1.05952v16.59887c0,0.40026 -0.0471,0.74166 -0.14127,1.0242c-0.07062,0.28252 -0.24722,0.49442 -0.52975,0.63569c-0.25898,0.14127 -0.64747,0.21191 -1.16544,0.21191zM304.22127,148.13151c-0.63569,0 -1.1066,-0.09417 -1.41269,-0.28252c-0.30607,-0.18836 -0.50622,-0.44734 -0.60037,-0.77698c-0.09419,-0.32962 -0.14126,-0.72988 -0.14126,-1.20078c0,-0.44734 0.04709,-0.82407 0.14126,-1.13014c0.11771,-0.32962 0.32963,-0.56507 0.63569,-0.70634c0.32962,-0.16481 0.8005,-0.24722 1.41267,-0.24722c0.58862,0 1.03598,0.08241 1.34204,0.24722c0.30607,0.16481 0.50622,0.42381 0.60037,0.77698c0.11771,0.32962 0.17658,0.71811 0.17658,1.16546c0,0.44734 -0.05887,0.83582 -0.17658,1.16546c-0.09419,0.30607 -0.2943,0.5533 -0.60037,0.74166c-0.30607,0.16481 -0.7652,0.24723 -1.37736,0.24723zM313.4551,173.5949c-0.54152,0 -0.95355,-0.08241 -1.2361,-0.24722c-0.25898,-0.14127 -0.42381,-0.35317 -0.49443,-0.63569c-0.07062,-0.30607 -0.10595,-0.65926 -0.10595,-1.05952v-16.59889c0,-0.42381 0.04707,-0.77695 0.14126,-1.0595c0.09419,-0.28252 0.25898,-0.48268 0.49443,-0.6004c0.25898,-0.14127 0.67103,-0.21188 1.2361,-0.21188c0.49443,0 0.87115,0.07062 1.13015,0.21188c0.28255,0.11772 0.4709,0.2943 0.56507,0.52975c0.09419,0.23545 0.14126,0.50623 0.14126,0.8123l-0.14126,1.2714c0.18836,-0.35316 0.41203,-0.71811 0.67101,-1.09482c0.28255,-0.37671 0.62394,-0.70633 1.0242,-0.98888c0.40026,-0.30607 0.88291,-0.55328 1.44798,-0.74164c0.58862,-0.18836 1.30673,-0.28252 2.15432,-0.28252c0.42381,0 0.82407,0.03533 1.20078,0.10594c0.37671,0.07062 0.74163,0.17658 1.09482,0.31785c0.35316,0.14127 0.65924,0.30607 0.91824,0.49443c0.25898,0.16481 0.45913,0.35317 0.60039,0.56507c0.16481,0.21191 0.24722,0.45913 0.24722,0.74165c0,0.61217 -0.20013,1.14192 -0.60039,1.58925c-0.40026,0.42381 -0.81227,0.63569 -1.23608,0.63569c-0.35316,0 -0.61217,-0.04707 -0.77698,-0.14126c-0.16481,-0.09417 -0.32962,-0.20015 -0.49443,-0.31787c-0.16481,-0.11772 -0.38847,-0.22366 -0.67102,-0.31785c-0.25898,-0.09417 -0.70633,-0.14126 -1.34204,-0.14126c-0.42381,0 -0.87115,0.08242 -1.34205,0.24723c-0.44734,0.16481 -0.88291,0.41201 -1.30672,0.74163c-0.42381,0.32962 -0.77697,0.75345 -1.05952,1.27143c-0.25898,0.49443 -0.38849,1.07127 -0.38849,1.73051v11.30137c0,0.40026 -0.04709,0.74166 -0.14126,1.0242c-0.07062,0.28252 -0.23543,0.49442 -0.49443,0.63569c-0.25898,0.14127 -0.67104,0.21191 -1.23611,0.21191zM336.26704,173.5949c-1.27141,0 -2.48396,-0.24723 -3.63763,-0.74166c-1.15369,-0.51798 -2.16609,-1.23608 -3.03724,-2.15432c-0.8476,-0.94179 -1.51862,-2.03661 -2.01306,-3.28446c-0.4709,-1.24785 -0.70633,-2.61345 -0.70633,-4.09676c0,-1.45976 0.23545,-2.81358 0.70633,-4.06143c0.49443,-1.24785 1.16546,-2.31913 2.01306,-3.21382c0.87115,-0.91824 1.88355,-1.62459 3.03724,-2.11902c1.15369,-0.51798 2.36622,-0.77697 3.63763,-0.77697c1.36557,0 2.60167,0.25898 3.70827,0.77697c1.13014,0.49443 2.09546,1.20078 2.89598,2.11902c0.80052,0.89469 1.40089,1.97776 1.80115,3.24916c0.42381,1.24785 0.63569,2.60166 0.63569,4.06142c0.0471,1.48331 -0.15303,2.8489 -0.60037,4.09676c-0.42381,1.22431 -1.03598,2.30736 -1.83648,3.24914c-0.77695,0.91824 -1.73054,1.63634 -2.86068,2.15432c-1.1066,0.49443 -2.35445,0.74166 -3.74357,0.74166zM336.79679,169.99259c1.17721,0 2.23674,-0.27075 3.17852,-0.81227c0.94178,-0.56507 1.68342,-1.34204 2.22494,-2.3309c0.56507,-1.01243 0.84762,-2.16609 0.84762,-3.46104c0,-1.3185 -0.28255,-2.47217 -0.84762,-3.46105c-0.54152,-1.01243 -1.28316,-1.80115 -2.22494,-2.36622c-0.94178,-0.56507 -2.00131,-0.84762 -3.17852,-0.84762c-1.17721,0 -2.24851,0.28255 -3.21384,0.84762c-0.94178,0.56507 -1.69519,1.3538 -2.26026,2.36622c-0.54152,0.98888 -0.8123,2.14255 -0.8123,3.46105c0,1.29495 0.27077,2.44862 0.8123,3.46104c0.56507,0.98888 1.33025,1.76583 2.29558,2.3309c0.96533,0.54153 2.02483,0.81227 3.17852,0.81227zM345.06095,173.5949c-0.61217,0 -1.0595,-0.11772 -1.34204,-0.35316c-0.28255,-0.21191 -0.44734,-0.58862 -0.49443,-1.13014v-26.38165c0,-0.42381 0.03533,-0.77697 0.10595,-1.05952c0.07062,-0.28252 0.23545,-0.49443 0.49443,-0.63569c0.25898,-0.16481 0.65926,-0.24723 1.20078,-0.24723c0.54152,0 0.94176,0.08242 1.20076,0.24723c0.25898,0.14127 0.43557,0.35317 0.52974,0.63569c0.09419,0.28252 0.14127,0.62394 0.14127,1.0242v25.95785c0,0.40026 -0.0471,0.75343 -0.14127,1.05952c-0.09419,0.28252 -0.27076,0.49443 -0.52974,0.63569c-0.23545,0.16481 -0.62392,0.24722 -1.16544,0.24722z"/><path d="M189.72178,213.58246c-0.36948,0 -0.65501,-0.05877 -0.85654,-0.17634c-0.20154,-0.10079 -0.32751,-0.25192 -0.37788,-0.45348c-0.0504,-0.21832 -0.07558,-0.47025 -0.07558,-0.75576v-18.28964c0,-0.2519 0.0336,-0.47025 0.10079,-0.65499c0.06718,-0.20154 0.19314,-0.36109 0.37788,-0.47865c0.20154,-0.11757 0.48704,-0.17634 0.85654,-0.17634h6.65079c0.99089,0 1.88943,0.14274 2.69556,0.42827c0.82296,0.28551 1.52833,0.71378 2.11616,1.28482c0.6046,0.55423 1.07487,1.25961 1.41077,2.11615c0.3359,0.85655 0.50383,1.83904 0.50383,2.94752c0,0.70539 -0.11758,1.43596 -0.3527,2.19173c-0.21832,0.75578 -0.5542,1.46954 -1.00768,2.14134c-0.43667,0.65499 -1.0077,1.20084 -1.71309,1.63751c-0.70539,0.43667 -1.56191,0.68859 -2.56961,0.75577h-6.37365v6.12173c0,0.28551 -0.0336,0.52903 -0.10079,0.73057c-0.06718,0.20154 -0.20153,0.35269 -0.40309,0.45348c-0.18474,0.11757 -0.47865,0.17634 -0.88173,0.17634zM202.64543,213.25495c-0.43667,0.28551 -0.79776,0.37789 -1.08327,0.27711c-0.28551,-0.10079 -0.56265,-0.3443 -0.83136,-0.73059l-4.81174,-7.70884l2.9727,-0.45348l4.15673,6.62558c0.20154,0.31909 0.32748,0.58783 0.37788,0.80617c0.0504,0.21832 0.00841,0.41986 -0.12596,0.6046c-0.11757,0.18474 -0.3359,0.37787 -0.65501,0.57943zM191.10735,203.45514h5.97056c0.45348,0 0.88175,-0.08398 1.28482,-0.25192c0.40309,-0.18474 0.75578,-0.44506 1.05808,-0.78097c0.3023,-0.3359 0.53744,-0.75578 0.70539,-1.25961c0.18474,-0.50385 0.27711,-1.10847 0.27711,-1.81386c0,-0.85655 -0.15956,-1.58713 -0.47867,-2.19173c-0.3023,-0.6046 -0.75577,-1.05808 -1.36038,-1.3604c-0.6046,-0.31909 -1.34358,-0.47865 -2.21692,-0.47865h-5.24001zM213.0288,213.73362c-1.19243,0 -2.25892,-0.20153 -3.19944,-0.60462c-0.9405,-0.40309 -1.73828,-0.94891 -2.39327,-1.63751c-0.65499,-0.68859 -1.15884,-1.48634 -1.51154,-2.39327c-0.3359,-0.90692 -0.50385,-1.88104 -0.50385,-2.92233c0,-1.37719 0.31909,-2.60319 0.95731,-3.67809c0.65499,-1.09168 1.54512,-1.94821 2.67038,-2.56961c1.14205,-0.6382 2.44366,-0.95731 3.90482,-0.95731c1.0077,0 1.90623,0.15954 2.69557,0.47865c0.78936,0.3023 1.46116,0.71377 2.01539,1.23444c0.57101,0.52065 1.0077,1.10006 1.31,1.73826c0.3023,0.6382 0.45346,1.27642 0.45346,1.91462c0,1.0245 -0.24353,1.74667 -0.73057,2.16653c-0.48706,0.40309 -1.08326,0.60461 -1.78865,0.60461h-8.69136c-0.01679,0.89013 0.21832,1.65429 0.70539,2.29251c0.50385,0.62141 1.12526,1.10846 1.86425,1.46116c0.75578,0.3359 1.51993,0.50385 2.2925,0.50385c0.55423,0 1.03289,-0.0336 1.43596,-0.10076c0.40309,-0.06718 0.75578,-0.15116 1.05808,-0.25193c0.3023,-0.10079 0.56264,-0.19313 0.78097,-0.27711c0.21832,-0.10079 0.41148,-0.20154 0.57943,-0.3023c0.16795,-0.10079 0.3359,-0.17634 0.50383,-0.22672c0.18474,-0.0336 0.36111,-0.01679 0.52906,0.05039c0.16795,0.06718 0.3023,0.20153 0.40307,0.40309c0.11757,0.16795 0.19316,0.31911 0.22674,0.45347c0.0504,0.13437 0.07558,0.28551 0.07558,0.45346c0,0.28551 -0.24353,0.59623 -0.73057,0.93213c-0.48706,0.3359 -1.15884,0.62141 -2.01539,0.85654c-0.83973,0.2519 -1.80544,0.37788 -2.89712,0.37788zM208.21708,205.34456h7.5577c0.38629,0 0.67181,-0.05038 0.85655,-0.15116c0.18474,-0.10079 0.27712,-0.36948 0.27712,-0.80615c0,-0.57101 -0.16796,-1.08326 -0.50386,-1.53674c-0.3359,-0.45348 -0.80617,-0.81455 -1.41077,-1.08327c-0.58781,-0.28551 -1.25961,-0.42827 -2.01539,-0.42827c-0.87333,0 -1.67948,0.17634 -2.41845,0.52904c-0.73899,0.3527 -1.31842,0.83135 -1.73828,1.43595c-0.41987,0.58781 -0.62141,1.26803 -0.6046,2.04058zM223.72951,213.58246c-0.38629,0 -0.67178,-0.05877 -0.85654,-0.17634c-0.18474,-0.11757 -0.31072,-0.27711 -0.37788,-0.47865c-0.0504,-0.20154 -0.07558,-0.44507 -0.07558,-0.73058v-11.91599c0,-0.28551 0.02518,-0.51224 0.07558,-0.68017c0.06718,-0.18474 0.19314,-0.32749 0.37788,-0.42827c0.20154,-0.10079 0.49544,-0.15116 0.88173,-0.15116c0.43667,0 0.74736,0.08398 0.93212,0.25192c0.20154,0.16795 0.3023,0.46186 0.3023,0.88173l-0.12596,1.31c0.13437,-0.3023 0.34428,-0.60461 0.62981,-0.90691c0.28551,-0.3023 0.62141,-0.57102 1.00769,-0.80616c0.38629,-0.2519 0.79778,-0.44506 1.23444,-0.57943c0.45348,-0.13437 0.90691,-0.20154 1.36038,-0.20154c0.70539,0 1.33519,0.12598 1.88943,0.37788c0.55423,0.2519 1.04968,0.6046 1.48635,1.05808c0.43667,0.45348 0.80615,1.0245 1.10847,1.71309c0.40309,-0.65499 0.83135,-1.21764 1.28481,-1.68788c0.45348,-0.47027 0.96571,-0.83136 1.53674,-1.08327c0.58781,-0.2519 1.24282,-0.37788 1.965,-0.37788c1.14205,0 2.09936,0.28551 2.87193,0.85652c0.77257,0.57101 1.352,1.37719 1.73828,2.41848c0.40309,1.0245 0.60461,2.25893 0.60461,3.70328v6.27289c0,0.28551 -0.02518,0.52903 -0.07558,0.73057c-0.0504,0.20154 -0.17634,0.35269 -0.37788,0.45348c-0.18474,0.11757 -0.47866,0.17634 -0.88173,0.17634c-0.38629,0 -0.67181,-0.05877 -0.85655,-0.17634c-0.18474,-0.11757 -0.3107,-0.27711 -0.37788,-0.47865c-0.0504,-0.20154 -0.07558,-0.44506 -0.07558,-0.73057v-6.29809c0,-0.89013 -0.10918,-1.66268 -0.32751,-2.31769c-0.21832,-0.65499 -0.54583,-1.15884 -0.9825,-1.51154c-0.41987,-0.36948 -0.9657,-0.55423 -1.63749,-0.55423c-0.72217,0 -1.36038,0.17634 -1.91463,0.52904c-0.55423,0.3527 -0.9825,0.86493 -1.28482,1.53674c-0.3023,0.65499 -0.45348,1.42757 -0.45348,2.31771v6.34847c0,0.3023 -0.05877,0.57103 -0.17634,0.80617c-0.11757,0.21832 -0.30232,0.36948 -0.55423,0.45346c-0.23512,0.08398 -0.52065,0.10077 -0.85655,0.05039c-0.31909,-0.0504 -0.56264,-0.13435 -0.73059,-0.25193c-0.15116,-0.11757 -0.2519,-0.26871 -0.3023,-0.45345c-0.0336,-0.20154 -0.05039,-0.41988 -0.05039,-0.655v-6.29809c0,-0.89013 -0.10916,-1.66268 -0.32749,-2.31769c-0.20154,-0.65499 -0.52064,-1.15886 -0.95731,-1.51154c-0.43667,-0.36948 -0.99089,-0.55423 -1.66268,-0.55423c-0.72217,0 -1.3604,0.18474 -1.91462,0.55423c-0.55423,0.36948 -0.9825,0.89013 -1.28482,1.56193c-0.3023,0.65499 -0.45346,1.41077 -0.45346,2.26731v6.32325c0,0.28551 -0.0336,0.52904 -0.10079,0.73058c-0.0504,0.20154 -0.17634,0.35269 -0.37788,0.45346c-0.18474,0.11757 -0.47025,0.17635 -0.85655,0.17635zM259.65991,213.55727c-0.43667,0 -0.75578,-0.09237 -0.95731,-0.27713c-0.18474,-0.18474 -0.29393,-0.46185 -0.32749,-0.83136l0.12595,-1.51154c-0.20153,0.31909 -0.52062,0.6886 -0.95729,1.10847c-0.41987,0.40309 -0.9741,0.76417 -1.66269,1.08326c-0.67181,0.3023 -1.49475,0.45346 -2.46885,0.45346c-0.9741,0 -1.88101,-0.18474 -2.72077,-0.55423c-0.82296,-0.38629 -1.55353,-0.92371 -2.19173,-1.6123c-0.62141,-0.68859 -1.10847,-1.46956 -1.46117,-2.34287c-0.3527,-0.89013 -0.52906,-1.83065 -0.52906,-2.82155c0,-0.99089 0.17636,-1.92299 0.52906,-2.79633c0.3527,-0.87333 0.84815,-1.63751 1.48635,-2.29252c0.65499,-0.67181 1.39396,-1.19243 2.21692,-1.56193c0.83973,-0.38629 1.72988,-0.57941 2.6704,-0.57941c0.87333,0 1.62072,0.11758 2.24213,0.35269c0.62141,0.23512 1.15884,0.53743 1.6123,0.90691c0.45348,0.36948 0.84815,0.78095 1.18405,1.23443l-0.05039,-1.25961c-0.01679,-0.43667 0.07558,-0.74736 0.27711,-0.93212c0.21832,-0.20154 0.55422,-0.3023 1.00768,-0.3023c0.3863,0 0.66341,0.05879 0.83136,0.17634c0.16795,0.11757 0.27711,0.29392 0.3275,0.52904c0.06718,0.21832 0.10077,0.48706 0.10077,0.80617v11.61365c0,0.26871 -0.03361,0.52064 -0.10077,0.75577c-0.05039,0.21832 -0.16795,0.37788 -0.35269,0.47867c-0.16795,0.11757 -0.44506,0.17635 -0.83134,0.17635zM253.86567,211.06322c0.78936,0 1.51993,-0.20993 2.19174,-0.62981c0.67181,-0.43667 1.20082,-1.00771 1.58712,-1.71309c0.40308,-0.70539 0.60462,-1.51993 0.60462,-2.44364c0,-0.9405 -0.20995,-1.76346 -0.62981,-2.46885c-0.40308,-0.72217 -0.94052,-1.2848 -1.6123,-1.68788c-0.67181,-0.41987 -1.41077,-0.6298 -2.21692,-0.6298c-0.9405,0 -1.75504,0.21832 -2.44364,0.65499c-0.68859,0.41987 -1.23445,0.99092 -1.63751,1.71309c-0.40309,0.72217 -0.60462,1.54511 -0.60462,2.46884c0,0.90692 0.20153,1.72149 0.60462,2.44367c0.40309,0.70539 0.95729,1.26801 1.66268,1.68788c0.72217,0.40309 1.55354,0.60462 2.49406,0.60462zM275.71637,211.23956c0.38628,0.3023 0.59625,0.59622 0.62983,0.88175c0.03358,0.26871 -0.10917,0.59623 -0.42828,0.9825c-0.25191,0.28551 -0.47027,0.47025 -0.65501,0.55423c-0.18474,0.08398 -0.37788,0.09237 -0.57941,0.02518c-0.20153,-0.06718 -0.43667,-0.20995 -0.70538,-0.42827l-6.80192,-5.54232v4.50942c0,0.28551 -0.0336,0.52903 -0.10077,0.73057c-0.06718,0.20154 -0.19314,0.3527 -0.37788,0.45348c-0.18474,0.11757 -0.47025,0.17634 -0.85654,0.17634c-0.36948,0 -0.65499,-0.05877 -0.85654,-0.17634c-0.20153,-0.10079 -0.32751,-0.25192 -0.37788,-0.45348c-0.05039,-0.21832 -0.07558,-0.47025 -0.07558,-0.75578v-18.56675c0,-0.26871 0.02519,-0.50385 0.07558,-0.70539c0.06718,-0.20154 0.20153,-0.35267 0.40308,-0.45345c0.20153,-0.11757 0.48704,-0.17635 0.85654,-0.17635c0.40308,0 0.6886,0.05879 0.85655,0.17635c0.18474,0.10079 0.3023,0.26032 0.35269,0.47867c0.06718,0.20154 0.10077,0.44504 0.10077,0.73057v10.63117l4.96288,-4.73616c0.21832,-0.23512 0.43667,-0.39467 0.65499,-0.47865c0.21832,-0.08398 0.42827,-0.09237 0.6298,-0.02518c0.21832,0.0504 0.43667,0.20153 0.65499,0.45346c0.35269,0.40309 0.52064,0.73897 0.50385,1.00769c0,0.26871 -0.17634,0.57942 -0.52904,0.93212l-4.88733,4.585zM285.18939,213.73362c-1.19243,0 -2.25892,-0.20153 -3.19944,-0.60462c-0.94052,-0.40309 -1.73827,-0.94891 -2.39326,-1.63751c-0.65499,-0.68859 -1.15884,-1.48634 -1.51154,-2.39327c-0.3359,-0.90692 -0.50385,-1.88104 -0.50385,-2.92233c0,-1.37719 0.31909,-2.60319 0.95729,-3.67809c0.65499,-1.09168 1.54512,-1.94821 2.6704,-2.56961c1.14206,-0.6382 2.44366,-0.95731 3.90483,-0.95731c1.00768,0 1.90623,0.15954 2.69557,0.47865c0.78936,0.3023 1.46116,0.71377 2.01537,1.23444c0.57101,0.52065 1.00768,1.10006 1.31,1.73826c0.3023,0.6382 0.45346,1.27642 0.45346,1.91462c0,1.0245 -0.24351,1.74667 -0.73057,2.16653c-0.48706,0.40309 -1.08329,0.60461 -1.78867,0.60461h-8.69136c-0.01679,0.89013 0.21832,1.65429 0.70538,2.29251c0.50385,0.62141 1.12527,1.10846 1.86423,1.46116c0.75578,0.3359 1.51993,0.50385 2.2925,0.50385c0.55422,0 1.03289,-0.0336 1.43596,-0.10076c0.40308,-0.06718 0.75578,-0.15116 1.05808,-0.25193c0.3023,-0.10079 0.56264,-0.19313 0.78097,-0.27711c0.21832,-0.10079 0.41148,-0.20154 0.57943,-0.3023c0.16795,-0.10079 0.33588,-0.17634 0.50383,-0.22672c0.18474,-0.0336 0.36109,-0.01679 0.52904,0.05039c0.16795,0.06718 0.3023,0.20153 0.40308,0.40309c0.11756,0.16795 0.19316,0.31911 0.22674,0.45347c0.05039,0.13437 0.07558,0.28551 0.07558,0.45346c0,0.28551 -0.24353,0.59623 -0.73059,0.93213c-0.48706,0.3359 -1.15885,0.62141 -2.01537,0.85654c-0.83974,0.2519 -1.80546,0.37788 -2.89712,0.37788zM280.37763,205.34456h7.5577c0.38628,0 0.67181,-0.05038 0.85655,-0.15116c0.18474,-0.10079 0.27711,-0.36948 0.27711,-0.80615c0,-0.57101 -0.16796,-1.08326 -0.50385,-1.53674c-0.3359,-0.45348 -0.80617,-0.81455 -1.41077,-1.08327c-0.58783,-0.28551 -1.2596,-0.42827 -2.01536,-0.42827c-0.87333,0 -1.67949,0.17634 -2.41845,0.52904c-0.73897,0.3527 -1.31843,0.83135 -1.73828,1.43595c-0.41985,0.58781 -0.62141,1.26803 -0.6046,2.04058z"/></g></g></g></svg>