<svg version="1.1" xmlns="http://www.w3.org/2000/svg" xmlns:xlink="http://www.w3.org/1999/xlink" width="20.0977" height="28.46103" viewBox="0,0,20.0977,28.46103"><g transform="translate(-229.95115,-166.00621)"><g data-paper-data="{&quot;isPaintingLayer&quot;:true}" fill-rule="nonzero" stroke-linecap="butt" stroke-linejoin="miter" stroke-miterlimit="10" stroke-dasharray="" stroke-dashoffset="0" style="mix-blend-mode: normal"><g stroke="#000000" stroke-width="4"><path d="M247.97668,189.92666c0,2.35247 -1.35626,3.17688 -3.26798,2.02609c-3.51899,-2.11832 -8.92006,-5.36956 -11.20848,-6.74711c-2.03818,-1.22691 -1.975,-4.70173 0.09263,-6.00861c2.24249,-1.41739 7.42238,-4.69141 10.91416,-6.89842c2.01626,-1.27441 3.46966,0.21493 3.46966,2.1995c0,2.80415 0,10.60949 0,15.42853z" data-paper-data="{&quot;index&quot;:null}" fill="#ececec"/><path d="M231.95115,182.8456v-5.06388h6.21393v5.06388z" data-paper-data="{&quot;index&quot;:null}" fill="#ececec"/><path d="M248.04885,185.63424c0,2.35247 -1.35626,3.17688 -3.26798,2.02609c-3.51899,-2.1183 -8.92007,-5.36954 -11.20849,-6.74709c-2.03818,-1.22691 -1.975,-4.70173 0.09263,-6.00861c2.2425,-1.41739 7.42239,-4.69141 10.91417,-6.89842c2.01626,-1.2744 3.46966,0.21493 3.46966,2.1995c0,2.80415 0,10.60949 0,15.42853z" data-paper-data="{&quot;index&quot;:null}" fill="#ffffff"/></g><g stroke="none"><path d="M247.97668,189.92666c0,2.35247 -1.35626,3.17688 -3.26798,2.02609c-3.51899,-2.11832 -8.92006,-5.36956 -11.20848,-6.74711c-2.03818,-1.22691 -1.975,-4.70173 0.09263,-6.00861c2.24249,-1.41739 7.42238,-4.69141 10.91416,-6.89842c2.01626,-1.27441 3.46966,0.21493 3.46966,2.1995c0,2.80415 0,10.60949 0,15.42853z" data-paper-data="{&quot;index&quot;:null}" fill="#ececec" stroke-width="NaN"/><path d="M231.95115,182.8456v-5.06388h6.21393v5.06388z" data-paper-data="{&quot;index&quot;:null}" fill="#ececec" stroke-width="0"/><path d="M248.04885,185.63424c0,2.35247 -1.35626,3.17688 -3.26798,2.02609c-3.51899,-2.1183 -8.92007,-5.36954 -11.20849,-6.74709c-2.03818,-1.22691 -1.975,-4.70173 0.09263,-6.00861c2.2425,-1.41739 7.42239,-4.69141 10.91417,-6.89842c2.01626,-1.2744 3.46966,0.21493 3.46966,2.1995c0,2.80415 0,10.60949 0,15.42853z" data-paper-data="{&quot;index&quot;:null}" fill="#ffffff" stroke-width="NaN"/></g></g></g></svg>