<svg version="1.1" xmlns="http://www.w3.org/2000/svg" xmlns:xlink="http://www.w3.org/1999/xlink" width="136.99232" height="205.62395" viewBox="0,0,136.99232,205.62395"><g transform="translate(-167.91828,-157.61794)"><g data-paper-data="{&quot;isPaintingLayer&quot;:true}" stroke-linejoin="miter" stroke-miterlimit="10" stroke-dasharray="" stroke-dashoffset="0" style="mix-blend-mode: normal"><path d="M167.91829,238.18006v0c0,-8.76216 7.10315,-15.86531 15.86532,-15.86531l105.26168,0.20594v0c4.20774,0 8.24314,1.67152 11.21846,4.64684c2.97532,2.97532 4.64685,7.01073 4.64685,11.21847v23.02078c0,8.76217 -7.10314,15.86531 -15.86532,15.86531l-105.26168,-0.20594c-8.76217,0 -15.86532,-7.10314 -15.86532,-15.86531z" fill="#ececec" fill-rule="evenodd" stroke="none" stroke-width="1" stroke-linecap="square"/><g fill-rule="nonzero"><path d="M204.15166,329.27336l3.48172,3.59445c0,0 27.20406,-0.06381 31.49118,-0.07386c1.1001,-0.00258 1.47339,0.79049 0.93053,1.50987c-1.34457,1.78177 -7.01221,9.2923 -7.01221,9.2923c0,0 -18.53405,3.88312 -21.40519,4.48466c-0.72318,0.15151 -1.37519,1.55183 -1.38323,2.14343c-0.00734,0.54038 0.73128,1.54551 1.5905,1.53928c3.43123,-0.02489 25.70046,-0.18638 25.70046,-0.18638" fill="none" stroke="#ececec" stroke-width="3.5" stroke-linecap="round"/><path d="M207.54752,359.34998c0,-2.02751 1.64362,-3.67113 3.67113,-3.67113c2.02751,0 3.67113,1.64362 3.67113,3.67113c0,2.02751 -1.64362,3.67113 -3.67113,3.67113c-2.02751,0 -3.67113,-1.64362 -3.67113,-3.67113z" fill="#ececec" stroke="none" stroke-width="0.5" stroke-linecap="butt"/><path d="M229.71951,359.57076c0,-2.02751 1.64362,-3.67113 3.67113,-3.67113c2.02751,0 3.67113,1.64362 3.67113,3.67113c0,2.02751 -1.64362,3.67113 -3.67113,3.67113c-2.02751,0 -3.67113,-1.64362 -3.67113,-3.67113z" fill="#ececec" stroke="none" stroke-width="0.5" stroke-linecap="butt"/><path d="M204.13387,326.72727l3.48172,3.59444c0,0 27.20406,-0.0638 31.49118,-0.07386c1.1001,-0.00258 1.47339,0.79049 0.93053,1.50987c-1.34456,1.78176 -7.0122,9.2923 -7.0122,9.2923c0,0 -18.53405,3.88311 -21.40519,4.48465c-0.72318,0.15152 -1.3752,1.55183 -1.38323,2.14343c-0.00734,0.54038 0.73128,1.54551 1.5905,1.53928c3.43123,-0.02488 25.70046,-0.18637 25.70046,-0.18637" fill="none" stroke="#ffffff" stroke-width="3.5" stroke-linecap="round"/><path d="M207.52974,356.80388c0,-2.02751 1.64363,-3.67113 3.67113,-3.67113c2.02751,0 3.67113,1.64362 3.67113,3.67113c0,2.02751 -1.64362,3.67113 -3.67113,3.67113c-2.02751,0 -3.67113,-1.64362 -3.67113,-3.67113z" fill="#ffffff" stroke="none" stroke-width="0.5" stroke-linecap="butt"/><path d="M229.70173,357.02465c0,-2.02751 1.64363,-3.67113 3.67113,-3.67113c2.02751,0 3.67113,1.64362 3.67113,3.67113c0,2.02751 -1.64362,3.67113 -3.67113,3.67113c-2.02751,0 -3.67113,-1.64362 -3.67113,-3.67113z" fill="#ffffff" stroke="none" stroke-width="0.5" stroke-linecap="butt"/></g><g fill="none" fill-rule="nonzero" stroke-width="5"><g stroke="#ececec"><path d="M226.36504,200.62623c0,-6.46097 -0.17923,-20.80106 -0.17923,-24.4411c0,-1.08088 0.65838,-2.0258 1.76562,-2.0258c4.64197,0 18.59024,0 23.62048,0c1.15002,0 1.83391,0.98235 1.83391,2.09718c0,3.13557 0.17923,17.73263 0.17923,24.31871c0,1.26015 -0.81976,2.00156 -1.73893,2.00156c-2.84819,0 -17.78202,0 -23.36897,0c-1.31493,0 -2.11211,-0.72115 -2.11211,-1.95056z" stroke-linecap="butt"/><path d="M246.24646,181.18151c0,0 -0.13495,-13.78084 -0.16196,-16.53892c-0.00901,-0.92006 -0.93109,-1.83494 -1.75183,-1.82995c-1.44306,0.00877 -6.17396,0.03754 -8.72809,0.05306c-1.00352,0.0061 -1.66353,0.80361 -1.6558,1.62428c0.02486,2.63703 0.15711,16.66573 0.15711,16.66573" stroke-linecap="round"/></g><g stroke="#ffffff"><path d="M226.47961,197.93152c0,-6.46097 -0.17923,-20.80105 -0.17923,-24.4411c0,-1.08088 0.65838,-2.0258 1.76562,-2.0258c4.64197,0 18.59024,0 23.62048,0c1.15002,0 1.83391,0.98235 1.83391,2.09718c0,3.13558 0.17923,17.73263 0.17923,24.31871c0,1.26015 -0.81976,2.00157 -1.73893,2.00157c-2.84819,0 -17.78202,0 -23.36897,0c-1.31493,0 -2.11211,-0.72115 -2.11211,-1.95056z" stroke-linecap="butt"/><path d="M246.36103,178.4868c0,0 -0.13495,-13.78085 -0.16196,-16.53892c-0.00901,-0.92007 -0.93109,-1.83493 -1.75183,-1.82994c-1.44306,0.00877 -6.17396,0.03753 -8.72809,0.05306c-1.00352,0.0061 -1.66353,0.8036 -1.6558,1.62428c0.02486,2.63704 0.1571,16.66574 0.1571,16.66574" stroke-linecap="round"/></g></g></g></g></svg>