<svg version="1.1" xmlns="http://www.w3.org/2000/svg" xmlns:xlink="http://www.w3.org/1999/xlink" width="11.51575" height="16.64067" viewBox="0,0,11.51575,16.64067"><g transform="translate(-234.24212,-171.67966)"><g data-paper-data="{&quot;isPaintingLayer&quot;:true}" fill="#ffffff" fill-rule="nonzero" stroke-linecap="square" stroke-linejoin="miter" stroke-miterlimit="10" stroke-dasharray="" stroke-dashoffset="0" style="mix-blend-mode: normal"><path d="M239.91399,186.57018c-0.4375,0 -0.82812,-0.03646 -1.17187,-0.10937c-0.33333,-0.0625 -0.64062,-0.15104 -0.92187,-0.26562c-0.28125,-0.11458 -0.53646,-0.23958 -0.76562,-0.375c-0.22917,-0.13542 -0.4375,-0.27083 -0.625,-0.40625c-0.125,-0.11458 -0.22917,-0.21354 -0.3125,-0.29687c-0.08333,-0.09375 -0.125,-0.20312 -0.125,-0.32812c0,-0.08333 0.02083,-0.17187 0.0625,-0.26562c0.05208,-0.10417 0.13021,-0.22396 0.23438,-0.35937c0.11458,-0.14583 0.22396,-0.24479 0.32813,-0.29687c0.10417,-0.0625 0.20313,-0.09375 0.29688,-0.09375c0.07292,0 0.15625,0.02083 0.25,0.0625c0.10417,0.03125 0.23958,0.11979 0.40625,0.26563c0.14583,0.11458 0.30729,0.23438 0.48438,0.35938c0.1875,0.125 0.41667,0.22396 0.6875,0.29688c0.27083,0.07292 0.61979,0.10938 1.04688,0.10938c0.48958,0 0.92188,-0.09896 1.29688,-0.29687c0.38542,-0.19792 0.68229,-0.48437 0.89063,-0.85937c0.21875,-0.375 0.32813,-0.81771 0.32813,-1.32812c0,-0.48958 -0.10937,-0.92187 -0.32812,-1.29687c-0.21875,-0.375 -0.51562,-0.67187 -0.89062,-0.89062c-0.375,-0.21875 -0.78125,-0.32812 -1.21875,-0.32812c-0.22917,0 -0.44271,0.02604 -0.64062,0.07813c-0.19792,0.05208 -0.38021,0.125 -0.54687,0.21875c-0.16667,0.09375 -0.3125,0.20313 -0.4375,0.32813c-0.09375,0.08333 -0.17708,0.14583 -0.25,0.1875c-0.0625,0.04167 -0.14062,0.07813 -0.23437,0.10938c-0.11458,0.03125 -0.22917,0.04167 -0.34375,0.03125c-0.11458,-0.02083 -0.27083,-0.06771 -0.46875,-0.14062c-0.21875,-0.10417 -0.38021,-0.19792 -0.48437,-0.28125c-0.09375,-0.09375 -0.14062,-0.21875 -0.14062,-0.375l0.79688,-5.71875c0.02083,-0.13542 0.05208,-0.26562 0.09375,-0.39062c0.04167,-0.13542 0.11979,-0.25 0.23438,-0.34375c0.11458,-0.09375 0.28646,-0.14062 0.51563,-0.14062l4.84375,0.03125c0.16667,0 0.30729,0.02083 0.42188,0.0625c0.11458,0.03125 0.20313,0.10938 0.26563,0.23438c0.0625,0.125 0.09375,0.30729 0.09375,0.54688c0,0.22917 -0.03125,0.40104 -0.09375,0.51563c-0.0625,0.10417 -0.15104,0.17708 -0.26562,0.21875c-0.10417,0.04167 -0.23958,0.0625 -0.40625,0.0625h-4.125l-0.51562,3.67188c0.14583,-0.125 0.3125,-0.22396 0.5,-0.29687c0.19792,-0.07292 0.39583,-0.13542 0.59375,-0.1875c0.20833,-0.05208 0.40625,-0.07812 0.59375,-0.07812h0.125c0.53125,0 1.03646,0.10938 1.51563,0.32813c0.47917,0.20833 0.90104,0.5 1.26563,0.875c0.375,0.36458 0.67188,0.79167 0.89063,1.28125c0.22917,0.47917 0.34375,0.99479 0.34375,1.54688c0,0.84375 -0.18229,1.58854 -0.54687,2.23438c-0.36458,0.64583 -0.85417,1.15625 -1.46875,1.53125c-0.61458,0.375 -1.30729,0.5625 -2.07812,0.5625z" stroke="#ffffff" stroke-width="3.5"/><path d="M239.91399,186.57018c-0.4375,0 -0.82812,-0.03646 -1.17187,-0.10937c-0.33333,-0.0625 -0.64062,-0.15104 -0.92187,-0.26562c-0.28125,-0.11458 -0.53646,-0.23958 -0.76562,-0.375c-0.22917,-0.13542 -0.4375,-0.27083 -0.625,-0.40625c-0.125,-0.11458 -0.22917,-0.21354 -0.3125,-0.29687c-0.08333,-0.09375 -0.125,-0.20312 -0.125,-0.32812c0,-0.08333 0.02083,-0.17187 0.0625,-0.26562c0.05208,-0.10417 0.13021,-0.22396 0.23438,-0.35937c0.11458,-0.14583 0.22396,-0.24479 0.32813,-0.29687c0.10417,-0.0625 0.20313,-0.09375 0.29688,-0.09375c0.07292,0 0.15625,0.02083 0.25,0.0625c0.10417,0.03125 0.23958,0.11979 0.40625,0.26563c0.14583,0.11458 0.30729,0.23438 0.48438,0.35938c0.1875,0.125 0.41667,0.22396 0.6875,0.29688c0.27083,0.07292 0.61979,0.10938 1.04688,0.10938c0.48958,0 0.92188,-0.09896 1.29688,-0.29687c0.38542,-0.19792 0.68229,-0.48437 0.89063,-0.85937c0.21875,-0.375 0.32813,-0.81771 0.32813,-1.32812c0,-0.48958 -0.10937,-0.92187 -0.32812,-1.29687c-0.21875,-0.375 -0.51562,-0.67187 -0.89062,-0.89062c-0.375,-0.21875 -0.78125,-0.32812 -1.21875,-0.32812c-0.22917,0 -0.44271,0.02604 -0.64062,0.07813c-0.19792,0.05208 -0.38021,0.125 -0.54687,0.21875c-0.16667,0.09375 -0.3125,0.20313 -0.4375,0.32813c-0.09375,0.08333 -0.17708,0.14583 -0.25,0.1875c-0.0625,0.04167 -0.14062,0.07813 -0.23437,0.10938c-0.11458,0.03125 -0.22917,0.04167 -0.34375,0.03125c-0.11458,-0.02083 -0.27083,-0.06771 -0.46875,-0.14062c-0.21875,-0.10417 -0.38021,-0.19792 -0.48437,-0.28125c-0.09375,-0.09375 -0.14062,-0.21875 -0.14062,-0.375l0.79688,-5.71875c0.02083,-0.13542 0.05208,-0.26562 0.09375,-0.39062c0.04167,-0.13542 0.11979,-0.25 0.23438,-0.34375c0.11458,-0.09375 0.28646,-0.14062 0.51563,-0.14062l4.84375,0.03125c0.16667,0 0.30729,0.02083 0.42188,0.0625c0.11458,0.03125 0.20313,0.10938 0.26563,0.23438c0.0625,0.125 0.09375,0.30729 0.09375,0.54688c0,0.22917 -0.03125,0.40104 -0.09375,0.51563c-0.0625,0.10417 -0.15104,0.17708 -0.26562,0.21875c-0.10417,0.04167 -0.23958,0.0625 -0.40625,0.0625h-4.125l-0.51562,3.67188c0.14583,-0.125 0.3125,-0.22396 0.5,-0.29687c0.19792,-0.07292 0.39583,-0.13542 0.59375,-0.1875c0.20833,-0.05208 0.40625,-0.07812 0.59375,-0.07812h0.125c0.53125,0 1.03646,0.10938 1.51563,0.32813c0.47917,0.20833 0.90104,0.5 1.26563,0.875c0.375,0.36458 0.67188,0.79167 0.89063,1.28125c0.22917,0.47917 0.34375,0.99479 0.34375,1.54688c0,0.84375 -0.18229,1.58854 -0.54687,2.23438c-0.36458,0.64583 -0.85417,1.15625 -1.46875,1.53125c-0.61458,0.375 -1.30729,0.5625 -2.07812,0.5625z" stroke="#000000" stroke-width="2.5"/><path d="M239.914,186.57017c-0.4375,0 -0.82812,-0.03646 -1.17187,-0.10937c-0.33333,-0.0625 -0.64062,-0.15104 -0.92187,-0.26562c-0.28125,-0.11458 -0.53646,-0.23958 -0.76562,-0.375c-0.22917,-0.13542 -0.4375,-0.27083 -0.625,-0.40625c-0.125,-0.11458 -0.22917,-0.21354 -0.3125,-0.29687c-0.08333,-0.09375 -0.125,-0.20312 -0.125,-0.32812c0,-0.08333 0.02083,-0.17187 0.0625,-0.26562c0.05208,-0.10417 0.13021,-0.22396 0.23438,-0.35937c0.11458,-0.14583 0.22396,-0.24479 0.32813,-0.29687c0.10417,-0.0625 0.20313,-0.09375 0.29688,-0.09375c0.07292,0 0.15625,0.02083 0.25,0.0625c0.10417,0.03125 0.23958,0.11979 0.40625,0.26563c0.14583,0.11458 0.30729,0.23438 0.48438,0.35938c0.1875,0.125 0.41667,0.22396 0.6875,0.29688c0.27083,0.07292 0.61979,0.10938 1.04688,0.10938c0.48958,0 0.92188,-0.09896 1.29688,-0.29687c0.38542,-0.19792 0.68229,-0.48437 0.89063,-0.85937c0.21875,-0.375 0.32813,-0.81771 0.32813,-1.32812c0,-0.48958 -0.10937,-0.92187 -0.32812,-1.29687c-0.21875,-0.375 -0.51562,-0.67187 -0.89062,-0.89062c-0.375,-0.21875 -0.78125,-0.32812 -1.21875,-0.32812c-0.22917,0 -0.44271,0.02604 -0.64062,0.07813c-0.19792,0.05208 -0.38021,0.125 -0.54687,0.21875c-0.16667,0.09375 -0.3125,0.20313 -0.4375,0.32813c-0.09375,0.08333 -0.17708,0.14583 -0.25,0.1875c-0.0625,0.04167 -0.14062,0.07813 -0.23437,0.10938c-0.11458,0.03125 -0.22917,0.04167 -0.34375,0.03125c-0.11458,-0.02083 -0.27083,-0.06771 -0.46875,-0.14062c-0.21875,-0.10417 -0.38021,-0.19792 -0.48437,-0.28125c-0.09375,-0.09375 -0.14062,-0.21875 -0.14062,-0.375l0.79688,-5.71875c0.02083,-0.13542 0.05208,-0.26562 0.09375,-0.39062c0.04167,-0.13542 0.11979,-0.25 0.23438,-0.34375c0.11458,-0.09375 0.28646,-0.14062 0.51563,-0.14062l4.84375,0.03125c0.16667,0 0.30729,0.02083 0.42188,0.0625c0.11458,0.03125 0.20313,0.10938 0.26563,0.23438c0.0625,0.125 0.09375,0.30729 0.09375,0.54688c0,0.22917 -0.03125,0.40104 -0.09375,0.51563c-0.0625,0.10417 -0.15104,0.17708 -0.26562,0.21875c-0.10417,0.04167 -0.23958,0.0625 -0.40625,0.0625h-4.125l-0.51562,3.67188c0.14583,-0.125 0.3125,-0.22396 0.5,-0.29687c0.19792,-0.07292 0.39583,-0.13542 0.59375,-0.1875c0.20833,-0.05208 0.40625,-0.07812 0.59375,-0.07812h0.125c0.53125,0 1.03646,0.10938 1.51563,0.32813c0.47917,0.20833 0.90104,0.5 1.26563,0.875c0.375,0.36458 0.67188,0.79167 0.89063,1.28125c0.22917,0.47917 0.34375,0.99479 0.34375,1.54688c0,0.84375 -0.18229,1.58854 -0.54687,2.23438c-0.36458,0.64583 -0.85417,1.15625 -1.46875,1.53125c-0.61458,0.375 -1.30729,0.5625 -2.07812,0.5625z" stroke="none" stroke-width="1"/></g></g></svg>