<svg version="1.1" xmlns="http://www.w3.org/2000/svg" xmlns:xlink="http://www.w3.org/1999/xlink" width="643.865" height="469.59622" viewBox="0,0,643.865,469.59622"><defs><radialGradient cx="51.78196" cy="86.41304" r="25.78713" gradientUnits="userSpaceOnUse" id="color-1"><stop offset="0" stop-color="#ffffff"/><stop offset="1" stop-color="#e9e9e9"/></radialGradient><radialGradient cx="51.44705" cy="74.34754" r="40.24565" gradientUnits="userSpaceOnUse" id="color-2"><stop offset="0" stop-color="#ffffff"/><stop offset="1" stop-color="#e9e9e9"/></radialGradient><radialGradient cx="216.95209" cy="125.39669" r="21.1154" gradientUnits="userSpaceOnUse" id="color-3"><stop offset="0" stop-color="#ffffff"/><stop offset="1" stop-color="#e9e9e9"/></radialGradient><radialGradient cx="217.22632" cy="115.51704" r="32.95453" gradientUnits="userSpaceOnUse" id="color-4"><stop offset="0" stop-color="#ffffff"/><stop offset="1" stop-color="#e9e9e9"/></radialGradient><radialGradient cx="362.26414" cy="73.1134" r="27.92189" gradientUnits="userSpaceOnUse" id="color-5"><stop offset="0" stop-color="#ffffff"/><stop offset="1" stop-color="#e9e9e9"/></radialGradient><radialGradient cx="361.90152" cy="60.04908" r="43.57733" gradientUnits="userSpaceOnUse" id="color-6"><stop offset="0" stop-color="#ffffff"/><stop offset="1" stop-color="#e9e9e9"/></radialGradient></defs><g transform="translate(98.78834,51.94188)"><g data-paper-data="{&quot;isPaintingLayer&quot;:true}" fill-rule="nonzero" stroke="none" stroke-linecap="butt" stroke-linejoin="miter" stroke-miterlimit="10" stroke-dasharray="" stroke-dashoffset="0" style="mix-blend-mode: normal"><g><path d="M25.99482,97.47309v-22.1201h51.57426v22.1201z" fill="url(#color-1)" stroke-width="0"/><path d="M62.1638,60.11305c5.37951,0 10.10802,2.78726 12.82016,6.99642c0.48337,-0.04622 0.97333,-0.06987 1.46881,-0.06987c8.41678,0 15.23993,6.82315 15.23993,15.23993c0,8.41678 -6.82315,15.23993 -15.23993,15.23993c-5.37952,0 -10.10802,-2.78726 -12.82016,-6.99642c-0.48337,0.04622 -0.97333,0.06987 -1.46881,0.06987c-6.54137,0 -12.12017,-4.12126 -14.28151,-9.9089c-1.669,0.62795 -3.4773,0.97146 -5.36584,0.97146c-0.28478,0 -0.56773,-0.00781 -0.84867,-0.02323c0.00897,0.21462 0.01349,0.4304 0.01349,0.64723c0,8.41678 -6.82315,15.23993 -15.23993,15.23993c-8.41678,0 -15.23993,-6.82315 -15.23993,-15.23993c0,-8.41678 6.82315,-15.23993 15.23993,-15.23993c0.28478,0 0.56773,0.00781 0.84867,0.02323c-0.00897,-0.21462 -0.01349,-0.4304 -0.01349,-0.64723c0,-8.41678 6.82315,-15.23993 15.23993,-15.23993c6.54137,0 12.12017,4.12126 14.28151,9.9089c1.669,-0.62795 3.4773,-0.97146 5.36584,-0.97146z" fill="url(#color-2)" stroke-width="0.5"/></g><g data-paper-data="{&quot;index&quot;:null}"><path d="M195.8367,134.45304v-18.1127h42.23079v18.1127z" fill="url(#color-3)" stroke-width="0"/><path d="M212.84481,104.65682c1.76979,-4.73912 6.3379,-8.11375 11.6942,-8.11375c6.89195,0 12.47898,5.58703 12.47898,12.47898c0,0.17755 -0.00371,0.35423 -0.01105,0.52998c0.23004,-0.01263 0.46173,-0.01902 0.69492,-0.01902c6.89195,0 12.47898,5.58703 12.47898,12.47898c0,6.89195 -5.58703,12.47898 -12.47898,12.47898c-6.89195,0 -12.47898,-5.58703 -12.47898,-12.47898c0,-0.17755 0.00371,-0.35422 0.01105,-0.52997c-0.23004,0.01263 -0.46173,0.01902 -0.69492,0.01902c-1.5464,0 -3.0271,-0.28128 -4.39373,-0.79547c-1.76979,4.73912 -6.3379,8.11375 -11.6942,8.11375c-0.40571,0 -0.80692,-0.01936 -1.20271,-0.05721c-2.22079,3.4466 -6.09266,5.72892 -10.49759,5.72892c-6.89195,0 -12.47898,-5.58703 -12.47898,-12.47898c0,-6.89195 5.58703,-12.47898 12.47898,-12.47898c0.40571,0 0.80692,0.01936 1.20271,0.05721c2.22079,-3.4466 6.09266,-5.72891 10.49759,-5.72891c1.5464,0 3.0271,0.28128 4.39373,0.79547z" fill="url(#color-4)" stroke-width="0.5"/></g><g data-paper-data="{&quot;index&quot;:null}"><path d="M334.34227,85.08904v-23.95128h55.84376v23.95128z" fill="url(#color-5)" stroke-width="0"/><path d="M373.50543,44.63621c5.82485,0 10.9448,3.018 13.88146,7.57561c0.52339,-0.05005 1.05391,-0.07566 1.59041,-0.07566c9.11355,0 16.50155,7.388 16.50155,16.50155c0,9.11355 -7.388,16.50155 -16.50155,16.50155c-5.82485,0 -10.9448,-3.01801 -13.88146,-7.57561c-0.52339,0.05005 -1.05391,0.07566 -1.59041,0.07566c-7.08288,0 -13.12352,-4.46243 -15.4638,-10.72919c-1.80716,0.67993 -3.76516,1.05188 -5.81003,1.05188c-0.30836,0 -0.61473,-0.00846 -0.91892,-0.02515c0.00971,0.23239 0.01461,0.46602 0.01461,0.7008c0,9.11355 -7.388,16.50155 -16.50155,16.50155c-9.11355,0 -16.50155,-7.388 -16.50155,-16.50155c0,-9.11355 7.388,-16.50155 16.50155,-16.50155c0.30836,0 0.61473,0.00846 0.91892,0.02515c-0.00971,-0.23239 -0.01461,-0.46603 -0.01461,-0.70081c0,-9.11355 7.388,-16.50155 16.50155,-16.50155c7.08288,0 13.12352,4.46243 15.4638,10.7292c1.80716,-0.67993 3.76516,-1.05188 5.81003,-1.05188z" fill="url(#color-6)" stroke-width="0.5"/></g><g fill="none" stroke-width="0.5"><g><path d="M540.07666,-30.26126c0,-1.38071 1.11929,-2.5 2.5,-2.5c1.38071,0 2.5,1.11929 2.5,2.5c0,1.38071 -1.11929,2.5 -2.5,2.5c-1.38071,0 -2.5,-1.11929 -2.5,-2.5z"/><path d="M533.68794,415.15434c0,-1.38071 1.11929,-2.5 2.5,-2.5c1.38071,0 2.5,1.11929 2.5,2.5c0,1.38071 -1.11929,2.5 -2.5,2.5c-1.38071,0 -2.5,-1.11929 -2.5,-2.5z"/></g><g><path d="M-75.36328,-49.44188c0,-1.38071 1.11929,-2.5 2.5,-2.5c1.38071,0 2.5,1.11929 2.5,2.5c0,1.38071 -1.11929,2.5 -2.5,2.5c-1.38071,0 -2.5,-1.11929 -2.5,-2.5z"/><path d="M-98.78834,410.89178c0,-1.38071 1.11929,-2.5 2.5,-2.5c1.38071,0 2.5,1.11929 2.5,2.5c0,1.38071 -1.11929,2.5 -2.5,2.5c-1.38071,0 -2.5,-1.11929 -2.5,-2.5z"/></g></g></g></g></svg>