<svg version="1.1" xmlns="http://www.w3.org/2000/svg" xmlns:xlink="http://www.w3.org/1999/xlink" width="28.43091" height="16.84377" viewBox="0,0,28.43091,16.84377"><g transform="translate(-225.81578,-171.57811)"><g data-paper-data="{&quot;isPaintingLayer&quot;:true}" fill-rule="nonzero" stroke-linecap="square" stroke-linejoin="miter" stroke-miterlimit="10" stroke-dasharray="" stroke-dashoffset="0" style="mix-blend-mode: normal"><path d="M240.06247,186.67183c-0.875,0 -1.64583,-0.16146 -2.3125,-0.48437c-0.65625,-0.33333 -1.17708,-0.79687 -1.5625,-1.39062c-0.375,-0.59375 -0.5625,-1.28125 -0.5625,-2.0625c0,-0.3125 0.04167,-0.61458 0.125,-0.90625c0.08333,-0.30208 0.19271,-0.57812 0.32813,-0.82812c0.14583,-0.26042 0.30208,-0.48958 0.46875,-0.6875c0.17708,-0.19792 0.35417,-0.35937 0.53125,-0.48437c0.1875,-0.13542 0.35417,-0.23437 0.5,-0.29687c-0.14583,-0.0625 -0.30729,-0.17708 -0.48437,-0.34375c-0.17708,-0.17708 -0.34896,-0.38021 -0.51562,-0.60937c-0.15625,-0.23958 -0.28646,-0.5 -0.39062,-0.78125c-0.09375,-0.29167 -0.14062,-0.59896 -0.14062,-0.92187c0,-0.69792 0.17188,-1.30729 0.51563,-1.82812c0.34375,-0.53125 0.81771,-0.94792 1.42188,-1.25c0.60417,-0.3125 1.29688,-0.46875 2.07813,-0.46875c0.76042,0 1.43229,0.15625 2.01563,0.46875c0.58333,0.30208 1.03646,0.71875 1.35938,1.25c0.33333,0.53125 0.5,1.14583 0.5,1.84375c0,0.25 -0.03125,0.48958 -0.09375,0.71875c-0.0625,0.22917 -0.14583,0.44792 -0.25,0.65625c-0.09375,0.20833 -0.20833,0.39583 -0.34375,0.5625c-0.125,0.16667 -0.25521,0.3125 -0.39062,0.4375c-0.125,0.125 -0.25,0.21354 -0.375,0.26563c0.14583,0.0625 0.30729,0.16146 0.48438,0.29688c0.17708,0.13542 0.34375,0.30208 0.5,0.5c0.16667,0.19792 0.31771,0.42708 0.45313,0.6875c0.14583,0.25 0.25521,0.52083 0.32813,0.8125c0.08333,0.29167 0.125,0.59375 0.125,0.90625c0,0.59375 -0.10937,1.13542 -0.32812,1.625c-0.21875,0.47917 -0.52604,0.89063 -0.92187,1.23438c-0.38542,0.34375 -0.84375,0.60938 -1.375,0.79688c-0.53125,0.1875 -1.09375,0.28125 -1.6875,0.28125zM240.03122,185.17183c0.53125,0 0.99479,-0.09896 1.39063,-0.29687c0.40625,-0.20833 0.71875,-0.48958 0.9375,-0.84375c0.21875,-0.36458 0.32813,-0.79167 0.32813,-1.28125c0,-0.5 -0.10937,-0.92708 -0.32812,-1.28125c-0.21875,-0.36458 -0.53125,-0.64583 -0.9375,-0.84375c-0.40625,-0.20833 -0.88542,-0.3125 -1.4375,-0.3125c-0.53125,0 -1,0.10417 -1.40625,0.3125c-0.40625,0.19792 -0.72396,0.47917 -0.95312,0.84375c-0.21875,0.35417 -0.32812,0.78125 -0.32812,1.28125c0,0.48958 0.10938,0.91667 0.32813,1.28125c0.22917,0.35417 0.54688,0.63542 0.95313,0.84375c0.41667,0.19792 0.90104,0.29688 1.45313,0.29688zM240.03122,178.92183c0.45833,0 0.84896,-0.08333 1.17188,-0.25c0.33333,-0.16667 0.59375,-0.40625 0.78125,-0.71875c0.1875,-0.3125 0.28125,-0.67187 0.28125,-1.07812c0,-0.40625 -0.09375,-0.76042 -0.28125,-1.0625c-0.1875,-0.30208 -0.45312,-0.53125 -0.79687,-0.6875c-0.33333,-0.16667 -0.72917,-0.25 -1.1875,-0.25c-0.44792,0 -0.83854,0.08333 -1.17187,0.25c-0.33333,0.15625 -0.59375,0.38542 -0.78125,0.6875c-0.1875,0.30208 -0.28125,0.65625 -0.28125,1.0625c0,0.40625 0.09375,0.76563 0.28125,1.07813c0.1875,0.3125 0.45313,0.55208 0.79688,0.71875c0.34375,0.16667 0.73958,0.25 1.1875,0.25z" fill="#000000" stroke="#ffffff" stroke-width="3.5"/><path d="M240.06247,186.67186c-0.875,0 -1.64583,-0.16146 -2.3125,-0.48437c-0.65625,-0.33333 -1.17708,-0.79687 -1.5625,-1.39062c-0.375,-0.59375 -0.5625,-1.28125 -0.5625,-2.0625c0,-0.3125 0.04167,-0.61458 0.125,-0.90625c0.08333,-0.30208 0.19271,-0.57812 0.32813,-0.82812c0.14583,-0.26042 0.30208,-0.48958 0.46875,-0.6875c0.17708,-0.19792 0.35417,-0.35937 0.53125,-0.48437c0.1875,-0.13542 0.35417,-0.23437 0.5,-0.29687c-0.14583,-0.0625 -0.30729,-0.17708 -0.48437,-0.34375c-0.17708,-0.17708 -0.34896,-0.38021 -0.51562,-0.60937c-0.15625,-0.23958 -0.28646,-0.5 -0.39062,-0.78125c-0.09375,-0.29167 -0.14062,-0.59896 -0.14062,-0.92187c0,-0.69792 0.17188,-1.30729 0.51563,-1.82812c0.34375,-0.53125 0.81771,-0.94792 1.42188,-1.25c0.60417,-0.3125 1.29688,-0.46875 2.07813,-0.46875c0.76042,0 1.43229,0.15625 2.01563,0.46875c0.58333,0.30208 1.03646,0.71875 1.35938,1.25c0.33333,0.53125 0.5,1.14583 0.5,1.84375c0,0.25 -0.03125,0.48958 -0.09375,0.71875c-0.0625,0.22917 -0.14583,0.44792 -0.25,0.65625c-0.09375,0.20833 -0.20833,0.39583 -0.34375,0.5625c-0.125,0.16667 -0.25521,0.3125 -0.39062,0.4375c-0.125,0.125 -0.25,0.21354 -0.375,0.26563c0.14583,0.0625 0.30729,0.16146 0.48438,0.29688c0.17708,0.13542 0.34375,0.30208 0.5,0.5c0.16667,0.19792 0.31771,0.42708 0.45313,0.6875c0.14583,0.25 0.25521,0.52083 0.32813,0.8125c0.08333,0.29167 0.125,0.59375 0.125,0.90625c0,0.59375 -0.10937,1.13542 -0.32812,1.625c-0.21875,0.47917 -0.52604,0.89063 -0.92187,1.23438c-0.38542,0.34375 -0.84375,0.60938 -1.375,0.79688c-0.53125,0.1875 -1.09375,0.28125 -1.6875,0.28125zM240.03122,185.17186c0.53125,0 0.99479,-0.09896 1.39063,-0.29687c0.40625,-0.20833 0.71875,-0.48958 0.9375,-0.84375c0.21875,-0.36458 0.32813,-0.79167 0.32813,-1.28125c0,-0.5 -0.10937,-0.92708 -0.32812,-1.28125c-0.21875,-0.36458 -0.53125,-0.64583 -0.9375,-0.84375c-0.40625,-0.20833 -0.88542,-0.3125 -1.4375,-0.3125c-0.53125,0 -1,0.10417 -1.40625,0.3125c-0.40625,0.19792 -0.72396,0.47917 -0.95312,0.84375c-0.21875,0.35417 -0.32812,0.78125 -0.32812,1.28125c0,0.48958 0.10938,0.91667 0.32813,1.28125c0.22917,0.35417 0.54688,0.63542 0.95313,0.84375c0.41667,0.19792 0.90104,0.29688 1.45313,0.29688zM240.03122,178.92186c0.45833,0 0.84896,-0.08333 1.17188,-0.25c0.33333,-0.16667 0.59375,-0.40625 0.78125,-0.71875c0.1875,-0.3125 0.28125,-0.67187 0.28125,-1.07812c0,-0.40625 -0.09375,-0.76042 -0.28125,-1.0625c-0.1875,-0.30208 -0.45312,-0.53125 -0.79687,-0.6875c-0.33333,-0.16667 -0.72917,-0.25 -1.1875,-0.25c-0.44792,0 -0.83854,0.08333 -1.17187,0.25c-0.33333,0.15625 -0.59375,0.38542 -0.78125,0.6875c-0.1875,0.30208 -0.28125,0.65625 -0.28125,1.0625c0,0.40625 0.09375,0.76563 0.28125,1.07813c0.1875,0.3125 0.45313,0.55208 0.79688,0.71875c0.34375,0.16667 0.73958,0.25 1.1875,0.25z" fill="#000000" stroke="#000000" stroke-width="2.5"/><path d="M240.06247,186.67187c-0.875,0 -1.64583,-0.16146 -2.3125,-0.48437c-0.65625,-0.33333 -1.17708,-0.79687 -1.5625,-1.39062c-0.375,-0.59375 -0.5625,-1.28125 -0.5625,-2.0625c0,-0.3125 0.04167,-0.61458 0.125,-0.90625c0.08333,-0.30208 0.19271,-0.57812 0.32813,-0.82812c0.14583,-0.26042 0.30208,-0.48958 0.46875,-0.6875c0.17708,-0.19792 0.35417,-0.35937 0.53125,-0.48437c0.1875,-0.13542 0.35417,-0.23437 0.5,-0.29687c-0.14583,-0.0625 -0.30729,-0.17708 -0.48437,-0.34375c-0.17708,-0.17708 -0.34896,-0.38021 -0.51562,-0.60937c-0.15625,-0.23958 -0.28646,-0.5 -0.39062,-0.78125c-0.09375,-0.29167 -0.14062,-0.59896 -0.14062,-0.92187c0,-0.69792 0.17188,-1.30729 0.51563,-1.82812c0.34375,-0.53125 0.81771,-0.94792 1.42188,-1.25c0.60417,-0.3125 1.29688,-0.46875 2.07813,-0.46875c0.76042,0 1.43229,0.15625 2.01563,0.46875c0.58333,0.30208 1.03646,0.71875 1.35938,1.25c0.33333,0.53125 0.5,1.14583 0.5,1.84375c0,0.25 -0.03125,0.48958 -0.09375,0.71875c-0.0625,0.22917 -0.14583,0.44792 -0.25,0.65625c-0.09375,0.20833 -0.20833,0.39583 -0.34375,0.5625c-0.125,0.16667 -0.25521,0.3125 -0.39062,0.4375c-0.125,0.125 -0.25,0.21354 -0.375,0.26563c0.14583,0.0625 0.30729,0.16146 0.48438,0.29688c0.17708,0.13542 0.34375,0.30208 0.5,0.5c0.16667,0.19792 0.31771,0.42708 0.45313,0.6875c0.14583,0.25 0.25521,0.52083 0.32813,0.8125c0.08333,0.29167 0.125,0.59375 0.125,0.90625c0,0.59375 -0.10937,1.13542 -0.32812,1.625c-0.21875,0.47917 -0.52604,0.89063 -0.92187,1.23438c-0.38542,0.34375 -0.84375,0.60938 -1.375,0.79688c-0.53125,0.1875 -1.09375,0.28125 -1.6875,0.28125zM240.03122,185.17187c0.53125,0 0.99479,-0.09896 1.39063,-0.29687c0.40625,-0.20833 0.71875,-0.48958 0.9375,-0.84375c0.21875,-0.36458 0.32813,-0.79167 0.32813,-1.28125c0,-0.5 -0.10937,-0.92708 -0.32812,-1.28125c-0.21875,-0.36458 -0.53125,-0.64583 -0.9375,-0.84375c-0.40625,-0.20833 -0.88542,-0.3125 -1.4375,-0.3125c-0.53125,0 -1,0.10417 -1.40625,0.3125c-0.40625,0.19792 -0.72396,0.47917 -0.95312,0.84375c-0.21875,0.35417 -0.32812,0.78125 -0.32812,1.28125c0,0.48958 0.10938,0.91667 0.32813,1.28125c0.22917,0.35417 0.54688,0.63542 0.95313,0.84375c0.41667,0.19792 0.90104,0.29688 1.45313,0.29688zM240.03122,178.92187c0.45833,0 0.84896,-0.08333 1.17188,-0.25c0.33333,-0.16667 0.59375,-0.40625 0.78125,-0.71875c0.1875,-0.3125 0.28125,-0.67187 0.28125,-1.07812c0,-0.40625 -0.09375,-0.76042 -0.28125,-1.0625c-0.1875,-0.30208 -0.45312,-0.53125 -0.79687,-0.6875c-0.33333,-0.16667 -0.72917,-0.25 -1.1875,-0.25c-0.44792,0 -0.83854,0.08333 -1.17187,0.25c-0.33333,0.15625 -0.59375,0.38542 -0.78125,0.6875c-0.1875,0.30208 -0.28125,0.65625 -0.28125,1.0625c0,0.40625 0.09375,0.76563 0.28125,1.07813c0.1875,0.3125 0.45313,0.55208 0.79688,0.71875c0.34375,0.16667 0.73958,0.25 1.1875,0.25z" fill="#ffffff" stroke="none" stroke-width="1"/></g></g></svg>