<svg version="1.1" xmlns="http://www.w3.org/2000/svg" xmlns:xlink="http://www.w3.org/1999/xlink" width="9.10635" height="16.53126" viewBox="0,0,9.10635,16.53126"><g transform="translate(-235.44873,-171.73437)"><g data-paper-data="{&quot;isPaintingLayer&quot;:true}" fill-rule="nonzero" stroke-linecap="square" stroke-linejoin="miter" stroke-miterlimit="10" stroke-dasharray="" stroke-dashoffset="0" style="mix-blend-mode: normal"><path d="M241.97695,186.5156c-0.3125,0 -0.53125,-0.06771 -0.65625,-0.20312c-0.11458,-0.125 -0.17187,-0.33854 -0.17187,-0.64062v-11.375c0,-0.3125 0.0625,-0.52604 0.1875,-0.64062c0.125,-0.11458 0.34375,-0.17187 0.65625,-0.17187c0.30208,0 0.51042,0.06771 0.625,0.20313c0.125,0.125 0.1875,0.33854 0.1875,0.64063v11.375c0,0.29167 -0.0625,0.5 -0.1875,0.625c-0.11458,0.125 -0.32812,0.1875 -0.64062,0.1875zM238.61758,178.15622c-0.23958,0.19792 -0.44271,0.29688 -0.60937,0.29688c-0.15625,-0.01042 -0.33333,-0.125 -0.53125,-0.34375c-0.19792,-0.22917 -0.29167,-0.43229 -0.28125,-0.60937c0.02083,-0.17708 0.15104,-0.375 0.39063,-0.59375l3.60938,-3.125c0.20833,-0.19792 0.40104,-0.28646 0.57813,-0.26562c0.17708,0.01042 0.36458,0.11979 0.5625,0.32813c0.19792,0.21875 0.28646,0.41667 0.26563,0.59375c-0.01042,0.17708 -0.14583,0.38021 -0.40625,0.60938z" fill="#000000" stroke="#ffffff" stroke-width="3.5"/><path d="M241.97695,186.5156c-0.3125,0 -0.53125,-0.06771 -0.65625,-0.20312c-0.11458,-0.125 -0.17187,-0.33854 -0.17187,-0.64062v-11.375c0,-0.3125 0.0625,-0.52604 0.1875,-0.64062c0.125,-0.11458 0.34375,-0.17187 0.65625,-0.17187c0.30208,0 0.51042,0.06771 0.625,0.20313c0.125,0.125 0.1875,0.33854 0.1875,0.64063v11.375c0,0.29167 -0.0625,0.5 -0.1875,0.625c-0.11458,0.125 -0.32812,0.1875 -0.64062,0.1875zM238.61758,178.15622c-0.23958,0.19792 -0.44271,0.29688 -0.60937,0.29688c-0.15625,-0.01042 -0.33333,-0.125 -0.53125,-0.34375c-0.19792,-0.22917 -0.29167,-0.43229 -0.28125,-0.60937c0.02083,-0.17708 0.15104,-0.375 0.39063,-0.59375l3.60938,-3.125c0.20833,-0.19792 0.40104,-0.28646 0.57813,-0.26562c0.17708,0.01042 0.36458,0.11979 0.5625,0.32813c0.19792,0.21875 0.28646,0.41667 0.26563,0.59375c-0.01042,0.17708 -0.14583,0.38021 -0.40625,0.60938z" fill="#000000" stroke="#000000" stroke-width="2.5"/><path d="M241.97695,186.5156c-0.3125,0 -0.53125,-0.06771 -0.65625,-0.20312c-0.11458,-0.125 -0.17187,-0.33854 -0.17187,-0.64062v-11.375c0,-0.3125 0.0625,-0.52604 0.1875,-0.64062c0.125,-0.11458 0.34375,-0.17187 0.65625,-0.17187c0.30208,0 0.51042,0.06771 0.625,0.20313c0.125,0.125 0.1875,0.33854 0.1875,0.64063v11.375c0,0.29167 -0.0625,0.5 -0.1875,0.625c-0.11458,0.125 -0.32812,0.1875 -0.64062,0.1875zM238.61758,178.15622c-0.23958,0.19792 -0.44271,0.29688 -0.60937,0.29688c-0.15625,-0.01042 -0.33333,-0.125 -0.53125,-0.34375c-0.19792,-0.22917 -0.29167,-0.43229 -0.28125,-0.60937c0.02083,-0.17708 0.15104,-0.375 0.39063,-0.59375l3.60938,-3.125c0.20833,-0.19792 0.40104,-0.28646 0.57813,-0.26562c0.17708,0.01042 0.36458,0.11979 0.5625,0.32813c0.19792,0.21875 0.28646,0.41667 0.26563,0.59375c-0.01042,0.17708 -0.14583,0.38021 -0.40625,0.60938z" fill="#ffffff" stroke="none" stroke-width="1"/></g></g></svg>