<svg version="1.1" xmlns="http://www.w3.org/2000/svg" xmlns:xlink="http://www.w3.org/1999/xlink" width="20.0977" height="26.13348" viewBox="0,0,20.0977,26.13348"><g transform="translate(-229.95115,-167.53276)"><g data-paper-data="{&quot;isPaintingLayer&quot;:true}" fill-rule="nonzero" stroke-linecap="butt" stroke-linejoin="miter" stroke-miterlimit="10" stroke-dasharray="" stroke-dashoffset="0" style="mix-blend-mode: normal"><g data-paper-data="{&quot;index&quot;:null}" stroke="#000000" stroke-width="4"><path d="M232.02333,189.92664c0,-4.81904 0,-12.62438 0,-15.42853c0,-1.98457 1.4534,-3.47391 3.46966,-2.1995c3.49178,2.20701 8.67167,5.48103 10.91416,6.89842c2.06763,1.30688 2.13081,4.7817 0.09263,6.00861c-2.28842,1.37755 -7.68949,4.62879 -11.20848,6.74711c-1.91172,1.15079 -3.26798,0.32638 -3.26798,-2.02609z" data-paper-data="{&quot;index&quot;:null}" fill="#ececec"/><path d="M241.83492,182.8456v-5.06388h6.21393v5.06388z" data-paper-data="{&quot;index&quot;:null}" fill="#ececec"/><path d="M231.95116,185.63424c0,-4.81904 0,-12.62438 0,-15.42853c0,-1.98457 1.4534,-3.4739 3.46966,-2.1995c3.49178,2.20701 8.67167,5.48103 10.91417,6.89842c2.06763,1.30688 2.13081,4.7817 0.09263,6.00861c-2.28842,1.37755 -7.6895,4.62879 -11.20849,6.74709c-1.91172,1.15079 -3.26798,0.32638 -3.26798,-2.02609z" data-paper-data="{&quot;index&quot;:null}" fill="#ffffff"/></g><path d="M232.02333,189.92664c0,-4.81904 0,-12.62438 0,-15.42853c0,-1.98457 1.4534,-3.47391 3.46966,-2.1995c3.49178,2.20701 8.67167,5.48103 10.91416,6.89842c2.06763,1.30688 2.13081,4.7817 0.09263,6.00861c-2.28842,1.37755 -7.68949,4.62879 -11.20848,6.74711c-1.91172,1.15079 -3.26798,0.32638 -3.26798,-2.02609z" fill="#ececec" stroke="none" stroke-width="NaN"/><path d="M241.83492,182.8456v-5.06388h6.21393v5.06388z" fill="#ececec" stroke="none" stroke-width="0"/><path d="M231.95116,185.63424c0,-4.81904 0,-12.62438 0,-15.42853c0,-1.98457 1.4534,-3.4739 3.46966,-2.1995c3.49178,2.20701 8.67167,5.48103 10.91417,6.89842c2.06763,1.30688 2.13081,4.7817 0.09263,6.00861c-2.28842,1.37755 -7.6895,4.62879 -11.20849,6.74709c-1.91172,1.15079 -3.26798,0.32638 -3.26798,-2.02609z" fill="#ffffff" stroke="none" stroke-width="NaN"/></g></g></svg>