<svg version="1.1" xmlns="http://www.w3.org/2000/svg" xmlns:xlink="http://www.w3.org/1999/xlink" width="543.03508" height="326.06978" viewBox="0,0,543.03508,326.06978"><g transform="translate(13.23585,-14.63663)"><g data-paper-data="{&quot;isPaintingLayer&quot;:true}" fill-rule="nonzero" stroke-linejoin="miter" stroke-miterlimit="10" stroke-dasharray="" stroke-dashoffset="0" style="mix-blend-mode: normal"><path d="M-13.23585,340.70641v-326.06978h543.03508v326.06978z" fill="#666666" stroke="none" stroke-width="0" stroke-linecap="butt"/><g fill="#ff9b00" stroke="#ffffff" stroke-width="12.5" stroke-linecap="square"><path d="M82.37194,192.88019c-0.81324,0 -1.432,-0.12376 -1.8563,-0.37126c-0.38894,-0.21215 -0.65412,-0.53037 -0.79555,-0.95466c-0.10608,-0.45965 -0.15911,-0.99003 -0.15911,-1.59111v-38.45182c0,-1.0961 0.21215,-1.83862 0.63644,-2.22755c0.45965,-0.38894 1.25521,-0.58341 2.38666,-0.58341h25.45776c0.60108,0 1.09609,0.07072 1.48503,0.21215c0.38894,0.10608 0.68948,0.37126 0.90163,0.79556c0.21215,0.42429 0.31822,1.04306 0.31822,1.85629c0,0.84859 -0.12376,1.48504 -0.37126,1.90933c-0.21215,0.38894 -0.53037,0.65412 -0.95467,0.79555c-0.4243,0.10607 -0.9193,0.15911 -1.48503,0.15911h-22.69983v13.10014h15.80503c0.56573,0 1.04306,0.07071 1.432,0.21214c0.4243,0.14143 0.74252,0.40661 0.95467,0.79556c0.21215,0.35358 0.31822,0.93699 0.31822,1.75023c0,0.74252 -0.10607,1.30824 -0.31822,1.69718c-0.21215,0.38894 -0.53037,0.63644 -0.95467,0.74252c-0.38894,0.10607 -0.90163,0.15911 -1.53807,0.15911h-15.69895v17.13095c0,0.60109 -0.07072,1.11378 -0.21215,1.53808c-0.10608,0.4243 -0.37126,0.74251 -0.79555,0.95466c-0.38894,0.2475 -1.00771,0.37126 -1.8563,0.37126zM128.32394,192.88019c-1.3436,0 -2.56345,-0.12376 -3.65955,-0.37126c-1.06074,-0.21215 -1.99773,-0.56573 -2.81096,-1.06074c-0.81324,-0.53037 -1.48504,-1.18449 -2.01541,-1.96237c-0.53037,-0.81324 -0.91931,-1.78558 -1.16681,-2.91704c-0.21215,-1.16682 -0.31822,-2.51041 -0.31822,-4.03081v-31.66309c0,-0.63644 0.05304,-1.14913 0.15911,-1.53807c0.10608,-0.4243 0.37126,-0.7602 0.79556,-1.0077c0.4243,-0.24751 1.02538,-0.37126 1.80325,-0.37126c0.81324,0 1.41432,0.10607 1.80326,0.31822c0.42429,0.21215 0.68948,0.53037 0.79555,0.95466c0.14143,0.4243 0.21215,0.93699 0.21215,1.53807v31.71612c0,0.84859 0.08839,1.5911 0.26518,2.22755c0.17679,0.60109 0.44198,1.11378 0.79556,1.53807c0.35358,0.4243 0.79556,0.72484 1.32593,0.90163c0.56573,0.14143 1.23753,0.21214 2.01541,0.21214c0.49501,0 0.91931,0.07072 1.27289,0.21215c0.35358,0.10608 0.63645,0.35358 0.8486,0.74252c0.21215,0.38894 0.31822,0.97235 0.31822,1.75022c0,0.84859 -0.10607,1.48504 -0.31822,1.90933c-0.21215,0.38894 -0.49502,0.63645 -0.8486,0.74252c-0.35358,0.10608 -0.77787,0.15911 -1.27289,0.15911zM162.56005,192.82716c-0.91931,0 -1.59111,-0.19447 -2.0154,-0.58341c-0.38894,-0.38894 -0.61876,-0.97235 -0.68948,-1.75022l0.26519,-3.18222c-0.4243,0.6718 -1.0961,1.44968 -2.01541,2.33363c-0.88395,0.84859 -2.05076,1.60879 -3.50044,2.28059c-1.41432,0.63644 -3.14686,0.95466 -5.19763,0.95466c-2.05077,0 -3.96009,-0.38894 -5.72799,-1.16682c-1.73254,-0.81323 -3.27061,-1.94468 -4.61422,-3.39436c-1.30824,-1.44968 -2.33362,-3.09383 -3.07614,-4.93245c-0.74252,-1.87397 -1.11378,-3.85402 -1.11378,-5.94014c0,-2.08612 0.37126,-4.0485 1.11378,-5.88711c0.74252,-1.83862 1.78557,-3.44741 3.12918,-4.82637c1.37896,-1.41432 2.93472,-2.51042 4.66726,-3.28829c1.7679,-0.81324 3.64187,-1.21985 5.62192,-1.21985c1.83862,0 3.41205,0.24751 4.7203,0.74252c1.30824,0.49501 2.4397,1.13146 3.39436,1.90933c0.95467,0.77787 1.78558,1.64415 2.49274,2.59881l-0.10608,-2.65185c-0.03536,-0.91931 0.15911,-1.57342 0.58341,-1.96236c0.45965,-0.42429 1.16682,-0.63645 2.12148,-0.63645c0.81323,0 1.39664,0.12376 1.75022,0.37126c0.35358,0.24751 0.5834,0.61877 0.68948,1.11378c0.14143,0.45965 0.21215,1.02539 0.21215,1.69718v24.45006c0,0.56573 -0.07072,1.0961 -0.21215,1.59111c-0.10608,0.45965 -0.35358,0.79556 -0.74252,1.0077c-0.35358,0.24751 -0.93699,0.37126 -1.75022,0.37126zM150.36154,187.57649c1.66182,0 3.1999,-0.44197 4.61422,-1.32592c1.41432,-0.91931 2.5281,-2.12148 3.34133,-3.60651c0.84859,-1.48504 1.27289,-3.1999 1.27289,-5.14459c0,-1.98005 -0.44198,-3.71259 -1.32593,-5.19763c-0.84859,-1.5204 -1.98005,-2.70489 -3.39437,-3.55348c-1.41432,-0.88395 -2.97007,-1.32592 -4.66726,-1.32592c-1.98005,0 -3.69491,0.45965 -5.14459,1.37896c-1.44968,0.88395 -2.59882,2.08613 -3.44741,3.60652c-0.84859,1.5204 -1.27289,3.25293 -1.27289,5.19762c0,1.90933 0.4243,3.62419 1.27289,5.14459c0.84859,1.48504 2.01541,2.66953 3.50044,3.55348c1.5204,0.84859 3.27061,1.27289 5.25066,1.27289zM188.35488,192.61501c-2.08612,0 -3.97778,-0.37126 -5.67496,-1.11378c-1.66182,-0.77787 -3.09383,-1.83862 -4.296,-3.18222c-1.16682,-1.37896 -2.08613,-3.00543 -2.75792,-4.87941c-0.63645,-1.87397 -0.93699,-3.92474 -0.90163,-6.15229c0,-2.19219 0.31822,-4.2076 0.95467,-6.04621c0.63645,-1.87397 1.55576,-3.50045 2.75793,-4.87941c1.20217,-1.37896 2.63417,-2.42202 4.296,-3.12918c1.66182,-0.74252 3.53581,-1.11378 5.62193,-1.11378c1.94469,0 3.76563,0.38894 5.46281,1.16681c1.69718,0.74252 3.18222,1.80326 4.45511,3.18222c1.30824,1.34361 2.33362,2.97007 3.07614,4.87941c0.74252,1.90933 1.11378,3.96009 1.11378,6.15229c0,2.19219 -0.37125,4.22528 -1.11378,6.09925c-0.74252,1.83862 -1.7679,3.42972 -3.07614,4.77333c-1.27289,1.34361 -2.75793,2.38666 -4.45511,3.12919c-1.69718,0.74252 -3.51812,1.11378 -5.46281,1.11378zM175.14867,205.34389c-0.77787,0 -1.37896,-0.12376 -1.80325,-0.37126c-0.38894,-0.21215 -0.65412,-0.53037 -0.79556,-0.95467c-0.14143,-0.42429 -0.21215,-0.93699 -0.21215,-1.53807v-37.39108c0,-0.60109 0.05303,-1.11378 0.15911,-1.53807c0.14143,-0.42429 0.40662,-0.74251 0.79556,-0.95467c0.4243,-0.2475 1.02539,-0.37126 1.80326,-0.37126c0.91931,0 1.60879,0.15912 2.06844,0.47734c0.45965,0.28287 0.72484,0.79555 0.79556,1.53807v38.18664c0.03536,0.60109 -0.01768,1.11378 -0.15911,1.53808c-0.10608,0.45965 -0.37126,0.79555 -0.79556,1.0077c-0.38894,0.2475 -1.00771,0.37126 -1.8563,0.37126zM187.50629,187.41738c1.7679,0 3.37669,-0.4243 4.82637,-1.27289c1.44968,-0.88395 2.58113,-2.08612 3.39436,-3.60651c0.81323,-1.5204 1.21985,-3.25293 1.21985,-5.19763c0,-1.98005 -0.40662,-3.69491 -1.21985,-5.14459c-0.81323,-1.48503 -1.92701,-2.63417 -3.34133,-3.44741c-1.41432,-0.84859 -3.04079,-1.27289 -4.8794,-1.27289c-1.7679,0 -3.35901,0.4243 -4.77333,1.27289c-1.41432,0.84859 -2.5281,2.0154 -3.34133,3.50044c-0.81323,1.44968 -1.21985,3.14686 -1.21985,5.09155c0,1.94469 0.40662,3.67723 1.21985,5.19763c0.81323,1.5204 1.92701,2.72257 3.34133,3.60651c1.41432,0.84859 3.00543,1.27289 4.77333,1.27289zM224.70418,192.61501c-2.08612,0 -3.97778,-0.37126 -5.67496,-1.11378c-1.66182,-0.77787 -3.09383,-1.83862 -4.296,-3.18222c-1.16682,-1.37896 -2.08613,-3.00543 -2.75792,-4.87941c-0.63645,-1.87397 -0.93699,-3.92474 -0.90163,-6.15229c0,-2.19219 0.31823,-4.2076 0.95467,-6.04621c0.63645,-1.87397 1.55575,-3.50045 2.75792,-4.87941c1.20217,-1.37896 2.63418,-2.42202 4.296,-3.12918c1.66182,-0.74252 3.5358,-1.11378 5.62192,-1.11378c1.94469,0 3.76563,0.38894 5.46281,1.16681c1.69718,0.74252 3.18222,1.80326 4.45511,3.18222c1.30824,1.34361 2.33362,2.97007 3.07614,4.87941c0.74252,1.90933 1.11378,3.96009 1.11378,6.15229c0,2.19219 -0.37126,4.22528 -1.11378,6.09925c-0.74252,1.83862 -1.7679,3.42972 -3.07614,4.77333c-1.27289,1.34361 -2.75793,2.38666 -4.45511,3.12919c-1.69718,0.74252 -3.51812,1.11378 -5.46281,1.11378zM211.49797,205.34389c-0.77787,0 -1.37896,-0.12376 -1.80326,-0.37126c-0.38894,-0.21215 -0.65412,-0.53037 -0.79556,-0.95467c-0.14143,-0.42429 -0.21215,-0.93699 -0.21215,-1.53807v-37.39108c0,-0.60109 0.05304,-1.11378 0.15912,-1.53807c0.14143,-0.42429 0.40662,-0.74251 0.79556,-0.95467c0.4243,-0.2475 1.02538,-0.37126 1.80325,-0.37126c0.91931,0 1.60879,0.15912 2.06844,0.47734c0.45965,0.28287 0.72484,0.79555 0.79556,1.53807v38.18664c0.03536,0.60109 -0.01768,1.11378 -0.15911,1.53808c-0.10608,0.45965 -0.37126,0.79555 -0.79556,1.0077c-0.38894,0.2475 -1.0077,0.37126 -1.85629,0.37126zM223.85559,187.41738c1.7679,0 3.37669,-0.4243 4.82637,-1.27289c1.44968,-0.88395 2.58113,-2.08612 3.39437,-3.60651c0.81323,-1.5204 1.21985,-3.25293 1.21985,-5.19763c0,-1.98005 -0.40662,-3.69491 -1.21985,-5.14459c-0.81323,-1.48503 -1.92701,-2.63417 -3.34133,-3.44741c-1.41432,-0.84859 -3.04079,-1.27289 -4.8794,-1.27289c-1.7679,0 -3.35901,0.4243 -4.77333,1.27289c-1.41432,0.84859 -2.5281,2.0154 -3.34133,3.50044c-0.81323,1.44968 -1.21986,3.14686 -1.21986,5.09155c0,1.94469 0.40662,3.67723 1.21986,5.19763c0.81323,1.5204 1.92701,2.72257 3.34133,3.60651c1.41432,0.84859 3.00543,1.27289 4.77333,1.27289zM250.40144,205.18478c-1.02538,-0.4243 -1.62647,-0.91931 -1.80326,-1.48504c-0.14143,-0.53037 0.01768,-1.29057 0.47734,-2.28059l16.75969,-37.65626c0.45965,-0.99003 0.95467,-1.59111 1.48504,-1.80326c0.53037,-0.2475 1.29057,-0.15911 2.28059,0.26518c0.99002,0.45965 1.55575,0.97235 1.69718,1.53808c0.17679,0.53037 0.05303,1.2552 -0.37126,2.17451l-16.9188,37.92145c-0.4243,0.95466 -0.90163,1.5204 -1.432,1.69718c-0.49501,0.17679 -1.21985,0.05304 -2.17451,-0.37126zM256.6598,188.84938l-14.4791,-22.38162c-0.56573,-0.84859 -0.79556,-1.55575 -0.68948,-2.12148c0.14143,-0.56573 0.63645,-1.13145 1.48504,-1.69718c0.95467,-0.56573 1.71486,-0.77787 2.28059,-0.63644c0.56573,0.14143 1.14914,0.63645 1.75022,1.48504l12.25155,19.30546zM295.28773,192.88019c-0.74252,0 -1.32592,-0.14143 -1.75022,-0.4243c-0.38894,-0.28287 -0.65412,-0.6718 -0.79555,-1.16681c-0.10608,-0.53037 -0.15911,-1.11378 -0.15911,-1.75022v-37.65627c0,-0.60109 0.07071,-1.14913 0.21214,-1.64414c0.14143,-0.49501 0.40662,-0.86627 0.79556,-1.11378c0.4243,-0.28286 1.0077,-0.42429 1.75022,-0.42429h17.71436c2.33363,0 4.40207,0.53037 6.20533,1.59111c1.80326,1.02538 3.1999,2.45738 4.18992,4.296c1.02538,1.80326 1.5204,3.7833 1.48504,5.94014c0.03536,1.0961 -0.10608,2.17452 -0.4243,3.23526c-0.28287,1.06074 -0.70716,2.05076 -1.27288,2.97007c-0.56573,0.88395 -1.27289,1.62647 -2.12148,2.22756c1.16681,0.70716 2.13916,1.62646 2.91703,2.75792c0.81324,1.13146 1.432,2.40434 1.8563,3.81867c0.4243,1.37896 0.63644,2.82864 0.63644,4.34904c-0.03536,1.83862 -0.37126,3.55348 -1.0077,5.14459c-0.63644,1.55575 -1.55575,2.93471 -2.75792,4.13689c-1.16681,1.16681 -2.5281,2.08612 -4.08385,2.75793c-1.55575,0.63644 -3.23525,0.95466 -5.03851,0.95466zM298.2578,187.41738h14.79733c1.62647,0 3.02311,-0.31822 4.18993,-0.95466c1.20217,-0.63645 2.12148,-1.55576 2.75792,-2.75792c0.63644,-1.23753 0.95466,-2.74025 0.95466,-4.50815c0,-1.5204 -0.21214,-2.74025 -0.63644,-3.65956c-0.42429,-0.91931 -1.0077,-1.62647 -1.75022,-2.12148c-0.70716,-0.49501 -1.46736,-0.84859 -2.28059,-1.06074c-0.81324,-0.21215 -1.60879,-0.31822 -2.38666,-0.31822c-0.77787,-0.03536 -1.48504,-0.05304 -2.12148,-0.05304h-3.8717c-0.84859,0 -1.46735,-0.21215 -1.85629,-0.63644c-0.38894,-0.4243 -0.5834,-1.0961 -0.5834,-2.01541c0,-0.88395 0.19446,-1.52039 0.5834,-1.90933c0.42429,-0.38894 1.06074,-0.5834 1.90933,-0.5834h3.8717c0.6718,0 1.432,-0.01768 2.28059,-0.05304c0.84859,-0.03536 1.67951,-0.19447 2.49274,-0.47733c0.81324,-0.31822 1.48504,-0.88395 2.0154,-1.69718c0.53037,-0.81323 0.79556,-1.98004 0.79556,-3.50044c0,-2.36899 -0.63644,-4.11921 -1.90933,-5.25066c-1.27289,-1.13146 -3.35901,-1.69718 -6.25837,-1.69718h-12.99407zM336.5385,192.88019c-0.81323,0 -1.432,-0.12376 -1.85629,-0.37126c-0.38894,-0.21215 -0.65413,-0.53037 -0.79556,-0.95466c-0.10608,-0.4243 -0.15911,-0.93699 -0.15911,-1.53808v-24.98042c0,-0.60109 0.05304,-1.11378 0.15911,-1.53807c0.14143,-0.42429 0.40661,-0.74252 0.79556,-0.95467c0.42429,-0.21215 1.06074,-0.31822 1.90933,-0.31822c0.81324,0 1.39664,0.12376 1.75022,0.37126c0.38894,0.21215 0.63644,0.53037 0.74252,0.95467c0.14143,0.42429 0.21215,0.95466 0.21215,1.59111v24.92739c0,0.60109 -0.07072,1.11378 -0.21215,1.53807c-0.10608,0.42429 -0.37126,0.74252 -0.79556,0.95467c-0.38894,0.21215 -0.97235,0.31822 -1.75022,0.31822zM336.5385,154.64052c-0.95466,0 -1.66183,-0.14143 -2.12148,-0.42429c-0.45965,-0.28286 -0.7602,-0.67181 -0.90163,-1.16681c-0.14143,-0.49501 -0.21215,-1.0961 -0.21215,-1.80326c0,-0.6718 0.07072,-1.23753 0.21215,-1.69718c0.17679,-0.49501 0.49501,-0.84859 0.95466,-1.06074c0.49501,-0.2475 1.20217,-0.37126 2.12148,-0.37126c0.88395,0 1.55575,0.12375 2.0154,0.37126c0.45965,0.24751 0.7602,0.63644 0.90163,1.16682c0.17679,0.49501 0.26518,1.07842 0.26518,1.75022c0,0.6718 -0.08839,1.25521 -0.26518,1.75023c-0.14143,0.45965 -0.44198,0.83091 -0.90163,1.11377c-0.45965,0.2475 -1.14913,0.37126 -2.06844,0.37126zM350.40529,192.88019c-0.81324,0 -1.432,-0.12376 -1.8563,-0.37126c-0.38894,-0.21215 -0.63644,-0.53037 -0.74251,-0.95466c-0.10608,-0.45965 -0.15911,-0.99003 -0.15911,-1.59111v-24.92739c0,-0.63644 0.07071,-1.16681 0.21214,-1.59111c0.14143,-0.4243 0.38894,-0.72484 0.74252,-0.90163c0.38894,-0.21215 1.0077,-0.31822 1.8563,-0.31822c0.74252,0 1.30824,0.10607 1.69718,0.31822c0.42429,0.17679 0.70716,0.44198 0.84859,0.79556c0.14143,0.35358 0.21215,0.7602 0.21215,1.21985l-0.21215,1.90933c0.28287,-0.53037 0.61877,-1.07842 1.0077,-1.64415c0.4243,-0.56573 0.93699,-1.06074 1.53807,-1.48503c0.60109,-0.45965 1.32592,-0.83091 2.17452,-1.11378c0.88395,-0.28286 1.96237,-0.42429 3.23526,-0.42429c0.63644,0 1.23753,0.05303 1.80326,0.15911c0.56573,0.10608 1.11378,0.26518 1.64415,0.47734c0.53037,0.21215 0.99002,0.45965 1.37896,0.74251c0.38894,0.2475 0.68948,0.53037 0.90163,0.84859c0.2475,0.31822 0.37126,0.68948 0.37126,1.11378c0,0.91931 -0.30054,1.71486 -0.90163,2.38666c-0.60109,0.63644 -1.21985,0.95466 -1.8563,0.95466c-0.53037,0 -0.91931,-0.07072 -1.16681,-0.21215c-0.24751,-0.14143 -0.49501,-0.30054 -0.74252,-0.47733c-0.2475,-0.17679 -0.58341,-0.3359 -1.0077,-0.47733c-0.38894,-0.14143 -1.06074,-0.21215 -2.0154,-0.21215c-0.63644,0 -1.30825,0.12375 -2.0154,0.37126c-0.6718,0.2475 -1.32593,0.61877 -1.96237,1.11378c-0.63644,0.49501 -1.16681,1.13145 -1.59111,1.90933c-0.38894,0.74252 -0.5834,1.60879 -0.5834,2.59882v16.97184c0,0.60109 -0.07072,1.11378 -0.21215,1.53807c-0.10607,0.42429 -0.35358,0.74252 -0.74252,0.95467c-0.38894,0.21215 -1.0077,0.31822 -1.85629,0.31822zM384.66315,192.88019c-1.90933,0 -3.73027,-0.37126 -5.46281,-1.11378c-1.73254,-0.77787 -3.25294,-1.8563 -4.56118,-3.23526c-1.27289,-1.41432 -2.28059,-3.05847 -3.02311,-4.93244c-0.70716,-1.87397 -1.06074,-3.92473 -1.06074,-6.15229c0,-2.19219 0.35358,-4.22528 1.06074,-6.09925c0.74252,-1.87398 1.75022,-3.48277 3.02311,-4.82637c1.30824,-1.37896 2.82864,-2.4397 4.56118,-3.18222c1.73254,-0.77787 3.55348,-1.16681 5.46281,-1.16681c2.05076,0 3.90706,0.38894 5.56888,1.16681c1.69718,0.74252 3.14686,1.80326 4.34903,3.18222c1.20217,1.3436 2.1038,2.97007 2.70489,4.8794c0.63644,1.87398 0.95466,3.90706 0.95466,6.09926c0.07071,2.22755 -0.22983,4.27831 -0.90163,6.15229c-0.63644,1.83862 -1.55575,3.46508 -2.75792,4.87941c-1.16682,1.37896 -2.59881,2.45738 -4.296,3.23526c-1.66183,0.74252 -3.5358,1.11378 -5.62192,1.11378zM385.45871,187.47042c1.7679,0 3.35901,-0.40662 4.77333,-1.21985c1.41432,-0.84859 2.5281,-2.0154 3.34133,-3.50044c0.84859,-1.5204 1.27288,-3.25294 1.27288,-5.19763c0,-1.98005 -0.4243,-3.71259 -1.27288,-5.19762c-0.81324,-1.5204 -1.92701,-2.70489 -3.34133,-3.55348c-1.41432,-0.84859 -3.00543,-1.27288 -4.77333,-1.27288c-1.7679,0 -3.37669,0.42429 -4.82637,1.27288c-1.41432,0.84859 -2.54577,2.03309 -3.39436,3.55348c-0.81323,1.48503 -1.21985,3.21757 -1.21985,5.19762c0,1.94469 0.40661,3.67723 1.21985,5.19763c0.84859,1.48504 1.99773,2.65185 3.44741,3.50044c1.44968,0.81323 3.04079,1.21985 4.77333,1.21985zM397.86936,192.88019c-0.91931,0 -1.59111,-0.17679 -2.0154,-0.53037c-0.4243,-0.31822 -0.6718,-0.88395 -0.74252,-1.69718v-39.61863c0,-0.63645 0.05304,-1.16682 0.15912,-1.59111c0.10607,-0.42429 0.35357,-0.74252 0.74251,-0.95467c0.38894,-0.2475 0.99003,-0.37126 1.80326,-0.37126c0.81324,0 1.41431,0.12375 1.80326,0.37126c0.38894,0.21215 0.65413,0.53038 0.79556,0.95467c0.14143,0.42429 0.21215,0.93698 0.21215,1.53807v38.98219c0,0.60109 -0.07072,1.13146 -0.21215,1.59111c-0.14143,0.4243 -0.40662,0.74251 -0.79556,0.95466c-0.35358,0.2475 -0.93698,0.37126 -1.75022,0.37126z"/><path d="M82.18367,199.2883c-0.81324,0 -1.432,-0.12375 -1.8563,-0.37126c-0.38894,-0.21215 -0.65412,-0.53037 -0.79555,-0.95466c-0.10608,-0.45965 -0.15911,-0.99002 -0.15911,-1.59111v-38.45182c0,-1.0961 0.21215,-1.83862 0.63644,-2.22756c0.45965,-0.38894 1.25521,-0.5834 2.38666,-0.5834h25.45776c0.60108,0 1.09609,0.07072 1.48503,0.21215c0.38894,0.10608 0.68948,0.37126 0.90163,0.79556c0.21215,0.4243 0.31822,1.04306 0.31822,1.85629c0,0.84859 -0.12376,1.48503 -0.37126,1.90933c-0.21215,0.38894 -0.53037,0.65413 -0.95467,0.79556c-0.4243,0.10607 -0.9193,0.15911 -1.48503,0.15911h-22.69983v13.10014h15.80503c0.56573,0 1.04306,0.07072 1.432,0.21215c0.4243,0.14143 0.74251,0.40661 0.95466,0.79555c0.21215,0.35358 0.31822,0.93699 0.31822,1.75023c0,0.74252 -0.10607,1.30824 -0.31822,1.69718c-0.21215,0.38894 -0.53037,0.63644 -0.95466,0.74252c-0.38894,0.10608 -0.90163,0.15911 -1.53808,0.15911h-15.69895v17.13095c0,0.60109 -0.07072,1.11378 -0.21215,1.53808c-0.10608,0.4243 -0.37126,0.74252 -0.79555,0.95466c-0.38894,0.24751 -1.00771,0.37126 -1.8563,0.37126zM128.13568,199.2883c-1.3436,0 -2.56346,-0.12375 -3.65956,-0.37126c-1.06074,-0.21215 -1.99773,-0.56573 -2.81096,-1.06074c-0.81324,-0.53037 -1.48503,-1.18449 -2.0154,-1.96237c-0.53037,-0.81323 -0.91931,-1.78558 -1.16681,-2.91703c-0.21215,-1.16682 -0.31823,-2.51042 -0.31823,-4.03081v-31.66309c0,-0.63645 0.05304,-1.14913 0.15911,-1.53807c0.10608,-0.4243 0.37126,-0.7602 0.79556,-1.0077c0.4243,-0.2475 1.02538,-0.37126 1.80325,-0.37126c0.81324,0 1.41432,0.10608 1.80326,0.31822c0.42429,0.21215 0.68948,0.53037 0.79555,0.95466c0.14143,0.4243 0.21215,0.93699 0.21215,1.53808v31.71612c0,0.84859 0.08839,1.59111 0.26518,2.22755c0.17679,0.60109 0.44198,1.11378 0.79556,1.53807c0.35358,0.4243 0.79556,0.72484 1.32593,0.90163c0.56573,0.14143 1.23754,0.21214 2.01541,0.21214c0.49501,0 0.9193,0.07072 1.27288,0.21215c0.35358,0.10607 0.63645,0.35358 0.8486,0.74252c0.21215,0.38894 0.31822,0.97234 0.31822,1.75022c0,0.84859 -0.10607,1.48504 -0.31822,1.90933c-0.21215,0.38894 -0.49502,0.63644 -0.8486,0.74252c-0.35358,0.10607 -0.77787,0.15911 -1.27288,0.15911zM162.37178,199.23527c-0.91931,0 -1.59111,-0.19447 -2.0154,-0.58341c-0.38894,-0.38894 -0.61876,-0.97235 -0.68948,-1.75022l0.26519,-3.18222c-0.4243,0.6718 -1.0961,1.44968 -2.01541,2.33363c-0.88395,0.84859 -2.05076,1.60879 -3.50044,2.28059c-1.41432,0.63644 -3.14686,0.95466 -5.19763,0.95466c-2.05077,0 -3.96009,-0.38894 -5.72799,-1.16681c-1.73254,-0.81324 -3.27061,-1.94469 -4.61422,-3.39436c-1.30824,-1.44968 -2.33362,-3.09383 -3.07614,-4.93245c-0.74252,-1.87397 -1.11378,-3.85402 -1.11378,-5.94014c0,-2.08612 0.37126,-4.0485 1.11378,-5.88711c0.74252,-1.83862 1.78557,-3.4474 3.12918,-4.82636c1.37896,-1.41432 2.93472,-2.51042 4.66726,-3.2883c1.7679,-0.81323 3.64187,-1.21985 5.62192,-1.21985c1.83862,0 3.41205,0.24751 4.7203,0.74252c1.30824,0.49501 2.4397,1.13146 3.39436,1.90933c0.95467,0.77787 1.78558,1.64414 2.49274,2.59881l-0.10608,-2.65185c-0.03536,-0.91931 0.15912,-1.57343 0.58341,-1.96236c0.45965,-0.4243 1.16681,-0.63645 2.12148,-0.63645c0.81323,0 1.39664,0.12376 1.75022,0.37126c0.35358,0.2475 0.5834,0.61876 0.68948,1.11377c0.14143,0.45965 0.21215,1.02539 0.21215,1.69718v24.45006c0,0.56573 -0.07072,1.0961 -0.21215,1.59111c-0.10608,0.45965 -0.35358,0.79556 -0.74252,1.0077c-0.35358,0.24751 -0.93699,0.37126 -1.75022,0.37126zM150.17327,193.9846c1.66182,0 3.1999,-0.44198 4.61422,-1.32593c1.41432,-0.91931 2.5281,-2.12148 3.34133,-3.60651c0.84859,-1.48504 1.27289,-3.1999 1.27289,-5.14459c0,-1.98005 -0.44198,-3.71259 -1.32593,-5.19763c-0.84859,-1.5204 -1.98005,-2.70489 -3.39437,-3.55348c-1.41432,-0.88395 -2.97007,-1.32592 -4.66726,-1.32592c-1.98005,0 -3.69491,0.45965 -5.14459,1.37896c-1.44968,0.88395 -2.59882,2.08613 -3.44741,3.60652c-0.84859,1.5204 -1.27289,3.25293 -1.27289,5.19763c0,1.90933 0.4243,3.62419 1.27289,5.14459c0.84859,1.48503 2.01541,2.66953 3.50045,3.55347c1.5204,0.84859 3.27061,1.27289 5.25066,1.27289zM188.16662,199.02312c-2.08612,0 -3.97778,-0.37126 -5.67496,-1.11378c-1.66182,-0.77787 -3.09383,-1.83862 -4.296,-3.18222c-1.16682,-1.37896 -2.08613,-3.00543 -2.75792,-4.87941c-0.63645,-1.87398 -0.93699,-3.92474 -0.90163,-6.15229c0,-2.1922 0.31822,-4.2076 0.95466,-6.04622c0.63645,-1.87397 1.55576,-3.50044 2.75793,-4.8794c1.20217,-1.37896 2.63417,-2.42202 4.296,-3.12918c1.66182,-0.74252 3.53581,-1.11378 5.62193,-1.11378c1.94469,0 3.76563,0.38894 5.46281,1.16681c1.69718,0.74252 3.18222,1.80326 4.45511,3.18222c1.30824,1.34361 2.33362,2.97008 3.07614,4.87941c0.74252,1.90933 1.11378,3.9601 1.11378,6.15229c0,2.19219 -0.37125,4.22528 -1.11378,6.09925c-0.74252,1.83862 -1.7679,3.42973 -3.07614,4.77333c-1.27289,1.34361 -2.75793,2.38666 -4.45511,3.12919c-1.69718,0.74252 -3.51812,1.11378 -5.46281,1.11378zM174.9604,211.752c-0.77787,0 -1.37896,-0.12375 -1.80325,-0.37126c-0.38894,-0.21215 -0.65412,-0.53037 -0.79556,-0.95466c-0.14143,-0.4243 -0.21215,-0.93699 -0.21215,-1.53808v-37.39108c0,-0.60109 0.05303,-1.11377 0.15911,-1.53807c0.14143,-0.4243 0.40662,-0.74252 0.79556,-0.95467c0.4243,-0.2475 1.02539,-0.37126 1.80326,-0.37126c0.91931,0 1.60879,0.15911 2.06844,0.47733c0.45965,0.28287 0.72484,0.79555 0.79556,1.53807v38.18664c0.03536,0.60109 -0.01768,1.11378 -0.15911,1.53808c-0.10608,0.45965 -0.37126,0.79555 -0.79556,1.0077c-0.38894,0.24751 -1.00771,0.37126 -1.8563,0.37126zM187.31802,193.82549c1.7679,0 3.37669,-0.4243 4.82637,-1.27289c1.44968,-0.88395 2.58113,-2.08612 3.39436,-3.60652c0.81323,-1.5204 1.21985,-3.25293 1.21985,-5.19763c0,-1.98005 -0.40662,-3.69491 -1.21985,-5.14459c-0.81323,-1.48503 -1.92701,-2.63417 -3.34133,-3.44741c-1.41432,-0.84859 -3.04079,-1.27289 -4.8794,-1.27289c-1.7679,0 -3.35901,0.4243 -4.77333,1.27289c-1.41432,0.84859 -2.5281,2.0154 -3.34133,3.50044c-0.81323,1.44968 -1.21985,3.14687 -1.21985,5.09155c0,1.94469 0.40662,3.67723 1.21985,5.19763c0.81323,1.5204 1.92701,2.72257 3.34133,3.60652c1.41432,0.84859 3.00543,1.27289 4.77333,1.27289zM224.51592,199.02312c-2.08612,0 -3.97778,-0.37126 -5.67496,-1.11378c-1.66182,-0.77787 -3.09383,-1.83862 -4.296,-3.18222c-1.16682,-1.37896 -2.08613,-3.00543 -2.75792,-4.87941c-0.63645,-1.87398 -0.93699,-3.92474 -0.90163,-6.15229c0,-2.1922 0.31822,-4.2076 0.95467,-6.04622c0.63645,-1.87397 1.55575,-3.50044 2.75792,-4.8794c1.20217,-1.37896 2.63418,-2.42202 4.296,-3.12918c1.66182,-0.74252 3.5358,-1.11378 5.62192,-1.11378c1.94469,0 3.76563,0.38894 5.46281,1.16681c1.69718,0.74252 3.18222,1.80326 4.45511,3.18222c1.30824,1.34361 2.33362,2.97008 3.07614,4.87941c0.74252,1.90933 1.11378,3.9601 1.11378,6.15229c0,2.19219 -0.37126,4.22528 -1.11378,6.09925c-0.74252,1.83862 -1.7679,3.42973 -3.07614,4.77333c-1.27289,1.34361 -2.75793,2.38666 -4.45511,3.12919c-1.69718,0.74252 -3.51812,1.11378 -5.46281,1.11378zM211.30971,211.752c-0.77787,0 -1.37896,-0.12375 -1.80326,-0.37126c-0.38894,-0.21215 -0.65412,-0.53037 -0.79556,-0.95466c-0.14143,-0.4243 -0.21215,-0.93699 -0.21215,-1.53808v-37.39108c0,-0.60109 0.05304,-1.11377 0.15912,-1.53807c0.14143,-0.4243 0.40662,-0.74252 0.79556,-0.95467c0.4243,-0.2475 1.02538,-0.37126 1.80325,-0.37126c0.91931,0 1.60879,0.15911 2.06844,0.47733c0.45965,0.28287 0.72484,0.79555 0.79556,1.53807v38.18664c0.03536,0.60109 -0.01768,1.11378 -0.15911,1.53808c-0.10608,0.45965 -0.37126,0.79555 -0.79556,1.0077c-0.38894,0.24751 -1.0077,0.37126 -1.85629,0.37126zM223.66733,193.82549c1.7679,0 3.37669,-0.4243 4.82637,-1.27289c1.44968,-0.88395 2.58113,-2.08612 3.39437,-3.60652c0.81323,-1.5204 1.21985,-3.25293 1.21985,-5.19763c0,-1.98005 -0.40662,-3.69491 -1.21985,-5.14459c-0.81323,-1.48503 -1.92701,-2.63417 -3.34133,-3.44741c-1.41432,-0.84859 -3.04079,-1.27289 -4.8794,-1.27289c-1.7679,0 -3.35901,0.4243 -4.77333,1.27289c-1.41432,0.84859 -2.5281,2.0154 -3.34133,3.50044c-0.81323,1.44968 -1.21986,3.14687 -1.21986,5.09155c0,1.94469 0.40662,3.67723 1.21986,5.19763c0.81323,1.5204 1.92701,2.72257 3.34133,3.60652c1.41432,0.84859 3.00543,1.27289 4.77333,1.27289zM250.21317,211.59289c-1.02538,-0.42429 -1.62647,-0.9193 -1.80326,-1.48503c-0.14143,-0.53037 0.01768,-1.29057 0.47734,-2.2806l16.75969,-37.65626c0.45965,-0.99003 0.95467,-1.59111 1.48504,-1.80326c0.53037,-0.2475 1.29057,-0.15911 2.28059,0.26519c0.99002,0.45965 1.55575,0.97234 1.69718,1.53807c0.17679,0.53037 0.05303,1.25521 -0.37126,2.17452l-16.9188,37.92145c-0.42429,0.95467 -0.90163,1.5204 -1.432,1.69718c-0.49501,0.17679 -1.21985,0.05304 -2.17451,-0.37126zM256.47154,195.25749l-14.4791,-22.38162c-0.56573,-0.84859 -0.79556,-1.55575 -0.68948,-2.12148c0.14143,-0.56573 0.63645,-1.13145 1.48504,-1.69718c0.95467,-0.56573 1.71486,-0.77787 2.28059,-0.63644c0.56573,0.14143 1.14914,0.63645 1.75022,1.48504l12.25155,19.30547zM295.09946,199.2883c-0.74252,0 -1.32592,-0.14143 -1.75022,-0.4243c-0.38894,-0.28286 -0.65412,-0.6718 -0.79555,-1.16681c-0.10608,-0.53037 -0.15911,-1.11378 -0.15911,-1.75022v-37.65627c0,-0.60109 0.07071,-1.14914 0.21214,-1.64415c0.14143,-0.49501 0.40662,-0.86628 0.79556,-1.11378c0.4243,-0.28287 1.0077,-0.4243 1.75022,-0.4243h17.71436c2.33363,0 4.40207,0.53037 6.20533,1.59111c1.80326,1.02538 3.1999,2.45738 4.18992,4.296c1.02538,1.80326 1.5204,3.7833 1.48504,5.94014c0.03536,1.0961 -0.10608,2.17452 -0.4243,3.23526c-0.28287,1.06074 -0.70716,2.05076 -1.27288,2.97007c-0.56573,0.88395 -1.27289,1.62647 -2.12148,2.22755c1.16681,0.70716 2.13916,1.62646 2.91704,2.75792c0.81323,1.13145 1.432,2.40434 1.85629,3.81867c0.4243,1.37896 0.63644,2.82864 0.63644,4.34903c-0.03536,1.83862 -0.37126,3.55348 -1.0077,5.14459c-0.63644,1.55575 -1.55575,2.93471 -2.75792,4.13689c-1.16681,1.16682 -2.5281,2.08613 -4.08385,2.75793c-1.55575,0.63644 -3.23525,0.95466 -5.03851,0.95466zM298.06953,193.82549h14.79733c1.62647,0 3.02311,-0.31822 4.18993,-0.95466c1.20217,-0.63644 2.12148,-1.55575 2.75792,-2.75792c0.63644,-1.23753 0.95466,-2.74024 0.95466,-4.50815c0,-1.5204 -0.21214,-2.74024 -0.63644,-3.65955c-0.42429,-0.91931 -1.0077,-1.62647 -1.75022,-2.12148c-0.70716,-0.49501 -1.46736,-0.84859 -2.28059,-1.06074c-0.81324,-0.21215 -1.60879,-0.31822 -2.38666,-0.31822c-0.77787,-0.03536 -1.48504,-0.05304 -2.12148,-0.05304h-3.8717c-0.84859,0 -1.46735,-0.21214 -1.85629,-0.63644c-0.38894,-0.4243 -0.5834,-1.0961 -0.5834,-2.01541c0,-0.88395 0.19446,-1.52039 0.5834,-1.90933c0.42429,-0.38894 1.06074,-0.58341 1.90933,-0.58341h3.8717c0.6718,0 1.432,-0.01768 2.28059,-0.05304c0.84859,-0.03536 1.67951,-0.19446 2.49274,-0.47733c0.81324,-0.31822 1.48504,-0.88395 2.0154,-1.69719c0.53037,-0.81324 0.79556,-1.98004 0.79556,-3.50044c0,-2.36899 -0.63644,-4.11921 -1.90933,-5.25067c-1.27289,-1.13145 -3.35901,-1.69718 -6.25837,-1.69718h-12.99407zM336.35023,199.2883c-0.81323,0 -1.432,-0.12375 -1.85629,-0.37126c-0.38894,-0.21215 -0.65413,-0.53037 -0.79556,-0.95466c-0.10608,-0.4243 -0.15911,-0.93699 -0.15911,-1.53808v-24.98042c0,-0.60109 0.05304,-1.11377 0.15911,-1.53807c0.14143,-0.4243 0.40661,-0.74252 0.79556,-0.95467c0.42429,-0.21215 1.06074,-0.31822 1.90933,-0.31822c0.81324,0 1.39664,0.12376 1.75022,0.37126c0.38894,0.21215 0.63644,0.53037 0.74252,0.95467c0.14143,0.42429 0.21215,0.95466 0.21215,1.59111v24.92739c0,0.60109 -0.07072,1.11378 -0.21215,1.53807c-0.10608,0.4243 -0.37126,0.74252 -0.79556,0.95467c-0.38894,0.21215 -0.97235,0.31822 -1.75022,0.31822zM336.35023,161.04863c-0.95466,0 -1.66183,-0.14143 -2.12148,-0.4243c-0.45965,-0.28287 -0.7602,-0.67181 -0.90163,-1.16682c-0.14143,-0.49501 -0.21215,-1.0961 -0.21215,-1.80326c0,-0.6718 0.07072,-1.23753 0.21215,-1.69718c0.17679,-0.49501 0.49501,-0.84859 0.95466,-1.06074c0.49501,-0.2475 1.20217,-0.37125 2.12148,-0.37125c0.88395,0 1.55575,0.12375 2.0154,0.37125c0.45965,0.2475 0.7602,0.63644 0.90163,1.16681c0.17679,0.49501 0.26518,1.07842 0.26518,1.75022c0,0.6718 -0.08839,1.25522 -0.26518,1.75023c-0.14143,0.45965 -0.44198,0.83091 -0.90163,1.11378c-0.45965,0.2475 -1.14913,0.37126 -2.06844,0.37126zM350.21702,199.2883c-0.81324,0 -1.432,-0.12375 -1.8563,-0.37126c-0.38894,-0.21215 -0.63644,-0.53037 -0.74251,-0.95466c-0.10608,-0.45965 -0.15911,-0.99002 -0.15911,-1.59111v-24.92739c0,-0.63644 0.07071,-1.16681 0.21214,-1.59111c0.14143,-0.4243 0.38894,-0.72484 0.74252,-0.90163c0.38894,-0.21215 1.0077,-0.31822 1.8563,-0.31822c0.74252,0 1.30824,0.10607 1.69718,0.31822c0.42429,0.17679 0.70716,0.44198 0.84859,0.79555c0.14143,0.35358 0.21215,0.7602 0.21215,1.21986l-0.21215,1.90933c0.28287,-0.53037 0.61877,-1.07842 1.0077,-1.64415c0.4243,-0.56573 0.93699,-1.06074 1.53807,-1.48504c0.60109,-0.45965 1.32592,-0.83091 2.17452,-1.11377c0.88395,-0.28286 1.96237,-0.42429 3.23526,-0.42429c0.63644,0 1.23753,0.05303 1.80326,0.15911c0.56573,0.10608 1.11378,0.26519 1.64415,0.47734c0.53037,0.21215 0.99002,0.45965 1.37896,0.74252c0.38894,0.2475 0.68948,0.53037 0.90163,0.84859c0.2475,0.31822 0.37126,0.68948 0.37126,1.11378c0,0.91931 -0.30054,1.71487 -0.90163,2.38666c-0.60109,0.63644 -1.21985,0.95466 -1.8563,0.95466c-0.53037,0 -0.91931,-0.07072 -1.16681,-0.21215c-0.24751,-0.14143 -0.49501,-0.30054 -0.74252,-0.47733c-0.2475,-0.17679 -0.58341,-0.3359 -1.0077,-0.47733c-0.38894,-0.14143 -1.06074,-0.21215 -2.0154,-0.21215c-0.63644,0 -1.30825,0.12375 -2.0154,0.37126c-0.6718,0.24751 -1.32593,0.61877 -1.96237,1.11378c-0.63644,0.49501 -1.16681,1.13146 -1.59111,1.90933c-0.38894,0.74252 -0.5834,1.60879 -0.5834,2.59882v16.97184c0,0.60109 -0.07072,1.11378 -0.21215,1.53807c-0.10607,0.4243 -0.35358,0.74252 -0.74252,0.95467c-0.38894,0.21215 -1.0077,0.31822 -1.85629,0.31822zM384.47489,199.2883c-1.90933,0 -3.73027,-0.37126 -5.46281,-1.11378c-1.73254,-0.77787 -3.25294,-1.8563 -4.56118,-3.23526c-1.27289,-1.41432 -2.28059,-3.05847 -3.02311,-4.93244c-0.70716,-1.87397 -1.06074,-3.92473 -1.06074,-6.15229c0,-2.19219 0.35358,-4.22528 1.06074,-6.09925c0.74252,-1.87397 1.75022,-3.48276 3.02311,-4.82637c1.30824,-1.37896 2.82864,-2.4397 4.56118,-3.18222c1.73254,-0.77787 3.55348,-1.16681 5.46281,-1.16681c2.05076,0 3.90706,0.38893 5.56888,1.16681c1.69718,0.74252 3.14686,1.80326 4.34903,3.18222c1.20217,1.34361 2.1038,2.97007 2.70489,4.87941c0.63644,1.87397 0.95466,3.90706 0.95466,6.09925c0.07072,2.22755 -0.22983,4.27832 -0.90163,6.15229c-0.63644,1.83862 -1.55575,3.46509 -2.75792,4.87941c-1.16682,1.37896 -2.59881,2.45738 -4.296,3.23526c-1.66183,0.74252 -3.5358,1.11378 -5.62192,1.11378zM385.27044,193.87853c1.7679,0 3.35901,-0.40661 4.77333,-1.21985c1.41432,-0.84859 2.5281,-2.0154 3.34133,-3.50044c0.84859,-1.5204 1.27288,-3.25294 1.27288,-5.19763c0,-1.98005 -0.4243,-3.71259 -1.27288,-5.19763c-0.81324,-1.5204 -1.92701,-2.70489 -3.34133,-3.55348c-1.41432,-0.84859 -3.00543,-1.27288 -4.77333,-1.27288c-1.7679,0 -3.37669,0.4243 -4.82637,1.27288c-1.41432,0.84859 -2.54577,2.03309 -3.39436,3.55348c-0.81323,1.48504 -1.21985,3.21758 -1.21985,5.19763c0,1.94469 0.40661,3.67723 1.21985,5.19763c0.84859,1.48503 1.99773,2.65185 3.44741,3.50044c1.44968,0.81324 3.04079,1.21985 4.77333,1.21985zM397.6811,199.2883c-0.91931,0 -1.59111,-0.17679 -2.0154,-0.53037c-0.4243,-0.31822 -0.6718,-0.88395 -0.74252,-1.69718v-39.61864c0,-0.63644 0.05304,-1.16681 0.15912,-1.59111c0.10607,-0.4243 0.35357,-0.74252 0.74251,-0.95467c0.38894,-0.2475 0.99003,-0.37125 1.80326,-0.37125c0.81324,0 1.41431,0.12375 1.80326,0.37125c0.38894,0.21215 0.65413,0.53037 0.79556,0.95467c0.14143,0.42429 0.21215,0.93698 0.21215,1.53807v38.9822c0,0.60109 -0.07072,1.13145 -0.21215,1.59111c-0.14143,0.4243 -0.40662,0.74252 -0.79556,0.95466c-0.35358,0.24751 -0.93698,0.37126 -1.75022,0.37126z"/></g><g fill="#ff9b00" stroke="#000000" stroke-width="7.5" stroke-linecap="square"><path d="M82.37194,192.88019c-0.81324,0 -1.432,-0.12376 -1.8563,-0.37126c-0.38894,-0.21215 -0.65412,-0.53037 -0.79555,-0.95466c-0.10608,-0.45965 -0.15911,-0.99003 -0.15911,-1.59111v-38.45182c0,-1.0961 0.21215,-1.83862 0.63644,-2.22756c0.45965,-0.38894 1.25521,-0.5834 2.38666,-0.5834h25.45776c0.60108,0 1.09609,0.07072 1.48503,0.21215c0.38894,0.10608 0.68948,0.37126 0.90163,0.79556c0.21215,0.4243 0.31822,1.04306 0.31822,1.85629c0,0.84859 -0.12376,1.48504 -0.37126,1.90933c-0.21215,0.38894 -0.53037,0.65412 -0.95467,0.79556c-0.4243,0.10608 -0.9193,0.15911 -1.48503,0.15911h-22.69983v13.10014h15.80503c0.56573,0 1.04306,0.07071 1.432,0.21214c0.4243,0.14143 0.74252,0.40662 0.95467,0.79556c0.21215,0.35358 0.31822,0.93699 0.31822,1.75023c0,0.74252 -0.10607,1.30824 -0.31822,1.69718c-0.21215,0.38894 -0.53037,0.63645 -0.95467,0.74252c-0.38894,0.10608 -0.90163,0.15911 -1.53807,0.15911h-15.69895v17.13095c0,0.60109 -0.07072,1.11378 -0.21215,1.53808c-0.10608,0.4243 -0.37126,0.74251 -0.79555,0.95466c-0.38894,0.2475 -1.00771,0.37126 -1.8563,0.37126zM128.32394,192.88019c-1.3436,0 -2.56345,-0.12376 -3.65955,-0.37126c-1.06074,-0.21215 -1.99773,-0.56573 -2.81096,-1.06074c-0.81324,-0.53037 -1.48504,-1.1845 -2.01541,-1.96237c-0.53037,-0.81323 -0.91931,-1.78558 -1.16682,-2.91703c-0.21215,-1.16682 -0.31822,-2.51041 -0.31822,-4.03081v-31.66309c0,-0.63645 0.05304,-1.14913 0.15911,-1.53807c0.10608,-0.4243 0.37126,-0.7602 0.79556,-1.0077c0.42429,-0.2475 1.02538,-0.37126 1.80325,-0.37126c0.81324,0 1.41432,0.10607 1.80326,0.31822c0.42429,0.21215 0.68948,0.53037 0.79555,0.95467c0.14143,0.4243 0.21215,0.93699 0.21215,1.53807v31.71613c0,0.84859 0.08839,1.5911 0.26518,2.22755c0.17679,0.60109 0.44198,1.11378 0.79556,1.53807c0.35358,0.4243 0.79556,0.72484 1.32593,0.90163c0.56573,0.14143 1.23753,0.21214 2.01541,0.21214c0.49501,0 0.91931,0.07072 1.27289,0.21215c0.35358,0.10608 0.63645,0.35358 0.8486,0.74252c0.21215,0.38894 0.31822,0.97235 0.31822,1.75022c0,0.84859 -0.10607,1.48503 -0.31822,1.90933c-0.21215,0.38894 -0.49502,0.63645 -0.8486,0.74252c-0.35358,0.10608 -0.77787,0.15911 -1.27289,0.15911zM162.56005,192.82716c-0.91931,0 -1.59111,-0.19447 -2.0154,-0.58341c-0.38894,-0.38894 -0.61876,-0.97234 -0.68948,-1.75022l0.26519,-3.18222c-0.4243,0.6718 -1.0961,1.44968 -2.01541,2.33363c-0.88395,0.84859 -2.05076,1.60879 -3.50044,2.28059c-1.41432,0.63645 -3.14686,0.95467 -5.19763,0.95467c-2.05077,0 -3.96009,-0.38894 -5.72799,-1.16681c-1.73254,-0.81323 -3.27061,-1.94469 -4.61422,-3.39437c-1.30824,-1.44968 -2.33362,-3.09383 -3.07614,-4.93245c-0.74252,-1.87398 -1.11378,-3.85402 -1.11378,-5.94014c0,-2.08612 0.37126,-4.0485 1.11378,-5.88711c0.74252,-1.83862 1.78557,-3.44741 3.12918,-4.82637c1.37896,-1.41432 2.93472,-2.51042 4.66726,-3.28829c1.7679,-0.81323 3.64187,-1.21985 5.62192,-1.21985c1.83862,0 3.41205,0.24751 4.7203,0.74252c1.30824,0.49501 2.4397,1.13146 3.39436,1.90933c0.95467,0.77787 1.78558,1.64415 2.49274,2.59881l-0.10608,-2.65185c-0.03536,-0.91931 0.15911,-1.57342 0.58341,-1.96236c0.45965,-0.4243 1.16682,-0.63645 2.12148,-0.63645c0.81323,0 1.39664,0.12376 1.75022,0.37126c0.35358,0.2475 0.5834,0.61876 0.68948,1.11378c0.14143,0.45965 0.21215,1.02539 0.21215,1.69718v24.45005c0,0.56573 -0.07072,1.0961 -0.21215,1.59111c-0.10608,0.45965 -0.35358,0.79555 -0.74252,1.0077c-0.35358,0.2475 -0.93699,0.37126 -1.75022,0.37126zM150.36154,187.57649c1.66182,0 3.1999,-0.44198 4.61422,-1.32593c1.41432,-0.91931 2.5281,-2.12148 3.34133,-3.60652c0.84859,-1.48504 1.27289,-3.1999 1.27289,-5.14459c0,-1.98005 -0.44198,-3.71259 -1.32593,-5.19762c-0.84859,-1.5204 -1.98005,-2.70489 -3.39437,-3.55348c-1.41432,-0.88395 -2.97007,-1.32593 -4.66726,-1.32593c-1.98005,0 -3.69491,0.45965 -5.14459,1.37896c-1.44968,0.88395 -2.59882,2.08613 -3.44741,3.60652c-0.84859,1.5204 -1.27289,3.25293 -1.27289,5.19762c0,1.90933 0.4243,3.62419 1.27289,5.14459c0.84859,1.48504 2.01541,2.66952 3.50044,3.55347c1.5204,0.84859 3.27061,1.27289 5.25066,1.27289zM188.35488,192.61501c-2.08612,0 -3.97778,-0.37125 -5.67496,-1.11378c-1.66182,-0.77787 -3.09383,-1.83862 -4.296,-3.18222c-1.16682,-1.37896 -2.08613,-3.00543 -2.75792,-4.8794c-0.63645,-1.87398 -0.93699,-3.92474 -0.90163,-6.1523c0,-2.19219 0.31822,-4.2076 0.95467,-6.04621c0.63645,-1.87398 1.55576,-3.50044 2.75793,-4.8794c1.20217,-1.37896 2.63417,-2.42202 4.296,-3.12918c1.66182,-0.74252 3.53581,-1.11378 5.62193,-1.11378c1.94469,0 3.76563,0.38894 5.46281,1.16682c1.69718,0.74252 3.18222,1.80326 4.45511,3.18222c1.30824,1.3436 2.33362,2.97007 3.07614,4.8794c0.74252,1.90933 1.11378,3.96009 1.11378,6.15229c0,2.19219 -0.37125,4.22528 -1.11378,6.09926c-0.74252,1.83862 -1.7679,3.42973 -3.07614,4.77333c-1.27289,1.3436 -2.75793,2.38666 -4.45511,3.12918c-1.69718,0.74252 -3.51812,1.11378 -5.46281,1.11378zM175.14867,205.34389c-0.77787,0 -1.37896,-0.12376 -1.80325,-0.37126c-0.38894,-0.21215 -0.65412,-0.53037 -0.79556,-0.95467c-0.14143,-0.4243 -0.21215,-0.93699 -0.21215,-1.53807v-37.39109c0,-0.60109 0.05303,-1.11377 0.15911,-1.53807c0.14143,-0.4243 0.40662,-0.74251 0.79556,-0.95467c0.4243,-0.2475 1.02539,-0.37126 1.80326,-0.37126c0.91931,0 1.60879,0.15912 2.06844,0.47734c0.45965,0.28286 0.72484,0.79555 0.79556,1.53807v38.18664c0.03536,0.60109 -0.01768,1.11378 -0.15911,1.53807c-0.10608,0.45965 -0.37126,0.79555 -0.79556,1.0077c-0.38894,0.2475 -1.00771,0.37126 -1.8563,0.37126zM187.50629,187.41738c1.7679,0 3.37669,-0.4243 4.82637,-1.27289c1.44968,-0.88395 2.58113,-2.08612 3.39436,-3.60652c0.81323,-1.5204 1.21985,-3.25293 1.21985,-5.19762c0,-1.98005 -0.40662,-3.69491 -1.21985,-5.14459c-0.81323,-1.48504 -1.92701,-2.63417 -3.34133,-3.44741c-1.41432,-0.84859 -3.04079,-1.27289 -4.8794,-1.27289c-1.7679,0 -3.35901,0.4243 -4.77333,1.27289c-1.41432,0.84859 -2.5281,2.0154 -3.34133,3.50044c-0.81323,1.44968 -1.21985,3.14686 -1.21985,5.09155c0,1.94469 0.40662,3.67723 1.21985,5.19762c0.81323,1.5204 1.92701,2.72257 3.34133,3.60652c1.41432,0.84859 3.00543,1.27289 4.77333,1.27289zM224.70418,192.61501c-2.08612,0 -3.97778,-0.37125 -5.67496,-1.11378c-1.66182,-0.77787 -3.09383,-1.83862 -4.296,-3.18222c-1.16682,-1.37896 -2.08613,-3.00543 -2.75792,-4.8794c-0.63645,-1.87398 -0.93699,-3.92474 -0.90163,-6.1523c0,-2.19219 0.31823,-4.2076 0.95467,-6.04621c0.63645,-1.87398 1.55575,-3.50044 2.75792,-4.8794c1.20217,-1.37896 2.63418,-2.42202 4.296,-3.12918c1.66182,-0.74252 3.5358,-1.11378 5.62192,-1.11378c1.94469,0 3.76563,0.38894 5.46281,1.16682c1.69718,0.74252 3.18222,1.80326 4.45511,3.18222c1.30824,1.3436 2.33362,2.97007 3.07614,4.8794c0.74252,1.90933 1.11378,3.96009 1.11378,6.15229c0,2.19219 -0.37126,4.22528 -1.11378,6.09926c-0.74252,1.83862 -1.7679,3.42973 -3.07614,4.77333c-1.27289,1.3436 -2.75793,2.38666 -4.45511,3.12918c-1.69718,0.74252 -3.51812,1.11378 -5.46281,1.11378zM211.49797,205.34389c-0.77787,0 -1.37896,-0.12376 -1.80326,-0.37126c-0.38894,-0.21215 -0.65412,-0.53037 -0.79556,-0.95467c-0.14143,-0.4243 -0.21215,-0.93699 -0.21215,-1.53807v-37.39109c0,-0.60109 0.05304,-1.11377 0.15912,-1.53807c0.14143,-0.4243 0.40662,-0.74251 0.79556,-0.95467c0.4243,-0.2475 1.02538,-0.37126 1.80325,-0.37126c0.91931,0 1.60879,0.15912 2.06844,0.47734c0.45965,0.28286 0.72484,0.79555 0.79556,1.53807v38.18664c0.03536,0.60109 -0.01768,1.11378 -0.15911,1.53807c-0.10608,0.45965 -0.37126,0.79555 -0.79556,1.0077c-0.38894,0.2475 -1.0077,0.37126 -1.85629,0.37126zM223.85559,187.41738c1.7679,0 3.37669,-0.4243 4.82637,-1.27289c1.44968,-0.88395 2.58113,-2.08612 3.39437,-3.60652c0.81323,-1.5204 1.21985,-3.25293 1.21985,-5.19762c0,-1.98005 -0.40662,-3.69491 -1.21985,-5.14459c-0.81323,-1.48504 -1.92701,-2.63417 -3.34133,-3.44741c-1.41432,-0.84859 -3.04079,-1.27289 -4.8794,-1.27289c-1.7679,0 -3.35901,0.4243 -4.77333,1.27289c-1.41432,0.84859 -2.5281,2.0154 -3.34133,3.50044c-0.81323,1.44968 -1.21986,3.14686 -1.21986,5.09155c0,1.94469 0.40662,3.67723 1.21986,5.19762c0.81323,1.5204 1.92701,2.72257 3.34133,3.60652c1.41432,0.84859 3.00543,1.27289 4.77333,1.27289zM250.40144,205.18478c-1.02538,-0.4243 -1.62647,-0.91931 -1.80326,-1.48504c-0.14143,-0.53037 0.01768,-1.29057 0.47734,-2.28059l16.75969,-37.65627c0.45965,-0.99003 0.95467,-1.59111 1.48504,-1.80326c0.53037,-0.2475 1.29057,-0.15911 2.28059,0.26519c0.99002,0.45965 1.55575,0.97234 1.69718,1.53807c0.17679,0.53037 0.05303,1.25521 -0.37126,2.17452l-16.91881,37.92145c-0.4243,0.95467 -0.90163,1.5204 -1.432,1.69719c-0.49501,0.17679 -1.21985,0.05303 -2.17451,-0.37126zM256.6598,188.84938l-14.4791,-22.38161c-0.56573,-0.84859 -0.79556,-1.55575 -0.68948,-2.12148c0.14143,-0.56573 0.63645,-1.13145 1.48503,-1.69718c0.95467,-0.56573 1.71486,-0.77788 2.28059,-0.63645c0.56573,0.14143 1.14914,0.63645 1.75022,1.48504l12.25155,19.30546zM295.28773,192.88019c-0.74252,0 -1.32592,-0.14143 -1.75022,-0.4243c-0.38894,-0.28286 -0.65412,-0.6718 -0.79555,-1.16681c-0.10608,-0.53037 -0.15911,-1.11378 -0.15911,-1.75022v-37.65627c0,-0.60109 0.07071,-1.14913 0.21214,-1.64414c0.14143,-0.49501 0.40662,-0.86628 0.79556,-1.11378c0.4243,-0.28286 1.0077,-0.4243 1.75022,-0.4243h17.71436c2.33363,0 4.40207,0.53037 6.20533,1.59111c1.80326,1.02538 3.1999,2.45738 4.18992,4.296c1.02538,1.80326 1.5204,3.78331 1.48504,5.94015c0.03536,1.0961 -0.10608,2.17452 -0.4243,3.23526c-0.28287,1.06074 -0.70716,2.05076 -1.27288,2.97007c-0.56573,0.88395 -1.27289,1.62647 -2.12148,2.22756c1.16681,0.70716 2.13916,1.62646 2.91703,2.75792c0.81324,1.13145 1.432,2.40435 1.8563,3.81867c0.4243,1.37896 0.63644,2.82864 0.63644,4.34903c-0.03536,1.83862 -0.37126,3.55348 -1.0077,5.14459c-0.63644,1.55575 -1.55575,2.93471 -2.75792,4.13688c-1.16681,1.16682 -2.5281,2.08613 -4.08385,2.75793c-1.55575,0.63645 -3.23525,0.95467 -5.03851,0.95467zM298.2578,187.41738h14.79733c1.62647,0 3.02311,-0.31822 4.18993,-0.95467c1.20217,-0.63645 2.12148,-1.55576 2.75792,-2.75792c0.63644,-1.23753 0.95466,-2.74025 0.95466,-4.50815c0,-1.5204 -0.21214,-2.74024 -0.63644,-3.65955c-0.42429,-0.91931 -1.0077,-1.62647 -1.75022,-2.12148c-0.70716,-0.49501 -1.46736,-0.84859 -2.28059,-1.06074c-0.81324,-0.21215 -1.60879,-0.31822 -2.38666,-0.31822c-0.77787,-0.03536 -1.48504,-0.05304 -2.12148,-0.05304h-3.8717c-0.84859,0 -1.46735,-0.21214 -1.85629,-0.63644c-0.38894,-0.4243 -0.5834,-1.0961 -0.5834,-2.01541c0,-0.88395 0.19446,-1.52039 0.5834,-1.90933c0.42429,-0.38894 1.06074,-0.5834 1.90933,-0.5834h3.8717c0.6718,0 1.432,-0.01768 2.28059,-0.05304c0.84859,-0.03536 1.67951,-0.19447 2.49274,-0.47733c0.81324,-0.31822 1.48504,-0.88395 2.0154,-1.69718c0.53037,-0.81323 0.79556,-1.98004 0.79556,-3.50044c0,-2.36899 -0.63644,-4.11921 -1.90933,-5.25066c-1.27289,-1.13145 -3.35901,-1.69718 -6.25837,-1.69718h-12.99407zM336.5385,192.88019c-0.81323,0 -1.432,-0.12376 -1.85629,-0.37126c-0.38894,-0.21215 -0.65413,-0.53037 -0.79556,-0.95466c-0.10608,-0.4243 -0.15911,-0.93699 -0.15911,-1.53808v-24.98042c0,-0.60109 0.05304,-1.11378 0.15911,-1.53807c0.14143,-0.4243 0.40661,-0.74252 0.79556,-0.95467c0.42429,-0.21215 1.06074,-0.31822 1.90933,-0.31822c0.81324,0 1.39664,0.12376 1.75022,0.37126c0.38894,0.21215 0.63644,0.53037 0.74252,0.95467c0.14143,0.4243 0.21215,0.95466 0.21215,1.59111v24.92739c0,0.60109 -0.07072,1.11378 -0.21215,1.53807c-0.10608,0.4243 -0.37126,0.74252 -0.79556,0.95467c-0.38894,0.21215 -0.97235,0.31822 -1.75022,0.31822zM336.5385,154.64052c-0.95466,0 -1.66183,-0.14143 -2.12148,-0.4243c-0.45965,-0.28286 -0.7602,-0.6718 -0.90163,-1.16681c-0.14143,-0.49501 -0.21215,-1.0961 -0.21215,-1.80326c0,-0.6718 0.07072,-1.23753 0.21215,-1.69719c0.17679,-0.49501 0.49501,-0.84859 0.95466,-1.06074c0.49501,-0.2475 1.20217,-0.37126 2.12148,-0.37126c0.88395,0 1.55575,0.12375 2.0154,0.37126c0.45965,0.2475 0.7602,0.63644 0.90163,1.16681c0.17679,0.49501 0.26518,1.07842 0.26518,1.75022c0,0.6718 -0.08839,1.25521 -0.26518,1.75023c-0.14143,0.45965 -0.44198,0.83091 -0.90163,1.11378c-0.45965,0.2475 -1.14913,0.37126 -2.06844,0.37126zM350.40529,192.88019c-0.81324,0 -1.432,-0.12376 -1.8563,-0.37126c-0.38894,-0.21215 -0.63644,-0.53037 -0.74251,-0.95466c-0.10608,-0.45965 -0.15911,-0.99003 -0.15911,-1.59111v-24.92739c0,-0.63645 0.07071,-1.16681 0.21214,-1.59111c0.14143,-0.4243 0.38894,-0.72484 0.74252,-0.90163c0.38894,-0.21215 1.0077,-0.31822 1.8563,-0.31822c0.74252,0 1.30824,0.10607 1.69718,0.31822c0.42429,0.17679 0.70716,0.44198 0.84859,0.79556c0.14143,0.35358 0.21215,0.7602 0.21215,1.21985l-0.21215,1.90933c0.28287,-0.53037 0.61877,-1.07842 1.0077,-1.64415c0.4243,-0.56573 0.93699,-1.06074 1.53807,-1.48503c0.60109,-0.45965 1.32592,-0.83091 2.17452,-1.11378c0.88395,-0.28286 1.96237,-0.4243 3.23526,-0.4243c0.63644,0 1.23753,0.05303 1.80326,0.15911c0.56573,0.10608 1.11378,0.26519 1.64415,0.47734c0.53037,0.21215 0.99002,0.45965 1.37896,0.74251c0.38894,0.2475 0.68948,0.53037 0.90163,0.84859c0.2475,0.31822 0.37126,0.68948 0.37126,1.11378c0,0.91931 -0.30054,1.71487 -0.90163,2.38666c-0.60109,0.63645 -1.21985,0.95467 -1.8563,0.95467c-0.53037,0 -0.91931,-0.07072 -1.16681,-0.21215c-0.24751,-0.14143 -0.49501,-0.30054 -0.74252,-0.47733c-0.2475,-0.17679 -0.58341,-0.3359 -1.0077,-0.47733c-0.38894,-0.14143 -1.06074,-0.21215 -2.0154,-0.21215c-0.63644,0 -1.30825,0.12375 -2.0154,0.37126c-0.6718,0.2475 -1.32593,0.61877 -1.96237,1.11378c-0.63644,0.49501 -1.16681,1.13145 -1.59111,1.90933c-0.38894,0.74252 -0.5834,1.60879 -0.5834,2.59882v16.97184c0,0.60109 -0.07072,1.11378 -0.21215,1.53807c-0.10607,0.4243 -0.35358,0.74252 -0.74252,0.95467c-0.38894,0.21215 -1.0077,0.31822 -1.85629,0.31822zM384.66315,192.88019c-1.90933,0 -3.73027,-0.37125 -5.46281,-1.11378c-1.73254,-0.77787 -3.25294,-1.8563 -4.56118,-3.23526c-1.27289,-1.41432 -2.28059,-3.05847 -3.02311,-4.93244c-0.70716,-1.87398 -1.06074,-3.92473 -1.06074,-6.15229c0,-2.19219 0.35358,-4.22528 1.06074,-6.09925c0.74252,-1.87398 1.75022,-3.48277 3.02311,-4.82637c1.30824,-1.37896 2.82864,-2.4397 4.56118,-3.18222c1.73254,-0.77787 3.55348,-1.16681 5.46281,-1.16681c2.05076,0 3.90706,0.38894 5.56888,1.16681c1.69718,0.74252 3.14686,1.80326 4.34903,3.18222c1.20217,1.3436 2.1038,2.97007 2.70489,4.8794c0.63644,1.87398 0.95466,3.90706 0.95466,6.09926c0.07071,2.22755 -0.22983,4.27831 -0.90163,6.15229c-0.63644,1.83862 -1.55575,3.46509 -2.75792,4.87941c-1.16682,1.37896 -2.59881,2.45738 -4.296,3.23526c-1.66183,0.74252 -3.5358,1.11378 -5.62192,1.11378zM385.45871,187.47042c1.7679,0 3.35901,-0.40662 4.77333,-1.21985c1.41432,-0.84859 2.5281,-2.0154 3.34133,-3.50044c0.84859,-1.5204 1.27288,-3.25294 1.27288,-5.19763c0,-1.98005 -0.4243,-3.71259 -1.27288,-5.19762c-0.81324,-1.5204 -1.92701,-2.70489 -3.34133,-3.55348c-1.41432,-0.84859 -3.00543,-1.27289 -4.77333,-1.27289c-1.7679,0 -3.37669,0.4243 -4.82637,1.27289c-1.41432,0.84859 -2.54577,2.03308 -3.39436,3.55348c-0.81323,1.48504 -1.21985,3.21757 -1.21985,5.19762c0,1.94469 0.40661,3.67723 1.21985,5.19763c0.84859,1.48504 1.99773,2.65185 3.44741,3.50044c1.44968,0.81323 3.04079,1.21985 4.77333,1.21985zM397.86936,192.88019c-0.91931,0 -1.59111,-0.17679 -2.0154,-0.53037c-0.4243,-0.31822 -0.6718,-0.88395 -0.74252,-1.69718v-39.61864c0,-0.63645 0.05304,-1.16681 0.15912,-1.59111c0.10607,-0.4243 0.35357,-0.74252 0.74251,-0.95467c0.38894,-0.2475 0.99003,-0.37126 1.80326,-0.37126c0.81324,0 1.41431,0.12375 1.80326,0.37126c0.38894,0.21215 0.65413,0.53037 0.79556,0.95467c0.14143,0.4243 0.21215,0.93698 0.21215,1.53807v38.98219c0,0.60109 -0.07072,1.13146 -0.21215,1.59111c-0.14143,0.4243 -0.40662,0.74251 -0.79556,0.95466c-0.35358,0.2475 -0.93698,0.37126 -1.75022,0.37126z"/><path d="M82.18367,199.28831c-0.81324,0 -1.432,-0.12376 -1.8563,-0.37126c-0.38894,-0.21215 -0.65412,-0.53037 -0.79555,-0.95466c-0.10608,-0.45965 -0.15911,-0.99003 -0.15911,-1.59111v-38.45182c0,-1.0961 0.21215,-1.83862 0.63644,-2.22756c0.45965,-0.38894 1.25521,-0.5834 2.38666,-0.5834h25.45776c0.60108,0 1.09609,0.07072 1.48503,0.21215c0.38894,0.10608 0.68948,0.37126 0.90163,0.79556c0.21215,0.4243 0.31822,1.04306 0.31822,1.85629c0,0.84859 -0.12376,1.48504 -0.37126,1.90933c-0.21215,0.38894 -0.53037,0.65412 -0.95467,0.79556c-0.4243,0.10608 -0.9193,0.15911 -1.48503,0.15911h-22.69983v13.10014h15.80503c0.56573,0 1.04306,0.07071 1.432,0.21214c0.4243,0.14143 0.74252,0.40662 0.95467,0.79556c0.21215,0.35358 0.31822,0.93699 0.31822,1.75023c0,0.74252 -0.10607,1.30824 -0.31822,1.69718c-0.21215,0.38894 -0.53037,0.63645 -0.95467,0.74252c-0.38894,0.10608 -0.90163,0.15911 -1.53807,0.15911h-15.69895v17.13095c0,0.60109 -0.07072,1.11378 -0.21215,1.53808c-0.10608,0.4243 -0.37126,0.74251 -0.79555,0.95466c-0.38894,0.2475 -1.00771,0.37126 -1.8563,0.37126zM128.13568,199.28831c-1.3436,0 -2.56345,-0.12376 -3.65955,-0.37126c-1.06074,-0.21215 -1.99773,-0.56573 -2.81096,-1.06074c-0.81324,-0.53037 -1.48504,-1.18449 -2.01541,-1.96237c-0.53037,-0.81324 -0.91931,-1.78558 -1.16681,-2.91704c-0.21215,-1.16681 -0.31822,-2.51041 -0.31822,-4.03081v-31.66309c0,-0.63645 0.05304,-1.14913 0.15911,-1.53807c0.10608,-0.4243 0.37126,-0.7602 0.79556,-1.0077c0.42429,-0.2475 1.02538,-0.37126 1.80325,-0.37126c0.81324,0 1.41432,0.10607 1.80326,0.31822c0.42429,0.21215 0.68948,0.53037 0.79555,0.95467c0.14143,0.4243 0.21215,0.93699 0.21215,1.53807v31.71612c0,0.84859 0.08839,1.59111 0.26518,2.22755c0.17679,0.60109 0.44198,1.11378 0.79556,1.53807c0.35358,0.4243 0.79556,0.72484 1.32593,0.90163c0.56573,0.14143 1.23753,0.21214 2.01541,0.21214c0.49501,0 0.91931,0.07072 1.27289,0.21215c0.35358,0.10607 0.63645,0.35358 0.8486,0.74252c0.21215,0.38894 0.31822,0.97235 0.31822,1.75022c0,0.84859 -0.10607,1.48504 -0.31822,1.90933c-0.21215,0.38894 -0.49502,0.63645 -0.8486,0.74252c-0.35358,0.10607 -0.77787,0.15911 -1.27289,0.15911zM162.37178,199.23527c-0.91931,0 -1.59111,-0.19447 -2.0154,-0.58341c-0.38894,-0.38894 -0.61876,-0.97235 -0.68948,-1.75022l0.26519,-3.18222c-0.4243,0.6718 -1.0961,1.44968 -2.01541,2.33363c-0.88395,0.84859 -2.05076,1.60879 -3.50044,2.28059c-1.41432,0.63644 -3.14686,0.95466 -5.19763,0.95466c-2.05077,0 -3.96009,-0.38894 -5.72799,-1.16681c-1.73254,-0.81324 -3.27061,-1.94468 -4.61422,-3.39437c-1.30824,-1.44968 -2.33362,-3.09383 -3.07614,-4.93244c-0.74252,-1.87398 -1.11378,-3.85402 -1.11378,-5.94014c0,-2.08612 0.37126,-4.0485 1.11378,-5.88711c0.74252,-1.83862 1.78557,-3.44741 3.12918,-4.82637c1.37896,-1.41432 2.93472,-2.51042 4.66726,-3.28829c1.7679,-0.81323 3.64187,-1.21985 5.62192,-1.21985c1.83862,0 3.41205,0.24751 4.7203,0.74252c1.30824,0.49501 2.4397,1.13146 3.39436,1.90933c0.95467,0.77787 1.78558,1.64415 2.49274,2.59881l-0.10608,-2.65185c-0.03536,-0.91931 0.15911,-1.57342 0.58341,-1.96236c0.45965,-0.4243 1.16682,-0.63645 2.12148,-0.63645c0.81323,0 1.39664,0.12376 1.75022,0.37126c0.35358,0.2475 0.5834,0.61876 0.68948,1.11378c0.14143,0.45965 0.21215,1.02539 0.21215,1.69718v24.45006c0,0.56573 -0.07072,1.0961 -0.21215,1.59111c-0.10608,0.45965 -0.35358,0.79556 -0.74252,1.0077c-0.35358,0.24751 -0.93699,0.37126 -1.75022,0.37126zM150.17327,193.98461c1.66182,0 3.1999,-0.44198 4.61422,-1.32593c1.41432,-0.91931 2.5281,-2.12148 3.34133,-3.60651c0.84859,-1.48504 1.27289,-3.1999 1.27289,-5.14459c0,-1.98005 -0.44198,-3.71259 -1.32593,-5.19762c-0.84859,-1.5204 -1.98005,-2.70489 -3.39437,-3.55348c-1.41432,-0.88395 -2.97007,-1.32593 -4.66726,-1.32593c-1.98005,0 -3.69491,0.45965 -5.14459,1.37896c-1.44968,0.88395 -2.59882,2.08613 -3.44741,3.60652c-0.84859,1.5204 -1.27289,3.25293 -1.27289,5.19762c0,1.90933 0.4243,3.62419 1.27289,5.14459c0.84859,1.48503 2.01541,2.66952 3.50044,3.55347c1.5204,0.84859 3.27061,1.27289 5.25066,1.27289zM188.16662,199.02312c-2.08612,0 -3.97778,-0.37126 -5.67496,-1.11378c-1.66182,-0.77787 -3.09383,-1.83862 -4.296,-3.18222c-1.16682,-1.37896 -2.08613,-3.00543 -2.75792,-4.8794c-0.63645,-1.87398 -0.93699,-3.92474 -0.90163,-6.1523c0,-2.19219 0.31822,-4.2076 0.95467,-6.04621c0.63645,-1.87398 1.55576,-3.50044 2.75793,-4.8794c1.20217,-1.37896 2.63417,-2.42202 4.296,-3.12918c1.66182,-0.74252 3.53581,-1.11378 5.62193,-1.11378c1.94469,0 3.76563,0.38894 5.46281,1.16682c1.69718,0.74252 3.18222,1.80326 4.45511,3.18222c1.30824,1.3436 2.33362,2.97007 3.07614,4.8794c0.74252,1.90933 1.11378,3.96009 1.11378,6.15229c0,2.19219 -0.37125,4.22528 -1.11378,6.09926c-0.74252,1.83862 -1.7679,3.42973 -3.07614,4.77333c-1.27289,1.34361 -2.75793,2.38666 -4.45511,3.12919c-1.69718,0.74252 -3.51812,1.11378 -5.46281,1.11378zM174.9604,211.752c-0.77787,0 -1.37896,-0.12376 -1.80325,-0.37126c-0.38894,-0.21215 -0.65412,-0.53037 -0.79556,-0.95467c-0.14143,-0.42429 -0.21215,-0.93699 -0.21215,-1.53807v-37.39109c0,-0.60109 0.05303,-1.11377 0.15911,-1.53807c0.14143,-0.4243 0.40662,-0.74251 0.79556,-0.95467c0.4243,-0.2475 1.02539,-0.37126 1.80326,-0.37126c0.91931,0 1.60879,0.15912 2.06844,0.47734c0.45965,0.28286 0.72484,0.79555 0.79556,1.53807v38.18664c0.03536,0.60109 -0.01768,1.11378 -0.15911,1.53808c-0.10608,0.45965 -0.37126,0.79555 -0.79556,1.0077c-0.38894,0.2475 -1.00771,0.37126 -1.8563,0.37126zM187.31802,193.8255c1.7679,0 3.37669,-0.4243 4.82637,-1.27289c1.44968,-0.88395 2.58113,-2.08612 3.39436,-3.60652c0.81323,-1.5204 1.21985,-3.25293 1.21985,-5.19762c0,-1.98005 -0.40662,-3.69491 -1.21985,-5.14459c-0.81323,-1.48504 -1.92701,-2.63417 -3.34133,-3.44741c-1.41432,-0.84859 -3.04079,-1.27289 -4.8794,-1.27289c-1.7679,0 -3.35901,0.4243 -4.77333,1.27289c-1.41432,0.84859 -2.5281,2.0154 -3.34133,3.50044c-0.81323,1.44968 -1.21985,3.14686 -1.21985,5.09155c0,1.94469 0.40662,3.67723 1.21985,5.19762c0.81323,1.5204 1.92701,2.72257 3.34133,3.60652c1.41432,0.84859 3.00543,1.27289 4.77333,1.27289zM224.51592,199.02312c-2.08612,0 -3.97778,-0.37126 -5.67496,-1.11378c-1.66182,-0.77787 -3.09383,-1.83862 -4.296,-3.18222c-1.16682,-1.37896 -2.08613,-3.00543 -2.75792,-4.8794c-0.63645,-1.87398 -0.93699,-3.92474 -0.90163,-6.1523c0,-2.19219 0.31823,-4.2076 0.95467,-6.04621c0.63645,-1.87398 1.55575,-3.50044 2.75792,-4.8794c1.20217,-1.37896 2.63418,-2.42202 4.296,-3.12918c1.66182,-0.74252 3.5358,-1.11378 5.62192,-1.11378c1.94469,0 3.76563,0.38894 5.46281,1.16682c1.69718,0.74252 3.18222,1.80326 4.45511,3.18222c1.30824,1.3436 2.33362,2.97007 3.07614,4.8794c0.74252,1.90933 1.11378,3.96009 1.11378,6.15229c0,2.19219 -0.37126,4.22528 -1.11378,6.09926c-0.74252,1.83862 -1.7679,3.42973 -3.07614,4.77333c-1.27289,1.34361 -2.75793,2.38666 -4.45511,3.12919c-1.69718,0.74252 -3.51812,1.11378 -5.46281,1.11378zM211.30971,211.752c-0.77787,0 -1.37896,-0.12376 -1.80326,-0.37126c-0.38894,-0.21215 -0.65412,-0.53037 -0.79556,-0.95467c-0.14143,-0.42429 -0.21215,-0.93699 -0.21215,-1.53807v-37.39109c0,-0.60109 0.05304,-1.11377 0.15912,-1.53807c0.14143,-0.4243 0.40662,-0.74251 0.79556,-0.95467c0.4243,-0.2475 1.02538,-0.37126 1.80325,-0.37126c0.91931,0 1.60879,0.15912 2.06844,0.47734c0.45965,0.28286 0.72484,0.79555 0.79556,1.53807v38.18664c0.03536,0.60109 -0.01768,1.11378 -0.15911,1.53808c-0.10608,0.45965 -0.37126,0.79555 -0.79556,1.0077c-0.38894,0.2475 -1.0077,0.37126 -1.85629,0.37126zM223.66733,193.8255c1.7679,0 3.37669,-0.4243 4.82637,-1.27289c1.44968,-0.88395 2.58113,-2.08612 3.39437,-3.60652c0.81323,-1.5204 1.21985,-3.25293 1.21985,-5.19762c0,-1.98005 -0.40662,-3.69491 -1.21985,-5.14459c-0.81323,-1.48504 -1.92701,-2.63417 -3.34133,-3.44741c-1.41432,-0.84859 -3.04079,-1.27289 -4.8794,-1.27289c-1.7679,0 -3.35901,0.4243 -4.77333,1.27289c-1.41432,0.84859 -2.5281,2.0154 -3.34133,3.50044c-0.81323,1.44968 -1.21986,3.14686 -1.21986,5.09155c0,1.94469 0.40662,3.67723 1.21986,5.19762c0.81323,1.5204 1.92701,2.72257 3.34133,3.60652c1.41432,0.84859 3.00543,1.27289 4.77333,1.27289zM250.21317,211.59289c-1.02538,-0.42429 -1.62647,-0.91931 -1.80326,-1.48503c-0.14143,-0.53037 0.01768,-1.29057 0.47733,-2.2806l16.75969,-37.65626c0.45965,-0.99003 0.95467,-1.59111 1.48504,-1.80326c0.53037,-0.2475 1.29057,-0.15911 2.28059,0.26519c0.99002,0.45965 1.55575,0.97234 1.69718,1.53807c0.17679,0.53037 0.05303,1.25521 -0.37126,2.17452l-16.91881,37.92145c-0.4243,0.95466 -0.90163,1.5204 -1.432,1.69718c-0.49501,0.17679 -1.21985,0.05304 -2.17451,-0.37126zM256.47154,195.2575l-14.4791,-22.38162c-0.56573,-0.84859 -0.79556,-1.55575 -0.68948,-2.12148c0.14143,-0.56573 0.63645,-1.13145 1.48504,-1.69718c0.95467,-0.56573 1.71486,-0.77788 2.28059,-0.63645c0.56573,0.14143 1.14914,0.63645 1.75022,1.48504l12.25155,19.30546zM295.09946,199.28831c-0.74252,0 -1.32592,-0.14143 -1.75022,-0.4243c-0.38894,-0.28286 -0.65412,-0.6718 -0.79555,-1.16681c-0.10608,-0.53037 -0.15911,-1.11378 -0.15911,-1.75022v-37.65627c0,-0.60109 0.07071,-1.14913 0.21214,-1.64414c0.14143,-0.49501 0.40662,-0.86628 0.79556,-1.11378c0.4243,-0.28286 1.0077,-0.4243 1.75022,-0.4243h17.71436c2.33363,0 4.40207,0.53037 6.20533,1.59111c1.80326,1.02538 3.1999,2.45738 4.18992,4.296c1.02538,1.80326 1.5204,3.78331 1.48504,5.94015c0.03536,1.0961 -0.10608,2.17452 -0.4243,3.23526c-0.28287,1.06074 -0.70716,2.05076 -1.27288,2.97007c-0.56573,0.88395 -1.27289,1.62647 -2.12148,2.22756c1.16681,0.70716 2.13916,1.62646 2.91703,2.75792c0.81324,1.13145 1.432,2.40435 1.8563,3.81867c0.4243,1.37896 0.63644,2.82864 0.63644,4.34904c-0.03536,1.83862 -0.37126,3.55348 -1.0077,5.14459c-0.63644,1.55575 -1.55575,2.93471 -2.75792,4.13689c-1.16681,1.16681 -2.5281,2.08612 -4.08385,2.75793c-1.55575,0.63644 -3.23525,0.95466 -5.03851,0.95466zM298.06953,193.8255h14.79733c1.62647,0 3.02311,-0.31822 4.18993,-0.95466c1.20217,-0.63645 2.12148,-1.55576 2.75792,-2.75792c0.63644,-1.23753 0.95466,-2.74025 0.95466,-4.50815c0,-1.5204 -0.21214,-2.74025 -0.63644,-3.65956c-0.42429,-0.91931 -1.0077,-1.62647 -1.75022,-2.12148c-0.70716,-0.49501 -1.46736,-0.84859 -2.28059,-1.06074c-0.81324,-0.21215 -1.60879,-0.31822 -2.38666,-0.31822c-0.77787,-0.03536 -1.48504,-0.05304 -2.12148,-0.05304h-3.8717c-0.84859,0 -1.46735,-0.21214 -1.85629,-0.63644c-0.38894,-0.4243 -0.5834,-1.0961 -0.5834,-2.01541c0,-0.88395 0.19446,-1.52039 0.5834,-1.90933c0.42429,-0.38894 1.06074,-0.5834 1.90933,-0.5834h3.8717c0.6718,0 1.432,-0.01768 2.28059,-0.05304c0.84859,-0.03536 1.67951,-0.19447 2.49274,-0.47733c0.81324,-0.31822 1.48504,-0.88395 2.0154,-1.69718c0.53037,-0.81323 0.79556,-1.98004 0.79556,-3.50044c0,-2.36899 -0.63644,-4.11921 -1.90933,-5.25066c-1.27289,-1.13145 -3.35901,-1.69718 -6.25837,-1.69718h-12.99407zM336.35023,199.28831c-0.81323,0 -1.432,-0.12376 -1.85629,-0.37126c-0.38894,-0.21215 -0.65413,-0.53037 -0.79556,-0.95466c-0.10608,-0.4243 -0.15911,-0.93699 -0.15911,-1.53808v-24.98042c0,-0.60109 0.05304,-1.11378 0.15911,-1.53807c0.14143,-0.4243 0.40661,-0.74252 0.79556,-0.95467c0.42429,-0.21215 1.06074,-0.31822 1.90933,-0.31822c0.81324,0 1.39664,0.12376 1.75022,0.37126c0.38894,0.21215 0.63644,0.53037 0.74252,0.95467c0.14143,0.4243 0.21215,0.95466 0.21215,1.59111v24.92739c0,0.60109 -0.07072,1.11378 -0.21215,1.53807c-0.10608,0.42429 -0.37126,0.74252 -0.79556,0.95467c-0.38894,0.21215 -0.97235,0.31822 -1.75022,0.31822zM336.35023,161.04863c-0.95466,0 -1.66183,-0.14143 -2.12148,-0.4243c-0.45965,-0.28286 -0.7602,-0.6718 -0.90163,-1.16681c-0.14143,-0.49501 -0.21215,-1.0961 -0.21215,-1.80326c0,-0.6718 0.07072,-1.23753 0.21215,-1.69719c0.17679,-0.49501 0.49501,-0.84859 0.95466,-1.06074c0.49501,-0.2475 1.20217,-0.37126 2.12148,-0.37126c0.88395,0 1.55575,0.12375 2.0154,0.37126c0.45965,0.2475 0.7602,0.63644 0.90163,1.16681c0.17679,0.49501 0.26518,1.07842 0.26518,1.75022c0,0.6718 -0.08839,1.25521 -0.26518,1.75023c-0.14143,0.45965 -0.44198,0.83091 -0.90163,1.11378c-0.45965,0.2475 -1.14913,0.37126 -2.06844,0.37126zM350.21702,199.28831c-0.81324,0 -1.432,-0.12376 -1.8563,-0.37126c-0.38894,-0.21215 -0.63644,-0.53037 -0.74251,-0.95466c-0.10608,-0.45965 -0.15911,-0.99003 -0.15911,-1.59111v-24.92739c0,-0.63645 0.07071,-1.16681 0.21214,-1.59111c0.14143,-0.4243 0.38894,-0.72484 0.74252,-0.90163c0.38894,-0.21215 1.0077,-0.31822 1.8563,-0.31822c0.74252,0 1.30824,0.10607 1.69718,0.31822c0.42429,0.17679 0.70716,0.44198 0.84859,0.79556c0.14143,0.35358 0.21215,0.7602 0.21215,1.21985l-0.21215,1.90933c0.28287,-0.53037 0.61877,-1.07842 1.0077,-1.64415c0.4243,-0.56573 0.93699,-1.06074 1.53807,-1.48503c0.60109,-0.45965 1.32592,-0.83091 2.17452,-1.11378c0.88395,-0.28286 1.96237,-0.4243 3.23526,-0.4243c0.63644,0 1.23753,0.05303 1.80326,0.15911c0.56573,0.10608 1.11378,0.26519 1.64415,0.47734c0.53037,0.21215 0.99002,0.45965 1.37896,0.74251c0.38894,0.2475 0.68948,0.53037 0.90163,0.84859c0.2475,0.31822 0.37126,0.68948 0.37126,1.11378c0,0.91931 -0.30054,1.71487 -0.90163,2.38666c-0.60109,0.63645 -1.21985,0.95467 -1.8563,0.95467c-0.53037,0 -0.91931,-0.07072 -1.16681,-0.21215c-0.24751,-0.14143 -0.49501,-0.30054 -0.74252,-0.47733c-0.2475,-0.17679 -0.58341,-0.3359 -1.0077,-0.47733c-0.38894,-0.14143 -1.06074,-0.21215 -2.0154,-0.21215c-0.63644,0 -1.30825,0.12375 -2.0154,0.37126c-0.6718,0.2475 -1.32593,0.61877 -1.96237,1.11378c-0.63644,0.49501 -1.16681,1.13145 -1.59111,1.90933c-0.38894,0.74252 -0.5834,1.60879 -0.5834,2.59882v16.97184c0,0.60109 -0.07072,1.11378 -0.21215,1.53807c-0.10607,0.42429 -0.35358,0.74252 -0.74252,0.95467c-0.38894,0.21215 -1.0077,0.31822 -1.85629,0.31822zM384.47489,199.28831c-1.90933,0 -3.73027,-0.37126 -5.46281,-1.11378c-1.73254,-0.77787 -3.25294,-1.8563 -4.56118,-3.23526c-1.27289,-1.41432 -2.28059,-3.05847 -3.02311,-4.93244c-0.70716,-1.87397 -1.06074,-3.92473 -1.06074,-6.15229c0,-2.19219 0.35358,-4.22528 1.06074,-6.09925c0.74252,-1.87398 1.75022,-3.48277 3.02311,-4.82637c1.30824,-1.37896 2.82864,-2.4397 4.56118,-3.18222c1.73254,-0.77787 3.55348,-1.16681 5.46281,-1.16681c2.05076,0 3.90706,0.38894 5.56888,1.16681c1.69718,0.74252 3.14686,1.80326 4.34903,3.18222c1.20217,1.3436 2.1038,2.97007 2.70489,4.8794c0.63644,1.87398 0.95466,3.90706 0.95466,6.09926c0.07071,2.22755 -0.22983,4.27831 -0.90163,6.15229c-0.63644,1.83862 -1.55575,3.46508 -2.75792,4.87941c-1.16682,1.37896 -2.59881,2.45738 -4.296,3.23526c-1.66183,0.74252 -3.5358,1.11378 -5.62192,1.11378zM385.27044,193.87853c1.7679,0 3.35901,-0.40662 4.77333,-1.21985c1.41432,-0.84859 2.5281,-2.0154 3.34133,-3.50044c0.84859,-1.5204 1.27288,-3.25294 1.27288,-5.19763c0,-1.98005 -0.4243,-3.71259 -1.27288,-5.19762c-0.81324,-1.5204 -1.92701,-2.70489 -3.34133,-3.55348c-1.41432,-0.84859 -3.00543,-1.27289 -4.77333,-1.27289c-1.7679,0 -3.37669,0.4243 -4.82637,1.27289c-1.41432,0.84859 -2.54577,2.03308 -3.39436,3.55348c-0.81323,1.48504 -1.21985,3.21757 -1.21985,5.19762c0,1.94469 0.40661,3.67723 1.21985,5.19763c0.84859,1.48503 1.99773,2.65185 3.44741,3.50044c1.44968,0.81324 3.04079,1.21985 4.77333,1.21985zM397.6811,199.28831c-0.91931,0 -1.59111,-0.17679 -2.0154,-0.53037c-0.4243,-0.31822 -0.6718,-0.88395 -0.74252,-1.69718v-39.61864c0,-0.63645 0.05304,-1.16681 0.15912,-1.59111c0.10607,-0.4243 0.35357,-0.74252 0.74251,-0.95467c0.38894,-0.2475 0.99003,-0.37126 1.80326,-0.37126c0.81324,0 1.41431,0.12375 1.80326,0.37126c0.38894,0.21215 0.65413,0.53037 0.79556,0.95467c0.14143,0.4243 0.21215,0.93698 0.21215,1.53807v38.98219c0,0.60109 -0.07072,1.13146 -0.21215,1.59111c-0.14143,0.4243 -0.40662,0.74251 -0.79556,0.95466c-0.35358,0.2475 -0.93698,0.37126 -1.75022,0.37126z"/></g><path d="M82.37194,192.88019c-0.81323,0 -1.432,-0.12375 -1.85629,-0.37126c-0.38894,-0.21215 -0.65412,-0.53037 -0.79555,-0.95467c-0.10607,-0.45965 -0.15911,-0.99002 -0.15911,-1.59111v-38.45182c0,-1.0961 0.21215,-1.83862 0.63644,-2.22755c0.45965,-0.38894 1.25521,-0.58341 2.38666,-0.58341h25.45776c0.60109,0 1.0961,0.07072 1.48504,0.21215c0.38894,0.10607 0.68948,0.37126 0.90163,0.79555c0.21215,0.4243 0.31822,1.04306 0.31822,1.85629c0,0.84859 -0.12375,1.48504 -0.37126,1.90933c-0.21215,0.38894 -0.53037,0.65412 -0.95467,0.79555c-0.4243,0.10607 -0.91931,0.15911 -1.48504,0.15911h-22.69984v13.10014h15.80503c0.56573,0 1.04306,0.07072 1.432,0.21215c0.4243,0.14143 0.74252,0.40662 0.95467,0.79555c0.21215,0.35358 0.31822,0.93699 0.31822,1.75022c0,0.74252 -0.10607,1.30825 -0.31822,1.69718c-0.21215,0.38894 -0.53037,0.63644 -0.95467,0.74252c-0.38894,0.10607 -0.90163,0.15911 -1.53807,0.15911h-15.69895v17.13095c0,0.60109 -0.07072,1.11378 -0.21215,1.53807c-0.10607,0.4243 -0.37126,0.74252 -0.79555,0.95467c-0.38894,0.24751 -1.0077,0.37126 -1.85629,0.37126zM128.32394,192.88019c-1.3436,0 -2.56345,-0.12375 -3.65955,-0.37126c-1.06074,-0.21215 -1.99773,-0.56573 -2.81096,-1.06074c-0.81323,-0.53037 -1.48504,-1.18449 -2.01541,-1.96237c-0.53037,-0.81323 -0.91931,-1.78558 -1.16681,-2.91703c-0.21215,-1.16681 -0.31822,-2.51042 -0.31822,-4.03081v-31.66309c0,-0.63644 0.05304,-1.14913 0.15911,-1.53807c0.10607,-0.4243 0.37126,-0.7602 0.79555,-1.0077c0.4243,-0.24751 1.02538,-0.37126 1.80326,-0.37126c0.81323,0 1.41432,0.10607 1.80326,0.31822c0.4243,0.21215 0.68948,0.53037 0.79555,0.95467c0.14143,0.4243 0.21215,0.93699 0.21215,1.53807v31.71613c0,0.84859 0.08839,1.59111 0.26518,2.22755c0.17679,0.60109 0.44197,1.11378 0.79555,1.53807c0.35358,0.4243 0.79555,0.72484 1.32592,0.90163c0.56573,0.14143 1.23753,0.21215 2.01541,0.21215c0.49501,0 0.91931,0.07072 1.27289,0.21215c0.35358,0.10607 0.63644,0.35358 0.84859,0.74252c0.21215,0.38894 0.31822,0.97234 0.31822,1.75022c0,0.84859 -0.10607,1.48504 -0.31822,1.90933c-0.21215,0.38894 -0.49501,0.63644 -0.84859,0.74252c-0.35358,0.10607 -0.77788,0.15911 -1.27289,0.15911zM162.56005,192.82716c-0.91931,0 -1.59111,-0.19447 -2.01541,-0.58341c-0.38894,-0.38894 -0.61876,-0.97234 -0.68948,-1.75022l0.26518,-3.18222c-0.4243,0.6718 -1.0961,1.44968 -2.01541,2.33363c-0.88395,0.84859 -2.05076,1.60879 -3.50044,2.28059c-1.41432,0.63644 -3.14686,0.95467 -5.19763,0.95467c-2.05076,0 -3.9601,-0.38894 -5.728,-1.16681c-1.73254,-0.81323 -3.27061,-1.94469 -4.61422,-3.39437c-1.30825,-1.44968 -2.33363,-3.09382 -3.07615,-4.93244c-0.74252,-1.87397 -1.11378,-3.85402 -1.11378,-5.94014c0,-2.08612 0.37126,-4.04849 1.11378,-5.88711c0.74252,-1.83862 1.78558,-3.4474 3.12918,-4.82637c1.37896,-1.41432 2.93471,-2.51042 4.66726,-3.28829c1.7679,-0.81323 3.64187,-1.21985 5.62192,-1.21985c1.83862,0 3.41205,0.24751 4.72029,0.74252c1.30825,0.49501 2.4397,1.13146 3.39437,1.90933c0.95467,0.77788 1.78558,1.64415 2.49274,2.59881l-0.10607,-2.65185c-0.03536,-0.91931 0.15911,-1.57343 0.58341,-1.96237c0.45965,-0.4243 1.16681,-0.63644 2.12148,-0.63644c0.81323,0 1.39664,0.12375 1.75022,0.37126c0.35358,0.24751 0.58341,0.61876 0.68948,1.11378c0.14143,0.45965 0.21215,1.02538 0.21215,1.69718v24.45006c0,0.56573 -0.07072,1.0961 -0.21215,1.59111c-0.10607,0.45965 -0.35358,0.79555 -0.74252,1.0077c-0.35358,0.24751 -0.93699,0.37126 -1.75022,0.37126zM150.36154,187.57649c1.66183,0 3.1999,-0.44197 4.61422,-1.32592c1.41432,-0.91931 2.5281,-2.12148 3.34133,-3.60652c0.84859,-1.48504 1.27289,-3.1999 1.27289,-5.14459c0,-1.98005 -0.44197,-3.71259 -1.32592,-5.19763c-0.84859,-1.52039 -1.98005,-2.70489 -3.39437,-3.55348c-1.41432,-0.88395 -2.97007,-1.32592 -4.66726,-1.32592c-1.98005,0 -3.69491,0.45965 -5.14459,1.37896c-1.44968,0.88395 -2.59881,2.08612 -3.4474,3.60652c-0.84859,1.52039 -1.27289,3.25294 -1.27289,5.19763c0,1.90933 0.4243,3.62419 1.27289,5.14459c0.84859,1.48504 2.01541,2.66953 3.50044,3.55348c1.52039,0.84859 3.27061,1.27289 5.25066,1.27289zM188.35488,192.61501c-2.08612,0 -3.97777,-0.37126 -5.67496,-1.11378c-1.66183,-0.77788 -3.09382,-1.83862 -4.296,-3.18222c-1.16681,-1.37896 -2.08612,-3.00543 -2.75792,-4.8794c-0.63644,-1.87397 -0.93699,-3.92474 -0.90163,-6.15229c0,-2.1922 0.31822,-4.2076 0.95467,-6.04622c0.63644,-1.87397 1.55575,-3.50044 2.75792,-4.8794c1.20217,-1.37896 2.63417,-2.42202 4.296,-3.12918c1.66183,-0.74252 3.5358,-1.11378 5.62192,-1.11378c1.94469,0 3.76563,0.38894 5.46281,1.16681c1.69718,0.74252 3.18222,1.80326 4.45511,3.18222c1.30825,1.3436 2.33363,2.97007 3.07615,4.8794c0.74252,1.90933 1.11378,3.9601 1.11378,6.15229c0,2.1922 -0.37126,4.22528 -1.11378,6.09925c-0.74252,1.83862 -1.7679,3.42973 -3.07615,4.77333c-1.27289,1.3436 -2.75792,2.38666 -4.45511,3.12918c-1.69718,0.74252 -3.51812,1.11378 -5.46281,1.11378zM175.14867,205.34389c-0.77788,0 -1.37896,-0.12375 -1.80326,-0.37126c-0.38894,-0.21215 -0.65412,-0.53037 -0.79555,-0.95467c-0.14143,-0.4243 -0.21215,-0.93699 -0.21215,-1.53807v-37.39108c0,-0.60109 0.05304,-1.11378 0.15911,-1.53807c0.14143,-0.4243 0.40662,-0.74252 0.79555,-0.95467c0.4243,-0.24751 1.02538,-0.37126 1.80326,-0.37126c0.91931,0 1.60879,0.15911 2.06844,0.47733c0.45965,0.28286 0.72484,0.79555 0.79555,1.53807v38.18664c0.03536,0.60109 -0.01768,1.11378 -0.15911,1.53807c-0.10607,0.45965 -0.37126,0.79555 -0.79555,1.0077c-0.38894,0.24751 -1.0077,0.37126 -1.85629,0.37126zM187.50629,187.41738c1.7679,0 3.37669,-0.4243 4.82637,-1.27289c1.44968,-0.88395 2.58113,-2.08612 3.39437,-3.60652c0.81323,-1.52039 1.21985,-3.25294 1.21985,-5.19763c0,-1.98005 -0.40662,-3.69491 -1.21985,-5.14459c-0.81323,-1.48504 -1.92701,-2.63417 -3.34133,-3.4474c-1.41432,-0.84859 -3.04079,-1.27289 -4.8794,-1.27289c-1.7679,0 -3.35901,0.4243 -4.77333,1.27289c-1.41432,0.84859 -2.5281,2.01541 -3.34133,3.50044c-0.81323,1.44968 -1.21985,3.14686 -1.21985,5.09155c0,1.94469 0.40662,3.67723 1.21985,5.19763c0.81323,1.52039 1.92701,2.72257 3.34133,3.60652c1.41432,0.84859 3.00543,1.27289 4.77333,1.27289zM224.70418,192.61501c-2.08612,0 -3.97777,-0.37126 -5.67496,-1.11378c-1.66183,-0.77788 -3.09382,-1.83862 -4.296,-3.18222c-1.16681,-1.37896 -2.08612,-3.00543 -2.75792,-4.8794c-0.63644,-1.87397 -0.93699,-3.92474 -0.90163,-6.15229c0,-2.1922 0.31822,-4.2076 0.95467,-6.04622c0.63644,-1.87397 1.55575,-3.50044 2.75792,-4.8794c1.20217,-1.37896 2.63417,-2.42202 4.296,-3.12918c1.66183,-0.74252 3.5358,-1.11378 5.62192,-1.11378c1.94469,0 3.76563,0.38894 5.46281,1.16681c1.69718,0.74252 3.18222,1.80326 4.45511,3.18222c1.30825,1.3436 2.33363,2.97007 3.07615,4.8794c0.74252,1.90933 1.11378,3.9601 1.11378,6.15229c0,2.1922 -0.37126,4.22528 -1.11378,6.09925c-0.74252,1.83862 -1.7679,3.42973 -3.07615,4.77333c-1.27289,1.3436 -2.75792,2.38666 -4.45511,3.12918c-1.69718,0.74252 -3.51812,1.11378 -5.46281,1.11378zM211.49797,205.34389c-0.77788,0 -1.37896,-0.12375 -1.80326,-0.37126c-0.38894,-0.21215 -0.65412,-0.53037 -0.79555,-0.95467c-0.14143,-0.4243 -0.21215,-0.93699 -0.21215,-1.53807v-37.39108c0,-0.60109 0.05304,-1.11378 0.15911,-1.53807c0.14143,-0.4243 0.40662,-0.74252 0.79555,-0.95467c0.4243,-0.24751 1.02538,-0.37126 1.80326,-0.37126c0.91931,0 1.60879,0.15911 2.06844,0.47733c0.45965,0.28286 0.72484,0.79555 0.79555,1.53807v38.18664c0.03536,0.60109 -0.01768,1.11378 -0.15911,1.53807c-0.10607,0.45965 -0.37126,0.79555 -0.79555,1.0077c-0.38894,0.24751 -1.0077,0.37126 -1.85629,0.37126zM223.85559,187.41738c1.7679,0 3.37669,-0.4243 4.82637,-1.27289c1.44968,-0.88395 2.58113,-2.08612 3.39437,-3.60652c0.81323,-1.52039 1.21985,-3.25294 1.21985,-5.19763c0,-1.98005 -0.40662,-3.69491 -1.21985,-5.14459c-0.81323,-1.48504 -1.92701,-2.63417 -3.34133,-3.4474c-1.41432,-0.84859 -3.04079,-1.27289 -4.8794,-1.27289c-1.7679,0 -3.35901,0.4243 -4.77333,1.27289c-1.41432,0.84859 -2.5281,2.01541 -3.34133,3.50044c-0.81323,1.44968 -1.21985,3.14686 -1.21985,5.09155c0,1.94469 0.40662,3.67723 1.21985,5.19763c0.81323,1.52039 1.92701,2.72257 3.34133,3.60652c1.41432,0.84859 3.00543,1.27289 4.77333,1.27289zM250.40144,205.18478c-1.02538,-0.4243 -1.62647,-0.91931 -1.80326,-1.48504c-0.14143,-0.53037 0.01768,-1.29057 0.47733,-2.28059l16.75969,-37.65627c0.45965,-0.99002 0.95467,-1.59111 1.48504,-1.80326c0.53037,-0.24751 1.29057,-0.15911 2.28059,0.26518c0.99002,0.45965 1.55575,0.97234 1.69718,1.53807c0.17679,0.53037 0.05304,1.25521 -0.37126,2.17452l-16.9188,37.92145c-0.4243,0.95467 -0.90163,1.52039 -1.432,1.69718c-0.49501,0.17679 -1.21985,0.05304 -2.17452,-0.37126zM256.6598,188.84938l-14.4791,-22.38161c-0.56573,-0.84859 -0.79555,-1.55575 -0.68948,-2.12148c0.14143,-0.56573 0.63644,-1.13146 1.48504,-1.69718c0.95467,-0.56573 1.71486,-0.77788 2.28059,-0.63644c0.56573,0.14143 1.14913,0.63644 1.75022,1.48504l12.25155,19.30547zM295.28773,192.88019c-0.74252,0 -1.32592,-0.14143 -1.75022,-0.4243c-0.38894,-0.28286 -0.65412,-0.6718 -0.79555,-1.16681c-0.10607,-0.53037 -0.15911,-1.11378 -0.15911,-1.75022v-37.65627c0,-0.60109 0.07072,-1.14913 0.21215,-1.64415c0.14143,-0.49501 0.40662,-0.86627 0.79555,-1.11378c0.4243,-0.28286 1.0077,-0.4243 1.75022,-0.4243h17.71436c2.33363,0 4.40207,0.53037 6.20533,1.59111c1.80326,1.02538 3.1999,2.45738 4.18992,4.296c1.02538,1.80326 1.52039,3.78331 1.48504,5.94014c0.03536,1.0961 -0.10607,2.17452 -0.4243,3.23526c-0.28286,1.06074 -0.70716,2.05076 -1.27289,2.97007c-0.56573,0.88395 -1.27289,1.62647 -2.12148,2.22755c1.16681,0.70716 2.13916,1.62647 2.91703,2.75792c0.81323,1.13146 1.432,2.40434 1.85629,3.81866c0.4243,1.37896 0.63644,2.82864 0.63644,4.34903c-0.03536,1.83862 -0.37126,3.55348 -1.0077,5.14459c-0.63644,1.55575 -1.55575,2.93471 -2.75792,4.13689c-1.16681,1.16681 -2.5281,2.08612 -4.08385,2.75792c-1.55575,0.63644 -3.23526,0.95467 -5.03851,0.95467zM298.2578,187.41738h14.79732c1.62647,0 3.02311,-0.31822 4.18992,-0.95467c1.20217,-0.63644 2.12148,-1.55575 2.75792,-2.75792c0.63644,-1.23753 0.95467,-2.74024 0.95467,-4.50814c0,-1.52039 -0.21215,-2.74024 -0.63644,-3.65955c-0.4243,-0.91931 -1.0077,-1.62647 -1.75022,-2.12148c-0.70716,-0.49501 -1.46736,-0.84859 -2.28059,-1.06074c-0.81323,-0.21215 -1.60879,-0.31822 -2.38666,-0.31822c-0.77788,-0.03536 -1.48504,-0.05304 -2.12148,-0.05304h-3.8717c-0.84859,0 -1.46736,-0.21215 -1.85629,-0.63644c-0.38894,-0.4243 -0.58341,-1.0961 -0.58341,-2.01541c0,-0.88395 0.19447,-1.52039 0.58341,-1.90933c0.4243,-0.38894 1.06074,-0.58341 1.90933,-0.58341h3.8717c0.6718,0 1.432,-0.01768 2.28059,-0.05304c0.84859,-0.03536 1.6795,-0.19447 2.49274,-0.47733c0.81323,-0.31822 1.48504,-0.88395 2.01541,-1.69718c0.53037,-0.81323 0.79555,-1.98005 0.79555,-3.50044c0,-2.36899 -0.63644,-4.11921 -1.90933,-5.25066c-1.27289,-1.13146 -3.35901,-1.69718 -6.25837,-1.69718h-12.99406zM336.5385,192.88019c-0.81323,0 -1.432,-0.12375 -1.85629,-0.37126c-0.38894,-0.21215 -0.65412,-0.53037 -0.79555,-0.95467c-0.10607,-0.4243 -0.15911,-0.93699 -0.15911,-1.53807v-24.98043c0,-0.60109 0.05304,-1.11378 0.15911,-1.53807c0.14143,-0.4243 0.40662,-0.74252 0.79555,-0.95467c0.4243,-0.21215 1.06074,-0.31822 1.90933,-0.31822c0.81323,0 1.39664,0.12375 1.75022,0.37126c0.38894,0.21215 0.63644,0.53037 0.74252,0.95467c0.14143,0.4243 0.21215,0.95467 0.21215,1.59111v24.92739c0,0.60109 -0.07072,1.11378 -0.21215,1.53807c-0.10607,0.4243 -0.37126,0.74252 -0.79555,0.95467c-0.38894,0.21215 -0.97234,0.31822 -1.75022,0.31822zM336.5385,154.64052c-0.95467,0 -1.66183,-0.14143 -2.12148,-0.4243c-0.45965,-0.28286 -0.7602,-0.6718 -0.90163,-1.16681c-0.14143,-0.49501 -0.21215,-1.0961 -0.21215,-1.80326c0,-0.6718 0.07072,-1.23753 0.21215,-1.69718c0.17679,-0.49501 0.49501,-0.84859 0.95467,-1.06074c0.49501,-0.24751 1.20217,-0.37126 2.12148,-0.37126c0.88395,0 1.55575,0.12375 2.01541,0.37126c0.45965,0.24751 0.7602,0.63644 0.90163,1.16681c0.17679,0.49501 0.26518,1.07842 0.26518,1.75022c0,0.6718 -0.08839,1.25521 -0.26518,1.75022c-0.14143,0.45965 -0.44197,0.83091 -0.90163,1.11378c-0.45965,0.24751 -1.14913,0.37126 -2.06844,0.37126zM350.40529,192.88019c-0.81323,0 -1.432,-0.12375 -1.85629,-0.37126c-0.38894,-0.21215 -0.63644,-0.53037 -0.74252,-0.95467c-0.10607,-0.45965 -0.15911,-0.99002 -0.15911,-1.59111v-24.92739c0,-0.63644 0.07072,-1.16681 0.21215,-1.59111c0.14143,-0.4243 0.38894,-0.72484 0.74252,-0.90163c0.38894,-0.21215 1.0077,-0.31822 1.85629,-0.31822c0.74252,0 1.30825,0.10607 1.69718,0.31822c0.4243,0.17679 0.70716,0.44197 0.84859,0.79555c0.14143,0.35358 0.21215,0.7602 0.21215,1.21985l-0.21215,1.90933c0.28286,-0.53037 0.61876,-1.07842 1.0077,-1.64415c0.4243,-0.56573 0.93699,-1.06074 1.53807,-1.48504c0.60109,-0.45965 1.32592,-0.83091 2.17452,-1.11378c0.88395,-0.28286 1.96237,-0.4243 3.23526,-0.4243c0.63644,0 1.23753,0.05304 1.80326,0.15911c0.56573,0.10607 1.11378,0.26518 1.64415,0.47733c0.53037,0.21215 0.99002,0.45965 1.37896,0.74252c0.38894,0.24751 0.68948,0.53037 0.90163,0.84859c0.24751,0.31822 0.37126,0.68948 0.37126,1.11378c0,0.91931 -0.30054,1.71486 -0.90163,2.38666c-0.60109,0.63644 -1.21985,0.95467 -1.85629,0.95467c-0.53037,0 -0.91931,-0.07072 -1.16681,-0.21215c-0.24751,-0.14143 -0.49501,-0.30054 -0.74252,-0.47733c-0.24751,-0.17679 -0.58341,-0.3359 -1.0077,-0.47733c-0.38894,-0.14143 -1.06074,-0.21215 -2.01541,-0.21215c-0.63644,0 -1.30825,0.12375 -2.01541,0.37126c-0.6718,0.24751 -1.32592,0.61876 -1.96237,1.11378c-0.63644,0.49501 -1.16681,1.13146 -1.59111,1.90933c-0.38894,0.74252 -0.58341,1.60879 -0.58341,2.59881v16.97184c0,0.60109 -0.07072,1.11378 -0.21215,1.53807c-0.10607,0.4243 -0.35358,0.74252 -0.74252,0.95467c-0.38894,0.21215 -1.0077,0.31822 -1.85629,0.31822zM384.66315,192.88019c-1.90933,0 -3.73027,-0.37126 -5.46281,-1.11378c-1.73254,-0.77788 -3.25294,-1.85629 -4.56118,-3.23526c-1.27289,-1.41432 -2.28059,-3.05847 -3.02311,-4.93244c-0.70716,-1.87397 -1.06074,-3.92474 -1.06074,-6.15229c0,-2.1922 0.35358,-4.22528 1.06074,-6.09925c0.74252,-1.87397 1.75022,-3.48276 3.02311,-4.82637c1.30825,-1.37896 2.82864,-2.4397 4.56118,-3.18222c1.73254,-0.77788 3.55348,-1.16681 5.46281,-1.16681c2.05076,0 3.90706,0.38894 5.56888,1.16681c1.69718,0.74252 3.14686,1.80326 4.34903,3.18222c1.20217,1.3436 2.1038,2.97007 2.70489,4.8794c0.63644,1.87397 0.95467,3.90706 0.95467,6.09925c0.07072,2.22755 -0.22983,4.27832 -0.90163,6.15229c-0.63644,1.83862 -1.55575,3.46508 -2.75792,4.8794c-1.16681,1.37896 -2.59881,2.45738 -4.296,3.23526c-1.66183,0.74252 -3.5358,1.11378 -5.62192,1.11378zM385.4587,187.47042c1.7679,0 3.35901,-0.40662 4.77333,-1.21985c1.41432,-0.84859 2.5281,-2.01541 3.34133,-3.50044c0.84859,-1.52039 1.27289,-3.25294 1.27289,-5.19763c0,-1.98005 -0.4243,-3.71259 -1.27289,-5.19763c-0.81323,-1.52039 -1.92701,-2.70489 -3.34133,-3.55348c-1.41432,-0.84859 -3.00543,-1.27289 -4.77333,-1.27289c-1.7679,0 -3.37669,0.4243 -4.82637,1.27289c-1.41432,0.84859 -2.54578,2.03308 -3.39437,3.55348c-0.81323,1.48504 -1.21985,3.21758 -1.21985,5.19763c0,1.94469 0.40662,3.67723 1.21985,5.19763c0.84859,1.48504 1.99773,2.65185 3.4474,3.50044c1.44968,0.81323 3.04079,1.21985 4.77333,1.21985zM397.86936,192.88019c-0.91931,0 -1.59111,-0.17679 -2.01541,-0.53037c-0.4243,-0.31822 -0.6718,-0.88395 -0.74252,-1.69718v-39.61864c0,-0.63644 0.05304,-1.16681 0.15911,-1.59111c0.10607,-0.4243 0.35358,-0.74252 0.74252,-0.95467c0.38894,-0.24751 0.99002,-0.37126 1.80326,-0.37126c0.81323,0 1.41432,0.12375 1.80326,0.37126c0.38894,0.21215 0.65412,0.53037 0.79555,0.95467c0.14143,0.4243 0.21215,0.93699 0.21215,1.53807v38.98219c0,0.60109 -0.07072,1.13146 -0.21215,1.59111c-0.14143,0.4243 -0.40662,0.74252 -0.79555,0.95467c-0.35358,0.24751 -0.93699,0.37126 -1.75022,0.37126z" fill="#ff9b00" stroke="#ff9b00" stroke-width="1" stroke-linecap="square"/></g></g></svg>