<svg version="1.1" xmlns="http://www.w3.org/2000/svg" xmlns:xlink="http://www.w3.org/1999/xlink" width="12.76577" height="16.76565" viewBox="0,0,12.76577,16.76565"><g transform="translate(-233.61711,-171.61717)"><g data-paper-data="{&quot;isPaintingLayer&quot;:true}" fill-rule="nonzero" stroke-linecap="square" stroke-linejoin="miter" stroke-miterlimit="10" stroke-dasharray="" stroke-dashoffset="0" style="mix-blend-mode: normal"><path d="M239.99211,186.63268c-0.64583,0 -1.24479,-0.09375 -1.79687,-0.28125c-0.54167,-0.19792 -1.02083,-0.46875 -1.4375,-0.8125c-0.41667,-0.34375 -0.74479,-0.73437 -0.98437,-1.17187c-0.23958,-0.4375 -0.375,-0.89062 -0.40625,-1.35937c0,-0.4375 0.29167,-0.65625 0.875,-0.65625c0.20833,0 0.35938,0.02604 0.45313,0.07813c0.10417,0.05208 0.18229,0.14063 0.23438,0.26563c0.05208,0.11458 0.10417,0.27604 0.15625,0.48438c0.13542,0.375 0.33854,0.70313 0.60938,0.98438c0.27083,0.27083 0.59896,0.48438 0.98438,0.64063c0.39583,0.15625 0.83854,0.23438 1.32813,0.23438c0.58333,0 1.09375,-0.10417 1.53125,-0.3125c0.44792,-0.20833 0.79688,-0.49479 1.04688,-0.85937c0.25,-0.375 0.375,-0.79167 0.375,-1.25c0,-0.44792 -0.125,-0.84375 -0.375,-1.1875c-0.23958,-0.35417 -0.56771,-0.625 -0.98437,-0.8125c-0.41667,-0.1875 -0.89062,-0.28125 -1.42187,-0.28125c-0.21875,0 -0.40104,-0.01562 -0.54687,-0.04687c-0.14583,-0.04167 -0.25521,-0.11979 -0.32812,-0.23437c-0.0625,-0.125 -0.09375,-0.30729 -0.09375,-0.54687c0,-0.23958 0.03125,-0.41667 0.09375,-0.53125c0.07292,-0.11458 0.18229,-0.1875 0.32813,-0.21875c0.14583,-0.04167 0.33333,-0.0625 0.5625,-0.0625c0.5,0 0.91667,-0.07812 1.25,-0.23437c0.34375,-0.15625 0.60417,-0.35937 0.78125,-0.60937c0.17708,-0.26042 0.26563,-0.53646 0.26563,-0.82812c0,-0.41667 -0.09896,-0.78125 -0.29687,-1.09375c-0.1875,-0.3125 -0.45833,-0.55729 -0.8125,-0.73437c-0.35417,-0.17708 -0.76042,-0.26562 -1.21875,-0.26562c-0.40625,0 -0.76042,0.05208 -1.0625,0.15625c-0.30208,0.10417 -0.57812,0.26042 -0.82812,0.46875c-0.23958,0.19792 -0.46354,0.44792 -0.67187,0.75c-0.17708,0.28125 -0.34896,0.44271 -0.51562,0.48438c-0.15625,0.04167 -0.38021,-0.02604 -0.67187,-0.20312c-0.20833,-0.13542 -0.33854,-0.27083 -0.39062,-0.40625c-0.05208,-0.13542 -0.03646,-0.30208 0.04688,-0.5c0.0625,-0.125 0.15625,-0.28125 0.28125,-0.46875c0.125,-0.19792 0.29167,-0.40104 0.5,-0.60937c0.21875,-0.21875 0.47396,-0.42187 0.76563,-0.60937c0.30208,-0.1875 0.65104,-0.33854 1.04688,-0.45312c0.40625,-0.11458 0.88021,-0.17187 1.42188,-0.17187c0.63542,0 1.20833,0.09896 1.71875,0.29688c0.52083,0.1875 0.95313,0.44792 1.29688,0.78125c0.35417,0.33333 0.61979,0.71875 0.79688,1.15625c0.1875,0.42708 0.28125,0.875 0.28125,1.34375c0,0.39583 -0.07812,0.77083 -0.23437,1.125c-0.14583,0.34375 -0.35417,0.64063 -0.625,0.89063c-0.26042,0.23958 -0.52604,0.42708 -0.79687,0.5625c0.33333,0.11458 0.63021,0.28646 0.89063,0.51563c0.27083,0.22917 0.49479,0.48958 0.67188,0.78125c0.17708,0.28125 0.3125,0.57813 0.40625,0.89063c0.09375,0.30208 0.14063,0.59375 0.14063,0.875c0,0.77083 -0.19792,1.46354 -0.59375,2.07813c-0.38542,0.60417 -0.92708,1.08333 -1.625,1.4375c-0.69792,0.35417 -1.50521,0.53125 -2.42187,0.53125z" fill="#000000" stroke="#ffffff" stroke-width="3.5"/><path d="M239.99213,186.6327c-0.64583,0 -1.24479,-0.09375 -1.79687,-0.28125c-0.54167,-0.19792 -1.02083,-0.46875 -1.4375,-0.8125c-0.41667,-0.34375 -0.74479,-0.73437 -0.98437,-1.17187c-0.23958,-0.4375 -0.375,-0.89062 -0.40625,-1.35937c0,-0.4375 0.29167,-0.65625 0.875,-0.65625c0.20833,0 0.35938,0.02604 0.45313,0.07813c0.10417,0.05208 0.18229,0.14063 0.23438,0.26563c0.05208,0.11458 0.10417,0.27604 0.15625,0.48438c0.13542,0.375 0.33854,0.70313 0.60938,0.98438c0.27083,0.27083 0.59896,0.48438 0.98438,0.64063c0.39583,0.15625 0.83854,0.23438 1.32813,0.23438c0.58333,0 1.09375,-0.10417 1.53125,-0.3125c0.44792,-0.20833 0.79688,-0.49479 1.04688,-0.85937c0.25,-0.375 0.375,-0.79167 0.375,-1.25c0,-0.44792 -0.125,-0.84375 -0.375,-1.1875c-0.23958,-0.35417 -0.56771,-0.625 -0.98437,-0.8125c-0.41667,-0.1875 -0.89062,-0.28125 -1.42187,-0.28125c-0.21875,0 -0.40104,-0.01562 -0.54687,-0.04687c-0.14583,-0.04167 -0.25521,-0.11979 -0.32812,-0.23437c-0.0625,-0.125 -0.09375,-0.30729 -0.09375,-0.54687c0,-0.23958 0.03125,-0.41667 0.09375,-0.53125c0.07292,-0.11458 0.18229,-0.1875 0.32813,-0.21875c0.14583,-0.04167 0.33333,-0.0625 0.5625,-0.0625c0.5,0 0.91667,-0.07812 1.25,-0.23437c0.34375,-0.15625 0.60417,-0.35937 0.78125,-0.60937c0.17708,-0.26042 0.26563,-0.53646 0.26563,-0.82812c0,-0.41667 -0.09896,-0.78125 -0.29687,-1.09375c-0.1875,-0.3125 -0.45833,-0.55729 -0.8125,-0.73437c-0.35417,-0.17708 -0.76042,-0.26562 -1.21875,-0.26562c-0.40625,0 -0.76042,0.05208 -1.0625,0.15625c-0.30208,0.10417 -0.57812,0.26042 -0.82812,0.46875c-0.23958,0.19792 -0.46354,0.44792 -0.67187,0.75c-0.17708,0.28125 -0.34896,0.44271 -0.51562,0.48438c-0.15625,0.04167 -0.38021,-0.02604 -0.67187,-0.20312c-0.20833,-0.13542 -0.33854,-0.27083 -0.39062,-0.40625c-0.05208,-0.13542 -0.03646,-0.30208 0.04688,-0.5c0.0625,-0.125 0.15625,-0.28125 0.28125,-0.46875c0.125,-0.19792 0.29167,-0.40104 0.5,-0.60937c0.21875,-0.21875 0.47396,-0.42187 0.76563,-0.60937c0.30208,-0.1875 0.65104,-0.33854 1.04688,-0.45312c0.40625,-0.11458 0.88021,-0.17187 1.42188,-0.17187c0.63542,0 1.20833,0.09896 1.71875,0.29688c0.52083,0.1875 0.95313,0.44792 1.29688,0.78125c0.35417,0.33333 0.61979,0.71875 0.79688,1.15625c0.1875,0.42708 0.28125,0.875 0.28125,1.34375c0,0.39583 -0.07812,0.77083 -0.23437,1.125c-0.14583,0.34375 -0.35417,0.64063 -0.625,0.89063c-0.26042,0.23958 -0.52604,0.42708 -0.79687,0.5625c0.33333,0.11458 0.63021,0.28646 0.89063,0.51563c0.27083,0.22917 0.49479,0.48958 0.67188,0.78125c0.17708,0.28125 0.3125,0.57813 0.40625,0.89063c0.09375,0.30208 0.14063,0.59375 0.14063,0.875c0,0.77083 -0.19792,1.46354 -0.59375,2.07813c-0.38542,0.60417 -0.92708,1.08333 -1.625,1.4375c-0.69792,0.35417 -1.50521,0.53125 -2.42187,0.53125z" fill="#000000" stroke="#000000" stroke-width="2.5"/><path d="M239.99212,186.63271c-0.64583,0 -1.24479,-0.09375 -1.79687,-0.28125c-0.54167,-0.19792 -1.02083,-0.46875 -1.4375,-0.8125c-0.41667,-0.34375 -0.74479,-0.73437 -0.98437,-1.17187c-0.23958,-0.4375 -0.375,-0.89062 -0.40625,-1.35937c0,-0.4375 0.29167,-0.65625 0.875,-0.65625c0.20833,0 0.35938,0.02604 0.45313,0.07813c0.10417,0.05208 0.18229,0.14063 0.23438,0.26563c0.05208,0.11458 0.10417,0.27604 0.15625,0.48438c0.13542,0.375 0.33854,0.70313 0.60938,0.98438c0.27083,0.27083 0.59896,0.48438 0.98438,0.64063c0.39583,0.15625 0.83854,0.23438 1.32813,0.23438c0.58333,0 1.09375,-0.10417 1.53125,-0.3125c0.44792,-0.20833 0.79688,-0.49479 1.04688,-0.85937c0.25,-0.375 0.375,-0.79167 0.375,-1.25c0,-0.44792 -0.125,-0.84375 -0.375,-1.1875c-0.23958,-0.35417 -0.56771,-0.625 -0.98437,-0.8125c-0.41667,-0.1875 -0.89062,-0.28125 -1.42187,-0.28125c-0.21875,0 -0.40104,-0.01562 -0.54687,-0.04687c-0.14583,-0.04167 -0.25521,-0.11979 -0.32812,-0.23437c-0.0625,-0.125 -0.09375,-0.30729 -0.09375,-0.54687c0,-0.23958 0.03125,-0.41667 0.09375,-0.53125c0.07292,-0.11458 0.18229,-0.1875 0.32813,-0.21875c0.14583,-0.04167 0.33333,-0.0625 0.5625,-0.0625c0.5,0 0.91667,-0.07812 1.25,-0.23437c0.34375,-0.15625 0.60417,-0.35937 0.78125,-0.60937c0.17708,-0.26042 0.26563,-0.53646 0.26563,-0.82812c0,-0.41667 -0.09896,-0.78125 -0.29687,-1.09375c-0.1875,-0.3125 -0.45833,-0.55729 -0.8125,-0.73437c-0.35417,-0.17708 -0.76042,-0.26562 -1.21875,-0.26562c-0.40625,0 -0.76042,0.05208 -1.0625,0.15625c-0.30208,0.10417 -0.57812,0.26042 -0.82812,0.46875c-0.23958,0.19792 -0.46354,0.44792 -0.67187,0.75c-0.17708,0.28125 -0.34896,0.44271 -0.51562,0.48438c-0.15625,0.04167 -0.38021,-0.02604 -0.67187,-0.20312c-0.20833,-0.13542 -0.33854,-0.27083 -0.39062,-0.40625c-0.05208,-0.13542 -0.03646,-0.30208 0.04688,-0.5c0.0625,-0.125 0.15625,-0.28125 0.28125,-0.46875c0.125,-0.19792 0.29167,-0.40104 0.5,-0.60937c0.21875,-0.21875 0.47396,-0.42187 0.76563,-0.60937c0.30208,-0.1875 0.65104,-0.33854 1.04688,-0.45312c0.40625,-0.11458 0.88021,-0.17187 1.42188,-0.17187c0.63542,0 1.20833,0.09896 1.71875,0.29688c0.52083,0.1875 0.95313,0.44792 1.29688,0.78125c0.35417,0.33333 0.61979,0.71875 0.79688,1.15625c0.1875,0.42708 0.28125,0.875 0.28125,1.34375c0,0.39583 -0.07812,0.77083 -0.23437,1.125c-0.14583,0.34375 -0.35417,0.64063 -0.625,0.89063c-0.26042,0.23958 -0.52604,0.42708 -0.79687,0.5625c0.33333,0.11458 0.63021,0.28646 0.89063,0.51563c0.27083,0.22917 0.49479,0.48958 0.67188,0.78125c0.17708,0.28125 0.3125,0.57813 0.40625,0.89063c0.09375,0.30208 0.14063,0.59375 0.14063,0.875c0,0.77083 -0.19792,1.46354 -0.59375,2.07813c-0.38542,0.60417 -0.92708,1.08333 -1.625,1.4375c-0.69792,0.35417 -1.50521,0.53125 -2.42187,0.53125z" fill="#ffffff" stroke="none" stroke-width="1"/></g></g></svg>