<svg version="1.1" xmlns="http://www.w3.org/2000/svg" xmlns:xlink="http://www.w3.org/1999/xlink" width="140.99231" height="58.95734" viewBox="0,0,140.99231,58.95734"><g transform="translate(-169.50391,-150.52134)"><g data-paper-data="{&quot;isPaintingLayer&quot;:true}" stroke-linecap="square" stroke-linejoin="miter" stroke-miterlimit="10" stroke-dasharray="" stroke-dashoffset="0" style="mix-blend-mode: normal"><path d="M171.50391,168.38665v0c0,-8.76217 7.10314,-15.86531 15.86531,-15.86531l105.26168,0.20593v0c4.20774,0 8.24314,1.67152 11.21847,4.64684c2.97532,2.97532 4.64685,7.01074 4.64685,11.21848v23.02078c0,8.76217 -7.10314,15.86531 -15.86532,15.86531l-105.26168,-0.20593c-8.76217,0 -15.86531,-7.10314 -15.86531,-15.86531z" fill="#ececec" fill-rule="evenodd" stroke="#000000" stroke-width="4"/><path d="M171.50391,168.38664v0c0,-8.76216 7.10315,-15.86531 15.86532,-15.86531l105.26168,0.20594v0c4.20774,0 8.24314,1.67152 11.21846,4.64684c2.97532,2.97532 4.64685,7.01073 4.64685,11.21847v23.02078c0,8.76217 -7.10314,15.86531 -15.86532,15.86531l-105.26168,-0.20594c-8.76217,0 -15.86532,-7.10314 -15.86532,-15.86531z" fill="#6a90d1" fill-rule="evenodd" stroke="none" stroke-width="1"/><path d="M171.50391,168.38665v0c0,-8.76217 7.10314,-15.86531 15.86531,-15.86531l105.26168,0.20593v0c4.20774,0 8.24314,1.67152 11.21847,4.64684c2.97532,2.97532 4.64685,7.01073 4.64685,11.21847l-0.00828,19.67943c0,8.76217 -7.10314,15.86531 -15.86531,15.86531l-105.26168,-0.20593c-8.76217,0 -15.86532,-7.10314 -15.86532,-15.86531z" fill="#82b0ff" fill-rule="evenodd" stroke="none" stroke-width="1"/><path d="M203.61436,191.58894c-0.82746,0 -1.60096,-0.09893 -2.32049,-0.29681c-0.71953,-0.19787 -1.3761,-0.4587 -1.96972,-0.78249c-0.57563,-0.34177 -1.09728,-0.71054 -1.56498,-1.10628c-0.4497,-0.41373 -0.80047,-0.82746 -1.05231,-1.24119c-0.23384,-0.34177 -0.38675,-0.6206 -0.4587,-0.83645c-0.05396,-0.23384 -0.03598,-0.4587 0.05396,-0.67456c0.10793,-0.21586 0.3058,-0.4497 0.59361,-0.70154c0.34177,-0.25184 0.63858,-0.36876 0.89042,-0.35077c0.26982,0 0.51267,0.09893 0.72852,0.29681c0.23384,0.17988 0.4677,0.43172 0.70154,0.75551c0.53965,0.73752 1.19622,1.27717 1.96972,1.61894c0.77349,0.32379 1.538,0.48568 2.2935,0.48568c0.97137,0 1.82581,-0.12591 2.56333,-0.37775c0.75551,-0.26982 1.34912,-0.66556 1.78084,-1.18723c0.4497,-0.52166 0.67456,-1.20521 0.67456,-2.05066c0,-0.68356 -0.17089,-1.25918 -0.51267,-1.72687c-0.34177,-0.48568 -0.80947,-0.89042 -1.40308,-1.21421c-0.57563,-0.34177 -1.21421,-0.62959 -1.91575,-0.86344c-0.70154,-0.25184 -1.42107,-0.49468 -2.15859,-0.72852c-0.57563,-0.19787 -1.14226,-0.41373 -1.69989,-0.64758c-0.55763,-0.25184 -1.08829,-0.53065 -1.59196,-0.83645c-0.48568,-0.32379 -0.9174,-0.70154 -1.29516,-1.13326c-0.37775,-0.43172 -0.67456,-0.93539 -0.89042,-1.51101c-0.19787,-0.57563 -0.29681,-1.25019 -0.29681,-2.02368c0,-1.18723 0.28781,-2.23054 0.86344,-3.12996c0.57563,-0.89942 1.3761,-1.60096 2.40143,-2.10463c1.02533,-0.50367 2.21256,-0.75551 3.56168,-0.75551c0.80947,0 1.54699,0.07195 2.21256,0.21586c0.66556,0.14391 1.25019,0.34177 1.75386,0.59361c0.52166,0.25184 0.96237,0.51267 1.32214,0.78249c0.35977,0.26982 0.63858,0.52166 0.83645,0.75551c0.39574,0.39574 0.6116,0.73752 0.64758,1.02533c0.05396,0.26982 -0.10793,0.6116 -0.48568,1.02533c-0.34177,0.39574 -0.67456,0.60261 -0.99835,0.6206c-0.32379,0.01799 -0.67456,-0.13491 -1.05231,-0.4587c-0.41373,-0.4677 -0.84545,-0.82746 -1.29516,-1.0793c-0.43172,-0.26982 -0.89042,-0.4497 -1.3761,-0.53965c-0.48568,-0.10793 -1.01633,-0.16189 -1.59196,-0.16189c-0.55763,0 -1.0793,0.07195 -1.56498,0.21586c-0.48568,0.14391 -0.9084,0.35977 -1.26817,0.64758c-0.34177,0.26982 -0.6116,0.60261 -0.80947,0.99835c-0.17988,0.39574 -0.26982,0.85444 -0.26982,1.3761c0,0.57563 0.1529,1.0703 0.4587,1.48403c0.3058,0.39574 0.71054,0.74651 1.21421,1.05231c0.52166,0.28781 1.10628,0.54865 1.75386,0.78249c0.64758,0.21586 1.32214,0.43172 2.02368,0.64758c0.77349,0.23384 1.538,0.52166 2.2935,0.86344c0.75551,0.32379 1.43007,0.72852 2.02368,1.21421c0.6116,0.48568 1.09728,1.09728 1.45705,1.8348c0.37775,0.71953 0.56663,1.60995 0.56663,2.67126c0,1.0793 -0.21586,2.03268 -0.64758,2.86013c-0.41373,0.80947 -0.98935,1.49303 -1.72687,2.05066c-0.71953,0.53965 -1.54699,0.94438 -2.48238,1.21421c-0.93539,0.28781 -1.91575,0.43172 -2.94108,0.43172zM222.08318,191.42705c-1.27717,0 -2.41942,-0.21586 -3.42676,-0.64758c-1.00735,-0.43172 -1.86179,-1.01633 -2.56333,-1.75386c-0.70154,-0.73752 -1.24119,-1.59196 -1.61894,-2.56333c-0.35977,-0.97137 -0.53965,-2.01468 -0.53965,-3.12996c0,-1.47503 0.34177,-2.78818 1.02533,-3.93943c0.70154,-1.16924 1.65492,-2.08664 2.86013,-2.7522c1.22321,-0.68356 2.61729,-1.02533 4.18227,-1.02533c1.0793,0 2.04167,0.17089 2.88712,0.51267c0.84545,0.32379 1.56498,0.7645 2.15859,1.32214c0.6116,0.55763 1.0793,1.17823 1.40308,1.86179c0.32379,0.68356 0.48568,1.36711 0.48568,2.05066c0,1.09728 -0.26083,1.87078 -0.78249,2.32049c-0.52166,0.43172 -1.16024,0.64758 -1.91575,0.64758h-9.30893c-0.01799,0.95338 0.23384,1.77184 0.75551,2.4554c0.53965,0.66556 1.20521,1.18723 1.9967,1.56498c0.80947,0.35977 1.62794,0.53965 2.4554,0.53965c0.59361,0 1.10628,-0.03598 1.538,-0.10793c0.43172,-0.07195 0.80947,-0.16189 1.13326,-0.26982c0.32379,-0.10793 0.60261,-0.20686 0.83645,-0.29681c0.23384,-0.10793 0.44072,-0.21586 0.6206,-0.32379c0.17988,-0.10793 0.35977,-0.18888 0.53965,-0.24284c0.19787,-0.03598 0.38675,-0.01799 0.56663,0.05396c0.17988,0.07195 0.32379,0.21586 0.43172,0.43172c0.12591,0.17988 0.20686,0.34177 0.24284,0.48568c0.05396,0.14391 0.08095,0.3058 0.08095,0.48568c0,0.3058 -0.26083,0.63858 -0.78249,0.99835c-0.52166,0.35977 -1.24119,0.66556 -2.15859,0.9174c-0.89942,0.26982 -1.93374,0.40474 -3.10298,0.40474zM216.92954,182.44191h8.09472c0.41373,0 0.71953,-0.05396 0.9174,-0.16189c0.19787,-0.10793 0.29681,-0.39574 0.29681,-0.86344c0,-0.6116 -0.17988,-1.16024 -0.53965,-1.64593c-0.35977,-0.48568 -0.86344,-0.87243 -1.51101,-1.16024c-0.62959,-0.3058 -1.34912,-0.4587 -2.15859,-0.4587c-0.93539,0 -1.79882,0.18888 -2.59031,0.56663c-0.79149,0.37775 -1.41208,0.89042 -1.86179,1.538c-0.4497,0.62959 -0.66556,1.35812 -0.64758,2.18557zM237.05193,191.26515c-0.68356,0 -1.30415,-0.06296 -1.86179,-0.18888c-0.53965,-0.10793 -1.01633,-0.28781 -1.43007,-0.53965c-0.41373,-0.26982 -0.75551,-0.60261 -1.02533,-0.99835c-0.26982,-0.41373 -0.4677,-0.9084 -0.59361,-1.48403c-0.10793,-0.59361 -0.16189,-1.27717 -0.16189,-2.05066v-16.10849c0,-0.32379 0.02698,-0.58462 0.08095,-0.78249c0.05396,-0.21586 0.18888,-0.38675 0.40474,-0.51267c0.21586,-0.12591 0.52166,-0.18888 0.9174,-0.18888c0.41373,0 0.71953,0.05396 0.9174,0.16189c0.21586,0.10793 0.35077,0.26982 0.40474,0.48568c0.07195,0.21586 0.10793,0.47669 0.10793,0.78249v16.13548c0,0.43172 0.04497,0.80947 0.13491,1.13326c0.08994,0.3058 0.22486,0.56663 0.40474,0.78249c0.17988,0.21586 0.40474,0.36876 0.67456,0.4587c0.28781,0.07195 0.62959,0.10793 1.02533,0.10793c0.25184,0 0.4677,0.03598 0.64758,0.10793c0.17988,0.05396 0.32379,0.17988 0.43172,0.37775c0.10793,0.19787 0.16189,0.49468 0.16189,0.89042c0,0.43172 -0.05396,0.75551 -0.16189,0.97137c-0.10793,0.19787 -0.25184,0.32379 -0.43172,0.37775c-0.17988,0.05396 -0.39574,0.08095 -0.64758,0.08095zM248.53332,191.42705c-1.27717,0 -2.41942,-0.21586 -3.42676,-0.64758c-1.00735,-0.43172 -1.86179,-1.01633 -2.56333,-1.75386c-0.70154,-0.73752 -1.24119,-1.59196 -1.61894,-2.56333c-0.35977,-0.97137 -0.53965,-2.01468 -0.53965,-3.12996c0,-1.47503 0.34177,-2.78818 1.02533,-3.93943c0.70154,-1.16924 1.65492,-2.08664 2.86013,-2.7522c1.22321,-0.68356 2.61729,-1.02533 4.18227,-1.02533c1.0793,0 2.04167,0.17089 2.88712,0.51267c0.84545,0.32379 1.56498,0.7645 2.15859,1.32214c0.6116,0.55763 1.0793,1.17823 1.40308,1.86179c0.32379,0.68356 0.48568,1.36711 0.48568,2.05066c0,1.09728 -0.26083,1.87078 -0.78249,2.32049c-0.52166,0.43172 -1.16024,0.64758 -1.91575,0.64758h-9.30893c-0.01799,0.95338 0.23384,1.77184 0.75551,2.4554c0.53965,0.66556 1.20521,1.18723 1.9967,1.56498c0.80947,0.35977 1.62794,0.53965 2.4554,0.53965c0.59361,0 1.10628,-0.03598 1.538,-0.10793c0.43172,-0.07195 0.80947,-0.16189 1.13326,-0.26982c0.32379,-0.10793 0.60261,-0.20686 0.83645,-0.29681c0.23384,-0.10793 0.44072,-0.21586 0.6206,-0.32379c0.17988,-0.10793 0.35977,-0.18888 0.53965,-0.24284c0.19787,-0.03598 0.38675,-0.01799 0.56663,0.05396c0.17988,0.07195 0.32379,0.21586 0.43172,0.43172c0.12591,0.17988 0.20686,0.34177 0.24284,0.48568c0.05396,0.14391 0.08095,0.3058 0.08095,0.48568c0,0.3058 -0.26083,0.63858 -0.78249,0.99835c-0.52166,0.35977 -1.24119,0.66556 -2.15859,0.9174c-0.89942,0.26982 -1.93374,0.40474 -3.10298,0.40474zM243.37968,182.44191h8.09472c0.41373,0 0.71953,-0.05396 0.9174,-0.16189c0.19787,-0.10793 0.29681,-0.39574 0.29681,-0.86344c0,-0.6116 -0.17988,-1.16024 -0.53965,-1.64593c-0.35977,-0.48568 -0.86344,-0.87243 -1.51101,-1.16024c-0.62959,-0.3058 -1.34912,-0.4587 -2.15859,-0.4587c-0.93539,0 -1.79882,0.18888 -2.59031,0.56663c-0.79149,0.37775 -1.41208,0.89042 -1.86179,1.538c-0.4497,0.62959 -0.66556,1.35812 -0.64758,2.18557zM265.93048,191.31912c-1.11528,0 -2.15859,-0.17988 -3.12996,-0.53965c-0.97137,-0.35977 -1.8348,-0.88142 -2.59031,-1.56498c-0.73752,-0.70154 -1.31314,-1.529 -1.72687,-2.48238c-0.41373,-0.95338 -0.6206,-2.04167 -0.6206,-3.26487c0,-1.22321 0.20686,-2.31149 0.6206,-3.26487c0.41373,-0.95338 0.98935,-1.77184 1.72687,-2.4554c0.73752,-0.70154 1.59196,-1.23219 2.56333,-1.59196c0.97137,-0.35977 2.00569,-0.53965 3.10298,-0.53965c0.73752,0 1.45706,0.11693 2.15862,0.35077c0.70154,0.21586 1.32214,0.50367 1.86179,0.86344c0.55763,0.34177 0.95338,0.71054 1.18723,1.10628c0.21586,0.26982 0.36876,0.49468 0.4587,0.67456c0.10793,0.17988 0.11693,0.39574 0.02698,0.64758c-0.07195,0.16189 -0.18888,0.31479 -0.35077,0.4587c-0.14391,0.14391 -0.28781,0.25184 -0.43172,0.32379c-0.39574,0.3058 -0.78249,0.35077 -1.16024,0.13491c-0.25184,-0.23384 -0.52166,-0.4497 -0.80947,-0.64758c-0.28781,-0.21586 -0.59361,-0.40474 -0.9174,-0.56663c-0.32381,-0.17988 -0.6566,-0.31479 -0.99837,-0.40474c-0.32379,-0.08994 -0.66556,-0.13491 -1.02533,-0.13491c-1.00735,0 -1.89777,0.20686 -2.67126,0.6206c-0.77349,0.41373 -1.3761,1.00735 -1.80782,1.78084c-0.41373,0.75551 -0.6206,1.63693 -0.6206,2.64428c0,1.00735 0.20686,1.88877 0.6206,2.64428c0.43172,0.75551 1.02533,1.34912 1.78084,1.78084c0.77349,0.41373 1.65492,0.6206 2.64428,0.6206c0.4497,0 0.88142,-0.05396 1.29516,-0.16189c0.41375,-0.12591 0.8005,-0.28781 1.16027,-0.48568c0.37775,-0.19787 0.68356,-0.42272 0.9174,-0.67456c0.21586,-0.14391 0.39574,-0.26982 0.53965,-0.37775c0.16189,-0.10793 0.35077,-0.16189 0.56663,-0.16189c0.16189,0 0.34177,0.07195 0.53965,0.21586c0.19787,0.14391 0.40474,0.35077 0.6206,0.6206c0.16189,0.19787 0.26083,0.40474 0.29681,0.6206c0.03598,0.21586 0,0.42272 -0.10793,0.6206c-0.10793,0.17988 -0.27882,0.36876 -0.51267,0.56663c-0.34177,0.34177 -0.80047,0.67456 -1.3761,0.99835c-0.57563,0.3058 -1.19622,0.54865 -1.86179,0.72852c-0.66558,0.19787 -1.32216,0.29681 -1.96974,0.29681zM281.97439,191.26515c-1.00735,0 -1.86179,-0.09893 -2.56333,-0.29681c-0.68356,-0.19787 -1.25019,-0.49468 -1.69989,-0.89042c-0.4497,-0.41373 -0.77349,-0.94438 -0.97137,-1.59196c-0.19787,-0.66556 -0.29681,-1.47503 -0.29681,-2.42842v-14.24671c0,-0.3058 0.02698,-0.56663 0.08095,-0.78249c0.07195,-0.21586 0.20686,-0.37775 0.40474,-0.48568c0.19787,-0.12591 0.49468,-0.18888 0.89042,-0.18888c0.41373,0 0.72852,0.06296 0.94438,0.18888c0.21586,0.10793 0.35077,0.26982 0.40474,0.48568c0.07195,0.19787 0.10793,0.4497 0.10793,0.75551v14.27369c0,0.55763 0.04497,1.00735 0.13491,1.34912c0.10793,0.32379 0.26083,0.57563 0.4587,0.75551c0.21586,0.16189 0.49468,0.26083 0.83645,0.29681c0.34177,0.03598 0.75551,0.05396 1.24119,0.05396c0.34177,0 0.6206,0.03598 0.83645,0.10793c0.21586,0.07195 0.37775,0.20686 0.48568,0.40474c0.10793,0.17988 0.16189,0.4677 0.16189,0.86344c0,0.39574 -0.06296,0.70154 -0.18888,0.9174c-0.10793,0.19787 -0.27882,0.32379 -0.51267,0.37775c-0.21586,0.05396 -0.4677,0.08095 -0.75551,0.08095zM274.77009,176.0201l3.10298,0.02698l4.47908,-0.05396c0.28781,0 0.53965,0.02698 0.75551,0.08095c0.21586,0.05396 0.37775,0.18888 0.48568,0.40474c0.12591,0.19787 0.18888,0.49468 0.18888,0.89042c0,0.41373 -0.05396,0.72852 -0.16189,0.94438c-0.10793,0.19787 -0.26982,0.33279 -0.48568,0.40474c-0.21586,0.05396 -0.4677,0.08095 -0.75551,0.08095l-4.42511,-0.08095l-3.23789,0.05396c-0.4497,0 -0.75551,-0.10793 -0.9174,-0.32379c-0.16189,-0.21586 -0.24284,-0.57563 -0.24284,-1.0793c0,-0.4677 0.08994,-0.80947 0.26982,-1.02533c0.19787,-0.21586 0.51267,-0.32379 0.94438,-0.32379z" fill="#ffffff" fill-rule="nonzero" stroke="#ffffff" stroke-width="0.5"/></g></g></svg>