<svg version="1.1" xmlns="http://www.w3.org/2000/svg" xmlns:xlink="http://www.w3.org/1999/xlink" width="65.36102" height="58.92689" viewBox="0,0,65.36102,58.92689"><g transform="translate(-207.32363,-150.53656)"><g data-paper-data="{&quot;isPaintingLayer&quot;:true}" stroke-linejoin="miter" stroke-miterlimit="10" stroke-dasharray="" stroke-dashoffset="0" style="mix-blend-mode: normal"><path d="M209.32363,168.40187v0c0,-8.76217 7.10314,-15.86531 15.86531,-15.86531l29.63039,0.17548v0c4.20774,0 8.24314,1.67152 11.21847,4.64684c2.97532,2.97532 4.64685,7.01074 4.64685,11.21848v23.02078c0,8.76217 -7.10314,15.86531 -15.86532,15.86531l-29.63039,-0.17548c-8.76217,0 -15.86531,-7.10314 -15.86531,-15.86531z" fill="#ececec" fill-rule="evenodd" stroke="#000000" stroke-width="4" stroke-linecap="square"/><path d="M209.32363,168.40186v0c0,-8.76216 7.10315,-15.86531 15.86532,-15.86531l29.63039,0.17549v0c4.20774,0 8.24314,1.67152 11.21846,4.64684c2.97532,2.97532 4.64685,7.01073 4.64685,11.21847v23.02078c0,8.76217 -7.10314,15.86531 -15.86532,15.86531l-29.63039,-0.17549c-8.76217,0 -15.86532,-7.10314 -15.86532,-15.86531z" fill="#6a90d1" fill-rule="evenodd" stroke="none" stroke-width="1" stroke-linecap="square"/><path d="M209.32363,168.40187v0c0,-8.76217 7.10314,-15.86531 15.86531,-15.86531l29.63039,0.17548v0c4.20774,0 8.24314,1.67152 11.21847,4.64684c2.97532,2.97532 4.64685,7.01073 4.64685,11.21847l-0.00828,19.67943c0,8.76217 -7.10314,15.86531 -15.86531,15.86531l-29.63039,-0.17548c-8.76217,0 -15.86532,-7.10314 -15.86532,-15.86531z" fill="#82b0ff" fill-rule="evenodd" stroke="none" stroke-width="1" stroke-linecap="square"/><g fill-rule="nonzero" stroke-width="5"><g fill="none" stroke="#ececec"><path d="M230.35597,193.69351c0,-4.58914 -0.12731,-14.77469 -0.12731,-17.36016c0,-0.76773 0.46764,-1.4389 1.25409,-1.4389c3.29712,0 13.20438,0 16.77729,0c0.81684,0 1.3026,0.69775 1.3026,1.4896c0,2.22715 0.12731,12.59523 0.12731,17.27324c0,0.89506 -0.58227,1.42168 -1.23514,1.42168c-2.02303,0 -12.63031,0 -16.59865,0c-0.93397,0 -1.5002,-0.51223 -1.5002,-1.38546z" stroke-linecap="butt"/><path d="M235.85419,179.86387c0,0 -0.09393,-9.96439 -0.11159,-11.83743c-0.00549,-0.58291 0.4633,-1.14937 1.17609,-1.1537c1.81415,-0.01102 5.17445,-0.03146 6.19944,-0.03768c0.58297,-0.00354 1.2379,0.64628 1.2443,1.29979c0.01918,1.95901 0.11504,11.74735 0.11504,11.74735" stroke-linecap="round"/></g><g stroke="#ffffff"><path d="M230.43736,191.77949c0,-4.58914 -0.12731,-14.77469 -0.12731,-17.36016c0,-0.76773 0.46764,-1.4389 1.25409,-1.4389c3.29712,0 13.20438,0 16.77729,0c0.81684,0 1.3026,0.69775 1.3026,1.4896c0,2.22715 0.12731,12.59523 0.12731,17.27324c0,0.89506 -0.58227,1.42168 -1.23514,1.42168c-2.02303,0 -12.63031,0 -16.59865,0c-0.93397,0 -1.5002,-0.51223 -1.5002,-1.38546z" fill="#ffffff" stroke-linecap="butt"/><path d="M235.93557,177.94986c0,0 -0.09393,-9.96439 -0.11159,-11.83743c-0.00549,-0.58291 0.4633,-1.14937 1.17609,-1.1537c1.81415,-0.01102 5.17445,-0.03146 6.19944,-0.03768c0.58297,-0.00354 1.2379,0.64628 1.2443,1.29979c0.01918,1.95901 0.11504,11.74735 0.11504,11.74735" fill="none" stroke-linecap="round"/></g></g></g></g></svg>