<svg version="1.1" xmlns="http://www.w3.org/2000/svg" xmlns:xlink="http://www.w3.org/1999/xlink" width="259.91461" height="39.40733" viewBox="0,0,259.91461,39.40733"><g transform="translate(-116.48749,-58.74202)"><g data-paper-data="{&quot;isPaintingLayer&quot;:true}" fill="#000000" fill-rule="nonzero" stroke="none" stroke-width="1" stroke-linecap="square" stroke-linejoin="miter" stroke-miterlimit="10" stroke-dasharray="" stroke-dashoffset="0" style="mix-blend-mode: normal"><path d="M128.99374,70.80452c0.09375,0.17708 0.14063,0.33333 0.14063,0.46875c0.01042,0.13542 -0.02604,0.25521 -0.10937,0.35938c-0.08333,0.10417 -0.21875,0.19792 -0.40625,0.28125c-0.30208,0.13542 -0.53646,0.16667 -0.70312,0.09375c-0.16667,-0.07292 -0.31771,-0.25 -0.45312,-0.53125l-4.67187,-9.9375l-4.625,9.90625c-0.13542,0.29167 -0.28646,0.47396 -0.45312,0.54688c-0.16667,0.07292 -0.40625,0.04167 -0.71875,-0.09375c-0.1875,-0.07292 -0.32292,-0.16667 -0.40625,-0.28125c-0.08333,-0.11458 -0.11458,-0.25 -0.09375,-0.40625c0.02083,-0.16667 0.07813,-0.35417 0.17188,-0.5625l5.35938,-11.17187c0.07292,-0.15625 0.18229,-0.27604 0.32813,-0.35937c0.14583,-0.09375 0.29688,-0.14062 0.45313,-0.14062c0.11458,0 0.21875,0.02083 0.3125,0.0625c0.10417,0.03125 0.19271,0.08333 0.26563,0.15625c0.07292,0.07292 0.13542,0.17188 0.1875,0.29688zM119.29062,68.27327l0.625,-1.4375h5.78125l0.625,1.4375zM132.28708,72.02327c-0.20833,0 -0.38021,-0.03125 -0.51562,-0.09375c-0.125,-0.0625 -0.23437,-0.17187 -0.32812,-0.32812l-3.45312,-7.51562c-0.13542,-0.30208 -0.16667,-0.53125 -0.09375,-0.6875c0.08333,-0.15625 0.26042,-0.30208 0.53125,-0.4375c0.25,-0.125 0.45833,-0.16667 0.625,-0.125c0.17708,0.04167 0.32813,0.20833 0.45313,0.5l2.78125,6.625l2.71875,-6.4375c0.13542,-0.29167 0.28125,-0.49479 0.4375,-0.60937c0.16667,-0.125 0.42708,-0.10417 0.78125,0.0625c0.33333,0.16667 0.5,0.35417 0.5,0.5625c0,0.19792 -0.05729,0.41667 -0.17187,0.65625l-3.42187,7.39063c-0.0625,0.14583 -0.16667,0.25521 -0.3125,0.32813c-0.13542,0.07292 -0.3125,0.10938 -0.53125,0.10938zM141.88046,72.1014c-0.61458,0 -1.19792,-0.11458 -1.75,-0.34375c-0.55208,-0.23958 -1.04687,-0.56771 -1.48437,-0.98437c-0.4375,-0.41667 -0.78125,-0.90625 -1.03125,-1.46875c-0.23958,-0.5625 -0.35937,-1.17187 -0.35937,-1.82812c0,-0.64583 0.11458,-1.24479 0.34375,-1.79687c0.23958,-0.55208 0.56771,-1.04167 0.98438,-1.46875c0.42708,-0.42708 0.91667,-0.76042 1.46875,-1c0.55208,-0.23958 1.14583,-0.35937 1.78125,-0.35937c0.86458,0 1.64063,0.20313 2.32813,0.60938c0.6875,0.39583 1.23438,0.94271 1.64063,1.64063c0.41667,0.69792 0.625,1.48438 0.625,2.35938c0,0.67708 -0.125,1.30208 -0.375,1.875c-0.25,0.5625 -0.58854,1.05208 -1.01562,1.46875c-0.41667,0.40625 -0.90104,0.72396 -1.45312,0.95313c-0.54167,0.22917 -1.10937,0.34375 -1.70312,0.34375zM141.83358,70.4764c0.52083,0 1.00521,-0.13021 1.45313,-0.39062c0.44792,-0.26042 0.80729,-0.61979 1.07813,-1.07812c0.28125,-0.45833 0.42188,-0.97917 0.42188,-1.5625c0,-0.59375 -0.13021,-1.10937 -0.39062,-1.54687c-0.25,-0.44792 -0.59896,-0.79687 -1.04687,-1.04687c-0.44792,-0.25 -0.95833,-0.375 -1.53125,-0.375c-0.54167,0 -1.03646,0.13021 -1.48437,0.39063c-0.4375,0.26042 -0.79167,0.61458 -1.0625,1.0625c-0.27083,0.44792 -0.40625,0.95833 -0.40625,1.53125c0,0.59375 0.13542,1.11979 0.40625,1.57813c0.28125,0.44792 0.64583,0.80208 1.09375,1.0625c0.45833,0.25 0.94792,0.375 1.46875,0.375zM149.15609,71.99202c-0.23958,0 -0.42187,-0.03646 -0.54687,-0.10937c-0.11458,-0.0625 -0.19271,-0.15625 -0.23437,-0.28125c-0.03125,-0.125 -0.04687,-0.27604 -0.04687,-0.45312v-7.35937c0,-0.17708 0.01563,-0.32812 0.04688,-0.45312c0.04167,-0.125 0.11979,-0.21875 0.23438,-0.28125c0.125,-0.0625 0.3125,-0.09375 0.5625,-0.09375c0.23958,0 0.41146,0.03646 0.51563,0.10938c0.11458,0.0625 0.1875,0.15625 0.21875,0.28125c0.04167,0.125 0.0625,0.28125 0.0625,0.46875v7.34375c0,0.17708 -0.02083,0.32813 -0.0625,0.45313c-0.03125,0.125 -0.10937,0.21875 -0.23437,0.28125c-0.11458,0.0625 -0.28646,0.09375 -0.51562,0.09375zM149.15609,60.7264c-0.28125,0 -0.48958,-0.04167 -0.625,-0.125c-0.13542,-0.08333 -0.22396,-0.19792 -0.26562,-0.34375c-0.04167,-0.14583 -0.0625,-0.32292 -0.0625,-0.53125c0,-0.19792 0.02083,-0.36458 0.0625,-0.5c0.05208,-0.14583 0.14583,-0.25 0.28125,-0.3125c0.14583,-0.07292 0.35417,-0.10937 0.625,-0.10937c0.26042,0 0.45833,0.03646 0.59375,0.10938c0.13542,0.07292 0.22396,0.1875 0.26563,0.34375c0.05208,0.14583 0.07813,0.31771 0.07813,0.51563c0,0.19792 -0.02604,0.36979 -0.07812,0.51563c-0.04167,0.13542 -0.13021,0.24479 -0.26562,0.32813c-0.13542,0.07292 -0.33854,0.10938 -0.60937,0.10938zM156.31945,71.99202c-0.5625,0 -1.09896,-0.10937 -1.60937,-0.32812c-0.51042,-0.22917 -0.95833,-0.54687 -1.34375,-0.95312c-0.375,-0.41667 -0.67187,-0.90104 -0.89062,-1.45312c-0.20833,-0.55208 -0.3125,-1.15625 -0.3125,-1.8125c0,-0.64583 0.10417,-1.24479 0.3125,-1.79687c0.21875,-0.55208 0.51563,-1.02604 0.89063,-1.42187c0.38542,-0.40625 0.83333,-0.71875 1.34375,-0.9375c0.51042,-0.22917 1.04688,-0.34375 1.60938,-0.34375c0.60417,0 1.15104,0.11458 1.64063,0.34375c0.5,0.21875 0.92708,0.53125 1.28125,0.9375c0.35417,0.39583 0.61979,0.875 0.79688,1.4375c0.1875,0.55208 0.28125,1.15104 0.28125,1.79688c0.02083,0.65625 -0.06771,1.26042 -0.26562,1.8125c-0.1875,0.54167 -0.45833,1.02083 -0.8125,1.4375c-0.34375,0.40625 -0.76562,0.72396 -1.26562,0.95313c-0.48958,0.21875 -1.04167,0.32813 -1.65625,0.32813zM156.55383,70.39827c0.52083,0 0.98958,-0.11979 1.40625,-0.35937c0.41667,-0.25 0.74479,-0.59375 0.98438,-1.03125c0.25,-0.44792 0.375,-0.95833 0.375,-1.53125c0,-0.58333 -0.125,-1.09375 -0.375,-1.53125c-0.23958,-0.44792 -0.56771,-0.79687 -0.98437,-1.04687c-0.41667,-0.25 -0.88542,-0.375 -1.40625,-0.375c-0.52083,0 -0.99479,0.125 -1.42187,0.375c-0.41667,0.25 -0.75,0.59896 -1,1.04688c-0.23958,0.4375 -0.35937,0.94792 -0.35937,1.53125c0,0.57292 0.11979,1.08333 0.35938,1.53125c0.25,0.4375 0.58854,0.78125 1.01563,1.03125c0.42708,0.23958 0.89583,0.35938 1.40625,0.35938zM160.21008,71.99202c-0.27083,0 -0.46875,-0.05208 -0.59375,-0.15625c-0.125,-0.09375 -0.19792,-0.26042 -0.21875,-0.5v-11.67187c0,-0.1875 0.01563,-0.34375 0.04688,-0.46875c0.03125,-0.125 0.10417,-0.21875 0.21875,-0.28125c0.11458,-0.07292 0.29167,-0.10937 0.53125,-0.10937c0.23958,0 0.41667,0.03646 0.53125,0.10938c0.11458,0.0625 0.19271,0.15625 0.23438,0.28125c0.04167,0.125 0.0625,0.27604 0.0625,0.45313v11.48438c0,0.17708 -0.02083,0.33333 -0.0625,0.46875c-0.04167,0.125 -0.11979,0.21875 -0.23437,0.28125c-0.10417,0.07292 -0.27604,0.10938 -0.51562,0.10938zM172.66259,71.9139c-0.61458,0 -1.17187,-0.10937 -1.67187,-0.32812c-0.48958,-0.22917 -0.91146,-0.54167 -1.26562,-0.9375c-0.34375,-0.40625 -0.61458,-0.88542 -0.8125,-1.4375c-0.1875,-0.55208 -0.27604,-1.15625 -0.26562,-1.8125c0,-0.64583 0.09375,-1.23958 0.28125,-1.78125c0.1875,-0.55208 0.45833,-1.03125 0.8125,-1.4375c0.35417,-0.40625 0.77604,-0.71354 1.26563,-0.92187c0.48958,-0.21875 1.04167,-0.32812 1.65625,-0.32812c0.57292,0 1.10938,0.11458 1.60938,0.34375c0.5,0.21875 0.9375,0.53125 1.3125,0.9375c0.38542,0.39583 0.6875,0.875 0.90625,1.4375c0.21875,0.5625 0.32813,1.16667 0.32813,1.8125c0,0.64583 -0.10937,1.24479 -0.32812,1.79688c-0.21875,0.54167 -0.52083,1.01042 -0.90625,1.40625c-0.375,0.39583 -0.8125,0.70313 -1.3125,0.92188c-0.5,0.21875 -1.03646,0.32813 -1.60937,0.32813zM168.77197,75.6639c-0.22917,0 -0.40625,-0.03646 -0.53125,-0.10937c-0.11458,-0.0625 -0.19271,-0.15625 -0.23437,-0.28125c-0.04167,-0.125 -0.0625,-0.27604 -0.0625,-0.45312v-11.01562c0,-0.17708 0.01563,-0.32812 0.04688,-0.45312c0.04167,-0.125 0.11979,-0.21875 0.23438,-0.28125c0.125,-0.07292 0.30208,-0.10937 0.53125,-0.10937c0.27083,0 0.47396,0.04688 0.60938,0.14063c0.13542,0.08333 0.21354,0.23438 0.23438,0.45313v11.25c0.01042,0.17708 -0.00521,0.32813 -0.04687,0.45313c-0.03125,0.13542 -0.10937,0.23438 -0.23437,0.29688c-0.11458,0.07292 -0.29687,0.10938 -0.54687,0.10938zM172.41259,70.38265c0.52083,0 0.99479,-0.125 1.42188,-0.375c0.42708,-0.26042 0.76042,-0.61458 1,-1.0625c0.23958,-0.44792 0.35938,-0.95833 0.35938,-1.53125c0,-0.58333 -0.11979,-1.08854 -0.35937,-1.51562c-0.23958,-0.4375 -0.56771,-0.77604 -0.98437,-1.01562c-0.41667,-0.25 -0.89583,-0.375 -1.4375,-0.375c-0.52083,0 -0.98958,0.125 -1.40625,0.375c-0.41667,0.25 -0.74479,0.59375 -0.98437,1.03125c-0.23958,0.42708 -0.35937,0.92708 -0.35937,1.5c0,0.57292 0.11979,1.08333 0.35938,1.53125c0.23958,0.44792 0.56771,0.80208 0.98438,1.0625c0.41667,0.25 0.88542,0.375 1.40625,0.375zM179.71505,71.99202c-0.23958,0 -0.42187,-0.03646 -0.54687,-0.10937c-0.11458,-0.0625 -0.19271,-0.15625 -0.23437,-0.28125c-0.03125,-0.125 -0.04687,-0.27604 -0.04687,-0.45312v-7.35937c0,-0.17708 0.01563,-0.32812 0.04688,-0.45312c0.04167,-0.125 0.11979,-0.21875 0.23438,-0.28125c0.125,-0.0625 0.3125,-0.09375 0.5625,-0.09375c0.23958,0 0.41146,0.03646 0.51563,0.10938c0.11458,0.0625 0.1875,0.15625 0.21875,0.28125c0.04167,0.125 0.0625,0.28125 0.0625,0.46875v7.34375c0,0.17708 -0.02083,0.32813 -0.0625,0.45313c-0.03125,0.125 -0.10937,0.21875 -0.23437,0.28125c-0.11458,0.0625 -0.28646,0.09375 -0.51562,0.09375zM179.71505,60.7264c-0.28125,0 -0.48958,-0.04167 -0.625,-0.125c-0.13542,-0.08333 -0.22396,-0.19792 -0.26562,-0.34375c-0.04167,-0.14583 -0.0625,-0.32292 -0.0625,-0.53125c0,-0.19792 0.02083,-0.36458 0.0625,-0.5c0.05208,-0.14583 0.14583,-0.25 0.28125,-0.3125c0.14583,-0.07292 0.35417,-0.10937 0.625,-0.10937c0.26042,0 0.45833,0.03646 0.59375,0.10938c0.13542,0.07292 0.22396,0.1875 0.26563,0.34375c0.05208,0.14583 0.07813,0.31771 0.07813,0.51563c0,0.19792 -0.02604,0.36979 -0.07812,0.51563c-0.04167,0.13542 -0.13021,0.24479 -0.26562,0.32813c-0.13542,0.07292 -0.33854,0.10938 -0.60937,0.10938zM187.55029,71.9139c-0.61458,0 -1.17187,-0.10937 -1.67187,-0.32812c-0.48958,-0.22917 -0.91146,-0.54167 -1.26562,-0.9375c-0.34375,-0.40625 -0.61458,-0.88542 -0.8125,-1.4375c-0.1875,-0.55208 -0.27604,-1.15625 -0.26562,-1.8125c0,-0.64583 0.09375,-1.23958 0.28125,-1.78125c0.1875,-0.55208 0.45833,-1.03125 0.8125,-1.4375c0.35417,-0.40625 0.77604,-0.71354 1.26563,-0.92187c0.48958,-0.21875 1.04167,-0.32812 1.65625,-0.32812c0.57292,0 1.10938,0.11458 1.60938,0.34375c0.5,0.21875 0.9375,0.53125 1.3125,0.9375c0.38542,0.39583 0.6875,0.875 0.90625,1.4375c0.21875,0.5625 0.32813,1.16667 0.32813,1.8125c0,0.64583 -0.10937,1.24479 -0.32812,1.79688c-0.21875,0.54167 -0.52083,1.01042 -0.90625,1.40625c-0.375,0.39583 -0.8125,0.70313 -1.3125,0.92188c-0.5,0.21875 -1.03646,0.32813 -1.60937,0.32813zM183.65966,75.6639c-0.22917,0 -0.40625,-0.03646 -0.53125,-0.10937c-0.11458,-0.0625 -0.19271,-0.15625 -0.23437,-0.28125c-0.04167,-0.125 -0.0625,-0.27604 -0.0625,-0.45312v-11.01562c0,-0.17708 0.01563,-0.32812 0.04688,-0.45312c0.04167,-0.125 0.11979,-0.21875 0.23438,-0.28125c0.125,-0.07292 0.30208,-0.10937 0.53125,-0.10937c0.27083,0 0.47396,0.04688 0.60938,0.14063c0.13542,0.08333 0.21354,0.23438 0.23438,0.45313v11.25c0.01042,0.17708 -0.00521,0.32813 -0.04687,0.45313c-0.03125,0.13542 -0.10937,0.23438 -0.23437,0.29688c-0.11458,0.07292 -0.29687,0.10938 -0.54687,0.10938zM187.30029,70.38265c0.52083,0 0.99479,-0.125 1.42188,-0.375c0.42708,-0.26042 0.76042,-0.61458 1,-1.0625c0.23958,-0.44792 0.35938,-0.95833 0.35938,-1.53125c0,-0.58333 -0.11979,-1.08854 -0.35937,-1.51562c-0.23958,-0.4375 -0.56771,-0.77604 -0.98437,-1.01562c-0.41667,-0.25 -0.89583,-0.375 -1.4375,-0.375c-0.52083,0 -0.98958,0.125 -1.40625,0.375c-0.41667,0.25 -0.74479,0.59375 -0.98437,1.03125c-0.23958,0.42708 -0.35937,0.92708 -0.35937,1.5c0,0.57292 0.11979,1.08333 0.35938,1.53125c0.23958,0.44792 0.56771,0.80208 0.98438,1.0625c0.41667,0.25 0.88542,0.375 1.40625,0.375zM197.93087,72.08577c-0.73958,0 -1.40104,-0.125 -1.98437,-0.375c-0.58333,-0.25 -1.07812,-0.58854 -1.48437,-1.01562c-0.40625,-0.42708 -0.71875,-0.92187 -0.9375,-1.48437c-0.20833,-0.5625 -0.3125,-1.16667 -0.3125,-1.8125c0,-0.85417 0.19792,-1.61458 0.59375,-2.28125c0.40625,-0.67708 0.95833,-1.20833 1.65625,-1.59375c0.70833,-0.39583 1.51563,-0.59375 2.42188,-0.59375c0.625,0 1.18229,0.09896 1.67188,0.29688c0.48958,0.1875 0.90625,0.44271 1.25,0.76563c0.35417,0.32292 0.625,0.68229 0.8125,1.07813c0.1875,0.39583 0.28125,0.79167 0.28125,1.1875c0,0.63542 -0.15104,1.08333 -0.45312,1.34375c-0.30208,0.25 -0.67187,0.375 -1.10937,0.375h-5.39062c-0.01042,0.55208 0.13542,1.02604 0.4375,1.42188c0.3125,0.38542 0.69792,0.6875 1.15625,0.90625c0.46875,0.20833 0.94271,0.3125 1.42188,0.3125c0.34375,0 0.64063,-0.02083 0.89063,-0.0625c0.25,-0.04167 0.46875,-0.09375 0.65625,-0.15625c0.1875,-0.0625 0.34896,-0.11979 0.48438,-0.17187c0.13542,-0.0625 0.25521,-0.125 0.35938,-0.1875c0.10417,-0.0625 0.20833,-0.10937 0.3125,-0.14062c0.11458,-0.02083 0.22396,-0.01042 0.32813,0.03125c0.10417,0.04167 0.1875,0.125 0.25,0.25c0.07292,0.10417 0.11979,0.19792 0.14063,0.28125c0.03125,0.08333 0.04688,0.17708 0.04688,0.28125c0,0.17708 -0.15104,0.36979 -0.45312,0.57813c-0.30208,0.20833 -0.71875,0.38542 -1.25,0.53125c-0.52083,0.15625 -1.11979,0.23438 -1.79687,0.23438zM194.9465,66.88265h4.6875c0.23958,0 0.41667,-0.03125 0.53125,-0.09375c0.11458,-0.0625 0.17188,-0.22917 0.17188,-0.5c0,-0.35417 -0.10417,-0.67187 -0.3125,-0.95312c-0.20833,-0.28125 -0.5,-0.50521 -0.875,-0.67187c-0.36458,-0.17708 -0.78125,-0.26562 -1.25,-0.26562c-0.54167,0 -1.04167,0.10938 -1.5,0.32813c-0.45833,0.21875 -0.81771,0.51563 -1.07812,0.89063c-0.26042,0.36458 -0.38542,0.78646 -0.375,1.26563zM206.75525,72.08577c-0.29167,0 -0.59896,-0.03125 -0.92187,-0.09375c-0.32292,-0.0625 -0.64062,-0.15104 -0.95312,-0.26562c-0.30208,-0.125 -0.56771,-0.26562 -0.79687,-0.42187c-0.22917,-0.16667 -0.40104,-0.34896 -0.51562,-0.54687c-0.0625,-0.125 -0.09896,-0.23958 -0.10937,-0.34375c-0.01042,-0.10417 0.00521,-0.20312 0.04688,-0.29687c0.05208,-0.10417 0.13021,-0.20833 0.23438,-0.3125c0.125,-0.14583 0.25,-0.21354 0.375,-0.20312c0.125,0 0.28125,0.08333 0.46875,0.25c0.13542,0.08333 0.29688,0.17708 0.48438,0.28125c0.1875,0.10417 0.38021,0.19792 0.57813,0.28125c0.19792,0.08333 0.39583,0.15625 0.59375,0.21875c0.20833,0.05208 0.41146,0.07813 0.60938,0.07813c0.57292,0 1.03125,-0.10937 1.375,-0.32812c0.35417,-0.21875 0.53125,-0.51042 0.53125,-0.875c0,-0.20833 -0.04687,-0.38542 -0.14062,-0.53125c-0.08333,-0.15625 -0.19792,-0.28646 -0.34375,-0.39062c-0.14583,-0.10417 -0.3125,-0.19271 -0.5,-0.26562c-0.1875,-0.07292 -0.39583,-0.14583 -0.625,-0.21875c-0.22917,-0.07292 -0.45833,-0.14062 -0.6875,-0.20312c-0.33333,-0.08333 -0.66146,-0.17708 -0.98437,-0.28125c-0.32292,-0.11458 -0.61458,-0.26042 -0.875,-0.4375c-0.26042,-0.1875 -0.47396,-0.42187 -0.64062,-0.70312c-0.15625,-0.28125 -0.23437,-0.64062 -0.23437,-1.07812c0,-0.5 0.13021,-0.9375 0.39063,-1.3125c0.26042,-0.375 0.625,-0.66667 1.09375,-0.875c0.47917,-0.20833 1.03646,-0.3125 1.67188,-0.3125c0.27083,0 0.52083,0.02083 0.75,0.0625c0.23958,0.04167 0.46875,0.10417 0.6875,0.1875c0.21875,0.07292 0.42708,0.16146 0.625,0.26563c0.19792,0.10417 0.39063,0.23438 0.57813,0.39063c0.22917,0.14583 0.34896,0.30729 0.35938,0.48438c0.01042,0.17708 -0.05729,0.35417 -0.20312,0.53125c-0.11458,0.16667 -0.23958,0.27083 -0.375,0.3125c-0.13542,0.04167 -0.27083,0.01042 -0.40625,-0.09375c-0.20833,-0.15625 -0.42708,-0.28646 -0.65625,-0.39062c-0.21875,-0.11458 -0.44792,-0.20833 -0.6875,-0.28125c-0.22917,-0.08333 -0.46875,-0.125 -0.71875,-0.125c-0.3125,0 -0.58854,0.04688 -0.82812,0.14063c-0.23958,0.09375 -0.42708,0.23438 -0.5625,0.42188c-0.125,0.17708 -0.1875,0.375 -0.1875,0.59375c0,0.20833 0.05208,0.375 0.15625,0.5c0.10417,0.11458 0.23958,0.21875 0.40625,0.3125c0.16667,0.08333 0.36458,0.16146 0.59375,0.23438c0.22917,0.0625 0.46875,0.125 0.71875,0.1875c0.36458,0.09375 0.73438,0.19792 1.10938,0.3125c0.38542,0.11458 0.72917,0.27083 1.03125,0.46875c0.30208,0.1875 0.54688,0.44271 0.73438,0.76563c0.19792,0.3125 0.29688,0.72917 0.29688,1.25c0,0.82292 -0.32292,1.47396 -0.96875,1.95313c-0.64583,0.46875 -1.50521,0.70313 -2.57812,0.70313zM224.46466,71.9764c-0.27083,0 -0.46875,-0.05729 -0.59375,-0.17187c-0.11458,-0.11458 -0.18229,-0.28646 -0.20312,-0.51562l0.07813,-0.9375c-0.125,0.19792 -0.32292,0.42708 -0.59375,0.6875c-0.26042,0.25 -0.60417,0.47396 -1.03125,0.67188c-0.41667,0.1875 -0.92708,0.28125 -1.53125,0.28125c-0.60417,0 -1.16667,-0.11458 -1.6875,-0.34375c-0.51042,-0.23958 -0.96354,-0.57292 -1.35937,-1c-0.38542,-0.42708 -0.6875,-0.91146 -0.90625,-1.45312c-0.21875,-0.55208 -0.32812,-1.13542 -0.32812,-1.75c0,-0.61458 0.10938,-1.19271 0.32813,-1.73437c0.21875,-0.54167 0.52604,-1.01562 0.92188,-1.42187c0.40625,-0.41667 0.86458,-0.73958 1.375,-0.96875c0.52083,-0.23958 1.07292,-0.35937 1.65625,-0.35937c0.54167,0 1.00521,0.07292 1.39063,0.21875c0.38542,0.14583 0.71875,0.33333 1,0.5625c0.28125,0.22917 0.52604,0.48438 0.73438,0.76563l-0.03125,-0.78125c-0.01042,-0.27083 0.04688,-0.46354 0.17188,-0.57812c0.13542,-0.125 0.34375,-0.1875 0.625,-0.1875c0.23958,0 0.41146,0.03646 0.51563,0.10938c0.10417,0.07292 0.17188,0.18229 0.20313,0.32813c0.04167,0.13542 0.0625,0.30208 0.0625,0.5v7.20313c0,0.16667 -0.02083,0.32292 -0.0625,0.46875c-0.03125,0.13542 -0.10417,0.23438 -0.21875,0.29688c-0.10417,0.07292 -0.27604,0.10938 -0.51562,0.10938zM220.87091,70.42952c0.48958,0 0.94271,-0.13021 1.35938,-0.39062c0.41667,-0.27083 0.74479,-0.625 0.98438,-1.0625c0.25,-0.4375 0.375,-0.94271 0.375,-1.51562c0,-0.58333 -0.13021,-1.09375 -0.39062,-1.53125c-0.25,-0.44792 -0.58333,-0.79687 -1,-1.04687c-0.41667,-0.26042 -0.875,-0.39062 -1.375,-0.39062c-0.58333,0 -1.08854,0.13542 -1.51562,0.40625c-0.42708,0.26042 -0.76562,0.61458 -1.01562,1.0625c-0.25,0.44792 -0.375,0.95833 -0.375,1.53125c0,0.5625 0.125,1.06771 0.375,1.51563c0.25,0.4375 0.59375,0.78646 1.03125,1.04688c0.44792,0.25 0.96354,0.375 1.54688,0.375zM228.31396,71.9764c-0.23958,0 -0.42187,-0.03646 -0.54687,-0.10937c-0.11458,-0.0625 -0.1875,-0.15625 -0.21875,-0.28125c-0.03125,-0.125 -0.04687,-0.27604 -0.04687,-0.45312v-7.40625c0,-0.16667 0.02083,-0.30208 0.0625,-0.40625c0.04167,-0.11458 0.11979,-0.20312 0.23438,-0.26562c0.11458,-0.0625 0.29167,-0.09375 0.53125,-0.09375c0.1875,0 0.33333,0.02083 0.4375,0.0625c0.10417,0.04167 0.17708,0.10417 0.21875,0.1875c0.05208,0.07292 0.08333,0.15104 0.09375,0.23438c0.01042,0.08333 0.01563,0.16667 0.01563,0.25l-0.03125,0.85938c0.11458,-0.21875 0.26563,-0.42187 0.45313,-0.60937c0.1875,-0.19792 0.40625,-0.375 0.65625,-0.53125c0.25,-0.15625 0.52083,-0.27604 0.8125,-0.35937c0.29167,-0.08333 0.60417,-0.125 0.9375,-0.125c0.55208,0 1.05729,0.09896 1.51563,0.29688c0.45833,0.1875 0.85417,0.46354 1.1875,0.82813c0.33333,0.36458 0.58854,0.80208 0.76563,1.3125c0.17708,0.51042 0.26563,1.08854 0.26563,1.73438v4.04688c0,0.17708 -0.01562,0.32813 -0.04687,0.45313c-0.03125,0.125 -0.10417,0.21875 -0.21875,0.28125c-0.11458,0.0625 -0.29167,0.09375 -0.53125,0.09375c-0.25,0 -0.4375,-0.03646 -0.5625,-0.10937c-0.11458,-0.0625 -0.19271,-0.15625 -0.23437,-0.28125c-0.03125,-0.125 -0.04687,-0.27604 -0.04687,-0.45312v-4.04687c0,-0.52083 -0.08854,-0.97396 -0.26562,-1.35937c-0.16667,-0.38542 -0.42708,-0.6875 -0.78125,-0.90625c-0.34375,-0.21875 -0.78646,-0.32812 -1.32812,-0.32812c-0.5,0 -0.94271,0.10938 -1.32812,0.32813c-0.375,0.21875 -0.66667,0.52083 -0.875,0.90625c-0.20833,0.38542 -0.3125,0.83854 -0.3125,1.35938v4.0625c0,0.17708 -0.02083,0.32813 -0.0625,0.45313c-0.03125,0.125 -0.10937,0.21875 -0.23437,0.28125c-0.11458,0.0625 -0.28646,0.09375 -0.51562,0.09375zM241.78363,71.99202c-0.5625,0 -1.09896,-0.10937 -1.60937,-0.32812c-0.51042,-0.22917 -0.95833,-0.54687 -1.34375,-0.95312c-0.375,-0.41667 -0.67187,-0.90104 -0.89062,-1.45312c-0.20833,-0.55208 -0.3125,-1.15625 -0.3125,-1.8125c0,-0.64583 0.10417,-1.24479 0.3125,-1.79687c0.21875,-0.55208 0.51563,-1.02604 0.89063,-1.42187c0.38542,-0.40625 0.83333,-0.71875 1.34375,-0.9375c0.51042,-0.22917 1.04688,-0.34375 1.60938,-0.34375c0.60417,0 1.15104,0.11458 1.64063,0.34375c0.5,0.21875 0.92708,0.53125 1.28125,0.9375c0.35417,0.39583 0.61979,0.875 0.79688,1.4375c0.1875,0.55208 0.28125,1.15104 0.28125,1.79688c0.02083,0.65625 -0.06771,1.26042 -0.26562,1.8125c-0.1875,0.54167 -0.45833,1.02083 -0.8125,1.4375c-0.34375,0.40625 -0.76562,0.72396 -1.26562,0.95313c-0.48958,0.21875 -1.04167,0.32813 -1.65625,0.32813zM242.018,70.39827c0.52083,0 0.98958,-0.11979 1.40625,-0.35937c0.41667,-0.25 0.74479,-0.59375 0.98438,-1.03125c0.25,-0.44792 0.375,-0.95833 0.375,-1.53125c0,-0.58333 -0.125,-1.09375 -0.375,-1.53125c-0.23958,-0.44792 -0.56771,-0.79687 -0.98437,-1.04687c-0.41667,-0.25 -0.88542,-0.375 -1.40625,-0.375c-0.52083,0 -0.99479,0.125 -1.42187,0.375c-0.41667,0.25 -0.75,0.59896 -1,1.04688c-0.23958,0.4375 -0.35937,0.94792 -0.35937,1.53125c0,0.57292 0.11979,1.08333 0.35938,1.53125c0.25,0.4375 0.58854,0.78125 1.01563,1.03125c0.42708,0.23958 0.89583,0.35938 1.40625,0.35938zM245.67425,71.99202c-0.27083,0 -0.46875,-0.05208 -0.59375,-0.15625c-0.125,-0.09375 -0.19792,-0.26042 -0.21875,-0.5v-11.67187c0,-0.1875 0.01563,-0.34375 0.04688,-0.46875c0.03125,-0.125 0.10417,-0.21875 0.21875,-0.28125c0.11458,-0.07292 0.29167,-0.10937 0.53125,-0.10937c0.23958,0 0.41667,0.03646 0.53125,0.10938c0.11458,0.0625 0.19271,0.15625 0.23438,0.28125c0.04167,0.125 0.0625,0.27604 0.0625,0.45313v11.48438c0,0.17708 -0.02083,0.33333 -0.0625,0.46875c-0.04167,0.125 -0.11979,0.21875 -0.23437,0.28125c-0.10417,0.07292 -0.27604,0.10938 -0.51562,0.10938zM257.332,72.02327c-0.64583,0 -1.25,-0.10417 -1.8125,-0.3125c-0.5625,-0.20833 -1.0625,-0.51042 -1.5,-0.90625c-0.42708,-0.40625 -0.76042,-0.88542 -1,-1.4375c-0.23958,-0.55208 -0.35937,-1.18229 -0.35937,-1.89062c0,-0.70833 0.11979,-1.33854 0.35938,-1.89062c0.23958,-0.55208 0.57292,-1.02604 1,-1.42187c0.42708,-0.40625 0.92188,-0.71354 1.48438,-0.92187c0.5625,-0.20833 1.16146,-0.3125 1.79688,-0.3125c0.42708,0 0.84375,0.06771 1.25,0.20313c0.40625,0.125 0.76563,0.29167 1.07813,0.5c0.32292,0.19792 0.55208,0.41146 0.6875,0.64063c0.125,0.15625 0.21354,0.28646 0.26563,0.39063c0.0625,0.10417 0.06771,0.22917 0.01563,0.375c-0.04167,0.09375 -0.10937,0.18229 -0.20312,0.26563c-0.08333,0.08333 -0.16667,0.14583 -0.25,0.1875c-0.22917,0.17708 -0.45312,0.20313 -0.67187,0.07813c-0.14583,-0.13542 -0.30208,-0.26042 -0.46875,-0.375c-0.16667,-0.125 -0.34375,-0.23437 -0.53125,-0.32812c-0.1875,-0.10417 -0.38021,-0.18229 -0.57812,-0.23437c-0.1875,-0.05208 -0.38542,-0.07812 -0.59375,-0.07812c-0.58333,0 -1.09896,0.11979 -1.54687,0.35938c-0.44792,0.23958 -0.79687,0.58333 -1.04687,1.03125c-0.23958,0.4375 -0.35937,0.94792 -0.35937,1.53125c0,0.58333 0.11979,1.09375 0.35938,1.53125c0.25,0.4375 0.59375,0.78125 1.03125,1.03125c0.44792,0.23958 0.95833,0.35938 1.53125,0.35938c0.26042,0 0.51042,-0.03125 0.75,-0.09375c0.23958,-0.07292 0.46354,-0.16667 0.67188,-0.28125c0.21875,-0.11458 0.39583,-0.24479 0.53125,-0.39062c0.125,-0.08333 0.22917,-0.15625 0.3125,-0.21875c0.09375,-0.0625 0.20313,-0.09375 0.32813,-0.09375c0.09375,0 0.19792,0.04167 0.3125,0.125c0.11458,0.08333 0.23438,0.20313 0.35938,0.35938c0.09375,0.11458 0.15104,0.23438 0.17188,0.35938c0.02083,0.125 0,0.24479 -0.0625,0.35938c-0.0625,0.10417 -0.16146,0.21354 -0.29687,0.32813c-0.19792,0.19792 -0.46354,0.39063 -0.79687,0.57813c-0.33333,0.17708 -0.69271,0.31771 -1.07812,0.42188c-0.38542,0.11458 -0.76562,0.17188 -1.14062,0.17188zM266.6531,72.1014c-0.61458,0 -1.19792,-0.11458 -1.75,-0.34375c-0.55208,-0.23958 -1.04687,-0.56771 -1.48437,-0.98437c-0.4375,-0.41667 -0.78125,-0.90625 -1.03125,-1.46875c-0.23958,-0.5625 -0.35937,-1.17187 -0.35937,-1.82812c0,-0.64583 0.11458,-1.24479 0.34375,-1.79687c0.23958,-0.55208 0.56771,-1.04167 0.98438,-1.46875c0.42708,-0.42708 0.91667,-0.76042 1.46875,-1c0.55208,-0.23958 1.14583,-0.35937 1.78125,-0.35937c0.86458,0 1.64063,0.20313 2.32813,0.60938c0.6875,0.39583 1.23438,0.94271 1.64063,1.64063c0.41667,0.69792 0.625,1.48438 0.625,2.35938c0,0.67708 -0.125,1.30208 -0.375,1.875c-0.25,0.5625 -0.58854,1.05208 -1.01562,1.46875c-0.41667,0.40625 -0.90104,0.72396 -1.45312,0.95313c-0.54167,0.22917 -1.10937,0.34375 -1.70312,0.34375zM266.60623,70.4764c0.52083,0 1.00521,-0.13021 1.45313,-0.39062c0.44792,-0.26042 0.80729,-0.61979 1.07813,-1.07812c0.28125,-0.45833 0.42188,-0.97917 0.42188,-1.5625c0,-0.59375 -0.13021,-1.10937 -0.39062,-1.54687c-0.25,-0.44792 -0.59896,-0.79687 -1.04687,-1.04687c-0.44792,-0.25 -0.95833,-0.375 -1.53125,-0.375c-0.54167,0 -1.03646,0.13021 -1.48437,0.39063c-0.4375,0.26042 -0.79167,0.61458 -1.0625,1.0625c-0.27083,0.44792 -0.40625,0.95833 -0.40625,1.53125c0,0.59375 0.13542,1.11979 0.40625,1.57813c0.28125,0.44792 0.64583,0.80208 1.09375,1.0625c0.45833,0.25 0.94792,0.375 1.46875,0.375zM280.08502,71.99202c-0.38542,0 -0.73958,-0.04167 -1.0625,-0.125c-0.3125,-0.08333 -0.58333,-0.20312 -0.8125,-0.35937c-0.22917,-0.16667 -0.42708,-0.36979 -0.59375,-0.60937c-0.15625,-0.25 -0.27604,-0.53646 -0.35937,-0.85937c-0.07292,-0.32292 -0.10937,-0.6875 -0.10937,-1.09375l-0.01562,-9.34375c0,-0.17708 0.01563,-0.32292 0.04688,-0.4375c0.04167,-0.125 0.11979,-0.22396 0.23438,-0.29687c0.125,-0.08333 0.30729,-0.125 0.54688,-0.125c0.25,0 0.43229,0.03646 0.54688,0.10938c0.11458,0.0625 0.1875,0.15625 0.21875,0.28125c0.04167,0.11458 0.0625,0.26042 0.0625,0.4375v9.4375c0,0.21875 0.02604,0.41146 0.07813,0.57813c0.05208,0.15625 0.13021,0.29688 0.23438,0.42188c0.10417,0.11458 0.23438,0.19792 0.39063,0.25c0.16667,0.05208 0.36458,0.07813 0.59375,0.07813c0.20833,0 0.375,0.02604 0.5,0.07813c0.125,0.04167 0.21354,0.125 0.26563,0.25c0.0625,0.125 0.09375,0.29167 0.09375,0.5c0,0.20833 -0.03125,0.36979 -0.09375,0.48438c-0.0625,0.11458 -0.15625,0.19792 -0.28125,0.25c-0.125,0.0625 -0.28646,0.09375 -0.48437,0.09375zM275.67877,71.99202c-0.375,0 -0.71354,-0.04167 -1.01562,-0.125c-0.30208,-0.08333 -0.56771,-0.19792 -0.79687,-0.34375c-0.21875,-0.15625 -0.40625,-0.35417 -0.5625,-0.59375c-0.14583,-0.25 -0.25521,-0.53646 -0.32812,-0.85937c-0.0625,-0.33333 -0.09375,-0.70833 -0.09375,-1.125v-9.34375c0,-0.17708 0.01563,-0.32292 0.04688,-0.4375c0.04167,-0.125 0.11979,-0.22396 0.23438,-0.29687c0.125,-0.08333 0.30208,-0.125 0.53125,-0.125c0.23958,0 0.41667,0.03646 0.53125,0.10938c0.125,0.0625 0.20833,0.15625 0.25,0.28125c0.04167,0.11458 0.0625,0.26042 0.0625,0.4375v9.4375c0,0.28125 0.04167,0.52604 0.125,0.73438c0.09375,0.19792 0.22396,0.34896 0.39063,0.45313c0.17708,0.09375 0.38542,0.14063 0.625,0.14063c0.1875,0 0.33333,0.02604 0.4375,0.07813c0.11458,0.04167 0.19792,0.125 0.25,0.25c0.05208,0.125 0.07813,0.29167 0.07813,0.5c0,0.20833 -0.03125,0.36979 -0.09375,0.48438c-0.05208,0.11458 -0.13021,0.19792 -0.23437,0.25c-0.10417,0.0625 -0.25,0.09375 -0.4375,0.09375zM286.90216,72.08577c-0.73958,0 -1.40104,-0.125 -1.98437,-0.375c-0.58333,-0.25 -1.07812,-0.58854 -1.48437,-1.01562c-0.40625,-0.42708 -0.71875,-0.92187 -0.9375,-1.48437c-0.20833,-0.5625 -0.3125,-1.16667 -0.3125,-1.8125c0,-0.85417 0.19792,-1.61458 0.59375,-2.28125c0.40625,-0.67708 0.95833,-1.20833 1.65625,-1.59375c0.70833,-0.39583 1.51563,-0.59375 2.42188,-0.59375c0.625,0 1.18229,0.09896 1.67188,0.29688c0.48958,0.1875 0.90625,0.44271 1.25,0.76563c0.35417,0.32292 0.625,0.68229 0.8125,1.07813c0.1875,0.39583 0.28125,0.79167 0.28125,1.1875c0,0.63542 -0.15104,1.08333 -0.45312,1.34375c-0.30208,0.25 -0.67187,0.375 -1.10937,0.375h-5.39062c-0.01042,0.55208 0.13542,1.02604 0.4375,1.42188c0.3125,0.38542 0.69792,0.6875 1.15625,0.90625c0.46875,0.20833 0.94271,0.3125 1.42188,0.3125c0.34375,0 0.64063,-0.02083 0.89063,-0.0625c0.25,-0.04167 0.46875,-0.09375 0.65625,-0.15625c0.1875,-0.0625 0.34896,-0.11979 0.48438,-0.17187c0.13542,-0.0625 0.25521,-0.125 0.35938,-0.1875c0.10417,-0.0625 0.20833,-0.10937 0.3125,-0.14062c0.11458,-0.02083 0.22396,-0.01042 0.32813,0.03125c0.10417,0.04167 0.1875,0.125 0.25,0.25c0.07292,0.10417 0.11979,0.19792 0.14063,0.28125c0.03125,0.08333 0.04688,0.17708 0.04688,0.28125c0,0.17708 -0.15104,0.36979 -0.45312,0.57813c-0.30208,0.20833 -0.71875,0.38542 -1.25,0.53125c-0.52083,0.15625 -1.11979,0.23438 -1.79687,0.23438zM283.91778,66.88265h4.6875c0.23958,0 0.41667,-0.03125 0.53125,-0.09375c0.11458,-0.0625 0.17188,-0.22917 0.17188,-0.5c0,-0.35417 -0.10417,-0.67187 -0.3125,-0.95312c-0.20833,-0.28125 -0.5,-0.50521 -0.875,-0.67187c-0.36458,-0.17708 -0.78125,-0.26562 -1.25,-0.26562c-0.54167,0 -1.04167,0.10938 -1.5,0.32813c-0.45833,0.21875 -0.81771,0.51563 -1.07812,0.89063c-0.26042,0.36458 -0.38542,0.78646 -0.375,1.26563zM296.9765,72.02327c-0.64583,0 -1.25,-0.10417 -1.8125,-0.3125c-0.5625,-0.20833 -1.0625,-0.51042 -1.5,-0.90625c-0.42708,-0.40625 -0.76042,-0.88542 -1,-1.4375c-0.23958,-0.55208 -0.35937,-1.18229 -0.35937,-1.89062c0,-0.70833 0.11979,-1.33854 0.35938,-1.89062c0.23958,-0.55208 0.57292,-1.02604 1,-1.42187c0.42708,-0.40625 0.92188,-0.71354 1.48438,-0.92187c0.5625,-0.20833 1.16146,-0.3125 1.79688,-0.3125c0.42708,0 0.84375,0.06771 1.25,0.20313c0.40625,0.125 0.76563,0.29167 1.07813,0.5c0.32292,0.19792 0.55208,0.41146 0.6875,0.64063c0.125,0.15625 0.21354,0.28646 0.26563,0.39063c0.0625,0.10417 0.06771,0.22917 0.01563,0.375c-0.04167,0.09375 -0.10937,0.18229 -0.20312,0.26563c-0.08333,0.08333 -0.16667,0.14583 -0.25,0.1875c-0.22917,0.17708 -0.45312,0.20313 -0.67187,0.07813c-0.14583,-0.13542 -0.30208,-0.26042 -0.46875,-0.375c-0.16667,-0.125 -0.34375,-0.23437 -0.53125,-0.32812c-0.1875,-0.10417 -0.38021,-0.18229 -0.57812,-0.23437c-0.1875,-0.05208 -0.38542,-0.07812 -0.59375,-0.07812c-0.58333,0 -1.09896,0.11979 -1.54687,0.35938c-0.44792,0.23958 -0.79687,0.58333 -1.04687,1.03125c-0.23958,0.4375 -0.35937,0.94792 -0.35937,1.53125c0,0.58333 0.11979,1.09375 0.35938,1.53125c0.25,0.4375 0.59375,0.78125 1.03125,1.03125c0.44792,0.23958 0.95833,0.35938 1.53125,0.35938c0.26042,0 0.51042,-0.03125 0.75,-0.09375c0.23958,-0.07292 0.46354,-0.16667 0.67188,-0.28125c0.21875,-0.11458 0.39583,-0.24479 0.53125,-0.39062c0.125,-0.08333 0.22917,-0.15625 0.3125,-0.21875c0.09375,-0.0625 0.20313,-0.09375 0.32813,-0.09375c0.09375,0 0.19792,0.04167 0.3125,0.125c0.11458,0.08333 0.23438,0.20313 0.35938,0.35938c0.09375,0.11458 0.15104,0.23438 0.17188,0.35938c0.02083,0.125 0,0.24479 -0.0625,0.35938c-0.0625,0.10417 -0.16146,0.21354 -0.29687,0.32813c-0.19792,0.19792 -0.46354,0.39063 -0.79687,0.57813c-0.33333,0.17708 -0.69271,0.31771 -1.07812,0.42188c-0.38542,0.11458 -0.76562,0.17188 -1.14062,0.17188zM306.26721,71.99202c-0.58333,0 -1.07812,-0.05729 -1.48437,-0.17187c-0.39583,-0.11458 -0.72396,-0.28646 -0.98437,-0.51562c-0.26042,-0.23958 -0.44792,-0.54687 -0.5625,-0.92187c-0.11458,-0.38542 -0.17187,-0.85417 -0.17187,-1.40625v-8.25c0,-0.17708 0.01563,-0.32812 0.04688,-0.45312c0.04167,-0.125 0.11979,-0.21875 0.23438,-0.28125c0.11458,-0.07292 0.28646,-0.10937 0.51563,-0.10937c0.23958,0 0.42188,0.03646 0.54688,0.10938c0.125,0.0625 0.20313,0.15625 0.23438,0.28125c0.04167,0.11458 0.0625,0.26042 0.0625,0.4375v8.26563c0,0.32292 0.02604,0.58333 0.07813,0.78125c0.0625,0.1875 0.15104,0.33333 0.26563,0.4375c0.125,0.09375 0.28646,0.15104 0.48438,0.17188c0.19792,0.02083 0.4375,0.03125 0.71875,0.03125c0.19792,0 0.35938,0.02083 0.48438,0.0625c0.125,0.04167 0.21875,0.11979 0.28125,0.23438c0.0625,0.10417 0.09375,0.27083 0.09375,0.5c0,0.22917 -0.03646,0.40625 -0.10937,0.53125c-0.0625,0.11458 -0.16146,0.1875 -0.29687,0.21875c-0.125,0.03125 -0.27083,0.04688 -0.4375,0.04688zM302.09533,63.1639l1.79688,0.01563l2.59375,-0.03125c0.16667,0 0.3125,0.01563 0.4375,0.04688c0.125,0.03125 0.21875,0.10938 0.28125,0.23438c0.07292,0.11458 0.10938,0.28646 0.10938,0.51563c0,0.23958 -0.03125,0.42188 -0.09375,0.54688c-0.0625,0.11458 -0.15625,0.19271 -0.28125,0.23438c-0.125,0.03125 -0.27083,0.04688 -0.4375,0.04688l-2.5625,-0.04687l-1.875,0.03125c-0.26042,0 -0.4375,-0.0625 -0.53125,-0.1875c-0.09375,-0.125 -0.14062,-0.33333 -0.14062,-0.625c0,-0.27083 0.05208,-0.46875 0.15625,-0.59375c0.11458,-0.125 0.29688,-0.1875 0.54688,-0.1875zM317.55401,72.02327c-0.64583,0 -1.25,-0.10417 -1.8125,-0.3125c-0.5625,-0.20833 -1.0625,-0.51042 -1.5,-0.90625c-0.42708,-0.40625 -0.76042,-0.88542 -1,-1.4375c-0.23958,-0.55208 -0.35937,-1.18229 -0.35937,-1.89062c0,-0.70833 0.11979,-1.33854 0.35938,-1.89062c0.23958,-0.55208 0.57292,-1.02604 1,-1.42187c0.42708,-0.40625 0.92188,-0.71354 1.48438,-0.92187c0.5625,-0.20833 1.16146,-0.3125 1.79688,-0.3125c0.42708,0 0.84375,0.06771 1.25,0.20313c0.40625,0.125 0.76563,0.29167 1.07813,0.5c0.32292,0.19792 0.55208,0.41146 0.6875,0.64063c0.125,0.15625 0.21354,0.28646 0.26563,0.39063c0.0625,0.10417 0.06771,0.22917 0.01563,0.375c-0.04167,0.09375 -0.10937,0.18229 -0.20312,0.26563c-0.08333,0.08333 -0.16667,0.14583 -0.25,0.1875c-0.22917,0.17708 -0.45312,0.20313 -0.67187,0.07813c-0.14583,-0.13542 -0.30208,-0.26042 -0.46875,-0.375c-0.16667,-0.125 -0.34375,-0.23437 -0.53125,-0.32812c-0.1875,-0.10417 -0.38021,-0.18229 -0.57812,-0.23437c-0.1875,-0.05208 -0.38542,-0.07812 -0.59375,-0.07812c-0.58333,0 -1.09896,0.11979 -1.54687,0.35938c-0.44792,0.23958 -0.79687,0.58333 -1.04687,1.03125c-0.23958,0.4375 -0.35937,0.94792 -0.35937,1.53125c0,0.58333 0.11979,1.09375 0.35938,1.53125c0.25,0.4375 0.59375,0.78125 1.03125,1.03125c0.44792,0.23958 0.95833,0.35938 1.53125,0.35938c0.26042,0 0.51042,-0.03125 0.75,-0.09375c0.23958,-0.07292 0.46354,-0.16667 0.67188,-0.28125c0.21875,-0.11458 0.39583,-0.24479 0.53125,-0.39062c0.125,-0.08333 0.22917,-0.15625 0.3125,-0.21875c0.09375,-0.0625 0.20313,-0.09375 0.32813,-0.09375c0.09375,0 0.19792,0.04167 0.3125,0.125c0.11458,0.08333 0.23438,0.20313 0.35938,0.35938c0.09375,0.11458 0.15104,0.23438 0.17188,0.35938c0.02083,0.125 0,0.24479 -0.0625,0.35938c-0.0625,0.10417 -0.16146,0.21354 -0.29687,0.32813c-0.19792,0.19792 -0.46354,0.39063 -0.79687,0.57813c-0.33333,0.17708 -0.69271,0.31771 -1.07812,0.42188c-0.38542,0.11458 -0.76562,0.17188 -1.14062,0.17188zM326.87512,72.1014c-0.61458,0 -1.19792,-0.11458 -1.75,-0.34375c-0.55208,-0.23958 -1.04687,-0.56771 -1.48437,-0.98437c-0.4375,-0.41667 -0.78125,-0.90625 -1.03125,-1.46875c-0.23958,-0.5625 -0.35937,-1.17187 -0.35937,-1.82812c0,-0.64583 0.11458,-1.24479 0.34375,-1.79687c0.23958,-0.55208 0.56771,-1.04167 0.98438,-1.46875c0.42708,-0.42708 0.91667,-0.76042 1.46875,-1c0.55208,-0.23958 1.14583,-0.35937 1.78125,-0.35937c0.86458,0 1.64063,0.20313 2.32813,0.60938c0.6875,0.39583 1.23438,0.94271 1.64063,1.64063c0.41667,0.69792 0.625,1.48438 0.625,2.35938c0,0.67708 -0.125,1.30208 -0.375,1.875c-0.25,0.5625 -0.58854,1.05208 -1.01562,1.46875c-0.41667,0.40625 -0.90104,0.72396 -1.45312,0.95313c-0.54167,0.22917 -1.10937,0.34375 -1.70312,0.34375zM326.82824,70.4764c0.52083,0 1.00521,-0.13021 1.45313,-0.39062c0.44792,-0.26042 0.80729,-0.61979 1.07813,-1.07812c0.28125,-0.45833 0.42188,-0.97917 0.42188,-1.5625c0,-0.59375 -0.13021,-1.10937 -0.39062,-1.54687c-0.25,-0.44792 -0.59896,-0.79687 -1.04687,-1.04687c-0.44792,-0.25 -0.95833,-0.375 -1.53125,-0.375c-0.54167,0 -1.03646,0.13021 -1.48437,0.39063c-0.4375,0.26042 -0.79167,0.61458 -1.0625,1.0625c-0.27083,0.44792 -0.40625,0.95833 -0.40625,1.53125c0,0.59375 0.13542,1.11979 0.40625,1.57813c0.28125,0.44792 0.64583,0.80208 1.09375,1.0625c0.45833,0.25 0.94792,0.375 1.46875,0.375zM334.15075,71.99202c-0.23958,0 -0.42187,-0.03646 -0.54687,-0.10937c-0.11458,-0.0625 -0.19271,-0.15625 -0.23437,-0.28125c-0.03125,-0.125 -0.04687,-0.27604 -0.04687,-0.45312v-7.35937c0,-0.17708 0.01563,-0.32812 0.04688,-0.45312c0.04167,-0.125 0.11979,-0.21875 0.23438,-0.28125c0.125,-0.0625 0.3125,-0.09375 0.5625,-0.09375c0.23958,0 0.41146,0.03646 0.51563,0.10938c0.11458,0.0625 0.1875,0.15625 0.21875,0.28125c0.04167,0.125 0.0625,0.28125 0.0625,0.46875v7.34375c0,0.17708 -0.02083,0.32813 -0.0625,0.45313c-0.03125,0.125 -0.10937,0.21875 -0.23437,0.28125c-0.11458,0.0625 -0.28646,0.09375 -0.51562,0.09375zM334.15075,60.7264c-0.28125,0 -0.48958,-0.04167 -0.625,-0.125c-0.13542,-0.08333 -0.22396,-0.19792 -0.26562,-0.34375c-0.04167,-0.14583 -0.0625,-0.32292 -0.0625,-0.53125c0,-0.19792 0.02083,-0.36458 0.0625,-0.5c0.05208,-0.14583 0.14583,-0.25 0.28125,-0.3125c0.14583,-0.07292 0.35417,-0.10937 0.625,-0.10937c0.26042,0 0.45833,0.03646 0.59375,0.10938c0.13542,0.07292 0.22396,0.1875 0.26563,0.34375c0.05208,0.14583 0.07813,0.31771 0.07813,0.51563c0,0.19792 -0.02604,0.36979 -0.07812,0.51563c-0.04167,0.13542 -0.13021,0.24479 -0.26562,0.32813c-0.13542,0.07292 -0.33854,0.10938 -0.60937,0.10938zM338.23602,71.9764c-0.23958,0 -0.42187,-0.03646 -0.54687,-0.10937c-0.11458,-0.0625 -0.1875,-0.15625 -0.21875,-0.28125c-0.03125,-0.125 -0.04687,-0.27604 -0.04687,-0.45312v-7.40625c0,-0.16667 0.02083,-0.30208 0.0625,-0.40625c0.04167,-0.11458 0.11979,-0.20312 0.23438,-0.26562c0.11458,-0.0625 0.29167,-0.09375 0.53125,-0.09375c0.1875,0 0.33333,0.02083 0.4375,0.0625c0.10417,0.04167 0.17708,0.10417 0.21875,0.1875c0.05208,0.07292 0.08333,0.15104 0.09375,0.23438c0.01042,0.08333 0.01563,0.16667 0.01563,0.25l-0.03125,0.85938c0.11458,-0.21875 0.26563,-0.42187 0.45313,-0.60937c0.1875,-0.19792 0.40625,-0.375 0.65625,-0.53125c0.25,-0.15625 0.52083,-0.27604 0.8125,-0.35937c0.29167,-0.08333 0.60417,-0.125 0.9375,-0.125c0.55208,0 1.05729,0.09896 1.51563,0.29688c0.45833,0.1875 0.85417,0.46354 1.1875,0.82813c0.33333,0.36458 0.58854,0.80208 0.76563,1.3125c0.17708,0.51042 0.26563,1.08854 0.26563,1.73438v4.04688c0,0.17708 -0.01562,0.32813 -0.04687,0.45313c-0.03125,0.125 -0.10417,0.21875 -0.21875,0.28125c-0.11458,0.0625 -0.29167,0.09375 -0.53125,0.09375c-0.25,0 -0.4375,-0.03646 -0.5625,-0.10937c-0.11458,-0.0625 -0.19271,-0.15625 -0.23437,-0.28125c-0.03125,-0.125 -0.04687,-0.27604 -0.04687,-0.45312v-4.04687c0,-0.52083 -0.08854,-0.97396 -0.26562,-1.35937c-0.16667,-0.38542 -0.42708,-0.6875 -0.78125,-0.90625c-0.34375,-0.21875 -0.78646,-0.32812 -1.32812,-0.32812c-0.5,0 -0.94271,0.10938 -1.32812,0.32813c-0.375,0.21875 -0.66667,0.52083 -0.875,0.90625c-0.20833,0.38542 -0.3125,0.83854 -0.3125,1.35938v4.0625c0,0.17708 -0.02083,0.32813 -0.0625,0.45313c-0.03125,0.125 -0.10937,0.21875 -0.23437,0.28125c-0.11458,0.0625 -0.28646,0.09375 -0.51562,0.09375zM350.79944,72.08577c-0.29167,0 -0.59896,-0.03125 -0.92187,-0.09375c-0.32292,-0.0625 -0.64062,-0.15104 -0.95312,-0.26562c-0.30208,-0.125 -0.56771,-0.26562 -0.79687,-0.42187c-0.22917,-0.16667 -0.40104,-0.34896 -0.51562,-0.54687c-0.0625,-0.125 -0.09896,-0.23958 -0.10937,-0.34375c-0.01042,-0.10417 0.00521,-0.20312 0.04688,-0.29687c0.05208,-0.10417 0.13021,-0.20833 0.23438,-0.3125c0.125,-0.14583 0.25,-0.21354 0.375,-0.20312c0.125,0 0.28125,0.08333 0.46875,0.25c0.13542,0.08333 0.29688,0.17708 0.48438,0.28125c0.1875,0.10417 0.38021,0.19792 0.57813,0.28125c0.19792,0.08333 0.39583,0.15625 0.59375,0.21875c0.20833,0.05208 0.41146,0.07813 0.60938,0.07813c0.57292,0 1.03125,-0.10937 1.375,-0.32812c0.35417,-0.21875 0.53125,-0.51042 0.53125,-0.875c0,-0.20833 -0.04687,-0.38542 -0.14062,-0.53125c-0.08333,-0.15625 -0.19792,-0.28646 -0.34375,-0.39062c-0.14583,-0.10417 -0.3125,-0.19271 -0.5,-0.26562c-0.1875,-0.07292 -0.39583,-0.14583 -0.625,-0.21875c-0.22917,-0.07292 -0.45833,-0.14062 -0.6875,-0.20312c-0.33333,-0.08333 -0.66146,-0.17708 -0.98437,-0.28125c-0.32292,-0.11458 -0.61458,-0.26042 -0.875,-0.4375c-0.26042,-0.1875 -0.47396,-0.42187 -0.64062,-0.70312c-0.15625,-0.28125 -0.23437,-0.64062 -0.23437,-1.07812c0,-0.5 0.13021,-0.9375 0.39063,-1.3125c0.26042,-0.375 0.625,-0.66667 1.09375,-0.875c0.47917,-0.20833 1.03646,-0.3125 1.67188,-0.3125c0.27083,0 0.52083,0.02083 0.75,0.0625c0.23958,0.04167 0.46875,0.10417 0.6875,0.1875c0.21875,0.07292 0.42708,0.16146 0.625,0.26563c0.19792,0.10417 0.39063,0.23438 0.57813,0.39063c0.22917,0.14583 0.34896,0.30729 0.35938,0.48438c0.01042,0.17708 -0.05729,0.35417 -0.20312,0.53125c-0.11458,0.16667 -0.23958,0.27083 -0.375,0.3125c-0.13542,0.04167 -0.27083,0.01042 -0.40625,-0.09375c-0.20833,-0.15625 -0.42708,-0.28646 -0.65625,-0.39062c-0.21875,-0.11458 -0.44792,-0.20833 -0.6875,-0.28125c-0.22917,-0.08333 -0.46875,-0.125 -0.71875,-0.125c-0.3125,0 -0.58854,0.04688 -0.82812,0.14063c-0.23958,0.09375 -0.42708,0.23438 -0.5625,0.42188c-0.125,0.17708 -0.1875,0.375 -0.1875,0.59375c0,0.20833 0.05208,0.375 0.15625,0.5c0.10417,0.11458 0.23958,0.21875 0.40625,0.3125c0.16667,0.08333 0.36458,0.16146 0.59375,0.23438c0.22917,0.0625 0.46875,0.125 0.71875,0.1875c0.36458,0.09375 0.73438,0.19792 1.10938,0.3125c0.38542,0.11458 0.72917,0.27083 1.03125,0.46875c0.30208,0.1875 0.54688,0.44271 0.73438,0.76563c0.19792,0.3125 0.29688,0.72917 0.29688,1.25c0,0.82292 -0.32292,1.47396 -0.96875,1.95313c-0.64583,0.46875 -1.50521,0.70313 -2.57812,0.70313zM364.9967,71.99202c-0.58333,0 -1.07812,-0.05729 -1.48437,-0.17187c-0.39583,-0.11458 -0.72396,-0.28646 -0.98437,-0.51562c-0.26042,-0.23958 -0.44792,-0.54687 -0.5625,-0.92187c-0.11458,-0.38542 -0.17187,-0.85417 -0.17187,-1.40625v-8.25c0,-0.17708 0.01563,-0.32812 0.04688,-0.45312c0.04167,-0.125 0.11979,-0.21875 0.23438,-0.28125c0.11458,-0.07292 0.28646,-0.10937 0.51563,-0.10937c0.23958,0 0.42188,0.03646 0.54688,0.10938c0.125,0.0625 0.20313,0.15625 0.23438,0.28125c0.04167,0.11458 0.0625,0.26042 0.0625,0.4375v8.26563c0,0.32292 0.02604,0.58333 0.07813,0.78125c0.0625,0.1875 0.15104,0.33333 0.26563,0.4375c0.125,0.09375 0.28646,0.15104 0.48438,0.17188c0.19792,0.02083 0.4375,0.03125 0.71875,0.03125c0.19792,0 0.35938,0.02083 0.48438,0.0625c0.125,0.04167 0.21875,0.11979 0.28125,0.23438c0.0625,0.10417 0.09375,0.27083 0.09375,0.5c0,0.22917 -0.03646,0.40625 -0.10937,0.53125c-0.0625,0.11458 -0.16146,0.1875 -0.29687,0.21875c-0.125,0.03125 -0.27083,0.04688 -0.4375,0.04688zM360.82483,63.1639l1.79688,0.01563l2.59375,-0.03125c0.16667,0 0.3125,0.01563 0.4375,0.04688c0.125,0.03125 0.21875,0.10938 0.28125,0.23438c0.07292,0.11458 0.10938,0.28646 0.10938,0.51563c0,0.23958 -0.03125,0.42188 -0.09375,0.54688c-0.0625,0.11458 -0.15625,0.19271 -0.28125,0.23438c-0.125,0.03125 -0.27083,0.04688 -0.4375,0.04688l-2.5625,-0.04687l-1.875,0.03125c-0.26042,0 -0.4375,-0.0625 -0.53125,-0.1875c-0.09375,-0.125 -0.14062,-0.33333 -0.14062,-0.625c0,-0.27083 0.05208,-0.46875 0.15625,-0.59375c0.11458,-0.125 0.29688,-0.1875 0.54688,-0.1875zM371.85522,72.1014c-0.61458,0 -1.19792,-0.11458 -1.75,-0.34375c-0.55208,-0.23958 -1.04687,-0.56771 -1.48437,-0.98437c-0.4375,-0.41667 -0.78125,-0.90625 -1.03125,-1.46875c-0.23958,-0.5625 -0.35937,-1.17187 -0.35937,-1.82812c0,-0.64583 0.11458,-1.24479 0.34375,-1.79687c0.23958,-0.55208 0.56771,-1.04167 0.98438,-1.46875c0.42708,-0.42708 0.91667,-0.76042 1.46875,-1c0.55208,-0.23958 1.14583,-0.35937 1.78125,-0.35937c0.86458,0 1.64063,0.20313 2.32813,0.60938c0.6875,0.39583 1.23438,0.94271 1.64063,1.64063c0.41667,0.69792 0.625,1.48438 0.625,2.35938c0,0.67708 -0.125,1.30208 -0.375,1.875c-0.25,0.5625 -0.58854,1.05208 -1.01562,1.46875c-0.41667,0.40625 -0.90104,0.72396 -1.45312,0.95313c-0.54167,0.22917 -1.10937,0.34375 -1.70312,0.34375zM371.80835,70.4764c0.52083,0 1.00521,-0.13021 1.45313,-0.39062c0.44792,-0.26042 0.80729,-0.61979 1.07813,-1.07812c0.28125,-0.45833 0.42188,-0.97917 0.42188,-1.5625c0,-0.59375 -0.13021,-1.10937 -0.39062,-1.54687c-0.25,-0.44792 -0.59896,-0.79687 -1.04687,-1.04687c-0.44792,-0.25 -0.95833,-0.375 -1.53125,-0.375c-0.54167,0 -1.03646,0.13021 -1.48437,0.39063c-0.4375,0.26042 -0.79167,0.61458 -1.0625,1.0625c-0.27083,0.44792 -0.40625,0.95833 -0.40625,1.53125c0,0.59375 0.13542,1.11979 0.40625,1.57813c0.28125,0.44792 0.64583,0.80208 1.09375,1.0625c0.45833,0.25 0.94792,0.375 1.46875,0.375z"/><path d="M166.79895,94.392c-0.60417,0 -1.15625,-0.10937 -1.65625,-0.32812c-0.5,-0.22917 -0.92708,-0.54687 -1.28125,-0.95312c-0.34375,-0.41667 -0.61458,-0.89583 -0.8125,-1.4375c-0.1875,-0.55208 -0.27604,-1.15625 -0.26562,-1.8125c0,-0.64583 0.09375,-1.24479 0.28125,-1.79687c0.1875,-0.5625 0.45833,-1.04167 0.8125,-1.4375c0.35417,-0.40625 0.77604,-0.71875 1.26563,-0.9375c0.5,-0.22917 1.05208,-0.34375 1.65625,-0.34375c0.57292,0 1.10938,0.11458 1.60938,0.34375c0.51042,0.21875 0.95313,0.53125 1.32813,0.9375c0.38542,0.39583 0.68229,0.86979 0.89063,1.42188c0.21875,0.55208 0.32813,1.15104 0.32813,1.79688c0,0.65625 -0.10937,1.26042 -0.32812,1.8125c-0.20833,0.55208 -0.50521,1.03646 -0.89062,1.45313c-0.375,0.40625 -0.81771,0.72396 -1.32812,0.95313c-0.5,0.21875 -1.03646,0.32813 -1.60937,0.32813zM166.56458,92.79825c0.52083,0 0.98958,-0.11979 1.40625,-0.35937c0.42708,-0.25 0.76042,-0.59375 1,-1.03125c0.25,-0.44792 0.375,-0.95833 0.375,-1.53125c0,-0.58333 -0.125,-1.09375 -0.375,-1.53125c-0.23958,-0.44792 -0.56771,-0.79687 -0.98437,-1.04687c-0.41667,-0.25 -0.89062,-0.375 -1.42187,-0.375c-0.53125,0 -1.00521,0.125 -1.42187,0.375c-0.41667,0.25 -0.74479,0.59896 -0.98437,1.04688c-0.23958,0.4375 -0.35937,0.94792 -0.35937,1.53125c0,0.57292 0.11979,1.08333 0.35938,1.53125c0.23958,0.4375 0.56771,0.78125 0.98438,1.03125c0.41667,0.23958 0.89063,0.35938 1.42188,0.35938zM162.92395,94.40763c-0.23958,0 -0.42187,-0.03646 -0.54687,-0.10937c-0.11458,-0.0625 -0.19271,-0.15625 -0.23437,-0.28125c-0.03125,-0.13542 -0.04687,-0.28646 -0.04687,-0.45312v-11.5c0,-0.1875 0.01563,-0.34375 0.04688,-0.46875c0.04167,-0.125 0.11979,-0.21875 0.23438,-0.28125c0.125,-0.07292 0.30729,-0.10937 0.54688,-0.10937c0.22917,0 0.40104,0.03646 0.51563,0.10938c0.11458,0.07292 0.1875,0.17188 0.21875,0.29688c0.04167,0.125 0.0625,0.27604 0.0625,0.45313v11.67188c-0.02083,0.23958 -0.09375,0.41146 -0.21875,0.51563c-0.11458,0.10417 -0.30729,0.15625 -0.57812,0.15625zM176.62564,94.40763c-0.54167,0 -1.04687,-0.09896 -1.51562,-0.29687c-0.46875,-0.19792 -0.875,-0.47396 -1.21875,-0.82812c-0.34375,-0.36458 -0.61458,-0.80208 -0.8125,-1.3125c-0.1875,-0.51042 -0.28125,-1.08854 -0.28125,-1.73437v-4.04687c0,-0.17708 0.01563,-0.32812 0.04688,-0.45312c0.04167,-0.125 0.11979,-0.21875 0.23438,-0.28125c0.11458,-0.07292 0.29167,-0.10937 0.53125,-0.10937c0.23958,0 0.41667,0.03646 0.53125,0.10938c0.11458,0.07292 0.19271,0.17188 0.23438,0.29688c0.04167,0.125 0.0625,0.27604 0.0625,0.45313v4.04688c0,0.51042 0.08333,0.96354 0.25,1.35938c0.17708,0.38542 0.44271,0.6875 0.79688,0.90625c0.35417,0.20833 0.78646,0.3125 1.29688,0.3125c0.52083,0 0.96875,-0.10417 1.34375,-0.3125c0.38542,-0.21875 0.67708,-0.52083 0.875,-0.90625c0.20833,-0.39583 0.3125,-0.84896 0.3125,-1.35937v-4.0625c0,-0.17708 0.02083,-0.32812 0.0625,-0.45312c0.04167,-0.125 0.11979,-0.21875 0.23438,-0.28125c0.11458,-0.07292 0.29167,-0.10937 0.53125,-0.10937c0.23958,0 0.41667,0.03646 0.53125,0.10938c0.11458,0.07292 0.1875,0.17188 0.21875,0.29688c0.03125,0.125 0.04688,0.27604 0.04688,0.45313v7.40625c0,0.14583 -0.01562,0.28125 -0.04687,0.40625c-0.03125,0.11458 -0.10417,0.20313 -0.21875,0.26563c-0.11458,0.0625 -0.29167,0.09375 -0.53125,0.09375c-0.17708,0 -0.31771,-0.02083 -0.42187,-0.0625c-0.10417,-0.03125 -0.18229,-0.07812 -0.23437,-0.14062c-0.05208,-0.0625 -0.08854,-0.13542 -0.10937,-0.21875c-0.01042,-0.08333 -0.01562,-0.16667 -0.01562,-0.25l0.07813,-0.8125c-0.125,0.15625 -0.27604,0.32292 -0.45312,0.5c-0.17708,0.16667 -0.38021,0.32813 -0.60937,0.48438c-0.22917,0.15625 -0.48958,0.28125 -0.78125,0.375c-0.28125,0.10417 -0.60417,0.15625 -0.96875,0.15625zM184.99121,98.017c-0.30208,-0.125 -0.47917,-0.27083 -0.53125,-0.4375c-0.04167,-0.15625 0.00521,-0.38021 0.14063,-0.67187l4.9375,-11.09375c0.13542,-0.29167 0.28125,-0.46875 0.4375,-0.53125c0.15625,-0.07292 0.38021,-0.04687 0.67188,0.07813c0.29167,0.13542 0.45833,0.28646 0.5,0.45313c0.05208,0.15625 0.01563,0.36979 -0.10937,0.64063l-4.98437,11.17188c-0.125,0.28125 -0.26562,0.44792 -0.42187,0.5c-0.14583,0.05208 -0.35937,0.01563 -0.64062,-0.10937zM186.83496,93.2045l-4.26562,-6.59375c-0.16667,-0.25 -0.23437,-0.45833 -0.20312,-0.625c0.04167,-0.16667 0.1875,-0.33333 0.4375,-0.5c0.28125,-0.16667 0.50521,-0.22917 0.67188,-0.1875c0.16667,0.04167 0.33854,0.1875 0.51563,0.4375l3.60938,5.6875zM200.54309,94.48575c-0.29167,0 -0.59896,-0.03125 -0.92187,-0.09375c-0.32292,-0.0625 -0.64062,-0.15104 -0.95312,-0.26562c-0.30208,-0.125 -0.56771,-0.26562 -0.79687,-0.42187c-0.22917,-0.16667 -0.40104,-0.34896 -0.51562,-0.54687c-0.0625,-0.125 -0.09896,-0.23958 -0.10937,-0.34375c-0.01042,-0.10417 0.00521,-0.20312 0.04688,-0.29687c0.05208,-0.10417 0.13021,-0.20833 0.23438,-0.3125c0.125,-0.14583 0.25,-0.21354 0.375,-0.20312c0.125,0 0.28125,0.08333 0.46875,0.25c0.13542,0.08333 0.29688,0.17708 0.48438,0.28125c0.1875,0.10417 0.38021,0.19792 0.57813,0.28125c0.19792,0.08333 0.39583,0.15625 0.59375,0.21875c0.20833,0.05208 0.41146,0.07813 0.60938,0.07813c0.57292,0 1.03125,-0.10937 1.375,-0.32812c0.35417,-0.21875 0.53125,-0.51042 0.53125,-0.875c0,-0.20833 -0.04687,-0.38542 -0.14062,-0.53125c-0.08333,-0.15625 -0.19792,-0.28646 -0.34375,-0.39062c-0.14583,-0.10417 -0.3125,-0.19271 -0.5,-0.26562c-0.1875,-0.07292 -0.39583,-0.14583 -0.625,-0.21875c-0.22917,-0.07292 -0.45833,-0.14062 -0.6875,-0.20312c-0.33333,-0.08333 -0.66146,-0.17708 -0.98437,-0.28125c-0.32292,-0.11458 -0.61458,-0.26042 -0.875,-0.4375c-0.26042,-0.1875 -0.47396,-0.42187 -0.64062,-0.70312c-0.15625,-0.28125 -0.23437,-0.64062 -0.23437,-1.07812c0,-0.5 0.13021,-0.9375 0.39063,-1.3125c0.26042,-0.375 0.625,-0.66667 1.09375,-0.875c0.47917,-0.20833 1.03646,-0.3125 1.67188,-0.3125c0.27083,0 0.52083,0.02083 0.75,0.0625c0.23958,0.04167 0.46875,0.10417 0.6875,0.1875c0.21875,0.07292 0.42708,0.16146 0.625,0.26563c0.19792,0.10417 0.39063,0.23438 0.57813,0.39063c0.22917,0.14583 0.34896,0.30729 0.35938,0.48438c0.01042,0.17708 -0.05729,0.35417 -0.20312,0.53125c-0.11458,0.16667 -0.23958,0.27083 -0.375,0.3125c-0.13542,0.04167 -0.27083,0.01042 -0.40625,-0.09375c-0.20833,-0.15625 -0.42708,-0.28646 -0.65625,-0.39062c-0.21875,-0.11458 -0.44792,-0.20833 -0.6875,-0.28125c-0.22917,-0.08333 -0.46875,-0.125 -0.71875,-0.125c-0.3125,0 -0.58854,0.04688 -0.82812,0.14063c-0.23958,0.09375 -0.42708,0.23438 -0.5625,0.42188c-0.125,0.17708 -0.1875,0.375 -0.1875,0.59375c0,0.20833 0.05208,0.375 0.15625,0.5c0.10417,0.11458 0.23958,0.21875 0.40625,0.3125c0.16667,0.08333 0.36458,0.16146 0.59375,0.23438c0.22917,0.0625 0.46875,0.125 0.71875,0.1875c0.36458,0.09375 0.73438,0.19792 1.10938,0.3125c0.38542,0.11458 0.72917,0.27083 1.03125,0.46875c0.30208,0.1875 0.54688,0.44271 0.73438,0.76563c0.19792,0.3125 0.29688,0.72917 0.29688,1.25c0,0.82292 -0.32292,1.47396 -0.96875,1.95313c-0.64583,0.46875 -1.50521,0.70313 -2.57812,0.70313zM213.04379,92.93888c0.23958,0.1875 0.36979,0.36979 0.39063,0.54688c0.02083,0.16667 -0.06771,0.36979 -0.26562,0.60938c-0.15625,0.17708 -0.29167,0.29167 -0.40625,0.34375c-0.11458,0.05208 -0.23437,0.05729 -0.35937,0.01563c-0.125,-0.04167 -0.27083,-0.13021 -0.4375,-0.26562l-4.21875,-3.4375v2.79688c0,0.17708 -0.02083,0.32813 -0.0625,0.45313c-0.04167,0.125 -0.11979,0.21875 -0.23437,0.28125c-0.11458,0.07292 -0.29167,0.10938 -0.53125,0.10938c-0.22917,0 -0.40625,-0.03646 -0.53125,-0.10937c-0.125,-0.0625 -0.20312,-0.15625 -0.23437,-0.28125c-0.03125,-0.13542 -0.04687,-0.29167 -0.04687,-0.46875v-11.51562c0,-0.16667 0.01563,-0.3125 0.04688,-0.4375c0.04167,-0.125 0.125,-0.21875 0.25,-0.28125c0.125,-0.07292 0.30208,-0.10937 0.53125,-0.10937c0.25,0 0.42708,0.03646 0.53125,0.10938c0.11458,0.0625 0.1875,0.16146 0.21875,0.29688c0.04167,0.125 0.0625,0.27604 0.0625,0.45313v6.59375l3.07813,-2.9375c0.13542,-0.14583 0.27083,-0.24479 0.40625,-0.29687c0.13542,-0.05208 0.26563,-0.05729 0.39063,-0.01562c0.13542,0.03125 0.27083,0.125 0.40625,0.28125c0.21875,0.25 0.32292,0.45833 0.3125,0.625c0,0.16667 -0.10937,0.35938 -0.32812,0.57813l-3.03125,2.84375zM216.15109,94.392c-0.23958,0 -0.42187,-0.03646 -0.54687,-0.10937c-0.11458,-0.0625 -0.19271,-0.15625 -0.23437,-0.28125c-0.03125,-0.125 -0.04687,-0.27604 -0.04687,-0.45312v-7.35937c0,-0.17708 0.01563,-0.32812 0.04688,-0.45312c0.04167,-0.125 0.11979,-0.21875 0.23438,-0.28125c0.125,-0.0625 0.3125,-0.09375 0.5625,-0.09375c0.23958,0 0.41146,0.03646 0.51563,0.10938c0.11458,0.0625 0.1875,0.15625 0.21875,0.28125c0.04167,0.125 0.0625,0.28125 0.0625,0.46875v7.34375c0,0.17708 -0.02083,0.32813 -0.0625,0.45313c-0.03125,0.125 -0.10937,0.21875 -0.23437,0.28125c-0.11458,0.0625 -0.28646,0.09375 -0.51562,0.09375zM216.15109,83.12638c-0.28125,0 -0.48958,-0.04167 -0.625,-0.125c-0.13542,-0.08333 -0.22396,-0.19792 -0.26562,-0.34375c-0.04167,-0.14583 -0.0625,-0.32292 -0.0625,-0.53125c0,-0.19792 0.02083,-0.36458 0.0625,-0.5c0.05208,-0.14583 0.14583,-0.25 0.28125,-0.3125c0.14583,-0.07292 0.35417,-0.10937 0.625,-0.10937c0.26042,0 0.45833,0.03646 0.59375,0.10938c0.13542,0.07292 0.22396,0.1875 0.26563,0.34375c0.05208,0.14583 0.07813,0.31771 0.07813,0.51563c0,0.19792 -0.02604,0.36979 -0.07812,0.51563c-0.04167,0.13542 -0.13021,0.24479 -0.26562,0.32813c-0.13542,0.07292 -0.33854,0.10938 -0.60937,0.10938zM220.23633,94.37638c-0.23958,0 -0.42187,-0.03646 -0.54687,-0.10937c-0.11458,-0.0625 -0.1875,-0.15625 -0.21875,-0.28125c-0.03125,-0.125 -0.04687,-0.27604 -0.04687,-0.45312v-7.40625c0,-0.16667 0.02083,-0.30208 0.0625,-0.40625c0.04167,-0.11458 0.11979,-0.20312 0.23438,-0.26562c0.11458,-0.0625 0.29167,-0.09375 0.53125,-0.09375c0.1875,0 0.33333,0.02083 0.4375,0.0625c0.10417,0.04167 0.17708,0.10417 0.21875,0.1875c0.05208,0.07292 0.08333,0.15104 0.09375,0.23438c0.01042,0.08333 0.01563,0.16667 0.01563,0.25l-0.03125,0.85938c0.11458,-0.21875 0.26563,-0.42187 0.45313,-0.60937c0.1875,-0.19792 0.40625,-0.375 0.65625,-0.53125c0.25,-0.15625 0.52083,-0.27604 0.8125,-0.35937c0.29167,-0.08333 0.60417,-0.125 0.9375,-0.125c0.55208,0 1.05729,0.09896 1.51563,0.29688c0.45833,0.1875 0.85417,0.46354 1.1875,0.82813c0.33333,0.36458 0.58854,0.80208 0.76563,1.3125c0.17708,0.51042 0.26563,1.08854 0.26563,1.73438v4.04688c0,0.17708 -0.01562,0.32813 -0.04687,0.45313c-0.03125,0.125 -0.10417,0.21875 -0.21875,0.28125c-0.11458,0.0625 -0.29167,0.09375 -0.53125,0.09375c-0.25,0 -0.4375,-0.03646 -0.5625,-0.10937c-0.11458,-0.0625 -0.19271,-0.15625 -0.23437,-0.28125c-0.03125,-0.125 -0.04687,-0.27604 -0.04687,-0.45312v-4.04687c0,-0.52083 -0.08854,-0.97396 -0.26562,-1.35937c-0.16667,-0.38542 -0.42708,-0.6875 -0.78125,-0.90625c-0.34375,-0.21875 -0.78646,-0.32812 -1.32812,-0.32812c-0.5,0 -0.94271,0.10938 -1.32812,0.32813c-0.375,0.21875 -0.66667,0.52083 -0.875,0.90625c-0.20833,0.38542 -0.3125,0.83854 -0.3125,1.35938v4.0625c0,0.17708 -0.02083,0.32813 -0.0625,0.45313c-0.03125,0.125 -0.10937,0.21875 -0.23437,0.28125c-0.11458,0.0625 -0.28646,0.09375 -0.51562,0.09375zM232.79974,94.48575c-0.29167,0 -0.59896,-0.03125 -0.92187,-0.09375c-0.32292,-0.0625 -0.64062,-0.15104 -0.95312,-0.26562c-0.30208,-0.125 -0.56771,-0.26562 -0.79687,-0.42187c-0.22917,-0.16667 -0.40104,-0.34896 -0.51562,-0.54687c-0.0625,-0.125 -0.09896,-0.23958 -0.10937,-0.34375c-0.01042,-0.10417 0.00521,-0.20312 0.04688,-0.29687c0.05208,-0.10417 0.13021,-0.20833 0.23438,-0.3125c0.125,-0.14583 0.25,-0.21354 0.375,-0.20312c0.125,0 0.28125,0.08333 0.46875,0.25c0.13542,0.08333 0.29688,0.17708 0.48438,0.28125c0.1875,0.10417 0.38021,0.19792 0.57813,0.28125c0.19792,0.08333 0.39583,0.15625 0.59375,0.21875c0.20833,0.05208 0.41146,0.07813 0.60938,0.07813c0.57292,0 1.03125,-0.10937 1.375,-0.32812c0.35417,-0.21875 0.53125,-0.51042 0.53125,-0.875c0,-0.20833 -0.04687,-0.38542 -0.14062,-0.53125c-0.08333,-0.15625 -0.19792,-0.28646 -0.34375,-0.39062c-0.14583,-0.10417 -0.3125,-0.19271 -0.5,-0.26562c-0.1875,-0.07292 -0.39583,-0.14583 -0.625,-0.21875c-0.22917,-0.07292 -0.45833,-0.14062 -0.6875,-0.20312c-0.33333,-0.08333 -0.66146,-0.17708 -0.98437,-0.28125c-0.32292,-0.11458 -0.61458,-0.26042 -0.875,-0.4375c-0.26042,-0.1875 -0.47396,-0.42187 -0.64062,-0.70312c-0.15625,-0.28125 -0.23437,-0.64062 -0.23437,-1.07812c0,-0.5 0.13021,-0.9375 0.39063,-1.3125c0.26042,-0.375 0.625,-0.66667 1.09375,-0.875c0.47917,-0.20833 1.03646,-0.3125 1.67188,-0.3125c0.27083,0 0.52083,0.02083 0.75,0.0625c0.23958,0.04167 0.46875,0.10417 0.6875,0.1875c0.21875,0.07292 0.42708,0.16146 0.625,0.26563c0.19792,0.10417 0.39063,0.23438 0.57813,0.39063c0.22917,0.14583 0.34896,0.30729 0.35938,0.48438c0.01042,0.17708 -0.05729,0.35417 -0.20312,0.53125c-0.11458,0.16667 -0.23958,0.27083 -0.375,0.3125c-0.13542,0.04167 -0.27083,0.01042 -0.40625,-0.09375c-0.20833,-0.15625 -0.42708,-0.28646 -0.65625,-0.39062c-0.21875,-0.11458 -0.44792,-0.20833 -0.6875,-0.28125c-0.22917,-0.08333 -0.46875,-0.125 -0.71875,-0.125c-0.3125,0 -0.58854,0.04688 -0.82812,0.14063c-0.23958,0.09375 -0.42708,0.23438 -0.5625,0.42188c-0.125,0.17708 -0.1875,0.375 -0.1875,0.59375c0,0.20833 0.05208,0.375 0.15625,0.5c0.10417,0.11458 0.23958,0.21875 0.40625,0.3125c0.16667,0.08333 0.36458,0.16146 0.59375,0.23438c0.22917,0.0625 0.46875,0.125 0.71875,0.1875c0.36458,0.09375 0.73438,0.19792 1.10938,0.3125c0.38542,0.11458 0.72917,0.27083 1.03125,0.46875c0.30208,0.1875 0.54688,0.44271 0.73438,0.76563c0.19792,0.3125 0.29688,0.72917 0.29688,1.25c0,0.82292 -0.32292,1.47396 -0.96875,1.95313c-0.64583,0.46875 -1.50521,0.70313 -2.57812,0.70313zM244.02353,94.392c-0.23958,0 -0.42187,-0.03646 -0.54687,-0.10937c-0.11458,-0.0625 -0.19271,-0.15625 -0.23437,-0.28125c-0.03125,-0.125 -0.04687,-0.27604 -0.04687,-0.45312v-7.35937c0,-0.17708 0.01563,-0.32812 0.04688,-0.45312c0.04167,-0.125 0.11979,-0.21875 0.23438,-0.28125c0.125,-0.0625 0.3125,-0.09375 0.5625,-0.09375c0.23958,0 0.41146,0.03646 0.51563,0.10938c0.11458,0.0625 0.1875,0.15625 0.21875,0.28125c0.04167,0.125 0.0625,0.28125 0.0625,0.46875v7.34375c0,0.17708 -0.02083,0.32813 -0.0625,0.45313c-0.03125,0.125 -0.10937,0.21875 -0.23437,0.28125c-0.11458,0.0625 -0.28646,0.09375 -0.51562,0.09375zM244.02353,83.12638c-0.28125,0 -0.48958,-0.04167 -0.625,-0.125c-0.13542,-0.08333 -0.22396,-0.19792 -0.26562,-0.34375c-0.04167,-0.14583 -0.0625,-0.32292 -0.0625,-0.53125c0,-0.19792 0.02083,-0.36458 0.0625,-0.5c0.05208,-0.14583 0.14583,-0.25 0.28125,-0.3125c0.14583,-0.07292 0.35417,-0.10937 0.625,-0.10937c0.26042,0 0.45833,0.03646 0.59375,0.10938c0.13542,0.07292 0.22396,0.1875 0.26563,0.34375c0.05208,0.14583 0.07813,0.31771 0.07813,0.51563c0,0.19792 -0.02604,0.36979 -0.07812,0.51563c-0.04167,0.13542 -0.13021,0.24479 -0.26562,0.32813c-0.13542,0.07292 -0.33854,0.10938 -0.60937,0.10938zM248.1088,94.37638c-0.23958,0 -0.42187,-0.03646 -0.54687,-0.10937c-0.11458,-0.0625 -0.1875,-0.15625 -0.21875,-0.28125c-0.03125,-0.125 -0.04687,-0.27604 -0.04687,-0.45312v-7.40625c0,-0.16667 0.02083,-0.30208 0.0625,-0.40625c0.04167,-0.11458 0.11979,-0.20312 0.23438,-0.26562c0.11458,-0.0625 0.29167,-0.09375 0.53125,-0.09375c0.1875,0 0.33333,0.02083 0.4375,0.0625c0.10417,0.04167 0.17708,0.10417 0.21875,0.1875c0.05208,0.07292 0.08333,0.15104 0.09375,0.23438c0.01042,0.08333 0.01563,0.16667 0.01563,0.25l-0.03125,0.85938c0.11458,-0.21875 0.26563,-0.42187 0.45313,-0.60937c0.1875,-0.19792 0.40625,-0.375 0.65625,-0.53125c0.25,-0.15625 0.52083,-0.27604 0.8125,-0.35937c0.29167,-0.08333 0.60417,-0.125 0.9375,-0.125c0.55208,0 1.05729,0.09896 1.51563,0.29688c0.45833,0.1875 0.85417,0.46354 1.1875,0.82813c0.33333,0.36458 0.58854,0.80208 0.76563,1.3125c0.17708,0.51042 0.26563,1.08854 0.26563,1.73438v4.04688c0,0.17708 -0.01562,0.32813 -0.04687,0.45313c-0.03125,0.125 -0.10417,0.21875 -0.21875,0.28125c-0.11458,0.0625 -0.29167,0.09375 -0.53125,0.09375c-0.25,0 -0.4375,-0.03646 -0.5625,-0.10937c-0.11458,-0.0625 -0.19271,-0.15625 -0.23437,-0.28125c-0.03125,-0.125 -0.04687,-0.27604 -0.04687,-0.45312v-4.04687c0,-0.52083 -0.08854,-0.97396 -0.26562,-1.35937c-0.16667,-0.38542 -0.42708,-0.6875 -0.78125,-0.90625c-0.34375,-0.21875 -0.78646,-0.32812 -1.32812,-0.32812c-0.5,0 -0.94271,0.10938 -1.32812,0.32813c-0.375,0.21875 -0.66667,0.52083 -0.875,0.90625c-0.20833,0.38542 -0.3125,0.83854 -0.3125,1.35938v4.0625c0,0.17708 -0.02083,0.32813 -0.0625,0.45313c-0.03125,0.125 -0.10937,0.21875 -0.23437,0.28125c-0.11458,0.0625 -0.28646,0.09375 -0.51562,0.09375zM266.30624,94.392c-0.58333,0 -1.07812,-0.05729 -1.48437,-0.17187c-0.39583,-0.11458 -0.72396,-0.28646 -0.98437,-0.51562c-0.26042,-0.23958 -0.44792,-0.54687 -0.5625,-0.92187c-0.11458,-0.38542 -0.17187,-0.85417 -0.17187,-1.40625v-8.25c0,-0.17708 0.01563,-0.32812 0.04688,-0.45312c0.04167,-0.125 0.11979,-0.21875 0.23438,-0.28125c0.11458,-0.07292 0.28646,-0.10937 0.51563,-0.10937c0.23958,0 0.42188,0.03646 0.54688,0.10938c0.125,0.0625 0.20313,0.15625 0.23438,0.28125c0.04167,0.11458 0.0625,0.26042 0.0625,0.4375v8.26563c0,0.32292 0.02604,0.58333 0.07813,0.78125c0.0625,0.1875 0.15104,0.33333 0.26563,0.4375c0.125,0.09375 0.28646,0.15104 0.48438,0.17188c0.19792,0.02083 0.4375,0.03125 0.71875,0.03125c0.19792,0 0.35938,0.02083 0.48438,0.0625c0.125,0.04167 0.21875,0.11979 0.28125,0.23438c0.0625,0.10417 0.09375,0.27083 0.09375,0.5c0,0.22917 -0.03646,0.40625 -0.10937,0.53125c-0.0625,0.11458 -0.16146,0.1875 -0.29687,0.21875c-0.125,0.03125 -0.27083,0.04688 -0.4375,0.04688zM262.13437,85.56388l1.79688,0.01563l2.59375,-0.03125c0.16667,0 0.3125,0.01563 0.4375,0.04688c0.125,0.03125 0.21875,0.10938 0.28125,0.23438c0.07292,0.11458 0.10938,0.28646 0.10938,0.51563c0,0.23958 -0.03125,0.42188 -0.09375,0.54688c-0.0625,0.11458 -0.15625,0.19271 -0.28125,0.23438c-0.125,0.03125 -0.27083,0.04688 -0.4375,0.04688l-2.5625,-0.04687l-1.875,0.03125c-0.26042,0 -0.4375,-0.0625 -0.53125,-0.1875c-0.09375,-0.125 -0.14062,-0.33333 -0.14062,-0.625c0,-0.27083 0.05208,-0.46875 0.15625,-0.59375c0.11458,-0.125 0.29688,-0.1875 0.54688,-0.1875zM269.75848,94.392c-0.22917,0 -0.40625,-0.03646 -0.53125,-0.10937c-0.125,-0.0625 -0.20312,-0.15625 -0.23437,-0.28125c-0.03125,-0.13542 -0.04687,-0.29167 -0.04687,-0.46875v-11.48437c0,-0.17708 0.01563,-0.32812 0.04688,-0.45312c0.04167,-0.125 0.125,-0.21875 0.25,-0.28125c0.125,-0.07292 0.30729,-0.10937 0.54688,-0.10937c0.23958,0 0.41667,0.03646 0.53125,0.10938c0.125,0.0625 0.20313,0.15625 0.23438,0.28125c0.03125,0.125 0.04688,0.28125 0.04688,0.46875v4.60938c0.30208,-0.35417 0.66667,-0.66667 1.09375,-0.9375c0.42708,-0.27083 0.95313,-0.40625 1.57813,-0.40625c0.72917,0 1.38021,0.17188 1.95313,0.51563c0.58333,0.33333 1.04688,0.8125 1.39063,1.4375c0.34375,0.625 0.51563,1.36458 0.51563,2.21875v4.04688c0,0.17708 -0.02083,0.32813 -0.0625,0.45313c-0.03125,0.125 -0.10417,0.21875 -0.21875,0.28125c-0.11458,0.07292 -0.29687,0.10938 -0.54687,0.10938c-0.22917,0 -0.40625,-0.03646 -0.53125,-0.10937c-0.125,-0.0625 -0.20833,-0.15625 -0.25,-0.28125c-0.03125,-0.13542 -0.04687,-0.29167 -0.04687,-0.46875v-4.04687c0,-0.52083 -0.08854,-0.97396 -0.26562,-1.35937c-0.17708,-0.38542 -0.4375,-0.68229 -0.78125,-0.89062c-0.33333,-0.21875 -0.76042,-0.32812 -1.28125,-0.32812c-0.71875,0 -1.30729,0.20313 -1.76562,0.60938c-0.44792,0.40625 -0.70833,0.94271 -0.78125,1.60938v4.42188c0,0.17708 -0.02083,0.32813 -0.0625,0.45313c-0.03125,0.125 -0.10937,0.21875 -0.23437,0.28125c-0.11458,0.07292 -0.29688,0.10938 -0.54688,0.10938zM283.30206,94.48575c-0.73958,0 -1.40104,-0.125 -1.98437,-0.375c-0.58333,-0.25 -1.07812,-0.58854 -1.48437,-1.01562c-0.40625,-0.42708 -0.71875,-0.92187 -0.9375,-1.48437c-0.20833,-0.5625 -0.3125,-1.16667 -0.3125,-1.8125c0,-0.85417 0.19792,-1.61458 0.59375,-2.28125c0.40625,-0.67708 0.95833,-1.20833 1.65625,-1.59375c0.70833,-0.39583 1.51563,-0.59375 2.42188,-0.59375c0.625,0 1.18229,0.09896 1.67188,0.29688c0.48958,0.1875 0.90625,0.44271 1.25,0.76563c0.35417,0.32292 0.625,0.68229 0.8125,1.07813c0.1875,0.39583 0.28125,0.79167 0.28125,1.1875c0,0.63542 -0.15104,1.08333 -0.45312,1.34375c-0.30208,0.25 -0.67187,0.375 -1.10937,0.375h-5.39062c-0.01042,0.55208 0.13542,1.02604 0.4375,1.42188c0.3125,0.38542 0.69792,0.6875 1.15625,0.90625c0.46875,0.20833 0.94271,0.3125 1.42188,0.3125c0.34375,0 0.64063,-0.02083 0.89063,-0.0625c0.25,-0.04167 0.46875,-0.09375 0.65625,-0.15625c0.1875,-0.0625 0.34896,-0.11979 0.48438,-0.17187c0.13542,-0.0625 0.25521,-0.125 0.35938,-0.1875c0.10417,-0.0625 0.20833,-0.10937 0.3125,-0.14062c0.11458,-0.02083 0.22396,-0.01042 0.32813,0.03125c0.10417,0.04167 0.1875,0.125 0.25,0.25c0.07292,0.10417 0.11979,0.19792 0.14063,0.28125c0.03125,0.08333 0.04688,0.17708 0.04688,0.28125c0,0.17708 -0.15104,0.36979 -0.45312,0.57813c-0.30208,0.20833 -0.71875,0.38542 -1.25,0.53125c-0.52083,0.15625 -1.11979,0.23438 -1.79687,0.23438zM280.31769,89.28263h4.6875c0.23958,0 0.41667,-0.03125 0.53125,-0.09375c0.11458,-0.0625 0.17188,-0.22917 0.17188,-0.5c0,-0.35417 -0.10417,-0.67187 -0.3125,-0.95312c-0.20833,-0.28125 -0.5,-0.50521 -0.875,-0.67187c-0.36458,-0.17708 -0.78125,-0.26562 -1.25,-0.26562c-0.54167,0 -1.04167,0.10938 -1.5,0.32813c-0.45833,0.21875 -0.81771,0.51563 -1.07812,0.89063c-0.26042,0.36458 -0.38542,0.78646 -0.375,1.26563zM296.86517,94.48575c-0.29167,0 -0.59896,-0.03125 -0.92187,-0.09375c-0.32292,-0.0625 -0.64062,-0.15104 -0.95312,-0.26562c-0.30208,-0.125 -0.56771,-0.26562 -0.79687,-0.42187c-0.22917,-0.16667 -0.40104,-0.34896 -0.51562,-0.54687c-0.0625,-0.125 -0.09896,-0.23958 -0.10937,-0.34375c-0.01042,-0.10417 0.00521,-0.20312 0.04688,-0.29687c0.05208,-0.10417 0.13021,-0.20833 0.23438,-0.3125c0.125,-0.14583 0.25,-0.21354 0.375,-0.20312c0.125,0 0.28125,0.08333 0.46875,0.25c0.13542,0.08333 0.29688,0.17708 0.48438,0.28125c0.1875,0.10417 0.38021,0.19792 0.57813,0.28125c0.19792,0.08333 0.39583,0.15625 0.59375,0.21875c0.20833,0.05208 0.41146,0.07813 0.60938,0.07813c0.57292,0 1.03125,-0.10937 1.375,-0.32812c0.35417,-0.21875 0.53125,-0.51042 0.53125,-0.875c0,-0.20833 -0.04687,-0.38542 -0.14062,-0.53125c-0.08333,-0.15625 -0.19792,-0.28646 -0.34375,-0.39062c-0.14583,-0.10417 -0.3125,-0.19271 -0.5,-0.26562c-0.1875,-0.07292 -0.39583,-0.14583 -0.625,-0.21875c-0.22917,-0.07292 -0.45833,-0.14062 -0.6875,-0.20312c-0.33333,-0.08333 -0.66146,-0.17708 -0.98437,-0.28125c-0.32292,-0.11458 -0.61458,-0.26042 -0.875,-0.4375c-0.26042,-0.1875 -0.47396,-0.42187 -0.64062,-0.70312c-0.15625,-0.28125 -0.23437,-0.64062 -0.23437,-1.07812c0,-0.5 0.13021,-0.9375 0.39063,-1.3125c0.26042,-0.375 0.625,-0.66667 1.09375,-0.875c0.47917,-0.20833 1.03646,-0.3125 1.67188,-0.3125c0.27083,0 0.52083,0.02083 0.75,0.0625c0.23958,0.04167 0.46875,0.10417 0.6875,0.1875c0.21875,0.07292 0.42708,0.16146 0.625,0.26563c0.19792,0.10417 0.39063,0.23438 0.57813,0.39063c0.22917,0.14583 0.34896,0.30729 0.35938,0.48438c0.01042,0.17708 -0.05729,0.35417 -0.20312,0.53125c-0.11458,0.16667 -0.23958,0.27083 -0.375,0.3125c-0.13542,0.04167 -0.27083,0.01042 -0.40625,-0.09375c-0.20833,-0.15625 -0.42708,-0.28646 -0.65625,-0.39062c-0.21875,-0.11458 -0.44792,-0.20833 -0.6875,-0.28125c-0.22917,-0.08333 -0.46875,-0.125 -0.71875,-0.125c-0.3125,0 -0.58854,0.04688 -0.82812,0.14063c-0.23958,0.09375 -0.42708,0.23438 -0.5625,0.42188c-0.125,0.17708 -0.1875,0.375 -0.1875,0.59375c0,0.20833 0.05208,0.375 0.15625,0.5c0.10417,0.11458 0.23958,0.21875 0.40625,0.3125c0.16667,0.08333 0.36458,0.16146 0.59375,0.23438c0.22917,0.0625 0.46875,0.125 0.71875,0.1875c0.36458,0.09375 0.73438,0.19792 1.10938,0.3125c0.38542,0.11458 0.72917,0.27083 1.03125,0.46875c0.30208,0.1875 0.54688,0.44271 0.73438,0.76563c0.19792,0.3125 0.29688,0.72917 0.29688,1.25c0,0.82292 -0.32292,1.47396 -0.96875,1.95313c-0.64583,0.46875 -1.50521,0.70313 -2.57812,0.70313zM303.11584,94.392c-0.22917,0 -0.40625,-0.03646 -0.53125,-0.10937c-0.125,-0.0625 -0.20312,-0.15625 -0.23437,-0.28125c-0.03125,-0.13542 -0.04687,-0.29167 -0.04687,-0.46875v-11.48437c0,-0.17708 0.01563,-0.32812 0.04688,-0.45312c0.04167,-0.125 0.125,-0.21875 0.25,-0.28125c0.125,-0.07292 0.30729,-0.10937 0.54688,-0.10937c0.23958,0 0.41667,0.03646 0.53125,0.10938c0.125,0.0625 0.20313,0.15625 0.23438,0.28125c0.03125,0.125 0.04688,0.28125 0.04688,0.46875v4.60938c0.30208,-0.35417 0.66667,-0.66667 1.09375,-0.9375c0.42708,-0.27083 0.95313,-0.40625 1.57813,-0.40625c0.72917,0 1.38021,0.17188 1.95313,0.51563c0.58333,0.33333 1.04688,0.8125 1.39063,1.4375c0.34375,0.625 0.51563,1.36458 0.51563,2.21875v4.04688c0,0.17708 -0.02083,0.32813 -0.0625,0.45313c-0.03125,0.125 -0.10417,0.21875 -0.21875,0.28125c-0.11458,0.07292 -0.29687,0.10938 -0.54687,0.10938c-0.22917,0 -0.40625,-0.03646 -0.53125,-0.10937c-0.125,-0.0625 -0.20833,-0.15625 -0.25,-0.28125c-0.03125,-0.13542 -0.04687,-0.29167 -0.04687,-0.46875v-4.04687c0,-0.52083 -0.08854,-0.97396 -0.26562,-1.35937c-0.17708,-0.38542 -0.4375,-0.68229 -0.78125,-0.89062c-0.33333,-0.21875 -0.76042,-0.32812 -1.28125,-0.32812c-0.71875,0 -1.30729,0.20313 -1.76562,0.60938c-0.44792,0.40625 -0.70833,0.94271 -0.78125,1.60938v4.42188c0,0.17708 -0.02083,0.32813 -0.0625,0.45313c-0.03125,0.125 -0.10937,0.21875 -0.23437,0.28125c-0.11458,0.07292 -0.29687,0.10938 -0.54687,0.10938zM316.37256,94.50138c-0.61458,0 -1.19792,-0.11458 -1.75,-0.34375c-0.55208,-0.23958 -1.04687,-0.56771 -1.48437,-0.98437c-0.4375,-0.41667 -0.78125,-0.90625 -1.03125,-1.46875c-0.23958,-0.5625 -0.35937,-1.17187 -0.35937,-1.82812c0,-0.64583 0.11458,-1.24479 0.34375,-1.79687c0.23958,-0.55208 0.56771,-1.04167 0.98438,-1.46875c0.42708,-0.42708 0.91667,-0.76042 1.46875,-1c0.55208,-0.23958 1.14583,-0.35937 1.78125,-0.35937c0.86458,0 1.64063,0.20313 2.32813,0.60938c0.6875,0.39583 1.23438,0.94271 1.64063,1.64063c0.41667,0.69792 0.625,1.48438 0.625,2.35938c0,0.67708 -0.125,1.30208 -0.375,1.875c-0.25,0.5625 -0.58854,1.05208 -1.01562,1.46875c-0.41667,0.40625 -0.90104,0.72396 -1.45312,0.95313c-0.54167,0.22917 -1.10937,0.34375 -1.70312,0.34375zM316.32568,92.87638c0.52083,0 1.00521,-0.13021 1.45313,-0.39062c0.44792,-0.26042 0.80729,-0.61979 1.07813,-1.07812c0.28125,-0.45833 0.42188,-0.97917 0.42188,-1.5625c0,-0.59375 -0.13021,-1.10937 -0.39062,-1.54687c-0.25,-0.44792 -0.59896,-0.79687 -1.04687,-1.04687c-0.44792,-0.25 -0.95833,-0.375 -1.53125,-0.375c-0.54167,0 -1.03646,0.13021 -1.48437,0.39063c-0.4375,0.26042 -0.79167,0.61458 -1.0625,1.0625c-0.27083,0.44792 -0.40625,0.95833 -0.40625,1.53125c0,0.59375 0.13542,1.11979 0.40625,1.57813c0.28125,0.44792 0.64583,0.80208 1.09375,1.0625c0.45833,0.25 0.94792,0.375 1.46875,0.375zM327.30444,94.31388c-0.61458,0 -1.17187,-0.10937 -1.67187,-0.32812c-0.48958,-0.22917 -0.91146,-0.54167 -1.26562,-0.9375c-0.34375,-0.40625 -0.61458,-0.88542 -0.8125,-1.4375c-0.1875,-0.55208 -0.27604,-1.15625 -0.26562,-1.8125c0,-0.64583 0.09375,-1.23958 0.28125,-1.78125c0.1875,-0.55208 0.45833,-1.03125 0.8125,-1.4375c0.35417,-0.40625 0.77604,-0.71354 1.26563,-0.92187c0.48958,-0.21875 1.04167,-0.32812 1.65625,-0.32812c0.57292,0 1.10938,0.11458 1.60938,0.34375c0.5,0.21875 0.9375,0.53125 1.3125,0.9375c0.38542,0.39583 0.6875,0.875 0.90625,1.4375c0.21875,0.5625 0.32813,1.16667 0.32813,1.8125c0,0.64583 -0.10937,1.24479 -0.32812,1.79688c-0.21875,0.54167 -0.52083,1.01042 -0.90625,1.40625c-0.375,0.39583 -0.8125,0.70313 -1.3125,0.92188c-0.5,0.21875 -1.03646,0.32813 -1.60937,0.32813zM323.41382,98.06388c-0.22917,0 -0.40625,-0.03646 -0.53125,-0.10937c-0.11458,-0.0625 -0.19271,-0.15625 -0.23437,-0.28125c-0.04167,-0.125 -0.0625,-0.27604 -0.0625,-0.45312v-11.01562c0,-0.17708 0.01563,-0.32812 0.04688,-0.45312c0.04167,-0.125 0.11979,-0.21875 0.23438,-0.28125c0.125,-0.07292 0.30208,-0.10937 0.53125,-0.10937c0.27083,0 0.47396,0.04688 0.60938,0.14063c0.13542,0.08333 0.21354,0.23438 0.23438,0.45313v11.25c0.01042,0.17708 -0.00521,0.32813 -0.04687,0.45313c-0.03125,0.13542 -0.10937,0.23438 -0.23437,0.29688c-0.11458,0.07292 -0.29687,0.10938 -0.54687,0.10938zM327.05444,92.78263c0.52083,0 0.99479,-0.125 1.42188,-0.375c0.42708,-0.26042 0.76042,-0.61458 1,-1.0625c0.23958,-0.44792 0.35938,-0.95833 0.35938,-1.53125c0,-0.58333 -0.11979,-1.08854 -0.35937,-1.51562c-0.23958,-0.4375 -0.56771,-0.77604 -0.98437,-1.01562c-0.41667,-0.25 -0.89583,-0.375 -1.4375,-0.375c-0.52083,0 -0.98958,0.125 -1.40625,0.375c-0.41667,0.25 -0.74479,0.59375 -0.98437,1.03125c-0.23958,0.42708 -0.35937,0.92708 -0.35937,1.5c0,0.57292 0.11979,1.08333 0.35938,1.53125c0.23958,0.44792 0.56771,0.80208 0.98438,1.0625c0.41667,0.25 0.88542,0.375 1.40625,0.375z"/></g></g></svg>