<svg version="1.1" xmlns="http://www.w3.org/2000/svg" xmlns:xlink="http://www.w3.org/1999/xlink" width="405.35523" height="441.89102" viewBox="0,0,405.35523,441.89102"><defs><linearGradient x1="242.07338" y1="160.77731" x2="242.07338" y2="199.3941" gradientUnits="userSpaceOnUse" id="color-1"><stop offset="0" stop-color="#ff0000"/><stop offset="1" stop-color="#ff00b7"/></linearGradient><linearGradient x1="242.0668" y1="160.7773" x2="242.0668" y2="191.09096" gradientUnits="userSpaceOnUse" id="color-2"><stop offset="0" stop-color="#ffd500"/><stop offset="1" stop-color="#ff0000"/></linearGradient><linearGradient x1="222.36375" y1="166.32563" x2="222.36375" y2="190.05238" gradientUnits="userSpaceOnUse" id="color-3"><stop offset="0" stop-color="#2100ff"/><stop offset="1" stop-color="#b200ff"/></linearGradient><linearGradient x1="267.63371" y1="181.7073" x2="267.63371" y2="189.91093" gradientUnits="userSpaceOnUse" id="color-4"><stop offset="0" stop-color="#00ff00"/><stop offset="1" stop-color="#008cff"/></linearGradient><linearGradient x1="267.81732" y1="185.80377" x2="267.81732" y2="194.00739" gradientUnits="userSpaceOnUse" id="color-5"><stop offset="0" stop-color="#00ff00"/><stop offset="1" stop-color="#008cff"/></linearGradient><linearGradient x1="261.53565" y1="181.64551" x2="261.53565" y2="194.89362" gradientUnits="userSpaceOnUse" id="color-6"><stop offset="0" stop-color="#00ff00"/><stop offset="1" stop-color="#008cff"/></linearGradient><linearGradient x1="255.28534" y1="182.58647" x2="255.28534" y2="194.85471" gradientUnits="userSpaceOnUse" id="color-7"><stop offset="0" stop-color="#00ff00"/><stop offset="1" stop-color="#008cff"/></linearGradient></defs><g transform="translate(-37.5028,43.27403)"><g data-paper-data="{&quot;isPaintingLayer&quot;:true}" fill-rule="nonzero" stroke-linejoin="miter" stroke-miterlimit="10" stroke-dasharray="" stroke-dashoffset="0" style="mix-blend-mode: normal"><g><g stroke-linecap="butt"><g stroke="#000000" stroke-width="5"><path d="M266.19017,175.19188c2.09269,10.31283 -7.00828,20.86408 -20.32762,23.56686c-13.31934,2.70278 -25.81327,-3.46637 -27.90596,-13.7792c-2.09269,-10.31283 7.00828,-20.86409 20.32762,-23.56687c13.31934,-2.70278 25.81327,3.46638 27.90596,13.77921z" fill="#ffca00"/><path d="M266.19017,175.19188c2.09269,10.31283 -11.03188,14.59087 -22.08285,15.58248c-21.26214,1.90786 -28.02642,-5.13975 -26.06189,-12.20861c1.80047,-7.96087 9.69888,-15.01431 20.23879,-17.15309c13.31934,-2.70278 25.81327,3.46638 27.90596,13.77921z" fill="#ffe300"/></g><g stroke="none" stroke-width="0"><path d="M266.19017,175.19188c2.09269,10.31283 -7.00828,20.86408 -20.32762,23.56686c-13.31934,2.70278 -25.81327,-3.46637 -27.90596,-13.7792c-2.09269,-10.31283 7.00828,-20.86409 20.32762,-23.56687c13.31934,-2.70278 25.81327,3.46638 27.90596,13.77921z" fill="url(#color-1)"/><path d="M266.19017,175.19188c2.09269,10.31283 -11.03188,14.59087 -22.08285,15.58248c-21.26214,1.90786 -28.02642,-5.13975 -26.06189,-12.20861c1.80047,-7.96087 9.69888,-15.01431 20.23879,-17.15309c13.31934,-2.70278 25.81327,3.46638 27.90596,13.77921z" fill="url(#color-2)"/></g></g><g stroke-linecap="butt"><g fill="#ffffff" stroke="#000000" stroke-width="5"><g><path d="M212.98738,169.15744c0.64133,-2.12616 2.88484,-3.32986 5.011,-2.68853c2.12616,0.64133 3.32986,2.88483 2.68852,5.011c-0.64133,2.12616 -2.88483,3.32986 -5.01099,2.68853c-2.12616,-0.64133 -3.32987,-2.88483 -2.68853,-5.01099z"/><path d="M210.6099,176.6944c0.64133,-2.12616 2.88483,-3.32987 5.01099,-2.68853c2.12616,0.64133 3.32987,2.88484 2.68854,5.011c-0.64133,2.12616 -2.88483,3.32987 -5.01099,2.68853c-2.12616,-0.64133 -3.32986,-2.88484 -2.68853,-5.011z"/><path d="M208.25323,184.16232c0.64133,-2.12616 2.88484,-3.32987 5.011,-2.68853c2.12616,0.64133 3.32986,2.88483 2.68852,5.011c-0.64133,2.12616 -2.88483,3.32987 -5.01099,2.68854c-2.12616,-0.64133 -3.32986,-2.88484 -2.68852,-5.011z"/></g><path d="M211.23411,183.84162l6.3588,-17.51598c0,0 14.05295,3.54129 15.89249,7.91926c2.01907,4.80524 -1.71747,10.78752 -5.39802,13.05526c-7.9061,4.87129 -17.41295,1.79256 -17.41295,1.79256z"/></g><g stroke="none"><g stroke-width="0.5"><path d="M212.98738,169.15744c0.64133,-2.12616 2.88484,-3.32986 5.011,-2.68853c2.12616,0.64133 3.32986,2.88483 2.68852,5.011c-0.64133,2.12616 -2.88484,3.32986 -5.011,2.68853c-2.12616,-0.64133 -3.32986,-2.88483 -2.68852,-5.01099z" fill="#2100ff"/><path d="M210.6099,176.6944c0.64133,-2.12616 2.88483,-3.32987 5.01099,-2.68853c2.12616,0.64133 3.32987,2.88484 2.68853,5.011c-0.64133,2.12616 -2.88484,3.32987 -5.011,2.68853c-2.12616,-0.64133 -3.32986,-2.88484 -2.68852,-5.011z" fill="#6200ff"/><path d="M208.25323,184.16232c0.64133,-2.12616 2.88484,-3.32987 5.011,-2.68853c2.12616,0.64133 3.32986,2.88483 2.68852,5.011c-0.64133,2.12616 -2.88483,3.32987 -5.01099,2.68854c-2.12616,-0.64133 -3.32986,-2.88484 -2.68852,-5.011z" fill="#9700ff"/></g><path d="M210.67443,189.09272c0,0 3.24967,-9.92701 3.76217,-11.61349c1.17636,-3.87113 3.15632,-11.1536 3.15632,-11.1536c0,0 14.05295,3.5413 15.89249,7.91926c2.01907,4.80525 -1.71747,10.78752 -5.39802,13.05526c-7.90612,4.87129 -17.41295,1.79256 -17.41295,1.79256z" fill="url(#color-3)" stroke-width="0"/></g></g><path d="M263.20382,165.09838c4.53034,4.63767 6.40658,10.90629 4.19069,14.00136c-2.21588,3.09507 -7.68476,1.84455 -12.2151,-2.79312c-4.53034,-4.63767 -6.40658,-10.90629 -4.19069,-14.00136c2.21588,-3.09507 7.68476,-1.84454 12.2151,2.79313z" fill="#ffffff" stroke="#000000" stroke-width="2.5" stroke-linecap="butt"/><path d="M263.15268,173.04021l0.55525,3.37966" fill="none" stroke="#000000" stroke-width="2.5" stroke-linecap="round"/></g><g fill="#db5400" stroke="#000000" stroke-width="5" stroke-linecap="butt"><path d="M263.54226,186.09819c-0.15965,-2.25964 1.54274,-4.22087 3.80238,-4.38052c2.25965,-0.15965 4.22087,1.54274 4.38052,3.80238c0.15965,2.25964 -1.54272,4.22086 -3.80237,4.38051c-2.25964,0.15965 -4.22088,-1.54272 -4.38053,-3.80236z"/><path d="M263.72588,190.19467c-0.15965,-2.25964 1.54272,-4.22088 3.80237,-4.38053c2.25965,-0.15965 4.22087,1.54273 4.38052,3.80237c0.15965,2.25964 -1.54272,4.22086 -3.80237,4.38051c-2.25964,0.15965 -4.22087,-1.54272 -4.38052,-3.80237z"/><path d="M255.38252,194.89362l-0.87025,-12.31714l13.17651,-0.93097l0.87024,12.31715z"/><path d="M249.16673,189.15288c-0.23875,-3.37922 2.30709,-6.31216 5.68631,-6.5509c3.37922,-0.23875 6.31216,2.3071 6.55091,5.68631c0.23875,3.37922 -2.30709,6.31216 -5.68631,6.55091c-3.37922,0.23875 -6.31216,-2.3071 -6.5509,-5.68631z"/></g><path d="M263.54226,186.09819c-0.15965,-2.25964 1.54273,-4.22087 3.80238,-4.38052c2.25965,-0.15965 4.22087,1.54274 4.38052,3.80238c0.15965,2.25964 -1.54272,4.22086 -3.80237,4.38051c-2.25964,0.15965 -4.22087,-1.54272 -4.38052,-3.80236z" fill="url(#color-4)" stroke="none" stroke-width="0.5" stroke-linecap="butt"/><path d="M263.72588,190.19467c-0.15965,-2.25964 1.54272,-4.22088 3.80237,-4.38053c2.25965,-0.15965 4.22086,1.54273 4.38051,3.80237c0.15965,2.25964 -1.54271,4.22086 -3.80237,4.38051c-2.25964,0.15965 -4.22087,-1.54272 -4.38052,-3.80237z" fill="url(#color-5)" stroke="none" stroke-width="0.5" stroke-linecap="butt"/><path d="M255.38252,194.89362l-0.87024,-12.31714l13.17651,-0.93097l0.87024,12.31715z" fill="url(#color-6)" stroke="none" stroke-width="0" stroke-linecap="butt"/><path d="M249.16673,189.15288c-0.23875,-3.37922 2.30709,-6.31216 5.68631,-6.5509c3.37922,-0.23875 6.31216,2.3071 6.55091,5.68631c0.23875,3.37922 -2.30709,6.31216 -5.68631,6.55091c-3.37922,0.23875 -6.31216,-2.3071 -6.5509,-5.68631z" fill="url(#color-7)" stroke="none" stroke-width="0.5" stroke-linecap="butt"/><path d="M256.40334,188.74045l15.0655,-1.15053" fill="none" stroke="#000000" stroke-width="2.5" stroke-linecap="round"/><path d="M256.40335,188.74045l15.06551,-1.15053" fill="none" stroke="#000000" stroke-width="2.5" stroke-linecap="round"/><g fill="none" stroke="none" stroke-width="0.5" stroke-linecap="butt"><g><path d="M37.5028,-40.77402c0,-1.38071 1.11929,-2.5 2.5,-2.5c1.38071,0 2.5,1.11929 2.5,2.5c0,1.38071 -1.11929,2.5 -2.5,2.5c-1.38071,0 -2.5,-1.11929 -2.5,-2.5z"/><path d="M95.00064,385.46114c0,-1.38071 1.11929,-2.5 2.5,-2.5c1.38071,0 2.5,1.11929 2.5,2.5c0,1.38071 -1.11929,2.5 -2.5,2.5c-1.38071,0 -2.5,-1.11929 -2.5,-2.5z"/></g><g><path d="M427.21037,396.117c0,-1.38071 1.11929,-2.5 2.5,-2.5c1.38071,0 2.5,1.11929 2.5,2.5c0,1.38071 -1.11929,2.5 -2.5,2.5c-1.38071,0 -2.5,-1.11929 -2.5,-2.5z"/><path d="M437.85803,-40.77402c0,-1.38071 1.11929,-2.5 2.5,-2.5c1.38071,0 2.5,1.11929 2.5,2.5c0,1.38071 -1.11929,2.5 -2.5,2.5c-1.38071,0 -2.5,-1.11929 -2.5,-2.5z"/></g></g></g></g></svg>