<svg version="1.1" xmlns="http://www.w3.org/2000/svg" xmlns:xlink="http://www.w3.org/1999/xlink" width="140.99231" height="58.95734" viewBox="0,0,140.99231,58.95734"><g transform="translate(-169.5039,-150.52134)"><g data-paper-data="{&quot;isPaintingLayer&quot;:true}" stroke-linejoin="miter" stroke-miterlimit="10" stroke-dasharray="" stroke-dashoffset="0" style="mix-blend-mode: normal"><path d="M171.5039,168.38665v0c0,-8.76217 7.10314,-15.86531 15.86531,-15.86531l105.26168,0.20593v0c4.20774,0 8.24314,1.67152 11.21847,4.64684c2.97532,2.97532 4.64685,7.01074 4.64685,11.21848v23.02078c0,8.76217 -7.10314,15.86531 -15.86532,15.86531l-105.26168,-0.20593c-8.76217,0 -15.86531,-7.10314 -15.86531,-15.86531z" fill="#ececec" fill-rule="evenodd" stroke="#000000" stroke-width="4" stroke-linecap="square"/><path d="M171.5039,168.38664v0c0,-8.76216 7.10315,-15.86531 15.86532,-15.86531l105.26168,0.20594v0c4.20774,0 8.24314,1.67152 11.21846,4.64684c2.97532,2.97532 4.64685,7.01073 4.64685,11.21847v23.02078c0,8.76217 -7.10314,15.86531 -15.86532,15.86531l-105.26168,-0.20594c-8.76217,0 -15.86532,-7.10314 -15.86532,-15.86531z" fill="#ececec" fill-rule="evenodd" stroke="none" stroke-width="1" stroke-linecap="square"/><path d="M171.5039,168.38665v0c0,-8.76217 7.10314,-15.86531 15.86531,-15.86531l105.26168,0.20593v0c4.20774,0 8.24314,1.67152 11.21847,4.64684c2.97532,2.97532 4.64685,7.01073 4.64685,11.21847l-0.00828,19.67943c0,8.76217 -7.10314,15.86531 -15.86531,15.86531l-105.26168,-0.20593c-8.76217,0 -15.86532,-7.10314 -15.86532,-15.86531z" fill="#ffffff" fill-rule="evenodd" stroke="none" stroke-width="1" stroke-linecap="square"/><g fill-rule="nonzero" stroke="none" stroke-linecap="butt"><path d="M232.02335,189.92664c0,-4.81904 0,-12.62438 0,-15.42853c0,-1.98457 1.4534,-3.47391 3.46966,-2.1995c3.49178,2.20701 8.67167,5.48103 10.91416,6.89842c2.06763,1.30688 2.13081,4.7817 0.09263,6.00861c-2.28842,1.37755 -7.68949,4.62879 -11.20848,6.74711c-1.91172,1.15079 -3.26798,0.32638 -3.26798,-2.02609z" fill="#6a90d1" stroke-width="NaN"/><path d="M241.83494,182.8456v-5.06388h6.21393v5.06388z" fill="#6a90d1" stroke-width="0"/><path d="M231.95118,185.63424c0,-4.81904 0,-12.62438 0,-15.42853c0,-1.98457 1.4534,-3.4739 3.46966,-2.1995c3.49178,2.20701 8.67167,5.48103 10.91417,6.89842c2.06763,1.30688 2.13081,4.7817 0.09263,6.00861c-2.28842,1.37755 -7.6895,4.62879 -11.20849,6.74709c-1.91172,1.15079 -3.26798,0.32638 -3.26798,-2.02609z" fill="#82b0ff" stroke-width="NaN"/></g></g></g></svg>