<svg version="1.1" xmlns="http://www.w3.org/2000/svg" xmlns:xlink="http://www.w3.org/1999/xlink" width="12.76564" height="16.76565" viewBox="0,0,12.76564,16.76565"><g transform="translate(-233.61718,-171.61717)"><g data-paper-data="{&quot;isPaintingLayer&quot;:true}" fill-rule="nonzero" stroke-linecap="square" stroke-linejoin="miter" stroke-miterlimit="10" stroke-dasharray="" stroke-dashoffset="0" style="mix-blend-mode: normal"><path d="M240.0703,186.63278c-0.66667,0 -1.26042,-0.10417 -1.78125,-0.3125c-0.51042,-0.21875 -0.95312,-0.52083 -1.32812,-0.90625c-0.36458,-0.39583 -0.66667,-0.86979 -0.90625,-1.42187c-0.23958,-0.55208 -0.41667,-1.16146 -0.53125,-1.82812c-0.10417,-0.67708 -0.15625,-1.40104 -0.15625,-2.17187c0,-0.75 0.05208,-1.45833 0.15625,-2.125c0.11458,-0.66667 0.29167,-1.27083 0.53125,-1.8125c0.23958,-0.55208 0.54167,-1.02604 0.90625,-1.42187c0.36458,-0.40625 0.80208,-0.71875 1.3125,-0.9375c0.52083,-0.21875 1.10417,-0.32812 1.75,-0.32812c0.64583,0 1.21875,0.10938 1.71875,0.32813c0.51042,0.21875 0.94271,0.53125 1.29688,0.9375c0.36458,0.39583 0.66667,0.86979 0.90625,1.42188c0.23958,0.54167 0.41146,1.15104 0.51563,1.82813c0.11458,0.66667 0.17188,1.375 0.17188,2.125c0,0.76042 -0.05729,1.47917 -0.17187,2.15625c-0.10417,0.66667 -0.27604,1.27604 -0.51562,1.82813c-0.23958,0.54167 -0.54167,1.01042 -0.90625,1.40625c-0.35417,0.39583 -0.77604,0.70313 -1.26562,0.92188c-0.48958,0.20833 -1.05729,0.3125 -1.70312,0.3125zM239.99218,184.92968c0.58333,0 1.0625,-0.125 1.4375,-0.375c0.375,-0.26042 0.66667,-0.58854 0.875,-0.98437c0.20833,-0.39583 0.35938,-0.8125 0.45313,-1.25c0.09375,-0.44792 0.15104,-0.86979 0.17188,-1.26562c0.02083,-0.39583 0.03125,-0.71354 0.03125,-0.95312v-0.10937c0,-1.04167 -0.10937,-1.93229 -0.32812,-2.67187c-0.21875,-0.75 -0.54687,-1.31771 -0.98437,-1.70312c-0.4375,-0.38542 -0.98437,-0.57812 -1.64062,-0.57812c-0.65625,0 -1.20833,0.19271 -1.65625,0.57813c-0.4375,0.38542 -0.76562,0.94792 -0.98437,1.6875c-0.21875,0.72917 -0.32812,1.63021 -0.32812,2.70313c0,1.04167 0.10938,1.93229 0.32813,2.67188c0.21875,0.72917 0.54688,1.28646 0.98438,1.67188c0.44792,0.38542 0.99479,0.57813 1.64063,0.57813z" fill="#ffffff" stroke="#ffffff" stroke-width="3.5"/><path d="M240.0703,186.63279c-0.66667,0 -1.26042,-0.10417 -1.78125,-0.3125c-0.51042,-0.21875 -0.95312,-0.52083 -1.32812,-0.90625c-0.36458,-0.39583 -0.66667,-0.86979 -0.90625,-1.42187c-0.23958,-0.55208 -0.41667,-1.16146 -0.53125,-1.82812c-0.10417,-0.67708 -0.15625,-1.40104 -0.15625,-2.17187c0,-0.75 0.05208,-1.45833 0.15625,-2.125c0.11458,-0.66667 0.29167,-1.27083 0.53125,-1.8125c0.23958,-0.55208 0.54167,-1.02604 0.90625,-1.42187c0.36458,-0.40625 0.80208,-0.71875 1.3125,-0.9375c0.52083,-0.21875 1.10417,-0.32812 1.75,-0.32812c0.64583,0 1.21875,0.10938 1.71875,0.32813c0.51042,0.21875 0.94271,0.53125 1.29688,0.9375c0.36458,0.39583 0.66667,0.86979 0.90625,1.42188c0.23958,0.54167 0.41146,1.15104 0.51563,1.82813c0.11458,0.66667 0.17188,1.375 0.17188,2.125c0,0.76042 -0.05729,1.47917 -0.17187,2.15625c-0.10417,0.66667 -0.27604,1.27604 -0.51562,1.82813c-0.23958,0.54167 -0.54167,1.01042 -0.90625,1.40625c-0.35417,0.39583 -0.77604,0.70313 -1.26562,0.92188c-0.48958,0.20833 -1.05729,0.3125 -1.70312,0.3125zM239.99218,184.92968c0.58333,0 1.0625,-0.125 1.4375,-0.375c0.375,-0.26042 0.66667,-0.58854 0.875,-0.98437c0.20833,-0.39583 0.35938,-0.8125 0.45313,-1.25c0.09375,-0.44792 0.15104,-0.86979 0.17188,-1.26562c0.02083,-0.39583 0.03125,-0.71354 0.03125,-0.95312v-0.10937c0,-1.04167 -0.10937,-1.93229 -0.32812,-2.67187c-0.21875,-0.75 -0.54687,-1.31771 -0.98437,-1.70312c-0.4375,-0.38542 -0.98437,-0.57812 -1.64062,-0.57812c-0.65625,0 -1.20833,0.19271 -1.65625,0.57813c-0.4375,0.38542 -0.76562,0.94792 -0.98437,1.6875c-0.21875,0.72917 -0.32812,1.63021 -0.32812,2.70313c0,1.04167 0.10938,1.93229 0.32813,2.67188c0.21875,0.72917 0.54688,1.28646 0.98438,1.67188c0.44792,0.38542 0.99479,0.57813 1.64063,0.57813z" fill="#000000" stroke="#000000" stroke-width="2.5"/><path d="M240.0703,186.63278c-0.66667,0 -1.26042,-0.10417 -1.78125,-0.3125c-0.51042,-0.21875 -0.95312,-0.52083 -1.32812,-0.90625c-0.36458,-0.39583 -0.66667,-0.86979 -0.90625,-1.42187c-0.23958,-0.55208 -0.41667,-1.16146 -0.53125,-1.82812c-0.10417,-0.67708 -0.15625,-1.40104 -0.15625,-2.17187c0,-0.75 0.05208,-1.45833 0.15625,-2.125c0.11458,-0.66667 0.29167,-1.27083 0.53125,-1.8125c0.23958,-0.55208 0.54167,-1.02604 0.90625,-1.42187c0.36458,-0.40625 0.80208,-0.71875 1.3125,-0.9375c0.52083,-0.21875 1.10417,-0.32812 1.75,-0.32812c0.64583,0 1.21875,0.10938 1.71875,0.32813c0.51042,0.21875 0.94271,0.53125 1.29688,0.9375c0.36458,0.39583 0.66667,0.86979 0.90625,1.42188c0.23958,0.54167 0.41146,1.15104 0.51563,1.82813c0.11458,0.66667 0.17188,1.375 0.17188,2.125c0,0.76042 -0.05729,1.47917 -0.17187,2.15625c-0.10417,0.66667 -0.27604,1.27604 -0.51562,1.82813c-0.23958,0.54167 -0.54167,1.01042 -0.90625,1.40625c-0.35417,0.39583 -0.77604,0.70313 -1.26562,0.92188c-0.48958,0.20833 -1.05729,0.3125 -1.70312,0.3125zM239.99218,184.92968c0.58333,0 1.0625,-0.125 1.4375,-0.375c0.375,-0.26042 0.66667,-0.58854 0.875,-0.98437c0.20833,-0.39583 0.35938,-0.8125 0.45313,-1.25c0.09375,-0.44792 0.15104,-0.86979 0.17188,-1.26562c0.02083,-0.39583 0.03125,-0.71354 0.03125,-0.95312v-0.10937c0,-1.04167 -0.10937,-1.93229 -0.32812,-2.67187c-0.21875,-0.75 -0.54687,-1.31771 -0.98437,-1.70312c-0.4375,-0.38542 -0.98437,-0.57812 -1.64062,-0.57812c-0.65625,0 -1.20833,0.19271 -1.65625,0.57813c-0.4375,0.38542 -0.76562,0.94792 -0.98437,1.6875c-0.21875,0.72917 -0.32812,1.63021 -0.32812,2.70313c0,1.04167 0.10938,1.93229 0.32813,2.67188c0.21875,0.72917 0.54688,1.28646 0.98438,1.67188c0.44792,0.38542 0.99479,0.57813 1.64063,0.57813z" fill="#ffffff" stroke="none" stroke-width="1"/></g></g></svg>