<svg version="1.1" xmlns="http://www.w3.org/2000/svg" xmlns:xlink="http://www.w3.org/1999/xlink" width="140.99231" height="58.95734" viewBox="0,0,140.99231,58.95734"><g transform="translate(-169.50392,-150.52134)"><g data-paper-data="{&quot;isPaintingLayer&quot;:true}" stroke-linejoin="miter" stroke-miterlimit="10" stroke-dasharray="" stroke-dashoffset="0" style="mix-blend-mode: normal"><path d="M171.50393,168.38666v0c0,-8.76217 7.10314,-15.86531 15.86531,-15.86531l105.26168,0.20593v0c4.20774,0 8.24314,1.67152 11.21847,4.64684c2.97532,2.97532 4.64685,7.01074 4.64685,11.21848v23.02078c0,8.76217 -7.10314,15.86531 -15.86532,15.86531l-105.26168,-0.20593c-8.76217,0 -15.86531,-7.10314 -15.86531,-15.86531z" fill="#ececec" fill-rule="evenodd" stroke="#000000" stroke-width="4" stroke-linecap="square"/><path d="M171.50393,168.38665v0c0,-8.76216 7.10315,-15.86531 15.86532,-15.86531l105.26168,0.20594v0c4.20774,0 8.24314,1.67152 11.21846,4.64684c2.97532,2.97532 4.64685,7.01073 4.64685,11.21847v23.02078c0,8.76217 -7.10314,15.86531 -15.86532,15.86531l-105.26168,-0.20594c-8.76217,0 -15.86532,-7.10314 -15.86532,-15.86531z" fill="#6a90d1" fill-rule="evenodd" stroke="none" stroke-width="1" stroke-linecap="square"/><path d="M171.50393,168.38666v0c0,-8.76217 7.10314,-15.86531 15.86531,-15.86531l105.26168,0.20593v0c4.20774,0 8.24314,1.67152 11.21847,4.64684c2.97532,2.97532 4.64685,7.01073 4.64685,11.21847l-0.00828,19.67943c0,8.76217 -7.10314,15.86531 -15.86531,15.86531l-105.26168,-0.20593c-8.76217,0 -15.86532,-7.10314 -15.86532,-15.86531z" fill="#82b0ff" fill-rule="evenodd" stroke="none" stroke-width="1" stroke-linecap="square"/><g fill-rule="nonzero"><path d="M241.35807,189.32688c-0.53197,0 -0.90435,-0.11526 -1.11714,-0.34577c-0.19505,-0.21279 -0.29257,-0.5763 -0.29257,-1.09053v-19.36366c0,-0.53197 0.1064,-0.89548 0.31918,-1.09053c0.21279,-0.19505 0.58517,-0.29257 1.11714,-0.29257c0.51423,0 0.86889,0.11526 1.06393,0.34579c0.21279,0.21279 0.31918,0.5763 0.31918,1.09054v19.36366c0,0.49651 -0.1064,0.85115 -0.31918,1.06393c-0.19505,0.21279 -0.55856,0.31918 -1.09053,0.31918zM235.63941,175.0967c-0.40783,0.33692 -0.75363,0.50538 -1.03733,0.50538c-0.26598,-0.01774 -0.56743,-0.21279 -0.90435,-0.58517c-0.33692,-0.39012 -0.49651,-0.73589 -0.47877,-1.03733c0.03545,-0.30144 0.25711,-0.63836 0.66497,-1.01074l6.14425,-5.31969c0.35464,-0.33692 0.68269,-0.48764 0.98415,-0.45217c0.30144,0.01774 0.62062,0.20392 0.95754,0.55857c0.33692,0.37238 0.48764,0.70929 0.45218,1.01074c-0.01774,0.30144 -0.24825,0.64723 -0.69156,1.03735zM253.75422,189.45985c-1.13488,0 -2.14562,-0.17733 -3.03223,-0.53197c-0.86889,-0.37238 -1.6225,-0.88661 -2.26086,-1.54271c-0.62062,-0.67382 -1.13488,-1.48065 -1.54271,-2.42045c-0.40783,-0.9398 -0.70929,-1.97715 -0.90435,-3.11201c-0.17733,-1.15259 -0.26598,-2.38499 -0.26598,-3.69717c0,-1.27673 0.08866,-2.48252 0.26598,-3.61739c0.19505,-1.13488 0.49651,-2.16333 0.90435,-3.08542c0.40783,-0.9398 0.92208,-1.74663 1.54271,-2.42045c0.62062,-0.69156 1.36538,-1.22353 2.23427,-1.5959c0.88661,-0.37238 1.87963,-0.55856 2.97902,-0.55856c1.0994,0 2.07468,0.18619 2.92583,0.55857c0.86889,0.37238 1.60477,0.90435 2.20768,1.5959c0.62062,0.67382 1.13488,1.48065 1.54271,2.42047c0.40783,0.92208 0.70042,1.95941 0.87776,3.11203c0.19505,1.13488 0.29259,2.34066 0.29259,3.61739c0,1.29446 -0.09753,2.51799 -0.29257,3.67059c-0.17733,1.13488 -0.46991,2.1722 -0.87774,3.11203c-0.40783,0.92208 -0.92208,1.72004 -1.54271,2.39386c-0.60291,0.67382 -1.32105,1.19694 -2.15447,1.56932c-0.83342,0.35464 -1.79982,0.53197 -2.89922,0.53197zM253.62122,186.56065c0.993,0 1.80869,-0.21279 2.44706,-0.63836c0.63836,-0.44331 1.13488,-1.00187 1.48952,-1.67569c0.35464,-0.67382 0.61178,-1.38312 0.77136,-2.12788c0.15959,-0.7625 0.25711,-1.48065 0.29259,-2.15447c0.03545,-0.67382 0.05319,-1.21466 0.05319,-1.6225v-0.18618c0,-1.77324 -0.18618,-3.28934 -0.55856,-4.54833c-0.37238,-1.27673 -0.93093,-2.24314 -1.67569,-2.89922c-0.74476,-0.6561 -1.67569,-0.98414 -2.79283,-0.98414c-1.11714,0 -2.05694,0.32805 -2.81943,0.98415c-0.74476,0.6561 -1.30331,1.61364 -1.67569,2.87263c-0.37238,1.24127 -0.55856,2.77511 -0.55856,4.60154c0,1.77324 0.18619,3.28934 0.55857,4.54834c0.37238,1.24127 0.93095,2.18994 1.67571,2.84604c0.7625,0.6561 1.69343,0.98415 2.79285,0.98415zM272.39647,189.45985c-1.13488,0 -2.14562,-0.17733 -3.03223,-0.53197c-0.86889,-0.37238 -1.6225,-0.88661 -2.26086,-1.54271c-0.62062,-0.67382 -1.13488,-1.48065 -1.54271,-2.42045c-0.40783,-0.9398 -0.70929,-1.97715 -0.90435,-3.11201c-0.17733,-1.15259 -0.26598,-2.38499 -0.26598,-3.69717c0,-1.27673 0.08866,-2.48252 0.26598,-3.61739c0.19505,-1.13488 0.49651,-2.16333 0.90435,-3.08542c0.40783,-0.9398 0.92208,-1.74663 1.54271,-2.42045c0.62062,-0.69156 1.36538,-1.22353 2.23427,-1.5959c0.88661,-0.37238 1.87963,-0.55856 2.97902,-0.55856c1.0994,0 2.07468,0.18619 2.92583,0.55857c0.86889,0.37238 1.60477,0.90435 2.20768,1.5959c0.62062,0.67382 1.13488,1.48065 1.54271,2.42047c0.40783,0.92208 0.70042,1.95941 0.87776,3.11203c0.19505,1.13488 0.29259,2.34066 0.29259,3.61739c0,1.29446 -0.09753,2.51799 -0.29257,3.67059c-0.17733,1.13488 -0.46991,2.1722 -0.87774,3.11203c-0.40783,0.92208 -0.92208,1.72004 -1.54271,2.39386c-0.60291,0.67382 -1.32105,1.19694 -2.15447,1.56932c-0.83342,0.35464 -1.79982,0.53197 -2.89922,0.53197zM272.26347,186.56065c0.993,0 1.80869,-0.21279 2.44706,-0.63836c0.63836,-0.44331 1.13488,-1.00187 1.48952,-1.67569c0.35464,-0.67382 0.61178,-1.38312 0.77136,-2.12788c0.15959,-0.7625 0.25711,-1.48065 0.29259,-2.15447c0.03545,-0.67382 0.05319,-1.21466 0.05319,-1.6225v-0.18618c0,-1.77324 -0.18618,-3.28934 -0.55856,-4.54833c-0.37238,-1.27673 -0.93093,-2.24314 -1.67569,-2.89922c-0.74476,-0.6561 -1.67569,-0.98414 -2.79283,-0.98414c-1.11714,0 -2.05694,0.32805 -2.81943,0.98415c-0.74476,0.6561 -1.30331,1.61364 -1.67569,2.87263c-0.37238,1.24127 -0.55856,2.77511 -0.55856,4.60154c0,1.77324 0.18619,3.28934 0.55857,4.54834c0.37238,1.24127 0.93095,2.18994 1.67571,2.84604c0.7625,0.6561 1.69343,0.98415 2.79285,0.98415z" fill="#ffffff" stroke="none" stroke-width="1" stroke-linecap="square"/><g><g fill="#000000" stroke="#000000" stroke-width="4" stroke-linecap="butt"><path d="M197.62483,179.73314c0,-6.85088 5.55373,-12.40461 12.40461,-12.40461c6.85088,0 12.40461,5.55373 12.40461,12.40461c0,6.85088 -5.55373,12.40461 -12.40461,12.40461c-6.85088,0 -12.40461,-5.55373 -12.40461,-12.40461z"/><path d="M197.575,178.00591c0,-6.85088 5.55373,-12.40461 12.40461,-12.40461c6.85088,0 12.40461,5.55373 12.40461,12.40461c0,6.85088 -5.55373,12.40461 -12.40461,12.40461c-6.85088,0 -12.40461,-5.55373 -12.40461,-12.40461z"/></g><g stroke="none" stroke-width="0" stroke-linecap="butt"><path d="M197.62483,179.73314c0,-6.85088 5.55373,-12.40461 12.40461,-12.40461c6.85088,0 12.40461,5.55373 12.40461,12.40461c0,6.85088 -5.55373,12.40461 -12.40461,12.40461c-6.85088,0 -12.40461,-5.55373 -12.40461,-12.40461z" fill="#d0b153"/><path d="M197.575,178.00591c0,-6.85088 5.55373,-12.40461 12.40461,-12.40461c6.85088,0 12.40461,5.55373 12.40461,12.40461c0,6.85088 -5.55373,12.40461 -12.40461,12.40461c-6.85088,0 -12.40461,-5.55373 -12.40461,-12.40461z" fill="#ffd966"/></g><path d="M210.01041,184.78952l-0.0616,-13.56722" fill="none" stroke="#ffbf00" stroke-width="4" stroke-linecap="round"/></g></g></g></g></svg>