<svg version="1.1" xmlns="http://www.w3.org/2000/svg" xmlns:xlink="http://www.w3.org/1999/xlink" width="15.48407" height="16.54691" viewBox="0,0,15.48407,16.54691"><g transform="translate(-231.01597,-171.72654)"><g data-paper-data="{&quot;isPaintingLayer&quot;:true}" fill-rule="nonzero" stroke-linecap="square" stroke-linejoin="miter" stroke-miterlimit="10" stroke-dasharray="" stroke-dashoffset="0" style="mix-blend-mode: normal"><path d="M236.06246,186.52335c-0.20833,0 -0.39583,-0.08854 -0.5625,-0.26562c-0.16667,-0.1875 -0.25,-0.39583 -0.25,-0.625c0,-0.16667 0,-0.33854 0,-0.51562c0.01042,-0.17708 0.05208,-0.34896 0.125,-0.51562c0.07292,-0.17708 0.21875,-0.33854 0.4375,-0.48437c0.67708,-0.5 1.34375,-0.96354 2,-1.39062c0.65625,-0.4375 1.26563,-0.85417 1.82813,-1.25c0.5625,-0.39583 1.05729,-0.79167 1.48438,-1.1875c0.42708,-0.39583 0.76042,-0.80729 1,-1.23437c0.23958,-0.4375 0.35938,-0.91146 0.35938,-1.42187c0,-0.51042 -0.10417,-0.94792 -0.3125,-1.3125c-0.19792,-0.36458 -0.50521,-0.65104 -0.92187,-0.85937c-0.40625,-0.20833 -0.91667,-0.3125 -1.53125,-0.3125c-0.4375,0 -0.83333,0.06771 -1.1875,0.20313c-0.34375,0.13542 -0.63542,0.32813 -0.875,0.57813c-0.23958,0.23958 -0.42187,0.54167 -0.54687,0.90625c-0.125,0.36458 -0.1875,0.77604 -0.1875,1.23438c0,0.1875 -0.01562,0.34375 -0.04687,0.46875c-0.03125,0.11458 -0.10417,0.20313 -0.21875,0.26563c-0.11458,0.0625 -0.3125,0.09375 -0.59375,0.09375c-0.27083,0 -0.46354,-0.04167 -0.57812,-0.125c-0.11458,-0.08333 -0.18229,-0.19792 -0.20312,-0.34375c-0.02083,-0.15625 -0.03125,-0.32812 -0.03125,-0.51562c0,-0.64583 0.09896,-1.23958 0.29688,-1.78125c0.19792,-0.54167 0.48958,-1.01042 0.875,-1.40625c0.38542,-0.39583 0.84896,-0.70312 1.39063,-0.92187c0.55208,-0.21875 1.18229,-0.32812 1.89063,-0.32812c0.90625,0 1.69271,0.16667 2.35938,0.5c0.66667,0.33333 1.1875,0.82292 1.5625,1.46875c0.375,0.63542 0.5625,1.42188 0.5625,2.35938c0,0.42708 -0.0625,0.83333 -0.1875,1.21875c-0.125,0.38542 -0.3125,0.75521 -0.5625,1.10938c-0.23958,0.35417 -0.52604,0.69792 -0.85937,1.03125c-0.32292,0.32292 -0.69271,0.64583 -1.10937,0.96875c-0.41667,0.32292 -0.86979,0.65104 -1.35937,0.98438c-0.47917,0.32292 -0.98437,0.65625 -1.51562,1l-1.1875,0.70313h6.5c0.17708,0 0.32813,0.02083 0.45313,0.0625c0.125,0.03125 0.21875,0.10938 0.28125,0.23438c0.07292,0.125 0.10938,0.3125 0.10938,0.5625c0,0.23958 -0.04167,0.42188 -0.125,0.54688c-0.07292,0.11458 -0.17187,0.19271 -0.29687,0.23438c-0.125,0.04167 -0.27604,0.0625 -0.45312,0.0625z" fill="#ffffff" stroke="#ffffff" stroke-width="3.5"/><path d="M236.06246,186.52337c-0.20833,0 -0.39583,-0.08854 -0.5625,-0.26562c-0.16667,-0.1875 -0.25,-0.39583 -0.25,-0.625c0,-0.16667 0,-0.33854 0,-0.51562c0.01042,-0.17708 0.05208,-0.34896 0.125,-0.51562c0.07292,-0.17708 0.21875,-0.33854 0.4375,-0.48437c0.67708,-0.5 1.34375,-0.96354 2,-1.39062c0.65625,-0.4375 1.26563,-0.85417 1.82813,-1.25c0.5625,-0.39583 1.05729,-0.79167 1.48438,-1.1875c0.42708,-0.39583 0.76042,-0.80729 1,-1.23437c0.23958,-0.4375 0.35938,-0.91146 0.35938,-1.42187c0,-0.51042 -0.10417,-0.94792 -0.3125,-1.3125c-0.19792,-0.36458 -0.50521,-0.65104 -0.92187,-0.85937c-0.40625,-0.20833 -0.91667,-0.3125 -1.53125,-0.3125c-0.4375,0 -0.83333,0.06771 -1.1875,0.20313c-0.34375,0.13542 -0.63542,0.32813 -0.875,0.57813c-0.23958,0.23958 -0.42187,0.54167 -0.54687,0.90625c-0.125,0.36458 -0.1875,0.77604 -0.1875,1.23438c0,0.1875 -0.01562,0.34375 -0.04687,0.46875c-0.03125,0.11458 -0.10417,0.20313 -0.21875,0.26563c-0.11458,0.0625 -0.3125,0.09375 -0.59375,0.09375c-0.27083,0 -0.46354,-0.04167 -0.57812,-0.125c-0.11458,-0.08333 -0.18229,-0.19792 -0.20312,-0.34375c-0.02083,-0.15625 -0.03125,-0.32812 -0.03125,-0.51562c0,-0.64583 0.09896,-1.23958 0.29688,-1.78125c0.19792,-0.54167 0.48958,-1.01042 0.875,-1.40625c0.38542,-0.39583 0.84896,-0.70312 1.39063,-0.92187c0.55208,-0.21875 1.18229,-0.32812 1.89063,-0.32812c0.90625,0 1.69271,0.16667 2.35938,0.5c0.66667,0.33333 1.1875,0.82292 1.5625,1.46875c0.375,0.63542 0.5625,1.42188 0.5625,2.35938c0,0.42708 -0.0625,0.83333 -0.1875,1.21875c-0.125,0.38542 -0.3125,0.75521 -0.5625,1.10938c-0.23958,0.35417 -0.52604,0.69792 -0.85937,1.03125c-0.32292,0.32292 -0.69271,0.64583 -1.10937,0.96875c-0.41667,0.32292 -0.86979,0.65104 -1.35937,0.98438c-0.47917,0.32292 -0.98437,0.65625 -1.51562,1l-1.1875,0.70313h6.5c0.17708,0 0.32813,0.02083 0.45313,0.0625c0.125,0.03125 0.21875,0.10938 0.28125,0.23438c0.07292,0.125 0.10938,0.3125 0.10938,0.5625c0,0.23958 -0.04167,0.42188 -0.125,0.54688c-0.07292,0.11458 -0.17187,0.19271 -0.29687,0.23438c-0.125,0.04167 -0.27604,0.0625 -0.45312,0.0625z" fill="#000000" stroke="#000000" stroke-width="2.5"/><path d="M236.06246,186.52337c-0.20833,0 -0.39583,-0.08854 -0.5625,-0.26562c-0.16667,-0.1875 -0.25,-0.39583 -0.25,-0.625c0,-0.16667 0,-0.33854 0,-0.51562c0.01042,-0.17708 0.05208,-0.34896 0.125,-0.51562c0.07292,-0.17708 0.21875,-0.33854 0.4375,-0.48437c0.67708,-0.5 1.34375,-0.96354 2,-1.39062c0.65625,-0.4375 1.26563,-0.85417 1.82813,-1.25c0.5625,-0.39583 1.05729,-0.79167 1.48438,-1.1875c0.42708,-0.39583 0.76042,-0.80729 1,-1.23437c0.23958,-0.4375 0.35938,-0.91146 0.35938,-1.42187c0,-0.51042 -0.10417,-0.94792 -0.3125,-1.3125c-0.19792,-0.36458 -0.50521,-0.65104 -0.92187,-0.85937c-0.40625,-0.20833 -0.91667,-0.3125 -1.53125,-0.3125c-0.4375,0 -0.83333,0.06771 -1.1875,0.20313c-0.34375,0.13542 -0.63542,0.32813 -0.875,0.57813c-0.23958,0.23958 -0.42187,0.54167 -0.54687,0.90625c-0.125,0.36458 -0.1875,0.77604 -0.1875,1.23438c0,0.1875 -0.01562,0.34375 -0.04687,0.46875c-0.03125,0.11458 -0.10417,0.20313 -0.21875,0.26563c-0.11458,0.0625 -0.3125,0.09375 -0.59375,0.09375c-0.27083,0 -0.46354,-0.04167 -0.57812,-0.125c-0.11458,-0.08333 -0.18229,-0.19792 -0.20312,-0.34375c-0.02083,-0.15625 -0.03125,-0.32812 -0.03125,-0.51562c0,-0.64583 0.09896,-1.23958 0.29688,-1.78125c0.19792,-0.54167 0.48958,-1.01042 0.875,-1.40625c0.38542,-0.39583 0.84896,-0.70312 1.39063,-0.92187c0.55208,-0.21875 1.18229,-0.32812 1.89063,-0.32812c0.90625,0 1.69271,0.16667 2.35938,0.5c0.66667,0.33333 1.1875,0.82292 1.5625,1.46875c0.375,0.63542 0.5625,1.42188 0.5625,2.35938c0,0.42708 -0.0625,0.83333 -0.1875,1.21875c-0.125,0.38542 -0.3125,0.75521 -0.5625,1.10938c-0.23958,0.35417 -0.52604,0.69792 -0.85937,1.03125c-0.32292,0.32292 -0.69271,0.64583 -1.10937,0.96875c-0.41667,0.32292 -0.86979,0.65104 -1.35937,0.98438c-0.47917,0.32292 -0.98437,0.65625 -1.51562,1l-1.1875,0.70313h6.5c0.17708,0 0.32813,0.02083 0.45313,0.0625c0.125,0.03125 0.21875,0.10938 0.28125,0.23438c0.07292,0.125 0.10938,0.3125 0.10938,0.5625c0,0.23958 -0.04167,0.42188 -0.125,0.54688c-0.07292,0.11458 -0.17187,0.19271 -0.29687,0.23438c-0.125,0.04167 -0.27604,0.0625 -0.45312,0.0625z" fill="#ffffff" stroke="none" stroke-width="1"/></g></g></svg>