<svg version="1.1" xmlns="http://www.w3.org/2000/svg" xmlns:xlink="http://www.w3.org/1999/xlink" width="21.55363" height="49.40332" viewBox="0,0,21.55363,49.40332"><g transform="translate(-229.22318,-155.29834)"><g data-paper-data="{&quot;isPaintingLayer&quot;:true}" fill="#ffffff" fill-rule="nonzero" stroke="#ffffff" stroke-width="0.5" stroke-linecap="square" stroke-linejoin="miter" stroke-miterlimit="10" stroke-dasharray="" stroke-dashoffset="0" style="mix-blend-mode: normal"><path d="M247.41907,204.45166c-1.17274,0 -1.99366,-0.2541 -2.46276,-0.76228c-0.43001,-0.4691 -0.64501,-1.27046 -0.64501,-2.40412v-42.68779c0,-1.17274 0.23455,-1.97411 0.70364,-2.40412c0.4691,-0.43001 1.29002,-0.64501 2.46276,-0.64501c1.13366,0 1.91547,0.2541 2.34548,0.76228c0.4691,0.4691 0.70364,1.27046 0.70364,2.40412v42.68779c0,1.09455 -0.23455,1.87639 -0.70364,2.34548c-0.43001,0.4691 -1.23138,0.70364 -2.40412,0.70364zM234.8121,173.08083c-0.89911,0.74273 -1.66139,1.1141 -2.28685,1.1141c-0.58637,-0.03909 -1.25093,-0.4691 -1.99366,-1.29002c-0.74273,-0.86 -1.09455,-1.62229 -1.05547,-2.28685c0.07819,-0.66456 0.56682,-1.40729 1.46593,-2.22821l13.54516,-11.72741c0.78183,-0.74273 1.50501,-1.07502 2.16957,-0.99683c0.66456,0.03909 1.3682,0.44954 2.11093,1.23138c0.74273,0.82092 1.07502,1.56365 0.99683,2.22821c-0.03909,0.66456 -0.54729,1.42684 -1.52456,2.28685z"/></g></g></svg>