<svg version="1.1" xmlns="http://www.w3.org/2000/svg" xmlns:xlink="http://www.w3.org/1999/xlink" width="75.14486" height="37.19439" viewBox="0,0,75.14486,37.19439"><g transform="translate(-202.42757,-161.4028)"><g data-paper-data="{&quot;isPaintingLayer&quot;:true}" fill-rule="nonzero" stroke-linecap="butt" stroke-linejoin="miter" stroke-miterlimit="10" stroke-dasharray="" stroke-dashoffset="0" style="mix-blend-mode: normal"><g stroke="#000000" stroke-width="4"><g fill="#6a90d1"><path d="M242.66278,180.14236c0,-9.08774 7.36709,-16.45482 16.45483,-16.45482c9.08774,0 16.45482,7.36709 16.45482,16.45483c0,9.08774 -7.36708,16.45483 -16.45482,16.45483c-9.08774,0 -16.45483,-7.36709 -16.45483,-16.45483z"/><path d="M220.44513,196.59717v-33.19434h39.10974v33.19434z"/><path d="M204.42757,179.85764c0,-9.08774 7.36709,-16.45482 16.45483,-16.45482c9.08774,0 16.45483,7.36709 16.45483,16.45483c0,9.08774 -7.36709,16.45483 -16.45482,16.45483c-9.08774,0 -16.45483,-7.36709 -16.45483,-16.45483z"/></g><g fill="#82b0ff"><path d="M242.66278,178.93603c0,-8.43284 7.36709,-15.26902 16.45483,-15.26902c9.08774,0 16.45482,6.83619 16.45482,15.26903c0,8.43284 -7.36708,15.26903 -16.45482,15.26903c-9.08774,0 -16.45483,-6.83619 -16.45483,-15.26903z"/><path d="M220.44513,194.20505v-30.80223h39.10974v30.80223z"/><path d="M204.42757,178.67183c0,-8.43284 7.36709,-15.26902 16.45483,-15.26902c9.08774,0 16.45483,6.83619 16.45483,15.26903c0,8.43284 -7.36709,15.26903 -16.45482,15.26903c-9.08774,0 -16.45483,-6.83619 -16.45483,-15.26903z"/></g></g><g stroke="none"><g fill="#6a90d1"><path d="M242.66278,180.14237c0,-9.08774 7.36709,-16.45482 16.45483,-16.45482c9.08774,0 16.45482,7.36709 16.45482,16.45483c0,9.08774 -7.36708,16.45483 -16.45482,16.45483c-9.08774,0 -16.45483,-7.36709 -16.45483,-16.45483z" stroke-width="0.5"/><path d="M220.44513,196.59718v-33.19434h39.10974v33.19434z" stroke-width="0"/><path d="M204.42757,179.85765c0,-9.08774 7.36709,-16.45482 16.45483,-16.45482c9.08774,0 16.45483,7.36709 16.45483,16.45483c0,9.08774 -7.36709,16.45483 -16.45482,16.45483c-9.08774,0 -16.45483,-7.36709 -16.45483,-16.45483z" stroke-width="0.5"/></g><g fill="#82b0ff"><path d="M242.66278,178.93603c0,-8.43284 7.36709,-15.26902 16.45483,-15.26902c9.08774,0 16.45482,6.83619 16.45482,15.26903c0,8.43284 -7.36708,15.26903 -16.45482,15.26903c-9.08774,0 -16.45483,-6.83619 -16.45483,-15.26903z" stroke-width="0.5"/><path d="M220.44513,194.20506v-30.80223h39.10974v30.80223z" stroke-width="0"/><path d="M204.42757,178.67184c0,-8.43284 7.36709,-15.26902 16.45483,-15.26902c9.08774,0 16.45483,6.83619 16.45483,15.26903c0,8.43284 -7.36709,15.26903 -16.45482,15.26903c-9.08774,0 -16.45483,-6.83619 -16.45483,-15.26903z" stroke-width="0.5"/></g></g><path d="M247.86097,178.83587c0,-6.76195 5.48166,-12.24361 12.24361,-12.24361c6.76195,0 12.2436,5.48165 12.2436,12.24361c0,6.76195 -5.48165,12.24361 -12.2436,12.24361c-6.76195,0 -12.24361,-5.48166 -12.24361,-12.24361z" fill="#ffffff" stroke="none" stroke-width="0.5"/></g></g></svg>