<svg version="1.1" xmlns="http://www.w3.org/2000/svg" xmlns:xlink="http://www.w3.org/1999/xlink" width="22.90877" height="24.25214" viewBox="0,0,22.90877,24.25214"><g transform="translate(-228.54562,-167.87393)"><g data-paper-data="{&quot;isPaintingLayer&quot;:true}" fill-rule="nonzero" stroke-linejoin="miter" stroke-miterlimit="10" stroke-dasharray="" stroke-dashoffset="0" style="mix-blend-mode: normal"><g fill="#000000" stroke="#000000" stroke-width="3" stroke-linecap="butt"><path d="M230.08553,180.69164c0,-5.48663 4.44779,-9.93443 9.93443,-9.93443c5.48663,0 9.93443,4.44779 9.93443,9.93443c0,5.48663 -4.44779,9.93443 -9.93443,9.93443c-5.48663,0 -9.93443,-4.44779 -9.93443,-9.93443z"/><path d="M230.04562,179.30836c0,-5.48663 4.44779,-9.93443 9.93443,-9.93443c5.48663,0 9.93443,4.44779 9.93443,9.93443c0,5.48663 -4.44779,9.93443 -9.93443,9.93443c-5.48663,0 -9.93443,-4.44779 -9.93443,-9.93443z"/></g><g stroke="none" stroke-width="0" stroke-linecap="butt"><path d="M230.08553,180.69164c0,-5.48663 4.44779,-9.93443 9.93443,-9.93443c5.48663,0 9.93443,4.44779 9.93443,9.93443c0,5.48663 -4.44779,9.93443 -9.93443,9.93443c-5.48663,0 -9.93443,-4.44779 -9.93443,-9.93443z" fill="#d0b153"/><path d="M230.04562,179.30836c0,-5.48663 4.44779,-9.93443 9.93443,-9.93443c5.48663,0 9.93443,4.44779 9.93443,9.93443c0,5.48663 -4.44779,9.93443 -9.93443,9.93443c-5.48663,0 -9.93443,-4.44779 -9.93443,-9.93443z" fill="#ffd966"/></g><path d="M240.00472,184.74112l-0.04934,-10.86552" fill="none" stroke="#ffbf00" stroke-width="3" stroke-linecap="round"/></g></g></svg>