<svg version="1.1" xmlns="http://www.w3.org/2000/svg" xmlns:xlink="http://www.w3.org/1999/xlink" width="405.35523" height="441.89102" viewBox="0,0,405.35523,441.89102"><defs><linearGradient x1="242.03311" y1="160.3568" x2="242.03311" y2="198.97359" gradientUnits="userSpaceOnUse" id="color-1"><stop offset="0" stop-color="#ffc500"/><stop offset="1" stop-color="#ffbf00"/></linearGradient><linearGradient x1="242.02653" y1="160.35679" x2="242.02653" y2="190.67045" gradientUnits="userSpaceOnUse" id="color-2"><stop offset="0" stop-color="#ffe30e"/><stop offset="1" stop-color="#ffbf00"/></linearGradient><radialGradient cx="242.10137" cy="165.39182" r="10.71132" gradientUnits="userSpaceOnUse" id="color-3"><stop offset="0" stop-color="#ffffff"/><stop offset="1" stop-color="#ffffff" stop-opacity="0"/></radialGradient><radialGradient cx="242.10137" cy="165.39182" r="11.26907" gradientUnits="userSpaceOnUse" id="color-4"><stop offset="0" stop-color="#ffffff"/><stop offset="1" stop-color="#ffffff" stop-opacity="0"/></radialGradient><radialGradient cx="242.10138" cy="165.39182" r="3.47321" gradientUnits="userSpaceOnUse" id="color-5"><stop offset="0" stop-color="#ffffff"/><stop offset="1" stop-color="#ffffff" stop-opacity="0"/></radialGradient><radialGradient cx="229.45933" cy="194.8294" r="9.57058" gradientUnits="userSpaceOnUse" id="color-6"><stop offset="0" stop-color="#ffffff"/><stop offset="1" stop-color="#ffffff" stop-opacity="0"/></radialGradient><radialGradient cx="229.45933" cy="194.8294" r="10.06893" gradientUnits="userSpaceOnUse" id="color-7"><stop offset="0" stop-color="#ffffff"/><stop offset="1" stop-color="#ffffff" stop-opacity="0"/></radialGradient><radialGradient cx="229.45933" cy="194.8294" r="3.10332" gradientUnits="userSpaceOnUse" id="color-8"><stop offset="0" stop-color="#ffffff"/><stop offset="1" stop-color="#ffffff" stop-opacity="0"/></radialGradient><radialGradient cx="217.10146" cy="171.60375" r="6.29712" gradientUnits="userSpaceOnUse" id="color-9"><stop offset="0" stop-color="#ffffff"/><stop offset="1" stop-color="#ffffff" stop-opacity="0"/></radialGradient><radialGradient cx="217.10146" cy="171.60375" r="6.62502" gradientUnits="userSpaceOnUse" id="color-10"><stop offset="0" stop-color="#ffffff"/><stop offset="1" stop-color="#ffffff" stop-opacity="0"/></radialGradient><radialGradient cx="217.10146" cy="171.60375" r="2.04188" gradientUnits="userSpaceOnUse" id="color-11"><stop offset="0" stop-color="#ffffff"/><stop offset="1" stop-color="#ffffff" stop-opacity="0"/></radialGradient></defs><g transform="translate(-37.5028,43.27401)"><g data-paper-data="{&quot;isPaintingLayer&quot;:true}" fill-rule="nonzero" stroke-linejoin="miter" stroke-miterlimit="10" stroke-dasharray="" stroke-dashoffset="0" style="mix-blend-mode: normal"><g fill="none" stroke="none" stroke-width="0.5" stroke-linecap="butt"><g><path d="M37.5028,-40.77401c0,-1.38071 1.11929,-2.5 2.5,-2.5c1.38071,0 2.5,1.11929 2.5,2.5c0,1.38071 -1.11929,2.5 -2.5,2.5c-1.38071,0 -2.5,-1.11929 -2.5,-2.5z"/><path d="M95.00064,385.46115c0,-1.38071 1.11929,-2.5 2.5,-2.5c1.38071,0 2.5,1.11929 2.5,2.5c0,1.38071 -1.11929,2.5 -2.5,2.5c-1.38071,0 -2.5,-1.11929 -2.5,-2.5z"/></g><g><path d="M427.21037,396.11701c0,-1.38071 1.11929,-2.5 2.5,-2.5c1.38071,0 2.5,1.11929 2.5,2.5c0,1.38071 -1.11929,2.5 -2.5,2.5c-1.38071,0 -2.5,-1.11929 -2.5,-2.5z"/><path d="M437.85803,-40.77401c0,-1.38071 1.11929,-2.5 2.5,-2.5c1.38071,0 2.5,1.11929 2.5,2.5c0,1.38071 -1.11929,2.5 -2.5,2.5c-1.38071,0 -2.5,-1.11929 -2.5,-2.5z"/></g></g><path d="M266.1499,174.77137c2.09269,10.31283 -7.00828,20.86408 -20.32762,23.56686c-13.31934,2.70278 -25.81327,-3.46637 -27.90596,-13.7792c-2.09269,-10.31283 7.00828,-20.86409 20.32762,-23.56687c13.31934,-2.70278 25.81327,3.46638 27.90596,13.77921z" fill="#ffca00" stroke="#000000" stroke-width="5" stroke-linecap="butt"/><path d="M266.1499,174.77137c2.09269,10.31283 -11.03188,14.59087 -22.08285,15.58248c-21.26214,1.90786 -28.02642,-5.13975 -26.06189,-12.20861c1.80047,-7.96087 9.69888,-15.01431 20.23879,-17.15309c13.31934,-2.70278 25.81327,3.46638 27.90596,13.77921z" fill="#ffe300" stroke="#000000" stroke-width="5" stroke-linecap="butt"/><path d="M266.1499,174.77137c2.09269,10.31283 -7.00828,20.86408 -20.32762,23.56686c-13.31934,2.70278 -25.81327,-3.46637 -27.90596,-13.7792c-2.09269,-10.31283 7.00828,-20.86409 20.32762,-23.56687c13.31934,-2.70278 25.81327,3.46638 27.90596,13.77921z" fill="url(#color-1)" stroke="none" stroke-width="0" stroke-linecap="butt"/><path d="M266.1499,174.77137c2.09269,10.31283 -11.03188,14.59087 -22.08285,15.58248c-21.26214,1.90786 -28.02642,-5.13975 -26.06189,-12.20861c1.80047,-7.96087 9.69888,-15.01431 20.23879,-17.15309c13.31934,-2.70278 25.81327,3.46638 27.90596,13.77921z" fill="url(#color-2)" stroke="none" stroke-width="0" stroke-linecap="butt"/><path d="M212.94711,168.73693c0.64133,-2.12616 2.88484,-3.32986 5.011,-2.68853c2.12616,0.64133 3.32986,2.88483 2.68852,5.011c-0.64133,2.12616 -2.88483,3.32986 -5.01099,2.68853c-2.12616,-0.64133 -3.32987,-2.88483 -2.68853,-5.01099z" fill="#ffffff" stroke="#000000" stroke-width="5" stroke-linecap="butt"/><path d="M210.56963,176.27389c0.64133,-2.12616 2.88483,-3.32987 5.01099,-2.68853c2.12616,0.64133 3.32987,2.88484 2.68854,5.011c-0.64133,2.12616 -2.88483,3.32987 -5.01099,2.68853c-2.12616,-0.64133 -3.32986,-2.88484 -2.68853,-5.011z" fill="#ffffff" stroke="#000000" stroke-width="5" stroke-linecap="butt"/><path d="M208.21296,183.74181c0.64133,-2.12616 2.88484,-3.32987 5.011,-2.68853c2.12616,0.64133 3.32986,2.88483 2.68852,5.011c-0.64133,2.12616 -2.88483,3.32987 -5.01099,2.68854c-2.12616,-0.64133 -3.32986,-2.88484 -2.68852,-5.011z" fill="#ffffff" stroke="#000000" stroke-width="5" stroke-linecap="butt"/><path d="M211.19384,183.42111l6.3588,-17.51598c0,0 14.05295,3.54129 15.89249,7.91926c2.01907,4.80524 -1.71747,10.78752 -5.39802,13.05526c-7.9061,4.87129 -17.41295,1.79256 -17.41295,1.79256z" fill="#ffffff" stroke="#000000" stroke-width="5" stroke-linecap="butt"/><path d="M212.94711,168.73693c0.64133,-2.12616 2.88484,-3.32986 5.011,-2.68853c2.12616,0.64133 3.32986,2.88483 2.68852,5.011c-0.64133,2.12616 -2.88484,3.32986 -5.011,2.68853c-2.12616,-0.64133 -3.32986,-2.88483 -2.68852,-5.01099z" fill="#ffe690" stroke="none" stroke-width="0.5" stroke-linecap="butt"/><path d="M210.56963,176.27389c0.64133,-2.12616 2.88483,-3.32987 5.01099,-2.68853c2.12616,0.64133 3.32987,2.88484 2.68853,5.011c-0.64133,2.12616 -2.88484,3.32987 -5.011,2.68853c-2.12616,-0.64133 -3.32986,-2.88484 -2.68852,-5.011z" fill="#ffe690" stroke="none" stroke-width="0.5" stroke-linecap="butt"/><path d="M208.21296,183.74181c0.64133,-2.12616 2.88484,-3.32987 5.011,-2.68853c2.12616,0.64133 3.32986,2.88483 2.68852,5.011c-0.64133,2.12616 -2.88483,3.32987 -5.01099,2.68854c-2.12616,-0.64133 -3.32986,-2.88484 -2.68852,-5.011z" fill="#ffe690" stroke="none" stroke-width="0.5" stroke-linecap="butt"/><path d="M210.63416,188.67221c0,0 3.24967,-9.92701 3.76217,-11.61349c1.17636,-3.87113 3.15632,-11.1536 3.15632,-11.1536c0,0 14.05295,3.5413 15.89249,7.91926c2.01907,4.80525 -1.71747,10.78752 -5.39802,13.05526c-7.90612,4.87129 -17.41295,1.79256 -17.41295,1.79256z" fill="#ffe690" stroke="none" stroke-width="0" stroke-linecap="butt"/><path d="M263.16355,164.67787c4.53034,4.63767 6.40658,10.90629 4.19069,14.00136c-2.21588,3.09507 -7.68476,1.84455 -12.2151,-2.79312c-4.53034,-4.63767 -6.40658,-10.90629 -4.19069,-14.00136c2.21588,-3.09507 7.68476,-1.84454 12.2151,2.79313z" fill="#ffd25d" stroke="#000000" stroke-width="2.5" stroke-linecap="butt"/><path d="M263.11241,172.6197l0.55525,3.37966" fill="none" stroke="#000000" stroke-width="2.5" stroke-linecap="round"/><path d="M263.50199,185.67768c-0.15965,-2.25964 1.54274,-4.22087 3.80238,-4.38052c2.25965,-0.15965 4.22087,1.54274 4.38052,3.80238c0.15965,2.25964 -1.54272,4.22086 -3.80237,4.38051c-2.25964,0.15965 -4.22088,-1.54272 -4.38053,-3.80236z" fill="#db5400" stroke="#000000" stroke-width="5" stroke-linecap="butt"/><path d="M263.68561,189.77416c-0.15965,-2.25964 1.54272,-4.22088 3.80237,-4.38053c2.25965,-0.15965 4.22087,1.54273 4.38052,3.80237c0.15965,2.25964 -1.54272,4.22086 -3.80237,4.38051c-2.25964,0.15965 -4.22087,-1.54272 -4.38052,-3.80237z" fill="#db5400" stroke="#000000" stroke-width="5" stroke-linecap="butt"/><path d="M255.34225,194.47311l-0.87025,-12.31714l13.17651,-0.93097l0.87024,12.31715z" fill="#db5400" stroke="#000000" stroke-width="5" stroke-linecap="butt"/><path d="M249.12646,188.73237c-0.23875,-3.37922 2.30709,-6.31216 5.68631,-6.5509c3.37922,-0.23875 6.31216,2.3071 6.55091,5.68631c0.23875,3.37922 -2.30709,6.31216 -5.68631,6.55091c-3.37922,0.23875 -6.31216,-2.3071 -6.5509,-5.68631z" fill="#db5400" stroke="#000000" stroke-width="5" stroke-linecap="butt"/><path d="M263.50199,185.67768c-0.15965,-2.25964 1.54273,-4.22087 3.80238,-4.38052c2.25965,-0.15965 4.22087,1.54274 4.38052,3.80238c0.15965,2.25964 -1.54272,4.22086 -3.80237,4.38051c-2.25964,0.15965 -4.22087,-1.54272 -4.38052,-3.80236z" fill="#db5400" stroke="none" stroke-width="0.5" stroke-linecap="butt"/><path d="M263.68561,189.77416c-0.15965,-2.25964 1.54272,-4.22088 3.80237,-4.38053c2.25965,-0.15965 4.22086,1.54273 4.38051,3.80237c0.15965,2.25964 -1.54271,4.22086 -3.80237,4.38051c-2.25964,0.15965 -4.22087,-1.54272 -4.38052,-3.80237z" fill="#dbb300" stroke="none" stroke-width="0.5" stroke-linecap="butt"/><path d="M255.34225,194.47311l-0.87024,-12.31714l13.17651,-0.93097l0.87024,12.31715z" fill="#dbb300" stroke="none" stroke-width="0" stroke-linecap="butt"/><path d="M249.12646,188.73237c-0.23875,-3.37922 2.30709,-6.31216 5.68631,-6.5509c3.37922,-0.23875 6.31216,2.3071 6.55091,5.68631c0.23875,3.37922 -2.30709,6.31216 -5.68631,6.55091c-3.37922,0.23875 -6.31216,-2.3071 -6.5509,-5.68631z" fill="#dbb300" stroke="none" stroke-width="0.5" stroke-linecap="butt"/><path d="M271.42857,187.16941l-15.0655,1.15053" fill="none" stroke="#000000" stroke-width="2.5" stroke-linecap="round"/><path d="M263.50199,185.67768c-0.15965,-2.25964 1.54272,-4.22087 3.80237,-4.38052c2.25964,-0.15965 4.22087,1.54274 4.38052,3.80238c0.15965,2.25964 -1.54273,4.22086 -3.80237,4.38051c-2.25964,0.15965 -4.22087,-1.54272 -4.38052,-3.80236z" fill="#ffc400" stroke="none" stroke-width="0.5" stroke-linecap="butt"/><path d="M263.68561,189.68325c-0.15965,-2.25964 1.54274,-4.22087 3.80238,-4.38052c2.25964,-0.15965 4.31178,1.54274 4.47143,3.80238c0.00074,0.01032 -0.08949,0.02063 -0.08885,0.03094c-0.30478,0.17734 -0.42891,0.43914 -0.7363,0.60363c-0.26856,0.1437 -0.72004,0.19161 -0.991,0.32555c-0.30563,0.06198 -0.61112,0.11584 -0.91655,0.15851c-1.72713,0.24135 -3.54786,0.33641 -5.37477,0.36396c-0.08742,-0.28844 -0.14421,-0.59108 -0.16636,-0.90444z" fill="#ffc400" stroke="none" stroke-width="0.5" stroke-linecap="butt"/><path d="M254.47201,182.15596l13.17651,-0.93097l0.65035,9.20476c-3.75,0.40946 -7.85542,0.21659 -11.46729,0.18665c-0.57213,-0.00474 -1.166,-0.0711 -1.77451,-0.17964z" fill="#ffc400" stroke="none" stroke-width="0" stroke-linecap="butt"/><path d="M249.26303,188.59579c-0.23875,-3.37922 2.3071,-6.31216 5.68631,-6.5509c3.37922,-0.23875 6.31216,2.3071 6.55091,5.68631c0.07022,0.99395 -0.10046,1.94928 -0.4624,2.80881c-1.39431,-0.01726 -2.76423,0.04155 -4.06968,0.03073c-0.9251,-0.00767 -1.90707,-0.09942 -2.91585,-0.36416c-1.56826,-0.41156 -3.20134,-1.11237 -4.78637,-1.57154c-0.001,-0.01307 -0.00198,-0.02614 -0.0029,-0.03924z" fill="#ffc400" stroke="none" stroke-width="0.5" stroke-linecap="butt"/><path d="M256.36308,188.31994l15.06551,-1.15053" fill="none" stroke="#000000" stroke-width="2.5" stroke-linecap="round"/><g stroke="none" stroke-width="0" stroke-linecap="butt"><path d="M250.88288,159.25851l-8.59279,6.40351l-8.97023,5.86311l8.5928,-6.40351z" fill="url(#color-3)"/><path d="M242.3681,165.20552l4.45041,6.94018l-4.98388,-6.56758l-4.4504,-6.94018z" fill="url(#color-4)"/><path d="M239.25391,167.38059c-1.09837,-1.57262 -0.71391,-3.73786 0.8587,-4.83622c1.57262,-1.09837 3.73786,-0.71391 4.83622,0.8587c1.09837,1.57262 0.71391,3.73786 -0.8587,4.83622c-1.57262,1.09837 -3.73786,0.71391 -4.83622,-0.8587z" fill="url(#color-5)"/></g><g data-paper-data="{&quot;index&quot;:null}" stroke="none" stroke-width="0" stroke-linecap="butt"><path d="M229.32363,194.56805l8.62956,-4.14891l-8.35816,4.67161l-8.62956,4.14891z" fill="url(#color-6)"/><path d="M226.06739,188.29676l3.64994,6.39869l3.13394,6.66661l-3.64994,-6.39868z" fill="url(#color-7)"/><path d="M230.88938,197.58359c-1.52109,0.7898 -3.39444,0.19696 -4.18424,-1.32413c-0.7898,-1.5211 -0.19696,-3.39444 1.32413,-4.18425c1.5211,-0.7898 3.39444,-0.19696 4.18424,1.32413c0.7898,1.5211 0.19696,3.39444 -1.32413,4.18425z" fill="url(#color-8)"/></g><g data-paper-data="{&quot;index&quot;:null}" stroke="none" stroke-width="0" stroke-linecap="butt"><path d="M217.12435,171.41135l6.23014,0.93625l-6.27592,-0.55145l-6.23014,-0.93625z" fill="url(#color-9)"/><path d="M217.67355,166.79453l-0.38216,4.83181l-0.76203,4.78663l0.38216,-4.83181z" fill="url(#color-10)"/><path d="M216.86026,173.63134c-1.1198,-0.13321 -1.9196,-1.14898 -1.78639,-2.26878c0.13321,-1.1198 1.14898,-1.9196 2.26878,-1.78639c1.1198,0.13321 1.91959,1.14898 1.78639,2.26878c-0.13321,1.1198 -1.14898,1.9196 -2.26878,1.78639z" fill="url(#color-11)"/></g></g></g></svg>