<svg version="1.1" xmlns="http://www.w3.org/2000/svg" xmlns:xlink="http://www.w3.org/1999/xlink" width="34.24044" height="36.28096" viewBox="0,0,34.24044,36.28096"><g transform="translate(-222.87978,-161.85952)"><g data-paper-data="{&quot;isPaintingLayer&quot;:true}" fill-rule="nonzero" stroke-linejoin="miter" stroke-miterlimit="10" stroke-dasharray="" stroke-dashoffset="0" style="mix-blend-mode: normal"><g><g fill="#000000" stroke="#000000" stroke-width="4" stroke-linecap="butt"><path d="M224.9404,181.05057c0,-8.33393 6.75598,-15.08991 15.08991,-15.08991c8.33393,0 15.08991,6.75598 15.08991,15.08991c0,8.33393 -6.75598,15.08991 -15.08991,15.08991c-8.33393,0 -15.08991,-6.75598 -15.08991,-15.08991z"/><path d="M224.87978,178.94943c0,-8.33393 6.75598,-15.08991 15.08991,-15.08991c8.33393,0 15.08991,6.75598 15.08991,15.08991c0,8.33393 -6.75598,15.08991 -15.08991,15.08991c-8.33393,0 -15.08991,-6.75598 -15.08991,-15.08991z"/></g><g stroke="none" stroke-width="0" stroke-linecap="butt"><path d="M224.9404,181.05057c0,-8.33393 6.75598,-15.08991 15.08991,-15.08991c8.33393,0 15.08991,6.75598 15.08991,15.08991c0,8.33393 -6.75598,15.08991 -15.08991,15.08991c-8.33393,0 -15.08991,-6.75598 -15.08991,-15.08991z" fill="#d0b153"/><path d="M224.87978,178.94943c0,-8.33393 6.75598,-15.08991 15.08991,-15.08991c8.33393,0 15.08991,6.75598 15.08991,15.08991c0,8.33393 -6.75598,15.08991 -15.08991,15.08991c-8.33393,0 -15.08991,-6.75598 -15.08991,-15.08991z" fill="#ffd966"/></g><path d="M239.93222,170.69733l0.07494,16.5042" fill="none" stroke="#ffbf00" stroke-width="4" stroke-linecap="round"/></g></g></g></svg>