<svg version="1.1" xmlns="http://www.w3.org/2000/svg" xmlns:xlink="http://www.w3.org/1999/xlink" width="71.33924" height="29.76663" viewBox="0,0,71.33924,29.76663"><g transform="translate(-203.95202,-165.10906)"><g data-paper-data="{&quot;isPaintingLayer&quot;:true}" fill="#000000" fill-rule="nonzero" stroke="#000000" stroke-width="1" stroke-linecap="square" stroke-linejoin="miter" stroke-miterlimit="10" stroke-dasharray="" stroke-dashoffset="0" style="mix-blend-mode: normal"><path d="M213.60292,194.37569c-1.02938,0 -1.99162,-0.12308 -2.88673,-0.36923c-0.89511,-0.24616 -1.7119,-0.57063 -2.45037,-0.97343c-0.71609,-0.42518 -1.36504,-0.88392 -1.94687,-1.37623c-0.55944,-0.51469 -0.99581,-1.02938 -1.3091,-1.54407c-0.29091,-0.42518 -0.48112,-0.77203 -0.57063,-1.04057c-0.06713,-0.29091 -0.04476,-0.57063 0.06713,-0.83917c0.13427,-0.26853 0.38042,-0.55944 0.73847,-0.87273c0.42518,-0.31329 0.79441,-0.45874 1.1077,-0.43637c0.33567,0 0.63777,0.12308 0.9063,0.36923c0.29091,0.22378 0.58182,0.53707 0.87273,0.93987c0.67133,0.91749 1.48812,1.58882 2.45037,2.014c0.96224,0.4028 1.9133,0.6042 2.85317,0.6042c1.2084,0 2.27134,-0.15664 3.18883,-0.46993c0.93987,-0.33567 1.67833,-0.82798 2.2154,-1.47693c0.55944,-0.64896 0.83917,-1.49931 0.83917,-2.55107c0,-0.85036 -0.21259,-1.56644 -0.63777,-2.14827c-0.42518,-0.6042 -1.007,-1.1077 -1.74547,-1.5105c-0.71609,-0.42518 -1.5105,-0.78322 -2.38323,-1.07413c-0.87273,-0.31329 -1.76784,-0.61539 -2.68533,-0.9063c-0.71609,-0.24616 -1.42099,-0.51469 -2.1147,-0.8056c-0.69371,-0.31329 -1.35386,-0.66014 -1.98043,-1.04057c-0.6042,-0.4028 -1.14127,-0.87273 -1.6112,-1.4098c-0.46993,-0.53707 -0.83917,-1.16364 -1.1077,-1.87973c-0.24616,-0.71609 -0.36923,-1.55525 -0.36923,-2.5175c0,-1.47693 0.35804,-2.77484 1.07413,-3.89373c0.71609,-1.11889 1.7119,-1.99162 2.98743,-2.6182c1.27553,-0.62658 2.75247,-0.93987 4.4308,-0.93987c1.007,0 1.92449,0.08951 2.75247,0.26853c0.82798,0.17902 1.55525,0.42518 2.18183,0.73847c0.64896,0.31329 1.19721,0.63777 1.64477,0.97343c0.44756,0.33567 0.79441,0.64896 1.04057,0.93987c0.49231,0.49231 0.76084,0.91749 0.8056,1.27553c0.06713,0.33567 -0.13427,0.76084 -0.6042,1.27553c-0.42518,0.49231 -0.83917,0.74966 -1.24197,0.77203c-0.4028,0.02238 -0.83917,-0.16783 -1.3091,-0.57063c-0.51469,-0.58182 -1.05176,-1.02938 -1.6112,-1.34267c-0.53707,-0.33567 -1.1077,-0.55944 -1.7119,-0.67133c-0.6042,-0.13427 -1.26434,-0.2014 -1.98043,-0.2014c-0.69371,0 -1.34267,0.08951 -1.94687,0.26853c-0.6042,0.17902 -1.13008,0.44756 -1.57763,0.8056c-0.42518,0.33567 -0.76084,0.74966 -1.007,1.24197c-0.22378,0.49231 -0.33567,1.06294 -0.33567,1.7119c0,0.71609 0.19021,1.33148 0.57063,1.84617c0.38042,0.49231 0.88392,0.92868 1.5105,1.3091c0.64896,0.35804 1.37623,0.68252 2.18183,0.97343c0.8056,0.26853 1.64477,0.53707 2.5175,0.8056c0.96224,0.29091 1.9133,0.64896 2.85317,1.07413c0.93987,0.4028 1.77903,0.9063 2.5175,1.5105c0.76084,0.6042 1.36504,1.36504 1.8126,2.28253c0.46993,0.89511 0.7049,2.00281 0.7049,3.3231c0,1.34267 -0.26853,2.52869 -0.8056,3.55807c-0.51469,1.007 -1.23078,1.85735 -2.14827,2.55107c-0.89511,0.67133 -1.92449,1.17483 -3.08813,1.5105c-1.16364,0.35804 -2.38323,0.53707 -3.65877,0.53707zM229.76448,193.97289c-0.51469,0 -0.9063,-0.07832 -1.17483,-0.23497c-0.24616,-0.13427 -0.41399,-0.33567 -0.5035,-0.6042c-0.06713,-0.29091 -0.1007,-0.62658 -0.1007,-1.007v-24.33582c0,-0.69371 0.13427,-1.16364 0.4028,-1.4098c0.29091,-0.24616 0.79441,-0.36923 1.5105,-0.36923h16.11199c0.38042,0 0.69371,0.04476 0.93987,0.13427c0.24616,0.06713 0.43637,0.23497 0.57063,0.5035c0.13427,0.26853 0.2014,0.66014 0.2014,1.17483c0,0.53707 -0.07832,0.93987 -0.23497,1.2084c-0.13427,0.24616 -0.33567,0.41399 -0.6042,0.5035c-0.26853,0.06713 -0.58182,0.1007 -0.93987,0.1007h-14.36653v8.29096h10.00286c0.35804,0 0.66014,0.04476 0.9063,0.13427c0.26853,0.08951 0.46993,0.25734 0.6042,0.5035c0.13427,0.22378 0.2014,0.59301 0.2014,1.1077c0,0.46993 -0.06713,0.82798 -0.2014,1.07413c-0.13427,0.24616 -0.33567,0.4028 -0.6042,0.46993c-0.24616,0.06713 -0.57063,0.1007 -0.97343,0.1007h-9.93573v10.84203c0,0.38042 -0.04476,0.7049 -0.13427,0.97343c-0.06713,0.26853 -0.23497,0.46993 -0.5035,0.6042c-0.24616,0.15664 -0.63777,0.23497 -1.17483,0.23497zM274.79126,193.80505c-0.38042,0.26853 -0.7049,0.44756 -0.97343,0.53707c-0.26853,0.08951 -0.52588,0.05594 -0.77203,-0.1007c-0.22378,-0.13427 -0.48112,-0.36923 -0.77203,-0.7049l-18.96516,-24.60436c-0.42518,-0.53707 -0.63777,-0.99581 -0.63777,-1.37623c0.02238,-0.38042 0.3021,-0.78322 0.83917,-1.2084c0.33567,-0.31329 0.63777,-0.5035 0.9063,-0.57063c0.26853,-0.08951 0.52588,-0.06713 0.77203,0.06713c0.26853,0.13427 0.54826,0.38042 0.83917,0.73847l18.96516,24.70506c0.42518,0.51469 0.62658,0.96224 0.6042,1.34267c0,0.35804 -0.26853,0.74966 -0.8056,1.17483zM253.51,193.80505c-0.53707,-0.42518 -0.81679,-0.81679 -0.83917,-1.17483c0,-0.38042 0.21259,-0.82798 0.63777,-1.34267l18.96516,-24.70506c0.29091,-0.35804 0.54826,-0.6042 0.77203,-0.73847c0.24616,-0.13427 0.5035,-0.15664 0.77203,-0.06713c0.29091,0.06713 0.61539,0.25734 0.97343,0.57063c0.53707,0.42518 0.8056,0.82798 0.8056,1.2084c0.02238,0.38042 -0.17902,0.83917 -0.6042,1.37623l-18.96516,24.60436c-0.29091,0.33567 -0.57063,0.57063 -0.83917,0.7049c-0.24616,0.15664 -0.5035,0.19021 -0.77203,0.1007c-0.26853,-0.08951 -0.57063,-0.26853 -0.9063,-0.53707z"/></g></g></svg>