<svg version="1.1" xmlns="http://www.w3.org/2000/svg" xmlns:xlink="http://www.w3.org/1999/xlink" width="12.2344" height="16.51564" viewBox="0,0,12.2344,16.51564"><g transform="translate(-233.8828,-171.74218)"><g data-paper-data="{&quot;isPaintingLayer&quot;:true}" fill="#ffffff" fill-rule="nonzero" stroke-linecap="square" stroke-linejoin="miter" stroke-miterlimit="10" stroke-dasharray="" stroke-dashoffset="0" style="mix-blend-mode: normal"><path d="M238.55465,186.50778c-0.23958,0 -0.42187,-0.02083 -0.54687,-0.0625c-0.125,-0.04167 -0.20833,-0.10417 -0.25,-0.1875c-0.03125,-0.09375 -0.04687,-0.20833 -0.04687,-0.34375c0,-0.75 0.11458,-1.48958 0.34375,-2.21875c0.22917,-0.73958 0.53125,-1.45312 0.90625,-2.14062c0.38542,-0.6875 0.78125,-1.34896 1.1875,-1.98437c0.41667,-0.63542 0.80729,-1.22396 1.17188,-1.76562c0.36458,-0.55208 0.65625,-1.05208 0.875,-1.5c0.21875,-0.44792 0.30729,-0.83333 0.26563,-1.15625h-6c-0.17708,0 -0.32812,-0.01562 -0.45312,-0.04687c-0.125,-0.04167 -0.21875,-0.125 -0.28125,-0.25c-0.0625,-0.125 -0.09375,-0.30729 -0.09375,-0.54687c0,-0.25 0.02604,-0.42708 0.07813,-0.53125c0.0625,-0.11458 0.15104,-0.1875 0.26563,-0.21875c0.11458,-0.04167 0.23958,-0.0625 0.375,-0.0625h7.20313c0.22917,0 0.40104,0.04167 0.51563,0.125c0.125,0.08333 0.20313,0.20313 0.23438,0.35938c0.04167,0.14583 0.0625,0.3125 0.0625,0.5c0,0.54167 -0.11979,1.10417 -0.35937,1.6875c-0.22917,0.57292 -0.53646,1.16667 -0.92187,1.78125c-0.375,0.60417 -0.77604,1.23438 -1.20312,1.89063c-0.42708,0.64583 -0.82812,1.30208 -1.20312,1.96875c-0.375,0.65625 -0.68229,1.33333 -0.92187,2.03125c-0.22917,0.6875 -0.34375,1.39063 -0.34375,2.10938c0,0.125 -0.02604,0.22917 -0.07812,0.3125c-0.04167,0.08333 -0.125,0.14583 -0.25,0.1875c-0.125,0.04167 -0.30208,0.0625 -0.53125,0.0625z" stroke="#ffffff" stroke-width="3.5"/><path d="M238.55465,186.50778c-0.23958,0 -0.42187,-0.02083 -0.54687,-0.0625c-0.125,-0.04167 -0.20833,-0.10417 -0.25,-0.1875c-0.03125,-0.09375 -0.04687,-0.20833 -0.04687,-0.34375c0,-0.75 0.11458,-1.48958 0.34375,-2.21875c0.22917,-0.73958 0.53125,-1.45312 0.90625,-2.14062c0.38542,-0.6875 0.78125,-1.34896 1.1875,-1.98437c0.41667,-0.63542 0.80729,-1.22396 1.17188,-1.76562c0.36458,-0.55208 0.65625,-1.05208 0.875,-1.5c0.21875,-0.44792 0.30729,-0.83333 0.26563,-1.15625h-6c-0.17708,0 -0.32812,-0.01562 -0.45312,-0.04687c-0.125,-0.04167 -0.21875,-0.125 -0.28125,-0.25c-0.0625,-0.125 -0.09375,-0.30729 -0.09375,-0.54687c0,-0.25 0.02604,-0.42708 0.07813,-0.53125c0.0625,-0.11458 0.15104,-0.1875 0.26563,-0.21875c0.11458,-0.04167 0.23958,-0.0625 0.375,-0.0625h7.20313c0.22917,0 0.40104,0.04167 0.51563,0.125c0.125,0.08333 0.20313,0.20313 0.23438,0.35938c0.04167,0.14583 0.0625,0.3125 0.0625,0.5c0,0.54167 -0.11979,1.10417 -0.35937,1.6875c-0.22917,0.57292 -0.53646,1.16667 -0.92187,1.78125c-0.375,0.60417 -0.77604,1.23438 -1.20312,1.89063c-0.42708,0.64583 -0.82812,1.30208 -1.20312,1.96875c-0.375,0.65625 -0.68229,1.33333 -0.92187,2.03125c-0.22917,0.6875 -0.34375,1.39063 -0.34375,2.10938c0,0.125 -0.02604,0.22917 -0.07812,0.3125c-0.04167,0.08333 -0.125,0.14583 -0.25,0.1875c-0.125,0.04167 -0.30208,0.0625 -0.53125,0.0625z" stroke="#000000" stroke-width="2.5"/><path d="M238.55465,186.50778c-0.23958,0 -0.42187,-0.02083 -0.54687,-0.0625c-0.125,-0.04167 -0.20833,-0.10417 -0.25,-0.1875c-0.03125,-0.09375 -0.04687,-0.20833 -0.04687,-0.34375c0,-0.75 0.11458,-1.48958 0.34375,-2.21875c0.22917,-0.73958 0.53125,-1.45312 0.90625,-2.14062c0.38542,-0.6875 0.78125,-1.34896 1.1875,-1.98437c0.41667,-0.63542 0.80729,-1.22396 1.17188,-1.76562c0.36458,-0.55208 0.65625,-1.05208 0.875,-1.5c0.21875,-0.44792 0.30729,-0.83333 0.26563,-1.15625h-6c-0.17708,0 -0.32812,-0.01562 -0.45312,-0.04687c-0.125,-0.04167 -0.21875,-0.125 -0.28125,-0.25c-0.0625,-0.125 -0.09375,-0.30729 -0.09375,-0.54687c0,-0.25 0.02604,-0.42708 0.07813,-0.53125c0.0625,-0.11458 0.15104,-0.1875 0.26563,-0.21875c0.11458,-0.04167 0.23958,-0.0625 0.375,-0.0625h7.20313c0.22917,0 0.40104,0.04167 0.51563,0.125c0.125,0.08333 0.20313,0.20313 0.23438,0.35938c0.04167,0.14583 0.0625,0.3125 0.0625,0.5c0,0.54167 -0.11979,1.10417 -0.35937,1.6875c-0.22917,0.57292 -0.53646,1.16667 -0.92187,1.78125c-0.375,0.60417 -0.77604,1.23438 -1.20312,1.89063c-0.42708,0.64583 -0.82812,1.30208 -1.20312,1.96875c-0.375,0.65625 -0.68229,1.33333 -0.92187,2.03125c-0.22917,0.6875 -0.34375,1.39063 -0.34375,2.10938c0,0.125 -0.02604,0.22917 -0.07812,0.3125c-0.04167,0.08333 -0.125,0.14583 -0.25,0.1875c-0.125,0.04167 -0.30208,0.0625 -0.53125,0.0625z" stroke="none" stroke-width="1"/></g></g></svg>