<svg version="1.1" xmlns="http://www.w3.org/2000/svg" xmlns:xlink="http://www.w3.org/1999/xlink" width="68.19318" height="68.19318" viewBox="0,0,68.19318,68.19318"><g transform="translate(-205.90341,-145.90341)"><g data-paper-data="{&quot;isPaintingLayer&quot;:true}" fill-rule="nonzero" stroke-linecap="butt" stroke-linejoin="miter" stroke-miterlimit="10" stroke-dasharray="" stroke-dashoffset="0" style="mix-blend-mode: normal"><path d="M207.15341,180c0,-18.14067 14.70592,-32.84659 32.84659,-32.84659c18.14067,0 32.84659,14.70592 32.84659,32.84659c0,18.14067 -14.70592,32.84659 -32.84659,32.84659c-18.14067,0 -32.84659,-14.70592 -32.84659,-32.84659z" fill="#bfaa35" stroke="#000000" stroke-width="2.5"/><path d="M210.63606,180c0,-16.21726 13.14668,-29.36394 29.36394,-29.36394c16.21726,0 29.36394,13.14668 29.36394,29.36394c0,16.21726 -13.14668,29.36394 -29.36394,29.36394c-16.21726,0 -29.36394,-13.14668 -29.36394,-29.36394z" fill="#cfba72" stroke="none" stroke-width="0.5"/><g fill="#bfaa35" stroke="none" stroke-width="0"><path d="M233.02909,191.33972c1.48303,-1.55855 7.19264,-7.55886 7.19264,-7.55886c0,0 4.89417,5.38356 6.38722,7.0259c0.80619,0.88681 1.17748,2.04848 0.04948,2.04848c-2.08194,0 -9.16725,0 -12.83319,0c-1.35149,0 -1.46021,-0.81766 -0.79615,-1.51552z"/><path d="M237.89336,187.34479v-11.54158h4.74124v11.54158z"/><path d="M232.96383,176.22545c-0.09164,-2.79078 0,-9.0807 0,-9.0807h14.2659c0,0 -0.13139,5.86636 0.09779,8.67896c0.29335,3.60012 -2.36464,6.32106 -7.02659,6.56822c-4.67569,0.24789 -7.23933,-3.18876 -7.3371,-6.16649z"/></g></g></g></svg>