<svg version="1.1" xmlns="http://www.w3.org/2000/svg" xmlns:xlink="http://www.w3.org/1999/xlink" width="65.36102" height="58.92689" viewBox="0,0,65.36102,58.92689"><g transform="translate(-207.32363,-150.53656)"><g data-paper-data="{&quot;isPaintingLayer&quot;:true}" stroke-linejoin="miter" stroke-miterlimit="10" stroke-dasharray="" stroke-dashoffset="0" style="mix-blend-mode: normal"><path d="M209.32363,168.40187v0c0,-8.76217 7.10314,-15.86531 15.86531,-15.86531l29.63039,0.17548v0c4.20774,0 8.24314,1.67152 11.21847,4.64684c2.97532,2.97532 4.64685,7.01074 4.64685,11.21848v23.02078c0,8.76217 -7.10314,15.86531 -15.86532,15.86531l-29.63039,-0.17548c-8.76217,0 -15.86531,-7.10314 -15.86531,-15.86531z" fill="#ececec" fill-rule="evenodd" stroke="#000000" stroke-width="4" stroke-linecap="square"/><path d="M209.32363,168.40186v0c0,-8.76216 7.10315,-15.86531 15.86532,-15.86531l29.63039,0.17549v0c4.20774,0 8.24314,1.67152 11.21846,4.64684c2.97532,2.97532 4.64685,7.01073 4.64685,11.21847v23.02078c0,8.76217 -7.10314,15.86531 -15.86532,15.86531l-29.63039,-0.17549c-8.76217,0 -15.86532,-7.10314 -15.86532,-15.86531z" fill="#6a90d1" fill-rule="evenodd" stroke="none" stroke-width="1" stroke-linecap="square"/><path d="M209.32363,168.40187v0c0,-8.76217 7.10314,-15.86531 15.86531,-15.86531l29.63039,0.17548v0c4.20774,0 8.24314,1.67152 11.21847,4.64684c2.97532,2.97532 4.64685,7.01073 4.64685,11.21847l-0.00828,19.67943c0,8.76217 -7.10314,15.86531 -15.86531,15.86531l-29.63039,-0.17548c-8.76217,0 -15.86532,-7.10314 -15.86532,-15.86531z" fill="#82b0ff" fill-rule="evenodd" stroke="none" stroke-width="1" stroke-linecap="square"/><g><g><path d="M231.66695,180.16838c0,-4.67611 3.79075,-8.46686 8.46686,-8.46686c4.67611,0 8.46686,3.79075 8.46686,8.46686c0,4.67611 -3.79075,8.46686 -8.46686,8.46686c-4.67611,0 -8.46686,-3.79075 -8.46686,-8.46686z" fill="none" fill-rule="nonzero" stroke="#ececec" stroke-width="5" stroke-linecap="butt"/><g fill="#ececec" fill-rule="evenodd" stroke="none" stroke-width="1" stroke-linecap="square"><path d="M236.62037,168.6115v0c0,-1.03239 0.83691,-1.8693 1.8693,-1.8693l3.49115,0.02067v0c0.49577,0 0.97123,0.19694 1.3218,0.54751c0.35056,0.35056 0.54751,0.82603 0.54751,1.3218l-0.00097,2.31869c0,1.03239 -0.83692,1.8693 -1.86931,1.8693l-3.49114,-0.02068c-1.03239,0 -1.8693,-0.83691 -1.8693,-1.8693z"/><path d="M236.41846,189.3859v0c0,-1.03239 0.83692,-1.8693 1.8693,-1.8693l3.49115,0.02067v0c0.49577,0 0.97123,0.19695 1.3218,0.54751c0.35056,0.35056 0.54751,0.82603 0.54751,1.3218l-0.00098,2.31869c0,1.03239 -0.83692,1.8693 -1.8693,1.8693l-3.49114,-0.02068c-1.03239,0 -1.8693,-0.83691 -1.8693,-1.8693z"/></g><g fill="#ececec" fill-rule="evenodd" stroke="none" stroke-width="1" stroke-linecap="square"><path d="M247.7978,170.83195v0c0.85881,-0.57294 2.01949,-0.3412 2.59242,0.51762l1.92028,2.91566v0c0.27514,0.41242 0.37518,0.91724 0.2781,1.40341c-0.09707,0.48617 -0.38329,0.91388 -0.79571,1.18902l-1.9294,1.28599c-0.85882,0.57294 -2.01949,0.34121 -2.59243,-0.51761l-1.92028,-2.91566c-0.57294,-0.85881 -0.3412,-2.01949 0.51762,-2.59243z"/><path d="M230.40413,182.19313v0c0.85881,-0.57294 2.01949,-0.34119 2.59242,0.51762l1.92028,2.91566v0c0.27514,0.41242 0.37517,0.91724 0.2781,1.40341c-0.09707,0.48617 -0.3833,0.91387 -0.79572,1.18901l-1.92939,1.286c-0.85881,0.57294 -2.01948,0.3412 -2.59242,-0.51762l-1.92029,-2.91566c-0.57294,-0.85881 -0.3412,-2.01949 0.51762,-2.59242z"/></g><g data-paper-data="{&quot;index&quot;:null}" fill="#ececec" fill-rule="evenodd" stroke="none" stroke-width="1" stroke-linecap="square"><path d="M245.86849,188.21883c-0.85881,-0.57294 -1.09055,-1.73361 -0.51761,-2.59242l1.92028,-2.91566c0.57294,-0.85881 1.73361,-1.09055 2.59242,-0.51762l1.92939,1.286c0.41242,0.27514 0.69865,0.70284 0.79572,1.18901c0.09707,0.48618 -0.00297,0.99099 -0.2781,1.40341v0l-1.92028,2.91566c-0.57294,0.85881 -1.73362,1.09055 -2.59243,0.51761v0z"/><path d="M228.47483,176.85764c-0.85881,-0.57294 -1.09055,-1.73361 -0.51761,-2.59242l1.92028,-2.91565c0.57294,-0.85881 1.73361,-1.09055 2.59242,-0.51762l1.92939,1.28599c0.41242,0.27514 0.69865,0.70284 0.79572,1.18901c0.09707,0.48618 -0.00296,0.99099 -0.2781,1.40341v0l-1.92028,2.91566c-0.57294,0.85881 -1.73361,1.09055 -2.59242,0.51762v0z"/></g></g><g><path d="M231.62849,177.76854c0,-4.67611 3.79075,-8.46686 8.46686,-8.46686c4.67611,0 8.46686,3.79075 8.46686,8.46686c0,4.67611 -3.79075,8.46686 -8.46686,8.46686c-4.67611,0 -8.46686,-3.79075 -8.46686,-8.46686z" fill="none" fill-rule="nonzero" stroke="#ffffff" stroke-width="5" stroke-linecap="butt"/><g fill="#ffffff" fill-rule="evenodd" stroke="none" stroke-width="1" stroke-linecap="square"><path d="M236.58191,166.21166v0c0,-1.03239 0.83692,-1.8693 1.8693,-1.8693l3.49114,0.02067v0c0.49577,0 0.97123,0.19694 1.3218,0.54751c0.35056,0.35056 0.54751,0.82603 0.54751,1.3218l-0.00097,2.31869c0,1.03239 -0.83692,1.8693 -1.8693,1.8693l-3.49115,-0.02068c-1.03239,0 -1.8693,-0.83692 -1.8693,-1.8693z"/><path d="M236.38,186.98605v0c0,-1.03239 0.83691,-1.8693 1.8693,-1.8693l3.49115,0.02067v0c0.49577,0 0.97123,0.19695 1.3218,0.54751c0.35056,0.35056 0.54751,0.82603 0.54751,1.3218l-0.00097,2.31869c0,1.03239 -0.83692,1.8693 -1.86931,1.8693l-3.49114,-0.02068c-1.03239,0 -1.8693,-0.83691 -1.8693,-1.8693z"/></g><g fill="#ffffff" fill-rule="evenodd" stroke="none" stroke-width="1" stroke-linecap="square"><path d="M247.75934,168.4321v0c0.85881,-0.57294 2.01949,-0.3412 2.59242,0.51762l1.92028,2.91566v0c0.27514,0.41242 0.37517,0.91724 0.2781,1.40341c-0.09707,0.48617 -0.38329,0.91388 -0.79571,1.18902l-1.92939,1.28599c-0.85881,0.57294 -2.01949,0.3412 -2.59243,-0.51761l-1.92028,-2.91566c-0.57294,-0.85881 -0.3412,-2.01949 0.51762,-2.59243z"/><path d="M230.36567,179.79328v0c0.85881,-0.57294 2.01949,-0.34119 2.59242,0.51762l1.92028,2.91566v0c0.27514,0.41242 0.37517,0.91724 0.2781,1.40341c-0.09707,0.48617 -0.3833,0.91387 -0.79572,1.18901l-1.92939,1.286c-0.85881,0.57294 -2.01948,0.3412 -2.59242,-0.51762l-1.92029,-2.91566c-0.57294,-0.85881 -0.3412,-2.01949 0.51762,-2.59243z"/></g><g data-paper-data="{&quot;index&quot;:null}" fill="#ffffff" fill-rule="evenodd" stroke="none" stroke-width="1" stroke-linecap="square"><path d="M245.83003,185.81898c-0.85881,-0.57294 -1.09055,-1.73361 -0.51761,-2.59242l1.92028,-2.91566c0.57294,-0.85881 1.73361,-1.09055 2.59242,-0.51762l1.92939,1.286c0.41242,0.27514 0.69865,0.70284 0.79572,1.18901c0.09707,0.48618 -0.00297,0.99099 -0.27811,1.40341v0l-1.92028,2.91566c-0.57294,0.85881 -1.73361,1.09055 -2.59242,0.51761v0z"/><path d="M228.43637,174.4578c-0.85881,-0.57294 -1.09055,-1.73361 -0.51762,-2.59242l1.92028,-2.91565c0.57294,-0.85881 1.73361,-1.09055 2.59242,-0.51762l1.92939,1.28599c0.41242,0.27514 0.69865,0.70284 0.79572,1.18901c0.09707,0.48618 -0.00296,0.99099 -0.2781,1.40341v0l-1.92028,2.91566c-0.57294,0.85881 -1.73361,1.09055 -2.59242,0.51762v0z"/></g></g></g></g></g></svg>