<svg version="1.1" xmlns="http://www.w3.org/2000/svg" xmlns:xlink="http://www.w3.org/1999/xlink" width="540.53387" height="142.80097" viewBox="0,0,540.53387,142.80097"><g transform="translate(33.75399,-272.08245)"><g data-paper-data="{&quot;isPaintingLayer&quot;:true}" fill-rule="nonzero" stroke-linecap="butt" stroke-linejoin="miter" stroke-miterlimit="10" stroke-dasharray="" stroke-dashoffset="0" style="mix-blend-mode: normal"><g><path d="M459.25041,279.18068c13.80712,0 25,11.19288 25,25c0,13.80712 -11.19288,25 -25,25c-6.27883,0 -12.01704,-2.3147 -16.40786,-6.13732c-4.55083,6.18736 -11.88274,10.20267 -20.15247,10.20267c-8.75417,0 -16.45742,-4.49951 -20.92323,-11.31201c-2.37127,0.74616 -4.89495,1.14847 -7.5126,1.14847c-6.57908,0 -12.56459,-2.54136 -17.02842,-6.69596c0.62382,1.90066 0.96124,3.93116 0.96124,6.04047c0,1.84095 -0.25703,3.62187 -0.73716,5.30883c2.37404,3.21333 3.77752,7.18737 3.77752,11.4892c0,10.68912 -8.66524,19.35437 -19.35437,19.35437c-1.75882,0 -3.46286,-0.23461 -5.0825,-0.67424c-2.83917,7.16028 -9.8275,12.2237 -17.99847,12.2237c-9.6599,0 -17.6669,-7.07688 -19.11928,-16.32892c-3.03597,1.97933 -6.66181,3.12961 -10.55631,3.12961c-3.27604,0 -6.36197,-0.81394 -9.06659,-2.25063c-1.8062,8.81754 -9.60875,15.44994 -18.96037,15.44994c-7.71515,0 -14.37594,-4.51424 -17.4851,-11.04547c-3.53086,4.70311 -9.154,7.7455 -15.48773,7.7455c-0.48873,0 -0.97324,-0.01812 -1.45287,-0.05371c-3.52544,4.76567 -9.18676,7.8556 -15.56978,7.8556c-10.68912,0 -19.35437,-8.66524 -19.35437,-19.35437c0,-0.60366 0.02764,-1.20087 0.08171,-1.79042c-0.14668,0.05792 -0.29423,0.1141 -0.44263,0.16852c-0.63451,10.11594 -9.03999,18.12419 -19.31591,18.12419c-6.00676,0 -11.37441,-2.73639 -14.92437,-7.0306c-4.75783,-2.09547 -8.51195,-6.05081 -10.34148,-10.94515c-1.06559,2.85064 -2.78406,5.38274 -4.97346,7.41436c2.16386,3.1247 3.43161,6.91715 3.43161,11.0057c0,10.68912 -8.66524,19.35437 -19.35437,19.35437c-10.68912,0 -19.35437,-8.66524 -19.35437,-19.35437c0,-0.87613 0.05821,-1.73866 0.17098,-2.58393c-3.78615,-0.86861 -7.14855,-2.84773 -9.72606,-5.5762c-0.34138,0.28156 -0.69257,0.55163 -1.05299,0.80965c-2.92981,6.96523 -9.81787,11.85584 -17.84819,11.85584c-8.09223,0 -15.02452,-4.9663 -17.91525,-12.01729c-6.44619,-0.29263 -12.07061,-3.73857 -15.36712,-8.83169c-3.54798,4.39271 -8.97815,7.20207 -15.06448,7.20207c-3.94235,0 -7.60941,-1.17872 -10.66796,-3.20295c-2.58567,1.28079 -5.49854,2.00071 -8.57954,2.00071c-6.14677,0 -11.62428,-2.86543 -15.16962,-7.3334c-2.55266,1.24029 -5.41889,1.93598 -8.44761,1.93598c-10.68912,0 -19.35437,-8.66524 -19.35437,-19.35437c0,-0.83847 0.05332,-1.66448 0.15675,-2.47483c-0.10343,-0.81036 -0.15675,-1.63637 -0.15675,-2.47484c0,-0.87618 0.05822,-1.73875 0.17101,-2.58407c-8.59667,-1.97222 -15.00877,-9.66959 -15.00877,-18.86459c0,-10.68912 8.66524,-19.35437 19.35437,-19.35437c7.26078,0 13.58774,3.99819 16.89934,9.91305c2.99787,-6.8091 9.80484,-11.56303 17.72217,-11.56303c7.99994,0 14.86624,4.85366 17.81477,11.77686c3.28351,0.5069 6.29459,1.83909 8.81466,3.77801c5.30352,1.47485 9.69026,5.15135 12.11367,9.98299c3.17911,-6.33828 9.73687,-10.68871 17.31074,-10.68871c6.77879,0 12.74362,3.48499 16.20058,8.76106c2.55176,-2.47547 5.78333,-4.25412 9.38775,-5.029c1.87055,-8.73338 9.63311,-15.28139 18.92505,-15.28139c6.64516,0 12.50813,3.34894 15.99323,8.45113c4.14125,0.601 7.85769,2.51329 10.7146,5.30215c1.10042,-0.26929 2.23777,-0.44448 3.40302,-0.51656c-0.00392,-0.1602 -0.00588,-0.32088 -0.00588,-0.48201c0,-10.68912 8.66524,-19.35437 19.35437,-19.35437c6.37903,0 12.03726,3.08607 15.56316,7.84666c3.36727,-2.83722 7.71587,-4.54684 12.46376,-4.54684c9.83654,0 17.95918,7.33806 19.19235,16.83861c3.25921,-6.0935 9.68438,-10.2391 17.07779,-10.2391c4.20465,0 8.09614,1.34078 11.27026,3.61811c1.74661,-0.85687 3.64126,-1.4583 5.63524,-1.75558c3.14658,-2.21304 6.98226,-3.51238 11.12142,-3.51238c4.96955,0 9.50165,1.87297 12.92889,4.95152c0.08664,-0.00114 0.17342,-0.00171 0.26034,-0.00171c1.11137,0 2.20086,0.09368 3.26101,0.27356c3.46023,-3.23979 8.11113,-5.22337 13.22531,-5.22337c0.49565,0 0.98695,0.01863 1.47324,0.05523c2.54808,-7.7126 9.81477,-13.27824 18.38138,-13.27824c6.25462,0 11.81629,2.96687 15.35445,7.57005c2.43881,-1.10883 5.14824,-1.72642 8.00192,-1.72642c0.32084,0 0.63985,0.00781 0.95686,0.02324c3.53626,-4.63158 9.11546,-7.61987 15.39261,-7.61987c5.60095,0 10.64622,2.37914 14.18034,6.18195c4.27863,-7.63648 12.44908,-12.79788 21.82504,-12.79788c8.75417,0 16.45742,4.49951 20.92323,11.31201c2.37127,-0.74616 4.89495,-1.14847 7.5126,-1.14847c6.27883,0 12.01704,2.3147 16.40786,6.13732c4.55083,-6.18736 11.88274,-10.20267 20.15247,-10.20267z" fill="#53c928" stroke="#000000" stroke-width="2"/><path d="M506.69471,366.85899c-0.27765,3.81479 -3.97847,7.92645 -5.97599,11.16357c-10.12916,16.41496 -35.61765,10.50218 -50.75311,11.26217c-3.3547,0.16845 -6.66578,1.50052 -10.02166,1.93774c-10.50701,1.36888 -21.00367,2.81619 -31.50816,4.20426c-4.85647,0.64174 -10.30218,-0.06085 -14.93009,0.25167c-5.89562,0.39813 -11.75015,1.26724 -17.61856,1.95904c-10.04302,1.18391 -20.41399,3.37706 -30.48146,4.33161c-8.94732,0.84834 -18.1124,0.2129 -26.86962,2.23412c-5.84477,1.34901 -11.84649,3.47518 -17.93295,4.08383c-7.96562,0.79656 -16.83497,-0.18853 -24.22268,0.17837c-5.9588,0.29593 -11.85465,1.36105 -17.78881,1.97797c-5.41565,0.56301 -12.03441,-0.07525 -16.77711,0.15313c-9.65461,0.46491 -19.28038,1.40712 -28.92358,2.06765c-6.51012,0.44592 -14.34462,-0.20313 -19.90782,0.06364c-16.66945,0.79933 -33.33352,2.36977 -50.02041,2.13128c-3.20502,-0.04581 -6.19934,-1.71003 -9.37689,-2.13128c-3.33294,-0.44185 -6.99885,0.2028 -10.42244,-0.15315c-13.31769,-1.38463 -20.27068,-1.21916 -32.974,-2.03358c-10.37245,-0.66498 -20.72373,-1.74057 -31.11208,-2.07565c-11.07415,-0.35719 -22.16008,0.07615 -33.23972,0c-5.02059,-0.03451 -11.10706,-1.7274 -15.55409,-2.61745c-8.87087,-1.77546 -17.29297,-3.09452 -24.96315,-8.30803c-3.80681,-1.80619 -7.08464,-4.54592 -9.53775,-7.92344c-2.94576,-2.47696 -5.48146,-9.26081 -4.70829,-13.07479c-0.03346,-0.52938 -0.05044,-1.06323 -0.05044,-1.60105c0,-5.55867 1.81417,-10.69362 4.88272,-14.84506c-5.77586,-3.34882 -9.66055,-9.59848 -9.66055,-16.75547c0,-10.68912 8.66525,-19.35437 19.35437,-19.35437c3.44538,0 6.6805,0.90027 9.48294,2.4784c3.29044,-2.58593 7.43982,-4.12824 11.94942,-4.12824c6.08629,0 11.51643,2.80933 15.06441,7.20198c3.44781,-5.32691 9.44213,-8.85197 16.25978,-8.85197c3.67085,0 7.10302,1.02195 10.0275,2.79687c2.0537,-0.74216 4.26891,-1.14674 6.5786,-1.14674c8.03123,0 14.91994,4.89172 17.84919,11.85821c1.12376,-0.20302 2.28126,-0.30903 3.46351,-0.30903c1.47168,0 2.90499,0.16426 4.28261,0.47544c3.23597,-6.16764 9.70152,-10.37492 17.14974,-10.37492c1.32965,0 2.62799,0.13408 3.88222,0.38946c1.21118,-9.52472 9.34502,-16.88846 19.19876,-16.88846c6.19052,0 11.70221,2.90637 15.24503,7.42904c2.80284,-1.57873 6.03857,-2.47937 9.48466,-2.47937c3.6521,0 7.06795,1.01154 9.98265,2.76973c2.03266,-0.72506 4.22213,-1.11989 6.50382,-1.11989c4.83359,0 9.25334,1.77189 12.64513,4.70157c2.21804,-1.42279 4.74549,-2.40531 7.45901,-2.8242c2.9486,-6.92303 9.81482,-11.77656 17.81464,-11.77656c7.81279,0 14.54436,4.62923 17.60144,11.29441c3.00908,-1.92751 6.58677,-3.04506 10.42549,-3.04506c3.09768,0 6.02539,0.72773 8.6215,2.02155c3.47025,-5.19772 9.38937,-8.62121 16.10808,-8.62121c7.25615,0 13.57967,3.99309 16.893,9.90173c2.39573,-1.06215 5.0473,-1.65224 7.83669,-1.65224c8.63418,0 15.94785,5.65378 18.44079,13.46112c0.29653,-0.70004 0.63309,-1.37901 1.00681,-2.03404c-0.0656,-0.64834 -0.0992,-1.30613 -0.0992,-1.97177c0,-10.68912 8.66525,-19.35437 19.35437,-19.35437c4.41019,0 8.47586,1.47507 11.73056,3.95875c3.44189,-5.3586 9.45454,-8.9087 16.29636,-8.9087c4.13927,0 7.97505,1.2994 11.12168,3.51256c5.97992,0.89162 11.06643,4.51872 13.94578,9.56757c4.56022,-6.0822 11.82803,-10.01753 20.01499,-10.01753c8.43611,0 15.89628,4.1785 20.42375,10.57874c3.02309,-1.29751 6.35353,-2.01604 9.85179,-2.01604c8.20469,0 15.48626,3.9524 20.04459,10.05709c0.56847,-0.06778 1.1428,-0.11648 1.72233,-0.14545c-0.02479,-0.45629 -0.03735,-0.91583 -0.03735,-1.3783c0,-13.80712 11.19288,-25 25,-25c13.80712,0 25,11.19288 25,25c0,3.23381 -0.61399,6.32421 -1.73177,9.16099c2.70025,3.28364 4.57967,7.26779 5.3245,11.63869c8.15444,6.08281 12.64433,16.08705 11.87457,26.66346zM324.39651,351.20984c-0.15832,0.10546 -0.31828,0.20865 -0.47984,0.30953c0.22426,-0.06071 0.44847,-0.12164 0.67264,-0.18275c-0.06453,-0.04189 -0.1288,-0.08415 -0.1928,-0.12678zM304.50462,352.13575c0.1648,0.70825 0.29071,1.43143 0.37536,2.16717c2.25778,0.10545 4.5212,0.26879 6.64459,0.02317c-2.5171,-0.27895 -4.88863,-1.04061 -7.01995,-2.19034zM162.97797,358.56552c-0.50362,-0.15263 -0.99855,-0.32523 -1.48388,-0.51688c0.05408,0.58956 0.08171,1.18676 0.08171,1.79042c0,0.83156 -0.05244,1.65088 -0.1542,2.45482c0.3385,-0.02638 0.68356,-0.05368 1.03468,-0.08185c0.05894,-1.25021 0.23651,-2.46938 0.52169,-3.64651z" fill="#5adb2c" stroke="none" stroke-width="0"/></g></g></g></svg>