<svg version="1.1" xmlns="http://www.w3.org/2000/svg" xmlns:xlink="http://www.w3.org/1999/xlink" width="552.43941" height="774.57609" viewBox="0,0,552.43941,774.57609"><defs><linearGradient x1="248.14274" y1="375.27767" x2="267.92305" y2="375.27767" gradientUnits="userSpaceOnUse" id="color-1"><stop offset="0" stop-color="#8fff66" stop-opacity="0"/><stop offset="1" stop-color="#8fff66"/></linearGradient><linearGradient x1="229.88432" y1="376.31028" x2="210.10398" y2="376.31028" gradientUnits="userSpaceOnUse" id="color-2"><stop offset="0" stop-color="#65b448" stop-opacity="0"/><stop offset="1" stop-color="#65b448"/></linearGradient><linearGradient x1="248.08198" y1="374.93058" x2="267.86232" y2="374.93058" gradientUnits="userSpaceOnUse" id="color-3"><stop offset="0" stop-color="#8fff66" stop-opacity="0"/><stop offset="1" stop-color="#8fff66"/></linearGradient><linearGradient x1="229.82356" y1="375.96319" x2="210.04321" y2="375.96319" gradientUnits="userSpaceOnUse" id="color-4"><stop offset="0" stop-color="#65b448" stop-opacity="0"/><stop offset="1" stop-color="#65b448"/></linearGradient><linearGradient x1="238.97981" y1="254.59207" x2="238.97981" y2="263.3684" gradientUnits="userSpaceOnUse" id="color-5"><stop offset="0" stop-color="#518a37"/><stop offset="1" stop-color="#518a37" stop-opacity="0"/></linearGradient><linearGradient x1="201.46768" y1="238.80644" x2="223.87834" y2="238.80644" gradientUnits="userSpaceOnUse" id="color-6"><stop offset="0" stop-color="#63af20"/><stop offset="1" stop-color="#63af20" stop-opacity="0"/></linearGradient><linearGradient x1="276.09839" y1="238.96271" x2="253.68776" y2="238.96271" gradientUnits="userSpaceOnUse" id="color-7"><stop offset="0" stop-color="#8fff2e"/><stop offset="1" stop-color="#8fff2e" stop-opacity="0"/></linearGradient><linearGradient x1="249.36331" y1="-44.34963" x2="269.14365" y2="-44.34963" gradientUnits="userSpaceOnUse" id="color-8"><stop offset="0" stop-color="#8fff66" stop-opacity="0"/><stop offset="1" stop-color="#8fff66"/></linearGradient><linearGradient x1="231.10488" y1="-45.38224" x2="211.32454" y2="-45.38224" gradientUnits="userSpaceOnUse" id="color-9"><stop offset="0" stop-color="#65b448" stop-opacity="0"/><stop offset="1" stop-color="#65b448"/></linearGradient><linearGradient x1="249.30255" y1="-44.00254" x2="269.08288" y2="-44.00254" gradientUnits="userSpaceOnUse" id="color-10"><stop offset="0" stop-color="#8fff66" stop-opacity="0"/><stop offset="1" stop-color="#8fff66"/></linearGradient><linearGradient x1="231.04412" y1="-45.03516" x2="211.26378" y2="-45.03516" gradientUnits="userSpaceOnUse" id="color-11"><stop offset="0" stop-color="#65b448" stop-opacity="0"/><stop offset="1" stop-color="#65b448"/></linearGradient><linearGradient x1="240.20038" y1="76.33596" x2="240.20038" y2="67.5596" gradientUnits="userSpaceOnUse" id="color-12"><stop offset="0" stop-color="#518a37"/><stop offset="1" stop-color="#518a37" stop-opacity="0"/></linearGradient><linearGradient x1="202.68824" y1="92.12159" x2="225.0989" y2="92.12159" gradientUnits="userSpaceOnUse" id="color-13"><stop offset="0" stop-color="#63af20"/><stop offset="1" stop-color="#63af20" stop-opacity="0"/></linearGradient><linearGradient x1="277.31898" y1="91.96532" x2="254.90833" y2="91.96532" gradientUnits="userSpaceOnUse" id="color-14"><stop offset="0" stop-color="#8fff2e"/><stop offset="1" stop-color="#8fff2e" stop-opacity="0"/></linearGradient></defs><g transform="translate(53.36714,198.78467)"><g data-paper-data="{&quot;isPaintingLayer&quot;:true}" fill-rule="nonzero" stroke-linecap="butt" stroke-linejoin="miter" stroke-miterlimit="10" stroke-dasharray="" stroke-dashoffset="0" style="mix-blend-mode: normal"><g fill-opacity="0.06729" fill="#000000" stroke-opacity="0.06771" stroke="#000000" stroke-width="3.5"><g><g><g><path d="M211.40512,535.8122v-254.8901h57.47905v254.8901z"/><path d="M249.27071,531.7947v-254.8901h19.78034v254.8901z"/><path d="M211.23195,532.8273v-254.89009h19.78034v254.8901z" data-paper-data="{&quot;index&quot;:null}"/></g><g><path d="M211.34436,535.46515v-254.89009h57.47905v254.8901z"/><path d="M249.20995,531.4476v-254.8901h19.78034v254.8901z"/><path d="M211.17118,532.48023v-254.8901h19.78035v254.8901z" data-paper-data="{&quot;index&quot;:null}"/></g></g><path d="M211.22769,292.44039v-8.77634h57.76018v8.77634z"/><g><g><path d="M202.59565,276.3789c0,-3.55305 0,-13.03513 0,-18.75194c0,-2.69924 1.7315,-4.5591 4.65519,-4.5591c14.37814,0 57.5892,0 65.49125,0c2.42699,0 4.56966,3.00485 4.56966,5.47077c0,3.22743 0,11.7793 0,17.71039c0,3.52884 -2.57487,6.12996 -5.38021,6.12996c-8.29557,0 -49.97018,0 -64.40514,0c-3.08913,0 -4.93076,-3.34636 -4.93076,-6.00009z"/><g><path d="M202.59565,276.3789c0,-3.55305 0,-13.03513 0,-18.75194c0,-2.69924 1.7315,-4.5591 4.65519,-4.5591c14.37814,0 57.5892,0 65.49125,0c2.42699,0 4.56966,3.00485 4.56966,5.47077c0,3.22743 0,11.7793 0,17.71039c0,3.52884 -2.57487,6.12996 -5.38021,6.12996c-8.29557,0 -49.97018,0 -64.40514,0c-3.08913,0 -4.93076,-3.34636 -4.93076,-6.00009z"/><path d="M202.59565,276.3789c0,-3.55305 0,-13.03513 0,-18.75194c0,-2.69924 1.7315,-4.5591 4.65519,-4.5591c14.37814,0 17.53297,0.10293 17.53297,0.10293l0.2225,29.51816c0,0 -3.04495,-0.30996 -17.47991,-0.30996c-3.08913,0 -4.93076,-3.34636 -4.93076,-6.00009z"/><path d="M277.22637,276.53519c0,2.65372 -1.84162,6.00008 -4.93076,6.00008c-14.43496,0 -17.47991,0.30996 -17.47991,0.30996l0.2225,-29.51815c0,0 3.15482,-0.10292 17.53297,-0.10292c2.9237,0 4.6552,1.85985 4.6552,4.55909c0,5.71681 0,15.19888 0,18.75194z" data-paper-data="{&quot;index&quot;:null}"/></g></g><path d="M274.12999,262.51563c-1.05241,-0.05054 -1.00187,-1.10295 -1.00187,-1.10295l0.02817,-0.50105c-0.04134,-1.26216 -0.36744,-3.39206 -2.01511,-3.58396c-0.73919,-0.08609 -1.48882,0.02161 -2.23254,-0.00468c0,0 -1.05294,-0.03764 -1.01531,-1.09058c0.03763,-1.05294 1.09058,-1.01531 1.09058,-1.01531c0.83072,0.03003 1.67694,-0.1247 2.49362,0.03036c2.7309,0.51851 3.67154,3.15429 3.78428,5.57923l-0.02889,0.68709c0,0 -0.05053,1.0524 -1.10294,1.00186z"/><path d="M273.24952,265.05195c0,-0.5819 0.47172,-1.05362 1.05361,-1.05362c0.58189,0 1.05362,0.47172 1.05362,1.05362c0,0.5819 -0.47172,1.05362 -1.05362,1.05362c-0.58189,0 -1.05361,-0.47172 -1.05361,-1.05362z"/></g></g><g data-paper-data="{&quot;index&quot;:null}"><g><g><path d="M271.3101,-173.47887v254.8901h-57.47905v-254.8901z"/><path d="M271.47698,-169.46136v254.8901h-19.78034v-254.8901z"/><path d="M233.43821,-170.49397v254.8901h-19.78034v-254.89009z" data-paper-data="{&quot;index&quot;:null}"/></g><g><path d="M271.24932,-173.13181v254.89009h-57.47905v-254.89009z"/><path d="M271.41622,-169.11429v254.8901h-19.78034v-254.8901z"/><path d="M233.37745,-170.14689v254.8901h-19.78035v-254.8901z" data-paper-data="{&quot;index&quot;:null}"/></g></g><path d="M271.4138,69.89294v8.77634h-57.76018v-8.77634z"/><g><g><path d="M205.02157,85.95443c0,-2.65372 1.84162,-6.00009 4.93076,-6.00009c14.43496,0 56.10957,0 64.40514,0c2.80534,0 5.38022,2.60112 5.38022,6.12996c0,5.93109 0,14.48296 0,17.71039c0,2.46592 -2.14267,5.47078 -4.56966,5.47078c-7.90205,0 -51.11311,0 -65.49125,0c-2.9237,0 -4.6552,-1.85986 -4.6552,-4.5591c0,-5.71681 0,-15.19889 0,-18.75194z"/><g><path d="M205.02157,85.95443c0,-2.65372 1.84162,-6.00009 4.93076,-6.00009c14.43496,0 56.10957,0 64.40514,0c2.80534,0 5.38022,2.60112 5.38022,6.12996c0,5.93109 0,14.48296 0,17.71039c0,2.46592 -2.14267,5.47078 -4.56966,5.47078c-7.90205,0 -51.11311,0 -65.49125,0c-2.9237,0 -4.6552,-1.85986 -4.6552,-4.5591c0,-5.71681 0,-15.19889 0,-18.75194z"/><path d="M205.02156,85.95443c0,-2.65372 1.84163,-6.00009 4.93076,-6.00009c14.43496,0 17.47991,-0.30996 17.47991,-0.30996l-0.2225,29.51816c0,0 -3.15482,0.10293 -17.53297,0.10293c-2.9237,0 -4.6552,-1.85986 -4.6552,-4.5591c0,-5.71681 0,-15.19889 0,-18.75194z"/><path d="M279.65231,85.79816c0,3.55305 0,13.03513 0,18.75194c0,2.69924 -1.7315,4.55909 -4.6552,4.55909c-14.37815,0 -17.53296,-0.10293 -17.53296,-0.10293l-0.2225,-29.51815c0,0 3.04495,0.30996 17.47991,0.30996c3.08913,0 4.93076,3.34636 4.93076,6.00008z" data-paper-data="{&quot;index&quot;:null}"/></g></g><path d="M276.55591,99.8177c1.05241,-0.05054 1.10294,1.00186 1.10294,1.00186l0.02889,0.68709c-0.11275,2.42494 -1.05338,5.06072 -3.78428,5.57923c-0.81668,0.15507 -1.6629,0.00034 -2.49362,0.03037c0,0 -1.05295,0.03763 -1.09058,-1.01531c-0.03763,-1.05294 1.01531,-1.09058 1.01531,-1.09058c0.74372,-0.0263 1.49336,0.08141 2.23254,-0.00468c1.64768,-0.1919 1.97377,-2.3218 2.01511,-3.58396l-0.02817,-0.50105c0,0 -0.05054,-1.05241 1.00186,-1.10295z"/><path d="M276.72906,96.22778c0.58189,0 1.05361,0.47172 1.05361,1.05361c0,0.5819 -0.47172,1.05362 -1.05361,1.05362c-0.58189,0 -1.05362,-0.47172 -1.05362,-1.05362c0,-0.58189 0.47172,-1.05361 1.05362,-1.05361z"/></g></g></g><g><g><g stroke="#000000" stroke-width="5"><path d="M209.07179,533.47886v-254.8901h57.47905v254.8901z" fill="#79d957"/><path d="M246.93738,529.46137v-254.8901h19.78034v254.8901z" fill="url(#color-1)"/><path d="M208.89862,530.49397v-254.89009h19.78034v254.8901z" data-paper-data="{&quot;index&quot;:null}" fill="url(#color-2)"/></g><g stroke="none" stroke-width="0"><path d="M209.01103,533.13182v-254.89009h57.47905v254.8901z" fill="#79d957"/><path d="M246.87662,529.11426v-254.8901h19.78034v254.8901z" fill="url(#color-3)"/><path d="M208.83785,530.1469v-254.8901h19.78035v254.8901z" data-paper-data="{&quot;index&quot;:null}" fill="url(#color-4)"/></g></g><path d="M208.89436,290.10705v-8.77634h57.76018v8.77634z" fill="url(#color-5)" stroke="none" stroke-width="NaN"/><g><g><path d="M200.26232,274.04556c0,-3.55305 0,-13.03513 0,-18.75194c0,-2.69924 1.7315,-4.5591 4.65519,-4.5591c14.37814,0 57.5892,0 65.49125,0c2.42699,0 4.56966,3.00485 4.56966,5.47077c0,3.22743 0,11.7793 0,17.71039c0,3.52884 -2.57487,6.12996 -5.38021,6.12996c-8.29557,0 -49.97018,0 -64.40514,0c-3.08913,0 -4.93076,-3.34636 -4.93076,-6.00009z" fill="#7ee029" stroke="#000000" stroke-width="5"/><g stroke="none" stroke-width="0"><path d="M200.26232,274.04556c0,-3.55305 0,-13.03513 0,-18.75194c0,-2.69924 1.7315,-4.5591 4.65519,-4.5591c14.37814,0 57.5892,0 65.49125,0c2.42699,0 4.56966,3.00485 4.56966,5.47077c0,3.22743 0,11.7793 0,17.71039c0,3.52884 -2.57487,6.12996 -5.38021,6.12996c-8.29557,0 -49.97018,0 -64.40514,0c-3.08913,0 -4.93076,-3.34636 -4.93076,-6.00009z" fill="#7ee029"/><path d="M200.26232,274.04556c0,-3.55305 0,-13.03513 0,-18.75194c0,-2.69924 1.7315,-4.5591 4.65519,-4.5591c14.37814,0 17.53297,0.10293 17.53297,0.10293l0.2225,29.51816c0,0 -3.04495,-0.30996 -17.47991,-0.30996c-3.08913,0 -4.93076,-3.34636 -4.93076,-6.00009z" fill="url(#color-6)"/><path d="M274.89303,274.20186c0,2.65372 -1.84162,6.00008 -4.93076,6.00008c-14.43496,0 -17.47991,0.30996 -17.47991,0.30996l0.2225,-29.51815c0,0 3.15482,-0.10292 17.53297,-0.10292c2.9237,0 4.6552,1.85985 4.6552,4.55909c0,5.71681 0,15.19888 0,18.75194z" data-paper-data="{&quot;index&quot;:null}" fill="url(#color-7)"/></g></g><path d="M271.79666,260.1823c-1.05241,-0.05054 -1.00187,-1.10295 -1.00187,-1.10295l0.02817,-0.50105c-0.04134,-1.26216 -0.36744,-3.39206 -2.01511,-3.58396c-0.73919,-0.08609 -1.48882,0.02161 -2.23254,-0.00468c0,0 -1.05294,-0.03764 -1.01531,-1.09058c0.03763,-1.05294 1.09058,-1.01531 1.09058,-1.01531c0.83072,0.03003 1.67694,-0.1247 2.49362,0.03036c2.7309,0.51851 3.67154,3.15429 3.78428,5.57923l-0.02889,0.68709c0,0 -0.05053,1.0524 -1.10294,1.00186z" fill="#ffffff" stroke="none" stroke-width="0.5"/><path d="M270.91619,262.71862c0,-0.5819 0.47172,-1.05362 1.05361,-1.05362c0.58189,0 1.05362,0.47172 1.05362,1.05362c0,0.5819 -0.47172,1.05362 -1.05362,1.05362c-0.58189,0 -1.05361,-0.47172 -1.05361,-1.05362z" fill="#ffffff" stroke="none" stroke-width="0.5"/></g></g><g data-paper-data="{&quot;index&quot;:null}"><g><g stroke="#000000" stroke-width="5"><path d="M268.97677,-175.8122v254.8901h-57.47905v-254.8901z" fill="#79d957"/><path d="M269.14365,-171.7947v254.8901h-19.78034v-254.8901z" fill="url(#color-8)"/><path d="M231.10488,-172.8273v254.8901h-19.78034v-254.89009z" data-paper-data="{&quot;index&quot;:null}" fill="url(#color-9)"/></g><g stroke="none" stroke-width="0"><path d="M268.91598,-175.46514v254.89009h-57.47905v-254.89009z" fill="#79d957"/><path d="M269.08288,-171.44763v254.8901h-19.78034v-254.8901z" fill="url(#color-10)"/><path d="M231.04412,-172.48023v254.8901h-19.78035v-254.8901z" data-paper-data="{&quot;index&quot;:null}" fill="url(#color-11)"/></g></g><path d="M269.08047,67.5596v8.77634h-57.76018v-8.77634z" fill="url(#color-12)" stroke="none" stroke-width="NaN"/><g><g><path d="M202.68824,83.6211c0,-2.65372 1.84162,-6.00009 4.93076,-6.00009c14.43496,0 56.10957,0 64.40514,0c2.80534,0 5.38022,2.60112 5.38022,6.12996c0,5.93109 0,14.48296 0,17.71039c0,2.46592 -2.14267,5.47078 -4.56966,5.47078c-7.90205,0 -51.11311,0 -65.49125,0c-2.9237,0 -4.6552,-1.85986 -4.6552,-4.5591c0,-5.71681 0,-15.19889 0,-18.75194z" fill="#7ee029" stroke="#000000" stroke-width="5"/><g stroke="none" stroke-width="0"><path d="M202.68824,83.6211c0,-2.65372 1.84162,-6.00009 4.93076,-6.00009c14.43496,0 56.10957,0 64.40514,0c2.80534,0 5.38022,2.60112 5.38022,6.12996c0,5.93109 0,14.48296 0,17.71039c0,2.46592 -2.14267,5.47078 -4.56966,5.47078c-7.90205,0 -51.11311,0 -65.49125,0c-2.9237,0 -4.6552,-1.85986 -4.6552,-4.5591c0,-5.71681 0,-15.19889 0,-18.75194z" fill="#7ee029"/><path d="M202.68823,83.6211c0,-2.65372 1.84163,-6.00009 4.93076,-6.00009c14.43496,0 17.47991,-0.30996 17.47991,-0.30996l-0.2225,29.51816c0,0 -3.15482,0.10293 -17.53297,0.10293c-2.9237,0 -4.6552,-1.85986 -4.6552,-4.5591c0,-5.71681 0,-15.19889 0,-18.75194z" fill="url(#color-13)"/><path d="M277.31898,83.46483c0,3.55305 0,13.03513 0,18.75194c0,2.69924 -1.7315,4.55909 -4.6552,4.55909c-14.37815,0 -17.53296,-0.10293 -17.53296,-0.10293l-0.2225,-29.51815c0,0 3.04495,0.30996 17.47991,0.30996c3.08913,0 4.93076,3.34636 4.93076,6.00008z" data-paper-data="{&quot;index&quot;:null}" fill="url(#color-14)"/></g></g><path d="M274.22258,97.48437c1.05241,-0.05054 1.10294,1.00186 1.10294,1.00186l0.02889,0.68709c-0.11275,2.42494 -1.05338,5.06072 -3.78428,5.57923c-0.81668,0.15507 -1.6629,0.00034 -2.49362,0.03037c0,0 -1.05295,0.03763 -1.09058,-1.01531c-0.03763,-1.05294 1.01531,-1.09058 1.01531,-1.09058c0.74372,-0.0263 1.49336,0.08141 2.23254,-0.00468c1.64768,-0.1919 1.97377,-2.3218 2.01511,-3.58396l-0.02817,-0.50105c0,0 -0.05054,-1.05241 1.00186,-1.10295z" fill="#ffffff" stroke="none" stroke-width="0.5"/><path d="M274.39573,93.89445c0.58189,0 1.05361,0.47172 1.05361,1.05361c0,0.5819 -0.47172,1.05362 -1.05361,1.05362c-0.58189,0 -1.05362,-0.47172 -1.05362,-1.05362c0,-0.58189 0.47172,-1.05361 1.05362,-1.05361z" fill="#ffffff" stroke="none" stroke-width="0.5"/></g></g><g fill="none" stroke="none" stroke-width="0.5"><g><path d="M452.5676,-196.6462c0.35385,-2.47483 2.82868,-2.12098 2.82868,-2.12098c1.64989,0.2359 7.15952,1.02366 8.80941,1.25956c0,0 2.47483,0.35385 2.12098,2.82868c-0.35385,2.47483 -2.82868,2.12098 -2.82868,2.12098c-1.64989,-0.2359 -3.29978,-0.4718 -4.94966,-0.7077l-3.85974,-0.55186c0,0 -2.47483,-0.35385 -2.12098,-2.82868z"/><path d="M494.07228,573.29142c0,-1.38071 1.11929,-2.5 2.5,-2.5c1.38071,0 2.5,1.11929 2.5,2.5c0,1.38071 -1.11929,2.5 -2.5,2.5c-1.38071,0 -2.5,-1.11929 -2.5,-2.5z"/></g><g><path d="M-39.52387,-177.40059c0,-1.38071 1.11929,-2.5 2.5,-2.5c1.38071,0 2.5,1.11929 2.5,2.5c0,1.38071 -1.11929,2.5 -2.5,2.5c-1.38071,0 -2.5,-1.11929 -2.5,-2.5z"/><path d="M-53.36714,568.25336c0,-1.38071 1.11929,-2.5 2.5,-2.5c1.38071,0 2.5,1.11929 2.5,2.5c0,1.38071 -1.11929,2.5 -2.5,2.5c-1.38071,0 -2.5,-1.11929 -2.5,-2.5z"/></g></g></g></g></svg>