<svg version="1.1" xmlns="http://www.w3.org/2000/svg" xmlns:xlink="http://www.w3.org/1999/xlink" width="98.34421" height="29.53166" viewBox="0,0,98.34421,29.53166"><g transform="translate(-190.8195,-165.23417)"><g data-paper-data="{&quot;isPaintingLayer&quot;:true}" fill="#000000" fill-rule="nonzero" stroke="#000000" stroke-width="1" stroke-linecap="square" stroke-linejoin="miter" stroke-miterlimit="10" stroke-dasharray="" stroke-dashoffset="0" style="mix-blend-mode: normal"><path d="M193.1321,194.06443c-0.46993,0 -0.83916,-0.07832 -1.1077,-0.23496c-0.24615,-0.15664 -0.42518,-0.36923 -0.53707,-0.63777c-0.11189,-0.29091 -0.16783,-0.61539 -0.16783,-0.97343v-24.36939c0,-0.33567 0.05595,-0.62658 0.16783,-0.87273c0.11189,-0.26853 0.30209,-0.48112 0.57063,-0.63777c0.26854,-0.15665 0.66015,-0.23496 1.17484,-0.23496c0.38042,0 0.69371,0.02237 0.93986,0.06713c0.24615,0.04476 0.43637,0.12308 0.57064,0.23497c0.15664,0.08951 0.31329,0.22378 0.46993,0.4028l10.47279,15.13856h-1.24197l10.5735,-15.27283c0.15664,-0.17902 0.31329,-0.3021 0.46993,-0.36923c0.17902,-0.08951 0.39162,-0.14545 0.63777,-0.16783c0.24615,-0.02238 0.54826,-0.03356 0.9063,-0.03356c0.49231,0 0.86154,0.07832 1.10769,0.23496c0.26854,0.15664 0.45875,0.38043 0.57064,0.67133c0.11189,0.26853 0.16783,0.57063 0.16783,0.9063v24.36939c0,0.33567 -0.05595,0.63777 -0.16783,0.9063c-0.11189,0.26854 -0.3021,0.48112 -0.57064,0.63777c-0.26854,0.15665 -0.64896,0.23496 -1.14127,0.23496c-0.49231,0 -0.87273,-0.07832 -1.14126,-0.23496c-0.24615,-0.15664 -0.41399,-0.36923 -0.5035,-0.63777c-0.08951,-0.29091 -0.13426,-0.61539 -0.13426,-0.97343v-20.10643l-8.59306,12.62106c-0.06714,0.13426 -0.16784,0.25734 -0.3021,0.36924c-0.13426,0.11189 -0.3021,0.21259 -0.5035,0.3021c-0.2014,0.08951 -0.44755,0.13427 -0.73846,0.13427c-0.31329,0 -0.55944,-0.04476 -0.73846,-0.13427c-0.17902,-0.08951 -0.33567,-0.19021 -0.46993,-0.3021c-0.13426,-0.11189 -0.26854,-0.24615 -0.4028,-0.4028l-8.52593,-12.55393v20.14c0,0.33567 -0.05595,0.63777 -0.16784,0.9063c-0.08951,0.26854 -0.25734,0.48112 -0.5035,0.63777c-0.24615,0.15665 -0.62658,0.23496 -1.14127,0.23496zM231.83613,194.098c-1.16365,0 -2.24896,-0.21259 -3.25597,-0.63777c-1.007,-0.42518 -1.87974,-1.01818 -2.6182,-1.77903c-0.73846,-0.78322 -1.32028,-1.72309 -1.74546,-2.8196c-0.4028,-1.09651 -0.6042,-2.33848 -0.6042,-3.7259v-8.69376c0,-0.38042 0.03357,-0.7049 0.1007,-0.97343c0.08951,-0.26854 0.25735,-0.46994 0.5035,-0.6042c0.24615,-0.15664 0.62658,-0.23496 1.14127,-0.23496c0.51469,0 0.89511,0.07832 1.14126,0.23496c0.24615,0.15664 0.41399,0.36923 0.5035,0.63777c0.08951,0.26854 0.13426,0.59302 0.13426,0.97344v8.69376c0,1.09651 0.17902,2.06995 0.53707,2.9203c0.38042,0.82797 0.95106,1.47693 1.7119,1.94687c0.76084,0.44755 1.68952,0.67133 2.78603,0.67133c1.11889,0 2.08114,-0.22378 2.88674,-0.67133c0.82798,-0.46994 1.45455,-1.11889 1.87973,-1.94687c0.44755,-0.85035 0.67133,-1.82379 0.67133,-2.9203v-8.72733c0,-0.38042 0.04476,-0.7049 0.13426,-0.97343c0.08951,-0.26854 0.25735,-0.46994 0.5035,-0.6042c0.24615,-0.15664 0.62658,-0.23496 1.14127,-0.23496c0.51469,0 0.89511,0.07832 1.14127,0.23496c0.24615,0.15664 0.4028,0.36923 0.46993,0.63777c0.06714,0.26854 0.1007,0.59302 0.1007,0.97344v15.9106c0,0.31329 -0.03356,0.60419 -0.1007,0.87273c-0.06714,0.24615 -0.22378,0.43637 -0.46993,0.57063c-0.24615,0.13427 -0.62658,0.2014 -1.14127,0.2014c-0.38042,0 -0.68252,-0.04475 -0.9063,-0.13426c-0.22378,-0.06714 -0.39161,-0.16783 -0.5035,-0.3021c-0.11189,-0.13426 -0.19021,-0.29092 -0.23497,-0.46994c-0.02238,-0.17902 -0.03356,-0.35805 -0.03356,-0.53706l0.16783,-1.74546c-0.26854,0.33567 -0.59301,0.69371 -0.97343,1.07413c-0.38042,0.35805 -0.81679,0.7049 -1.3091,1.04057c-0.49231,0.33567 -1.05175,0.6042 -1.67833,0.80559c-0.6042,0.22378 -1.29791,0.33567 -2.08113,0.33567zM252.35683,194.26583c-0.62658,0 -1.28672,-0.06714 -1.98043,-0.2014c-0.69371,-0.13426 -1.37623,-0.32447 -2.04757,-0.57063c-0.64896,-0.26853 -1.21959,-0.57063 -1.7119,-0.9063c-0.49231,-0.35805 -0.86155,-0.74966 -1.1077,-1.17484c-0.13427,-0.26854 -0.21258,-0.51468 -0.23496,-0.73846c-0.02238,-0.22378 0.01119,-0.43636 0.1007,-0.63777c0.11189,-0.22378 0.27972,-0.44755 0.5035,-0.67133c0.26853,-0.31329 0.53706,-0.45875 0.8056,-0.43637c0.26854,0 0.6042,0.17902 1.007,0.53707c0.29091,0.17902 0.63777,0.38042 1.04057,0.6042c0.4028,0.22378 0.81678,0.42518 1.24196,0.6042c0.42518,0.17902 0.85035,0.33567 1.27553,0.46993c0.44756,0.11189 0.88392,0.16783 1.3091,0.16783c1.23077,0 2.2154,-0.23496 2.95387,-0.7049c0.76084,-0.46994 1.14126,-1.09651 1.14126,-1.87973c0,-0.44755 -0.1007,-0.82798 -0.3021,-1.14127c-0.17902,-0.33567 -0.42518,-0.61539 -0.73846,-0.83917c-0.31329,-0.22378 -0.67133,-0.41399 -1.07414,-0.57063c-0.4028,-0.15665 -0.85036,-0.31329 -1.34267,-0.46994c-0.49231,-0.15664 -0.98462,-0.3021 -1.47693,-0.43636c-0.71609,-0.17902 -1.42098,-0.38042 -2.11469,-0.6042c-0.69371,-0.24616 -1.32029,-0.55945 -1.87974,-0.93986c-0.55944,-0.4028 -1.01819,-0.9063 -1.37624,-1.5105c-0.33567,-0.6042 -0.50349,-1.37624 -0.50349,-2.3161c0,-1.07413 0.27972,-2.014 0.83916,-2.8196c0.55944,-0.8056 1.34267,-1.43218 2.34967,-1.87974c1.02937,-0.44755 2.22659,-0.67133 3.59163,-0.67133c0.58182,0 1.11889,0.04475 1.6112,0.13426c0.51469,0.08951 1.007,0.22378 1.47693,0.4028c0.46994,0.15664 0.91748,0.34686 1.34266,0.57063c0.42518,0.22378 0.83916,0.5035 1.24197,0.83917c0.49231,0.31329 0.74965,0.66015 0.77203,1.04056c0.02238,0.38042 -0.12307,0.76085 -0.43637,1.14127c-0.24615,0.35805 -0.51469,0.58182 -0.8056,0.67133c-0.29091,0.08951 -0.58183,0.02238 -0.87274,-0.2014c-0.44755,-0.33567 -0.91749,-0.61539 -1.4098,-0.83917c-0.46994,-0.24615 -0.96224,-0.44755 -1.47693,-0.6042c-0.49231,-0.17902 -1.00701,-0.26853 -1.54407,-0.26853c-0.67133,0 -1.26434,0.1007 -1.77903,0.3021c-0.51469,0.2014 -0.91749,0.5035 -1.2084,0.9063c-0.26854,0.38042 -0.4028,0.8056 -0.4028,1.27553c0,0.44756 0.11188,0.8056 0.33567,1.07413c0.22378,0.24615 0.51469,0.46993 0.87273,0.67133c0.35805,0.17902 0.78322,0.34686 1.27553,0.5035c0.49231,0.13427 1.007,0.26854 1.54407,0.4028c0.78322,0.2014 1.57763,0.42518 2.38323,0.67133c0.82797,0.24615 1.56644,0.58182 2.2154,1.007c0.64896,0.4028 1.17483,0.95106 1.57763,1.64477c0.42518,0.67133 0.63776,1.56644 0.63776,2.68533c0,1.76784 -0.69371,3.16646 -2.08114,4.19583c-1.38742,1.007 -3.23358,1.5105 -5.53849,1.5105zM266.28853,194.06443c-0.51469,0 -0.90629,-0.07832 -1.17483,-0.23496c-0.24615,-0.13426 -0.41399,-0.33567 -0.5035,-0.6042c-0.06714,-0.26853 -0.1007,-0.59301 -0.1007,-0.97343v-15.80989c0,-0.38042 0.03357,-0.7049 0.1007,-0.97343c0.08951,-0.26854 0.25734,-0.46994 0.5035,-0.6042c0.26854,-0.13426 0.67133,-0.2014 1.20839,-0.2014c0.51469,0 0.88392,0.07832 1.1077,0.23497c0.24616,0.13426 0.4028,0.33566 0.46993,0.6042c0.08951,0.26854 0.13427,0.6042 0.13427,1.007v15.77633c0,0.38042 -0.04476,0.70489 -0.13427,0.97343c-0.06714,0.26853 -0.23496,0.46993 -0.5035,0.6042c-0.24616,0.13426 -0.61539,0.2014 -1.1077,0.2014zM266.28853,169.86287c-0.6042,0 -1.05175,-0.08952 -1.34267,-0.26853c-0.29091,-0.17902 -0.48113,-0.42518 -0.57064,-0.73847c-0.08951,-0.31329 -0.13426,-0.69371 -0.13426,-1.14126c0,-0.42518 0.04476,-0.78323 0.13426,-1.07414c0.11189,-0.31329 0.31329,-0.53707 0.6042,-0.67133c0.31329,-0.15664 0.76085,-0.23496 1.34267,-0.23496c0.55945,0 0.98463,0.07832 1.27553,0.23496c0.29091,0.15664 0.48113,0.40281 0.57064,0.73847c0.11189,0.31329 0.16783,0.68252 0.16783,1.1077c0,0.42518 -0.05594,0.79441 -0.16783,1.1077c-0.08951,0.29091 -0.27972,0.52588 -0.57064,0.7049c-0.29091,0.15664 -0.72728,0.23496 -1.3091,0.23496zM281.41332,194.13156c-1.38742,0 -2.68534,-0.22378 -3.89373,-0.67133c-1.2084,-0.44755 -2.28253,-1.09651 -3.2224,-1.94687c-0.91749,-0.87273 -1.63358,-1.90211 -2.14827,-3.08813c-0.51469,-1.18602 -0.77203,-2.53987 -0.77203,-4.06157c0,-1.52169 0.25734,-2.87555 0.77203,-4.06157c0.51469,-1.18602 1.23078,-2.20421 2.14827,-3.05457c0.91749,-0.87273 1.98043,-1.53288 3.18883,-1.98043c1.2084,-0.44755 2.49512,-0.67133 3.86016,-0.67133c0.91749,0 1.8126,0.14545 2.68534,0.43636c0.87274,0.26854 1.64476,0.62658 2.3161,1.07413c0.69371,0.42518 1.18602,0.88392 1.47693,1.37623c0.26854,0.33567 0.45875,0.61539 0.57064,0.83917c0.13427,0.22378 0.14545,0.49231 0.03357,0.8056c-0.08951,0.2014 -0.23496,0.39162 -0.43637,0.57064c-0.17902,0.17902 -0.35805,0.31329 -0.53707,0.4028c-0.49231,0.38042 -0.97343,0.43636 -1.44337,0.16783c-0.31329,-0.29091 -0.64896,-0.55945 -1.007,-0.8056c-0.35805,-0.26853 -0.73847,-0.50349 -1.14126,-0.70489c-0.4028,-0.22378 -0.81678,-0.39161 -1.24197,-0.5035c-0.4028,-0.11189 -0.82798,-0.16783 -1.27553,-0.16783c-1.25315,0 -2.36086,0.25734 -3.3231,0.77203c-0.96225,0.51469 -1.7119,1.25315 -2.24896,2.2154c-0.51469,0.93986 -0.77203,2.03638 -0.77203,3.28954c0,1.25316 0.25734,2.34966 0.77203,3.28953c0.53706,0.93986 1.27553,1.67834 2.2154,2.2154c0.96225,0.51469 2.05876,0.77204 3.28953,0.77204c0.55945,0 1.09651,-0.06714 1.6112,-0.2014c0.51469,-0.15665 0.99581,-0.35805 1.44337,-0.6042c0.46993,-0.24616 0.85036,-0.52588 1.14126,-0.83917c0.26854,-0.17902 0.49231,-0.33567 0.67133,-0.46993c0.2014,-0.13426 0.43637,-0.2014 0.7049,-0.2014c0.2014,0 0.42518,0.08951 0.67133,0.26853c0.24616,0.17902 0.5035,0.43637 0.77204,0.77204c0.2014,0.24615 0.32448,0.5035 0.36923,0.77203c0.04476,0.26854 0,0.52588 -0.13427,0.77203c-0.13427,0.22378 -0.34686,0.45875 -0.63777,0.7049c-0.42518,0.42518 -0.99581,0.83917 -1.7119,1.24197c-0.71609,0.38042 -1.48813,0.68252 -2.3161,0.9063c-0.82798,0.24616 -1.64477,0.36924 -2.45037,0.36924z"/></g></g></svg>