<svg version="1.1" xmlns="http://www.w3.org/2000/svg" xmlns:xlink="http://www.w3.org/1999/xlink" width="131.83887" height="59.00767" viewBox="0,0,131.83887,59.00767"><g transform="translate(-174.15886,-149.40379)"><g data-paper-data="{&quot;isPaintingLayer&quot;:true}" stroke-linejoin="miter" stroke-miterlimit="10" stroke-dasharray="" stroke-dashoffset="0" style="mix-blend-mode: normal"><path d="M176.15887,167.2691v0c0,-8.76217 7.10314,-15.86531 15.86531,-15.86531l96.10824,0.25626v0c4.20774,0 8.24314,1.67152 11.21847,4.64684c2.97532,2.97532 4.64685,7.01074 4.64685,11.21848v23.02078c0,8.76217 -7.10314,15.86531 -15.86532,15.86531l-96.10824,-0.25626c-8.76217,0 -15.86531,-7.10314 -15.86531,-15.86531z" fill="#ececec" fill-rule="evenodd" stroke="#000000" stroke-width="4" stroke-linecap="square"/><path d="M176.15887,167.26907v0c0,-8.76216 7.10315,-15.86531 15.86532,-15.86531l96.10824,0.25627v0c4.20774,0 8.24314,1.67152 11.21846,4.64684c2.97532,2.97532 4.64685,7.01073 4.64685,11.21847v23.02078c0,8.76217 -7.10314,15.86531 -15.86532,15.86531l-96.10824,-0.25627c-8.76217,0 -15.86532,-7.10314 -15.86532,-15.86531z" fill="#ececec" fill-rule="evenodd" stroke="none" stroke-width="1" stroke-linecap="square"/><path d="M176.15887,167.2691v0c0,-8.76217 7.10314,-15.86531 15.86531,-15.86531l96.10824,0.25626v0c4.20774,0 8.24314,1.67152 11.21847,4.64684c2.97532,2.97532 4.64685,7.01073 4.64685,11.21847l-0.00828,19.67943c0,8.76217 -7.10314,15.86531 -15.86531,15.86531l-96.10824,-0.25626c-8.76217,0 -15.86532,-7.10314 -15.86532,-15.86531z" fill="#ffffff" fill-rule="evenodd" stroke="none" stroke-width="1" stroke-linecap="square"/><g fill-rule="nonzero" stroke="none" stroke-linecap="butt"><path d="M228.78206,179.75073v-3.27209h22.45877v3.27209z" fill="#6a90d1" stroke-width="0"/><g fill="#6a90d1"><path d="M229.1863,179.0492c1.32335,-1.17006 6.91005,-5.31654 9.24927,-7.3848c0.80034,-0.70764 2.13018,-0.63197 2.77053,-0.15397c1.10932,0.82807 6.48044,5.44012 9.3852,7.62878c0.91397,0.68865 0.78937,1.13151 -0.38361,1.13151c-4.87391,0 -17.70273,0 -20.44435,0c-1.00738,0 -1.24606,-0.62999 -0.57704,-1.22152z" stroke-width="0"/><g><path d="M231.51129,191.03581c0,-1.66892 0,-11.27276 0,-11.27276h5.01897c0,0 0,9.4721 0,11.18992c0,0.51391 -0.41125,1.00148 -0.98152,1.00148c-1.04605,0 -2.62719,0 -3.18681,0c-0.39063,0 -0.85063,-0.44222 -0.85063,-0.91864z" stroke-width="NaN"/><path d="M243.14955,191.15258c0,-1.66565 0,-11.27805 0,-11.27805h5.01897c0,0 0,9.66229 0,11.30866c0,0.45998 -0.40925,0.88274 -0.97261,0.88274c-1.07293,0 -2.70488,0 -3.13336,0c-0.41362,0 -0.913,-0.43934 -0.913,-0.91335z" stroke-width="NaN"/><path d="M231.633,183.98219v-4.42415h16.54245v4.42415z" stroke-width="0"/></g></g><g fill="#82b0ff"><path d="M229.13629,175.84097c1.32335,-1.17006 6.91005,-5.31654 9.24927,-7.3848c0.80034,-0.70764 2.13018,-0.63197 2.77053,-0.15397c1.10932,0.82807 6.48044,5.44012 9.3852,7.62878c0.91397,0.68865 0.78937,1.13151 -0.38361,1.13151c-4.87391,0 -17.70273,0 -20.44435,0c-1.00738,0 -1.24606,-0.62999 -0.57704,-1.22152z" stroke-width="0"/><g><path d="M231.46128,187.82758c0,-1.66892 0,-11.27276 0,-11.27276h5.01897c0,0 0,9.4721 0,11.18992c0,0.51391 -0.41125,1.00148 -0.98152,1.00148c-1.04605,0 -2.62719,0 -3.18681,0c-0.39063,0 -0.85063,-0.44222 -0.85063,-0.91864z" stroke-width="NaN"/><path d="M243.09953,187.94435c0,-1.66565 0,-11.27805 0,-11.27805h5.01897c0,0 0,9.66229 0,11.30866c0,0.45998 -0.40925,0.88274 -0.97261,0.88274c-1.07293,0 -2.70488,0 -3.13336,0c-0.41362,0 -0.913,-0.43934 -0.913,-0.91335z" stroke-width="NaN"/><path d="M231.58298,180.77396v-4.42415h16.54245v4.42415z" stroke-width="0"/></g></g></g></g></g></svg>