<svg version="1.1" xmlns="http://www.w3.org/2000/svg" xmlns:xlink="http://www.w3.org/1999/xlink" width="75.14486" height="37.19439" viewBox="0,0,75.14486,37.19439"><g transform="translate(-202.42757,-161.40281)"><g data-paper-data="{&quot;isPaintingLayer&quot;:true}" fill-rule="nonzero" stroke-linecap="butt" stroke-linejoin="miter" stroke-miterlimit="10" stroke-dasharray="" stroke-dashoffset="0" style="mix-blend-mode: normal"><g data-paper-data="{&quot;index&quot;:null}" stroke="#000000" stroke-width="4"><g fill="#6a90d1"><path d="M237.33722,180.14237c0,9.08774 -7.36709,16.45483 -16.45483,16.45483c-9.08774,0 -16.45482,-7.36709 -16.45482,-16.45483c0,-9.08774 7.36708,-16.45483 16.45482,-16.45483c9.08774,0 16.45483,7.36708 16.45483,16.45482z"/><path d="M220.44513,196.59718v-33.19434h39.10974v33.19434z"/><path d="M275.57242,179.85765c0,9.08774 -7.36709,16.45483 -16.45483,16.45483c-9.08773,0 -16.45482,-7.36709 -16.45482,-16.45483c0,-9.08774 7.36709,-16.45483 16.45483,-16.45483c9.08774,0 16.45483,7.36708 16.45483,16.45482z"/></g><g fill="#82b0ff"><path d="M237.33722,178.93604c0,8.43284 -7.36709,15.26903 -16.45483,15.26903c-9.08774,0 -16.45482,-6.83619 -16.45482,-15.26903c0,-8.43284 7.36708,-15.26903 16.45482,-15.26903c9.08774,0 16.45483,6.83618 16.45483,15.26902z"/><path d="M220.44513,194.20506v-30.80223h39.10974v30.80223z"/><path d="M275.57242,178.67184c0,8.43284 -7.36709,15.26903 -16.45483,15.26903c-9.08773,0 -16.45482,-6.83619 -16.45482,-15.26903c0,-8.43284 7.36709,-15.26903 16.45483,-15.26903c9.08774,0 16.45483,6.83618 16.45483,15.26902z"/></g></g><g data-paper-data="{&quot;index&quot;:null}" stroke="none"><g fill="#6a90d1"><path d="M237.33722,180.14239c0,9.08774 -7.36709,16.45483 -16.45483,16.45483c-9.08774,0 -16.45482,-7.36709 -16.45482,-16.45483c0,-9.08774 7.36708,-16.45483 16.45482,-16.45483c9.08774,0 16.45483,7.36708 16.45483,16.45482z" stroke-width="0.5"/><path d="M220.44513,196.59719v-33.19434h39.10974v33.19434z" stroke-width="0"/><path d="M275.57242,179.85767c0,9.08774 -7.36709,16.45483 -16.45483,16.45483c-9.08773,0 -16.45482,-7.36709 -16.45482,-16.45483c0,-9.08774 7.36709,-16.45483 16.45483,-16.45483c9.08774,0 16.45483,7.36708 16.45483,16.45482z" stroke-width="0.5"/></g><g fill="#82b0ff"><path d="M237.33722,178.93604c0,8.43284 -7.36709,15.26903 -16.45483,15.26903c-9.08774,0 -16.45482,-6.83619 -16.45482,-15.26903c0,-8.43284 7.36708,-15.26903 16.45482,-15.26903c9.08774,0 16.45483,6.83618 16.45483,15.26902z" stroke-width="0.5"/><path d="M220.44513,194.20507v-30.80223h39.10974v30.80223z" stroke-width="0"/><path d="M275.57242,178.67186c0,8.43284 -7.36709,15.26903 -16.45483,15.26903c-9.08773,0 -16.45482,-6.83619 -16.45482,-15.26903c0,-8.43284 7.36709,-15.26903 16.45483,-15.26903c9.08774,0 16.45483,6.83618 16.45483,15.26902z" stroke-width="0.5"/></g></g><path d="M219.89542,191.07948c-6.76195,0 -12.2436,-5.48166 -12.2436,-12.24361c0,-6.76196 5.48165,-12.24361 12.2436,-12.24361c6.76195,0 12.24361,5.48166 12.24361,12.24361c0,6.76195 -5.48166,12.24361 -12.24361,12.24361z" data-paper-data="{&quot;index&quot;:null}" fill="#ffffff" stroke="none" stroke-width="0.5"/></g></g></svg>