<svg version="1.1" xmlns="http://www.w3.org/2000/svg" xmlns:xlink="http://www.w3.org/1999/xlink" width="36.15134" height="49.46195" viewBox="0,0,36.15134,49.46195"><g transform="translate(-221.92433,-155.26902)"><g data-paper-data="{&quot;isPaintingLayer&quot;:true}" fill="#ffffff" fill-rule="nonzero" stroke="#ffffff" stroke-width="0.5" stroke-linecap="square" stroke-linejoin="miter" stroke-miterlimit="10" stroke-dasharray="" stroke-dashoffset="0" style="mix-blend-mode: normal"><path d="M225.22346,204.48098c-0.78184,0 -1.48548,-0.33227 -2.11094,-0.99683c-0.62546,-0.70364 -0.93819,-1.48548 -0.93819,-2.34548c0,-0.62545 0,-1.27047 0,-1.93503c0.03909,-0.66456 0.19546,-1.30956 0.46909,-1.93502c0.27364,-0.66456 0.82092,-1.27047 1.64184,-1.81775c2.54094,-1.87638 5.04279,-3.61594 7.50555,-5.2187c2.46276,-1.64184 4.7496,-3.20549 6.86054,-4.69097c2.11094,-1.48548 3.96776,-2.97094 5.57052,-4.45642c1.60276,-1.48548 2.85366,-3.02957 3.75278,-4.63232c0.89911,-1.64184 1.34865,-3.42051 1.34865,-5.33598c0,-1.91547 -0.3909,-3.55731 -1.17274,-4.92551c-0.74273,-1.3682 -1.89594,-2.4432 -3.45959,-3.22503c-1.52457,-0.78184 -3.44003,-1.17275 -5.74643,-1.17275c-1.64184,0 -3.12732,0.25411 -4.45642,0.76229c-1.29002,0.50818 -2.38457,1.23137 -3.28368,2.16957c-0.89911,0.89911 -1.5832,2.03275 -2.0523,3.40095c-0.46909,1.3682 -0.70364,2.91231 -0.70364,4.63233c0,0.70364 -0.05863,1.29001 -0.17591,1.75911c-0.11728,0.43001 -0.39091,0.76228 -0.82092,0.99683c-0.43001,0.23455 -1.17275,0.35182 -2.22821,0.35182c-1.01638,0 -1.73956,-0.15636 -2.16957,-0.4691c-0.43001,-0.31274 -0.68409,-0.74273 -0.76228,-1.29002c-0.07819,-0.58637 -0.11727,-1.23138 -0.11727,-1.93502c0,-2.42367 0.37137,-4.65188 1.1141,-6.68462c0.74273,-2.03275 1.8373,-3.79186 3.28368,-5.27734c1.44637,-1.48548 3.18595,-2.63867 5.21869,-3.45959c2.07185,-0.82092 4.43687,-1.23138 7.09509,-1.23138c3.40095,0 6.35235,0.62546 8.85419,1.87639c2.50184,1.25093 4.45641,3.08821 5.8637,5.51188c1.40729,2.38457 2.11094,5.33598 2.11094,8.8542c0,1.60276 -0.23455,3.12732 -0.70365,4.57369c-0.46909,1.44637 -1.17274,2.83413 -2.11093,4.16323c-0.89911,1.3291 -1.97411,2.61912 -3.22504,3.87005c-1.21183,1.21183 -2.59959,2.42367 -4.16323,3.63549c-1.56365,1.21183 -3.26413,2.44321 -5.10143,3.69414c-1.79819,1.21183 -3.69413,2.46276 -5.68779,3.75277l-4.45642,2.63867h24.39302c0.66456,0 1.23138,0.07819 1.70047,0.23455c0.4691,0.11728 0.82092,0.41046 1.05547,0.87955c0.27364,0.4691 0.41046,1.17274 0.41046,2.11094c0,0.89911 -0.15636,1.5832 -0.4691,2.0523c-0.27364,0.43001 -0.64501,0.72319 -1.1141,0.87955c-0.4691,0.15636 -1.03592,0.23455 -1.70047,0.23455z"/></g></g></svg>