<svg version="1.1" xmlns="http://www.w3.org/2000/svg" xmlns:xlink="http://www.w3.org/1999/xlink" width="109.17564" height="50.40015" viewBox="0,0,109.17564,50.40015"><g transform="translate(-185.41218,-154.79992)"><g data-paper-data="{&quot;isPaintingLayer&quot;:true}" fill="#ffffff" fill-rule="nonzero" stroke="#ffffff" stroke-width="0.5" stroke-linecap="square" stroke-linejoin="miter" stroke-miterlimit="10" stroke-dasharray="" stroke-dashoffset="0" style="mix-blend-mode: normal"><path d="M209.4102,204.59826c-3.67458,0 -6.95826,-0.58637 -9.85103,-1.75911c-2.89277,-1.21183 -5.37506,-2.9123 -7.44691,-5.10143c-2.07185,-2.22821 -3.67458,-4.90596 -4.80824,-8.03328c-1.09455,-3.12732 -1.64184,-6.60644 -1.64184,-10.4374c0,-3.6355 0.56682,-6.91917 1.70048,-9.85103c1.13366,-2.93185 2.77549,-5.45325 4.92551,-7.56418c2.15002,-2.11093 4.71052,-3.75277 7.68146,-4.92551c3.01004,-1.21183 6.39144,-1.8373 10.14421,-1.87639c1.44637,0 2.9123,0.13683 4.39778,0.41046c1.52456,0.27363 2.99049,0.68409 4.39778,1.23138c1.40729,0.50818 2.65822,1.09455 3.75277,1.75911c0.82092,0.54729 1.50501,1.09455 2.0523,1.64184c0.54729,0.50818 0.86,1.03592 0.93819,1.5832c0.03909,0.31274 -0.01955,0.68409 -0.17591,1.1141c-0.11727,0.39091 -0.29319,0.78183 -0.52773,1.17274c-0.39091,0.54729 -0.82092,0.95775 -1.29002,1.23138c-0.43001,0.23455 -0.84047,0.35182 -1.23138,0.35182c-0.19546,0 -0.52773,-0.11727 -0.99683,-0.35182c-0.4691,-0.23455 -1.05547,-0.58637 -1.75911,-1.05547c-0.78183,-0.4691 -1.70048,-0.89911 -2.75594,-1.29002c-1.05547,-0.43001 -2.18912,-0.76228 -3.40095,-0.99683c-1.21183,-0.23455 -2.46276,-0.35182 -3.75277,-0.35182c-3.59641,0 -6.72371,0.7232 -9.38193,2.16957c-2.65822,1.44637 -4.71052,3.51822 -6.15689,6.21553c-1.40729,2.69731 -2.13049,5.90279 -2.16957,9.61648c0.03909,3.83096 0.78183,7.15372 2.22821,9.9683c1.44637,2.77549 3.47914,4.94507 6.09826,6.50871c2.65822,1.52456 5.74643,2.28685 9.26466,2.28685c1.17274,0 2.36503,-0.09772 3.57686,-0.29319c1.21183,-0.19546 2.40412,-0.4691 3.57686,-0.82092c1.21183,-0.35182 2.34548,-0.78183 3.40095,-1.29002v-13.48653h-12.25515c-0.62546,0 -1.17274,-0.07819 -1.64184,-0.23455c-0.43001,-0.15636 -0.74273,-0.43001 -0.93819,-0.82092c-0.19546,-0.43001 -0.29319,-1.07502 -0.29319,-1.93502c0,-0.82092 0.11727,-1.42684 0.35182,-1.81775c0.23455,-0.43001 0.54729,-0.7232 0.93819,-0.87956c0.43001,-0.15636 0.95775,-0.23455 1.5832,-0.23455h15.187c0.93819,0 1.62229,0.17591 2.0523,0.52773c0.4691,0.31274 0.80137,0.7232 0.99683,1.23138c0.23455,0.4691 0.35182,1.05547 0.35182,1.75911v17.2393c0,0.74273 -0.41046,1.52456 -1.23138,2.34548c-0.82092,0.82092 -1.97411,1.5832 -3.45959,2.28685c-1.05547,0.54729 -2.24776,1.03592 -3.57686,1.46593c-1.3291,0.39091 -2.75594,0.70364 -4.28051,0.93819c-1.48548,0.23455 -3.01004,0.35182 -4.57369,0.35182zM257.27873,204.95007c-3.32276,0 -6.45008,-0.62546 -9.38193,-1.87639c-2.89277,-1.25093 -5.45325,-3.01004 -7.68146,-5.27734c-2.18912,-2.26729 -3.92868,-4.86688 -5.2187,-7.79873c-1.25093,-2.93185 -1.87639,-6.11781 -1.87639,-9.55784c0,-3.44004 0.60592,-6.68463 1.81775,-9.73375c1.21183,-3.04913 2.89277,-5.70735 5.04279,-7.97464c2.18912,-2.3064 4.71052,-4.10459 7.56418,-5.39461c2.85366,-1.3291 5.88326,-1.99366 9.08875,-1.99366c3.36186,0 6.48916,0.62546 9.38193,1.87639c2.93185,1.25093 5.4728,3.01004 7.62282,5.27734c2.18912,2.26729 3.90913,4.92551 5.16006,7.97464c1.29002,3.01004 1.93502,6.25461 1.93502,9.73375c0,3.40095 -0.62546,6.5869 -1.87639,9.55784c-1.21183,2.93185 -2.89277,5.57052 -5.04279,7.916c-2.15002,2.3064 -4.65188,4.10459 -7.50554,5.39461c-2.81458,1.25093 -5.82462,1.87639 -9.03011,1.87639zM256.86827,198.61728c2.42367,0 4.69097,-0.4691 6.8019,-1.40729c2.15002,-0.93819 4.00687,-2.24776 5.57052,-3.92868c1.60275,-1.72003 2.85366,-3.69414 3.75277,-5.92234c0.89911,-2.22821 1.34865,-4.65188 1.34865,-7.271c0,-2.50184 -0.44954,-4.84732 -1.34865,-7.03645c-0.89911,-2.22821 -2.16957,-4.20232 -3.81141,-5.92234c-1.60275,-1.72003 -3.45959,-3.06868 -5.57052,-4.04596c-2.07185,-0.97728 -4.30006,-1.46593 -6.68463,-1.46593c-2.38457,0 -4.63233,0.48865 -6.74326,1.46593c-2.07185,0.97728 -3.92868,2.3064 -5.57052,3.98732c-1.60275,1.68092 -2.85366,3.65505 -3.75277,5.92234c-0.89911,2.22821 -1.34865,4.63233 -1.34865,7.21236c0,2.50184 0.44954,4.88643 1.34865,7.15372c0.89911,2.22821 2.15002,4.18278 3.75277,5.86371c1.64184,1.68092 3.49867,3.01004 5.57052,3.98732c2.07185,0.93819 4.30006,1.40729 6.68463,1.40729zM290.70231,190.70127c-0.93819,0 -1.64184,-0.09772 -2.11093,-0.29319c-0.43001,-0.23455 -0.7232,-0.56682 -0.87956,-0.99683c-0.11727,-0.4691 -0.17591,-1.01638 -0.17591,-1.64184v-29.20126c0,-0.62546 0.05864,-1.15319 0.17591,-1.5832c0.15636,-0.4691 0.44954,-0.82092 0.87956,-1.05547c0.4691,-0.27363 1.13366,-0.41046 1.99366,-0.41046c0.93819,0 1.62229,0.11727 2.0523,0.35182c0.4691,0.23455 0.76228,0.58637 0.87956,1.05547c0.15636,0.43001 0.23455,0.97728 0.23455,1.64184v29.08399c0,0.62546 -0.07819,1.17274 -0.23455,1.64184c-0.11727,0.4691 -0.39091,0.82092 -0.82092,1.05547c-0.43001,0.23455 -1.09455,0.35182 -1.99366,0.35182zM290.70231,204.53962c-1.48548,0 -2.48231,-0.27363 -2.99049,-0.82092c-0.50818,-0.58637 -0.76228,-1.52456 -0.76228,-2.81458c0,-0.78183 0.09772,-1.44637 0.29319,-1.99366c0.19546,-0.58637 0.54729,-1.01638 1.05547,-1.29002c0.50818,-0.31274 1.27046,-0.4691 2.28685,-0.4691c1.52456,0 2.52139,0.27363 2.99049,0.82092c0.50818,0.54729 0.76228,1.48548 0.76228,2.81458c0,0.78183 -0.09772,1.44637 -0.29319,1.99366c-0.19546,0.50818 -0.54729,0.91864 -1.05547,1.23138c-0.50818,0.35182 -1.27046,0.52773 -2.28685,0.52773z"/></g></g></svg>