<svg version="1.1" xmlns="http://www.w3.org/2000/svg" xmlns:xlink="http://www.w3.org/1999/xlink" width="11.95316" height="16.51564" viewBox="0,0,11.95316,16.51564"><g transform="translate(-234.02342,-171.79508)"><g data-paper-data="{&quot;isPaintingLayer&quot;:true}" fill-rule="nonzero" stroke-linecap="square" stroke-linejoin="miter" stroke-miterlimit="10" stroke-dasharray="" stroke-dashoffset="0" style="mix-blend-mode: normal"><path d="M243.36714,186.56064c-0.25,0 -0.43229,-0.03646 -0.54687,-0.10937c-0.11458,-0.0625 -0.19271,-0.15625 -0.23437,-0.28125c-0.03125,-0.13542 -0.04687,-0.28646 -0.04687,-0.45312v-3.28125h-5.92187c-0.23958,0 -0.42187,-0.03646 -0.54687,-0.10937c-0.11458,-0.07292 -0.19271,-0.17187 -0.23437,-0.29687c-0.04167,-0.13542 -0.0625,-0.28646 -0.0625,-0.45312c0,-0.07292 0.00521,-0.14062 0.01563,-0.20312c0.01042,-0.07292 0.02604,-0.14062 0.04688,-0.20312l2.03125,-7.01562c0.10417,-0.375 0.22396,-0.59375 0.35938,-0.65625c0.14583,-0.07292 0.36458,-0.07812 0.65625,-0.01562c0.27083,0.05208 0.46875,0.15104 0.59375,0.29688c0.125,0.13542 0.15104,0.31771 0.07813,0.54688l-1.89062,6.54688h4.875v-6.60937c0,-0.14583 0.02083,-0.27083 0.0625,-0.375c0.04167,-0.11458 0.125,-0.19792 0.25,-0.25c0.125,-0.0625 0.3125,-0.09375 0.5625,-0.09375c0.22917,0 0.40104,0.03646 0.51563,0.10938c0.125,0.0625 0.20313,0.15625 0.23438,0.28125c0.04167,0.125 0.0625,0.27083 0.0625,0.4375v11.35938c0,0.17708 -0.02083,0.32813 -0.0625,0.45313c-0.04167,0.125 -0.125,0.21875 -0.25,0.28125c-0.11458,0.0625 -0.29687,0.09375 -0.54687,0.09375z" fill="#ffffff" stroke="#ffffff" stroke-width="3.5"/><path d="M243.36714,186.56065c-0.25,0 -0.43229,-0.03646 -0.54687,-0.10937c-0.11458,-0.0625 -0.19271,-0.15625 -0.23437,-0.28125c-0.03125,-0.13542 -0.04687,-0.28646 -0.04687,-0.45312v-3.28125h-5.92187c-0.23958,0 -0.42187,-0.03646 -0.54687,-0.10937c-0.11458,-0.07292 -0.19271,-0.17187 -0.23437,-0.29687c-0.04167,-0.13542 -0.0625,-0.28646 -0.0625,-0.45312c0,-0.07292 0.00521,-0.14062 0.01563,-0.20312c0.01042,-0.07292 0.02604,-0.14062 0.04688,-0.20312l2.03125,-7.01562c0.10417,-0.375 0.22396,-0.59375 0.35938,-0.65625c0.14583,-0.07292 0.36458,-0.07812 0.65625,-0.01562c0.27083,0.05208 0.46875,0.15104 0.59375,0.29688c0.125,0.13542 0.15104,0.31771 0.07813,0.54688l-1.89062,6.54688h4.875v-6.60937c0,-0.14583 0.02083,-0.27083 0.0625,-0.375c0.04167,-0.11458 0.125,-0.19792 0.25,-0.25c0.125,-0.0625 0.3125,-0.09375 0.5625,-0.09375c0.22917,0 0.40104,0.03646 0.51563,0.10938c0.125,0.0625 0.20313,0.15625 0.23438,0.28125c0.04167,0.125 0.0625,0.27083 0.0625,0.4375v11.35938c0,0.17708 -0.02083,0.32813 -0.0625,0.45313c-0.04167,0.125 -0.125,0.21875 -0.25,0.28125c-0.11458,0.0625 -0.29687,0.09375 -0.54687,0.09375z" fill="#000000" stroke="#000000" stroke-width="2.5"/><path d="M243.36714,186.56065c-0.25,0 -0.43229,-0.03646 -0.54687,-0.10937c-0.11458,-0.0625 -0.19271,-0.15625 -0.23437,-0.28125c-0.03125,-0.13542 -0.04687,-0.28646 -0.04687,-0.45312v-3.28125h-5.92187c-0.23958,0 -0.42187,-0.03646 -0.54687,-0.10937c-0.11458,-0.07292 -0.19271,-0.17187 -0.23437,-0.29687c-0.04167,-0.13542 -0.0625,-0.28646 -0.0625,-0.45312c0,-0.07292 0.00521,-0.14062 0.01563,-0.20312c0.01042,-0.07292 0.02604,-0.14062 0.04688,-0.20312l2.03125,-7.01562c0.10417,-0.375 0.22396,-0.59375 0.35938,-0.65625c0.14583,-0.07292 0.36458,-0.07812 0.65625,-0.01562c0.27083,0.05208 0.46875,0.15104 0.59375,0.29688c0.125,0.13542 0.15104,0.31771 0.07813,0.54688l-1.89062,6.54688h4.875v-6.60937c0,-0.14583 0.02083,-0.27083 0.0625,-0.375c0.04167,-0.11458 0.125,-0.19792 0.25,-0.25c0.125,-0.0625 0.3125,-0.09375 0.5625,-0.09375c0.22917,0 0.40104,0.03646 0.51563,0.10938c0.125,0.0625 0.20313,0.15625 0.23438,0.28125c0.04167,0.125 0.0625,0.27083 0.0625,0.4375v11.35938c0,0.17708 -0.02083,0.32813 -0.0625,0.45313c-0.04167,0.125 -0.125,0.21875 -0.25,0.28125c-0.11458,0.0625 -0.29687,0.09375 -0.54687,0.09375z" fill="#ffffff" stroke="none" stroke-width="1"/></g></g></svg>