<svg version="1.1" xmlns="http://www.w3.org/2000/svg" xmlns:xlink="http://www.w3.org/1999/xlink" width="270.13783" height="178.44865" viewBox="0,0,270.13783,178.44865"><g transform="translate(-104.93108,-90.77568)"><g data-paper-data="{&quot;isPaintingLayer&quot;:true}" stroke-linejoin="miter" stroke-miterlimit="10" stroke-dasharray="" stroke-dashoffset="0" style="mix-blend-mode: normal"><g fill-rule="evenodd" stroke="#000000" stroke-width="4" stroke-linecap="square"><path d="M106.95495,112.10847c0,-8.76217 7.10314,-15.86531 15.86531,-15.86531l234.13306,0.14158c4.20774,0 8.24314,1.67152 11.21847,4.64684c2.97532,2.97532 4.64685,7.01073 4.64685,11.21847l-0.02387,139.10897c0,8.76217 -7.10314,15.86531 -15.86531,15.86531l-234.13306,-0.14158c-8.76217,0 -15.86532,-7.10314 -15.86532,-15.86531z" fill="#ececec"/><path d="M107.20522,108.64099c0,-8.76217 7.10314,-15.86531 15.86531,-15.86531l234.13306,0.14158c4.20774,0 8.24314,1.67152 11.21847,4.64684c2.97532,2.97532 4.64685,7.01073 4.64685,11.21847l-0.02387,139.10897c0,8.76217 -7.10314,15.86531 -15.86531,15.86531l-234.13306,-0.14158c-8.76217,0 -15.86532,-7.10314 -15.86532,-15.86531z" fill="#ffffff"/></g><g fill-rule="evenodd" stroke="none" stroke-width="1" stroke-linecap="square"><path d="M106.95495,112.10847c0,-8.76217 7.10314,-15.86531 15.86531,-15.86531l234.13306,0.14158c4.20774,0 8.24314,1.67152 11.21847,4.64684c2.97532,2.97532 4.64685,7.01073 4.64685,11.21847l-0.02387,139.10897c0,8.76217 -7.10314,15.86531 -15.86531,15.86531l-234.13306,-0.14158c-8.76217,0 -15.86532,-7.10314 -15.86532,-15.86531z" fill="#ececec"/><path d="M107.20522,108.64099c0,-8.76217 7.10314,-15.86531 15.86531,-15.86531l234.13306,0.14158c4.20774,0 8.24314,1.67152 11.21847,4.64684c2.97532,2.97532 4.64685,7.01073 4.64685,11.21847l-0.02387,139.10897c0,8.76217 -7.10314,15.86531 -15.86531,15.86531l-234.13306,-0.14158c-8.76217,0 -15.86532,-7.10314 -15.86532,-15.86531z" fill="#ffffff"/></g><g fill="none" fill-rule="nonzero" stroke="#787878" stroke-width="0.5" stroke-linecap="butt"><path d="M311.10454,144.48287c2.746,0.2621 5.39301,0.86352 7.89862,1.76184"/><path d="M323.50895,148.25788c3.26128,1.76469 6.18898,4.0671 8.66427,6.78838"/><path d="M335.25117,158.9967c1.67311,2.52293 3.00576,5.29125 3.93246,8.23943"/><path d="M340.30807,172.08436c0.24761,1.62289 0.37602,3.28499 0.37602,4.97708c0,1.2531 -0.07043,2.48976 -0.20754,3.70622"/><path d="M339.43098,186.06172c-0.60436,2.11753 -1.41665,4.14736 -2.41336,6.06602"/><path d="M334.40031,196.34807c-1.66372,2.27728 -3.61449,4.33156 -5.79906,6.10961"/><path d="M324.67296,205.20397c-2.1379,1.27267 -4.43314,2.30867 -6.84954,3.07182"/><path d="M312.8042,209.4329c-1.58197,0.23491 -3.20086,0.35662 -4.84819,0.35662c-1.32373,0 -2.62911,-0.07859 -3.91172,-0.23135"/><path d="M299.16803,208.59621c-2.90282,-0.80722 -5.64322,-2.00449 -8.1612,-3.5318"/><path d="M286.92415,202.13807c-1.95534,-1.64167 -3.71588,-3.50783 -5.24195,-5.55878"/><path d="M279.00828,192.34494c-1.64082,-3.10137 -2.79784,-6.49813 -3.37052,-10.08977"/><path d="M275.2292,177.35072c-0.00084,-0.09633 -0.00125,-0.19275 -0.00125,-0.28928c0,-2.95141 0.39067,-5.81158 1.12313,-8.53161"/><path d="M277.99039,163.88091c1.32351,-3.0046 3.08564,-5.77246 5.20532,-8.22246"/><path d="M286.73776,152.14249c1.82751,-1.55761 3.82848,-2.91773 5.9699,-4.04735"/><path d="M297.28947,146.11092c2.77617,-0.95657 5.72138,-1.55015 8.7789,-1.72402"/></g><g fill="none" fill-rule="nonzero" stroke="#787878" stroke-width="0.5" stroke-linecap="round"><path d="M238.82758,102.63465l-0.00538,-9.86942"/><path d="M238.83031,107.63827l0.00491,9.00547"/><path d="M238.84206,129.15383l-0.00411,-7.51559"/><path d="M238.84477,134.12812l0.00387,7.08764"/><path d="M238.85137,146.21594l0.00281,5.15359"/><path d="M238.85696,156.4712l0.00359,6.58276"/><path d="M238.86327,168.03345l0.00348,6.37533"/><path d="M238.86947,179.39829l0.0047,8.61161"/><path d="M238.87683,192.88578l0.00494,9.05026"/><path d="M238.88451,206.95806l0.00435,7.97029"/><path d="M238.89158,219.91736l0.00492,9.01475"/><path d="M238.89923,233.9363l0.00411,7.52855"/><path d="M238.90612,246.54574l0.00435,7.96769"/><path d="M238.91719,266.82845l-0.00401,-7.33524"/></g><text transform="translate(118.20228,127.49996) scale(0.33247,0.33247)" font-size="40" xml:space="preserve" fill="#000000" fill-rule="nonzero" stroke="none" stroke-width="1" stroke-linecap="butt" stroke-linejoin="miter" stroke-miterlimit="10" stroke-dasharray="" stroke-dashoffset="0" font-family="Sans Serif" font-weight="normal" text-anchor="start" style="mix-blend-mode: normal"><tspan x="0" dy="0">Score:</tspan></text><text transform="translate(118.00481,196.2067) scale(0.34735,0.34735)" font-size="40" xml:space="preserve" fill="#000000" fill-rule="nonzero" stroke="none" stroke-width="1" stroke-linecap="butt" stroke-linejoin="miter" stroke-miterlimit="10" stroke-dasharray="" stroke-dashoffset="0" font-family="Sans Serif" font-weight="normal" text-anchor="start" style="mix-blend-mode: normal"><tspan x="0" dy="0">Coins collected:</tspan></text></g></g></svg>