<svg version="1.1" xmlns="http://www.w3.org/2000/svg" xmlns:xlink="http://www.w3.org/1999/xlink" width="12.61056" height="16.65627" viewBox="0,0,12.61056,16.65627"><g transform="translate(-234.09374,-171.67186)"><g data-paper-data="{&quot;isPaintingLayer&quot;:true}" fill-rule="nonzero" stroke-linecap="square" stroke-linejoin="miter" stroke-miterlimit="10" stroke-dasharray="" stroke-dashoffset="0" style="mix-blend-mode: normal"><path d="M236.99997,186.57806c-0.15625,0 -0.29167,-0.02604 -0.40625,-0.07812c-0.10417,-0.04166 -0.1875,-0.11979 -0.25,-0.23437c-0.0625,-0.11458 -0.09375,-0.29166 -0.09375,-0.53125c0,-0.25 0.03125,-0.43229 0.09375,-0.54687c0.07291,-0.125 0.17188,-0.20312 0.29688,-0.23437c0.125,-0.04166 0.27604,-0.0625 0.45313,-0.0625c0.64583,0 1.23438,-0.07812 1.76563,-0.23437c0.54166,-0.16666 1.02604,-0.40104 1.45313,-0.70312c0.42708,-0.30208 0.79166,-0.66146 1.09375,-1.07812c0.30208,-0.41666 0.53125,-0.88021 0.6875,-1.39062c0.15625,-0.52083 0.23958,-1.06771 0.25,-1.64062l0.3125,-0.26562c-0.11459,0.30209 -0.3125,0.58334 -0.59375,0.84375c-0.27084,0.25 -0.60937,0.44792 -1.01563,0.59375c-0.39584,0.14584 -0.84375,0.21875 -1.34375,0.21875c-0.77084,0 -1.44792,-0.16146 -2.03125,-0.48437c-0.58334,-0.32291 -1.03646,-0.77083 -1.35937,-1.34375c-0.3125,-0.57291 -0.46875,-1.21875 -0.46875,-1.9375c0,-0.79166 0.16146,-1.48958 0.48438,-2.09375c0.33333,-0.61458 0.80208,-1.09375 1.40625,-1.4375c0.60416,-0.34375 1.31771,-0.51562 2.14063,-0.51562c0.89583,0 1.66146,0.19792 2.29688,0.59375c0.64583,0.39584 1.13541,0.97396 1.46875,1.73438c0.34375,0.76042 0.51563,1.70313 0.51563,2.82813c0,0.96875 -0.10937,1.86459 -0.32812,2.6875c-0.21875,0.8125 -0.53646,1.54688 -0.95312,2.20313c-0.41667,0.65625 -0.91667,1.21875 -1.5,1.6875c-0.58334,0.45834 -1.24479,0.8125 -1.98438,1.0625c-0.73959,0.23959 -1.53646,0.35938 -2.39062,0.35938zM239.81247,179.70306c0.55208,0 1.01563,-0.09375 1.39063,-0.28125c0.375,-0.19791 0.66666,-0.46875 0.875,-0.8125c0.20833,-0.35416 0.3125,-0.75521 0.3125,-1.20312c0,-0.48958 -0.09896,-0.91666 -0.29687,-1.28125c-0.1875,-0.36458 -0.46354,-0.64583 -0.82813,-0.84375c-0.35417,-0.20833 -0.79688,-0.3125 -1.32813,-0.3125c-0.53125,0 -0.97917,0.09896 -1.34375,0.29688c-0.36459,0.19792 -0.64584,0.47396 -0.84375,0.82813c-0.1875,0.35417 -0.28125,0.77604 -0.28125,1.26563c0,0.45834 0.08854,0.86459 0.26563,1.21875c0.1875,0.35417 0.45833,0.63021 0.8125,0.82813c0.35416,0.19792 0.77604,0.29688 1.26563,0.29688z" fill="#ffffff" stroke="#ffffff" stroke-width="3.5"/><path d="M236.99997,186.57806c-0.15625,0 -0.29167,-0.02604 -0.40625,-0.07812c-0.10417,-0.04166 -0.1875,-0.11979 -0.25,-0.23437c-0.0625,-0.11458 -0.09375,-0.29166 -0.09375,-0.53125c0,-0.25 0.03125,-0.43229 0.09375,-0.54687c0.07291,-0.125 0.17188,-0.20312 0.29688,-0.23437c0.125,-0.04166 0.27604,-0.0625 0.45313,-0.0625c0.64583,0 1.23438,-0.07812 1.76563,-0.23437c0.54166,-0.16666 1.02604,-0.40104 1.45313,-0.70312c0.42708,-0.30208 0.79166,-0.66146 1.09375,-1.07812c0.30208,-0.41666 0.53125,-0.88021 0.6875,-1.39062c0.15625,-0.52083 0.23958,-1.06771 0.25,-1.64062l0.3125,-0.26562c-0.11459,0.30209 -0.3125,0.58334 -0.59375,0.84375c-0.27084,0.25 -0.60937,0.44792 -1.01563,0.59375c-0.39584,0.14584 -0.84375,0.21875 -1.34375,0.21875c-0.77084,0 -1.44792,-0.16146 -2.03125,-0.48437c-0.58334,-0.32291 -1.03646,-0.77083 -1.35937,-1.34375c-0.3125,-0.57291 -0.46875,-1.21875 -0.46875,-1.9375c0,-0.79166 0.16146,-1.48958 0.48438,-2.09375c0.33333,-0.61458 0.80208,-1.09375 1.40625,-1.4375c0.60416,-0.34375 1.31771,-0.51562 2.14063,-0.51562c0.89583,0 1.66146,0.19792 2.29688,0.59375c0.64583,0.39584 1.13541,0.97396 1.46875,1.73438c0.34375,0.76042 0.51563,1.70313 0.51563,2.82813c0,0.96875 -0.10937,1.86459 -0.32812,2.6875c-0.21875,0.8125 -0.53646,1.54688 -0.95312,2.20313c-0.41667,0.65625 -0.91667,1.21875 -1.5,1.6875c-0.58334,0.45834 -1.24479,0.8125 -1.98438,1.0625c-0.73959,0.23959 -1.53646,0.35938 -2.39062,0.35938zM239.81247,179.70306c0.55208,0 1.01563,-0.09375 1.39063,-0.28125c0.375,-0.19791 0.66666,-0.46875 0.875,-0.8125c0.20833,-0.35416 0.3125,-0.75521 0.3125,-1.20312c0,-0.48958 -0.09896,-0.91666 -0.29687,-1.28125c-0.1875,-0.36458 -0.46354,-0.64583 -0.82813,-0.84375c-0.35417,-0.20833 -0.79688,-0.3125 -1.32813,-0.3125c-0.53125,0 -0.97917,0.09896 -1.34375,0.29688c-0.36459,0.19792 -0.64584,0.47396 -0.84375,0.82813c-0.1875,0.35417 -0.28125,0.77604 -0.28125,1.26563c0,0.45834 0.08854,0.86459 0.26563,1.21875c0.1875,0.35417 0.45833,0.63021 0.8125,0.82813c0.35416,0.19792 0.77604,0.29688 1.26563,0.29688z" fill="#000000" stroke="#000000" stroke-width="2.5"/><path d="M237,186.57813c-0.15625,0 -0.29167,-0.02604 -0.40625,-0.07812c-0.10417,-0.04166 -0.1875,-0.11979 -0.25,-0.23437c-0.0625,-0.11458 -0.09375,-0.29166 -0.09375,-0.53125c0,-0.25 0.03125,-0.43229 0.09375,-0.54687c0.07291,-0.125 0.17188,-0.20312 0.29688,-0.23437c0.125,-0.04166 0.27604,-0.0625 0.45313,-0.0625c0.64583,0 1.23438,-0.07812 1.76563,-0.23437c0.54166,-0.16666 1.02604,-0.40104 1.45313,-0.70312c0.42708,-0.30208 0.79166,-0.66146 1.09375,-1.07812c0.30208,-0.41666 0.53125,-0.88021 0.6875,-1.39062c0.15625,-0.52083 0.23958,-1.06771 0.25,-1.64062l0.3125,-0.26562c-0.11459,0.30209 -0.3125,0.58334 -0.59375,0.84375c-0.27084,0.25 -0.60937,0.44792 -1.01563,0.59375c-0.39584,0.14584 -0.84375,0.21875 -1.34375,0.21875c-0.77084,0 -1.44792,-0.16146 -2.03125,-0.48437c-0.58334,-0.32291 -1.03646,-0.77083 -1.35937,-1.34375c-0.3125,-0.57291 -0.46875,-1.21875 -0.46875,-1.9375c0,-0.79166 0.16146,-1.48958 0.48438,-2.09375c0.33333,-0.61458 0.80208,-1.09375 1.40625,-1.4375c0.60416,-0.34375 1.31771,-0.51562 2.14063,-0.51562c0.89583,0 1.66146,0.19792 2.29688,0.59375c0.64583,0.39584 1.13541,0.97396 1.46875,1.73438c0.34375,0.76042 0.51563,1.70313 0.51563,2.82813c0,0.96875 -0.10937,1.86459 -0.32812,2.6875c-0.21875,0.8125 -0.53646,1.54688 -0.95312,2.20313c-0.41667,0.65625 -0.91667,1.21875 -1.5,1.6875c-0.58334,0.45834 -1.24479,0.8125 -1.98438,1.0625c-0.73959,0.23959 -1.53646,0.35938 -2.39062,0.35938zM239.8125,179.70313c0.55208,0 1.01563,-0.09375 1.39063,-0.28125c0.375,-0.19791 0.66666,-0.46875 0.875,-0.8125c0.20833,-0.35416 0.3125,-0.75521 0.3125,-1.20312c0,-0.48958 -0.09896,-0.91666 -0.29687,-1.28125c-0.1875,-0.36458 -0.46354,-0.64583 -0.82813,-0.84375c-0.35417,-0.20833 -0.79688,-0.3125 -1.32813,-0.3125c-0.53125,0 -0.97917,0.09896 -1.34375,0.29688c-0.36459,0.19792 -0.64584,0.47396 -0.84375,0.82813c-0.1875,0.35417 -0.28125,0.77604 -0.28125,1.26563c0,0.45834 0.08854,0.86459 0.26563,1.21875c0.1875,0.35417 0.45833,0.63021 0.8125,0.82813c0.35416,0.19792 0.77604,0.29688 1.26563,0.29688z" fill="#ffffff" stroke="none" stroke-width="1"/></g></g></svg>