<svg version="1.1" xmlns="http://www.w3.org/2000/svg" xmlns:xlink="http://www.w3.org/1999/xlink" width="140.99231" height="58.95734" viewBox="0,0,140.99231,58.95734"><g transform="translate(-169.50392,-150.52134)"><g data-paper-data="{&quot;isPaintingLayer&quot;:true}" stroke-linejoin="miter" stroke-miterlimit="10" stroke-dasharray="" stroke-dashoffset="0" style="mix-blend-mode: normal"><path d="M171.50393,168.38666v0c0,-8.76217 7.10314,-15.86531 15.86531,-15.86531l105.26168,0.20593v0c4.20774,0 8.24314,1.67152 11.21847,4.64684c2.97532,2.97532 4.64685,7.01074 4.64685,11.21848v23.02078c0,8.76217 -7.10314,15.86531 -15.86532,15.86531l-105.26168,-0.20593c-8.76217,0 -15.86531,-7.10314 -15.86531,-15.86531z" fill="#ececec" fill-rule="evenodd" stroke="#000000" stroke-width="4" stroke-linecap="square"/><path d="M171.50393,168.38665v0c0,-8.76216 7.10315,-15.86531 15.86532,-15.86531l105.26168,0.20594v0c4.20774,0 8.24314,1.67152 11.21846,4.64684c2.97532,2.97532 4.64685,7.01073 4.64685,11.21847v23.02078c0,8.76217 -7.10314,15.86531 -15.86532,15.86531l-105.26168,-0.20594c-8.76217,0 -15.86532,-7.10314 -15.86532,-15.86531z" fill="#6a90d1" fill-rule="evenodd" stroke="none" stroke-width="1" stroke-linecap="square"/><path d="M171.50393,168.38666v0c0,-8.76217 7.10314,-15.86531 15.86531,-15.86531l105.26168,0.20593v0c4.20774,0 8.24314,1.67152 11.21847,4.64684c2.97532,2.97532 4.64685,7.01073 4.64685,11.21847l-0.00828,19.67943c0,8.76217 -7.10314,15.86531 -15.86531,15.86531l-105.26168,-0.20593c-8.76217,0 -15.86532,-7.10314 -15.86532,-15.86531z" fill="#82b0ff" fill-rule="evenodd" stroke="none" stroke-width="1" stroke-linecap="square"/><g fill-rule="nonzero"><path d="M241.84757,190.8812c-0.35464,0 -0.67382,-0.15072 -0.95754,-0.45217c-0.28372,-0.31919 -0.42558,-0.67382 -0.42558,-1.06393c0,-0.28372 0,-0.57629 0,-0.87774c0.01774,-0.30145 0.08865,-0.59404 0.21278,-0.87774c0.12413,-0.30145 0.37238,-0.5763 0.74476,-0.82455c1.15259,-0.85115 2.28746,-1.64023 3.4046,-2.36725c1.11713,-0.74476 2.15448,-1.45405 3.11203,-2.12787c0.95755,-0.67382 1.79982,-1.34767 2.52686,-2.02148c0.72702,-0.67382 1.29447,-1.37424 1.70231,-2.10126c0.40783,-0.74476 0.61178,-1.55158 0.61178,-2.42045c0,-0.86888 -0.17734,-1.61364 -0.53198,-2.23426c-0.33691,-0.62062 -0.86001,-1.10826 -1.5693,-1.4629c-0.69156,-0.35464 -1.56045,-0.53197 -2.60664,-0.53197c-0.74476,0 -1.41859,0.11526 -2.02148,0.34578c-0.58516,0.23053 -1.08167,0.55858 -1.48951,0.98416c-0.40784,0.40784 -0.71815,0.92208 -0.93094,1.54271c-0.21278,0.62062 -0.31919,1.32105 -0.31919,2.10128c0,0.31919 -0.02659,0.58517 -0.07978,0.79796c-0.05319,0.19504 -0.17734,0.34579 -0.37238,0.45218c-0.19504,0.10639 -0.53197,0.15959 -1.01074,0.15959c-0.46104,0 -0.78908,-0.07094 -0.98414,-0.21279c-0.19504,-0.14185 -0.31031,-0.33691 -0.34577,-0.58516c-0.03546,-0.26598 -0.05319,-0.55856 -0.05319,-0.87774c0,-1.0994 0.16846,-2.11014 0.50537,-3.03223c0.33692,-0.92208 0.83342,-1.72004 1.48952,-2.39386c0.6561,-0.67383 1.44519,-1.19692 2.36728,-1.5693c0.93981,-0.37238 2.01261,-0.55856 3.21842,-0.55856c1.54271,0 2.8815,0.28372 4.01637,0.85115c1.13488,0.56742 2.02148,1.40086 2.65985,2.50026c0.63836,1.08167 0.95754,2.42046 0.95754,4.01637c0,0.72702 -0.1064,1.41858 -0.31918,2.07468c-0.21279,0.6561 -0.53197,1.28559 -0.95754,1.8885c-0.40784,0.6029 -0.89549,1.18807 -1.46291,1.75549c-0.54971,0.54971 -1.17919,1.0994 -1.88847,1.6491c-0.70929,0.54971 -1.48065,1.10827 -2.31405,1.67571c-0.81569,0.54971 -1.67569,1.11714 -2.58004,1.7023l-2.02148,1.19694h11.06495c0.30145,0 0.55857,0.03545 0.77136,0.1064c0.21278,0.05319 0.37238,0.18619 0.47877,0.39899c0.12413,0.21278 0.18619,0.53197 0.18619,0.95754c0,0.40784 -0.07094,0.71816 -0.21279,0.93095c-0.12413,0.19504 -0.29258,0.32806 -0.50536,0.39899c-0.21279,0.07093 -0.46991,0.1064 -0.77135,0.1064zM267.43557,191.25358c-1.13487,0 -2.14562,-0.17734 -3.03223,-0.53198c-0.86888,-0.37238 -1.6225,-0.88661 -2.26086,-1.54271c-0.62062,-0.67382 -1.13487,-1.48064 -1.54271,-2.42045c-0.40784,-0.93981 -0.70929,-1.97716 -0.90435,-3.11201c-0.17733,-1.15259 -0.26598,-2.38499 -0.26598,-3.69717c0,-1.27673 0.08866,-2.48252 0.26598,-3.61739c0.19504,-1.13487 0.49651,-2.16333 0.90435,-3.08543c0.40784,-0.9398 0.92208,-1.74662 1.54271,-2.42045c0.62062,-0.69157 1.36538,-1.22352 2.23427,-1.59591c0.88661,-0.37238 1.87963,-0.55856 2.97902,-0.55856c1.09939,0 2.07468,0.18619 2.92582,0.55858c0.86889,0.37238 1.60478,0.90435 2.20768,1.5959c0.62062,0.67382 1.13488,1.48065 1.54271,2.42047c0.40784,0.92208 0.70042,1.95941 0.87776,3.11203c0.19504,1.13487 0.29259,2.34066 0.29259,3.61739c0,1.29446 -0.09753,2.518 -0.29257,3.67059c-0.17733,1.13487 -0.46991,2.1722 -0.87774,3.11203c-0.40783,0.92208 -0.92208,1.72004 -1.54271,2.39386c-0.60291,0.67382 -1.32106,1.19694 -2.15447,1.56932c-0.83342,0.35464 -1.79982,0.53197 -2.89922,0.53197zM267.30259,188.35433c0.993,0 1.80869,-0.21278 2.44706,-0.63836c0.63836,-0.44332 1.13488,-1.00187 1.48952,-1.67569c0.35464,-0.67382 0.61177,-1.38312 0.77136,-2.12788c0.15959,-0.7625 0.25711,-1.48064 0.2926,-2.15447c0.03546,-0.67382 0.0532,-1.21466 0.0532,-1.6225v-0.18618c0,-1.77323 -0.18618,-3.28933 -0.55856,-4.54832c-0.37238,-1.27673 -0.93093,-2.24313 -1.67569,-2.89922c-0.74476,-0.6561 -1.6757,-0.98413 -2.79283,-0.98413c-1.11713,0 -2.05694,0.32805 -2.81943,0.98415c-0.74476,0.6561 -1.30332,1.61364 -1.6757,2.87263c-0.37238,1.24126 -0.55856,2.77511 -0.55856,4.60154c0,1.77323 0.18619,3.28933 0.55857,4.54834c0.37238,1.24126 0.93095,2.18994 1.67571,2.84604c0.7625,0.6561 1.69344,0.98415 2.79285,0.98415z" fill="#ffffff" stroke="none" stroke-width="1" stroke-linecap="square"/><g><g fill="#000000" stroke="#000000" stroke-width="4" stroke-linecap="butt"><path d="M204.84753,180.86363c0,-6.85088 5.55373,-12.40461 12.40461,-12.40461c6.85088,0 12.40461,5.55373 12.40461,12.40461c0,6.85088 -5.55373,12.40461 -12.40461,12.40461c-6.85088,0 -12.40461,-5.55373 -12.40461,-12.40461z"/><path d="M204.7977,179.13639c0,-6.85088 5.55373,-12.40461 12.40461,-12.40461c6.85088,0 12.40461,5.55373 12.40461,12.40461c0,6.85088 -5.55373,12.40461 -12.40461,12.40461c-6.85088,0 -12.40461,-5.55373 -12.40461,-12.40461z"/></g><g stroke="none" stroke-width="0" stroke-linecap="butt"><path d="M204.84753,180.86363c0,-6.85088 5.55373,-12.40461 12.40461,-12.40461c6.85088,0 12.40461,5.55373 12.40461,12.40461c0,6.85088 -5.55373,12.40461 -12.40461,12.40461c-6.85088,0 -12.40461,-5.55373 -12.40461,-12.40461z" fill="#d0b153"/><path d="M204.7977,179.13639c0,-6.85088 5.55373,-12.40461 12.40461,-12.40461c6.85088,0 12.40461,5.55373 12.40461,12.40461c0,6.85088 -5.55373,12.40461 -12.40461,12.40461c-6.85088,0 -12.40461,-5.55373 -12.40461,-12.40461z" fill="#ffd966"/></g><path d="M217.23311,185.92l-0.0616,-13.56723" fill="none" stroke="#ffbf00" stroke-width="4" stroke-linecap="round"/></g></g></g></g></svg>