<svg version="1.1" xmlns="http://www.w3.org/2000/svg" xmlns:xlink="http://www.w3.org/1999/xlink" width="65.36102" height="58.92689" viewBox="0,0,65.36102,58.92689"><g transform="translate(-207.32363,-150.53656)"><g data-paper-data="{&quot;isPaintingLayer&quot;:true}" stroke-linejoin="miter" stroke-miterlimit="10" stroke-dasharray="" stroke-dashoffset="0" style="mix-blend-mode: normal"><path d="M209.32363,168.40187v0c0,-8.76217 7.10314,-15.86531 15.86531,-15.86531l29.63039,0.17548v0c4.20774,0 8.24314,1.67152 11.21847,4.64684c2.97532,2.97532 4.64685,7.01074 4.64685,11.21848v23.02078c0,8.76217 -7.10314,15.86531 -15.86532,15.86531l-29.63039,-0.17548c-8.76217,0 -15.86531,-7.10314 -15.86531,-15.86531z" fill="#ececec" fill-rule="evenodd" stroke="#000000" stroke-width="4" stroke-linecap="square"/><path d="M209.32363,168.40186v0c0,-8.76216 7.10315,-15.86531 15.86532,-15.86531l29.63039,0.17549v0c4.20774,0 8.24314,1.67152 11.21846,4.64684c2.97532,2.97532 4.64685,7.01073 4.64685,11.21847v23.02078c0,8.76217 -7.10314,15.86531 -15.86532,15.86531l-29.63039,-0.17549c-8.76217,0 -15.86532,-7.10314 -15.86532,-15.86531z" fill="#ececec" fill-rule="evenodd" stroke="none" stroke-width="1" stroke-linecap="square"/><path d="M209.32363,168.40187v0c0,-8.76217 7.10314,-15.86531 15.86531,-15.86531l29.63039,0.17548v0c4.20774,0 8.24314,1.67152 11.21847,4.64684c2.97532,2.97532 4.64685,7.01073 4.64685,11.21847l-0.00828,19.67943c0,8.76217 -7.10314,15.86531 -15.86531,15.86531l-29.63039,-0.17548c-8.76217,0 -15.86532,-7.10314 -15.86532,-15.86531z" fill="#ffffff" fill-rule="evenodd" stroke="none" stroke-width="1" stroke-linecap="square"/><g fill="none" fill-rule="nonzero" stroke-width="5" stroke-linecap="round"><g stroke="#6a90d1"><path d="M230.9592,174.43144c6.11334,-0.02933 16.07182,-0.07711 19.15614,-0.09191c1.80215,-0.00864 3.77072,1.92267 3.76935,3.51379c-0.00184,2.16076 -0.00684,8.019 -0.01009,11.83849c-0.00175,2.04197 -1.86543,3.50501 -3.59209,3.50851c-4.47607,0.00909 -24.11916,0.04898 -24.11916,0.04898"/><path d="M227.29833,173.26832c1.20882,-1.12056 3.16749,-2.93621 3.85621,-3.57464c0.47386,-0.43926 1.0158,-0.142 0.99383,0.61315c-0.03987,1.37087 -0.17413,5.98671 -0.24818,8.53246c-0.02996,1.03016 -0.56389,1.13209 -0.99893,0.63318c-0.64527,-0.74 -2.50888,-2.87721 -3.65707,-4.19394c-0.55665,-0.63836 -0.53436,-1.46468 0.05413,-2.0102z"/></g><g stroke="#82b0ff"><path d="M230.91116,171.69304c6.11334,-0.02933 16.07182,-0.07711 19.15614,-0.09191c1.80215,-0.00864 3.77072,1.92267 3.76935,3.51379c-0.00184,2.16076 -0.00684,8.019 -0.01009,11.83849c-0.00175,2.04197 -1.86543,3.50501 -3.59209,3.50851c-4.47607,0.00909 -24.11916,0.04898 -24.11916,0.04898"/><path d="M227.2503,170.52992c1.20882,-1.12056 3.16749,-2.93621 3.85621,-3.57464c0.47386,-0.43926 1.0158,-0.142 0.99383,0.61315c-0.03987,1.37087 -0.17413,5.98671 -0.24818,8.53246c-0.02996,1.03016 -0.56389,1.13209 -0.99893,0.63318c-0.64527,-0.74 -2.50888,-2.87721 -3.65707,-4.19394c-0.55665,-0.63836 -0.53436,-1.46468 0.05413,-2.0102z"/></g></g></g></g></svg>