<svg version="1.1" xmlns="http://www.w3.org/2000/svg" xmlns:xlink="http://www.w3.org/1999/xlink" width="131.83887" height="59.00767" viewBox="0,0,131.83887,59.00767"><g transform="translate(-174.15881,-149.40378)"><g data-paper-data="{&quot;isPaintingLayer&quot;:true}" stroke-linejoin="miter" stroke-miterlimit="10" stroke-dasharray="" stroke-dashoffset="0" style="mix-blend-mode: normal"><path d="M176.15881,167.26909v0c0,-8.76217 7.10314,-15.86531 15.86531,-15.86531l96.10824,0.25626v0c4.20774,0 8.24314,1.67152 11.21847,4.64684c2.97532,2.97532 4.64685,7.01074 4.64685,11.21848v23.02078c0,8.76217 -7.10314,15.86531 -15.86532,15.86531l-96.10824,-0.25626c-8.76217,0 -15.86531,-7.10314 -15.86531,-15.86531z" fill="#ececec" fill-rule="evenodd" stroke="#000000" stroke-width="4" stroke-linecap="square"/><path d="M176.15881,167.26908v0c0,-8.76216 7.10315,-15.86531 15.86532,-15.86531l96.10824,0.25627v0c4.20774,0 8.24314,1.67152 11.21846,4.64684c2.97532,2.97532 4.64685,7.01073 4.64685,11.21847v23.02078c0,8.76217 -7.10314,15.86531 -15.86532,15.86531l-96.10824,-0.25627c-8.76217,0 -15.86532,-7.10314 -15.86532,-15.86531z" fill="#ececec" fill-rule="evenodd" stroke="none" stroke-width="1" stroke-linecap="square"/><path d="M176.15881,167.26909v0c0,-8.76217 7.10314,-15.86531 15.86531,-15.86531l96.10824,0.25626v0c4.20774,0 8.24314,1.67152 11.21847,4.64684c2.97532,2.97532 4.64685,7.01073 4.64685,11.21847l-0.00828,19.67943c0,8.76217 -7.10314,15.86531 -15.86531,15.86531l-96.10824,-0.25626c-8.76217,0 -15.86532,-7.10314 -15.86532,-15.86531z" fill="#ffffff" fill-rule="evenodd" stroke="none" stroke-width="1" stroke-linecap="square"/><g fill-rule="nonzero" stroke-linecap="butt"><g><path d="M239.81789,190.2969c-5.28543,0 -9.57013,-4.28469 -9.57013,-9.57013c0,-5.28544 4.28469,-9.57012 9.57013,-9.57012c5.28543,0 9.57013,4.28469 9.57013,9.57012c0,0.25072 -0.00964,0.49918 -0.02857,0.74504" fill="none" stroke="#6a90d1" stroke-width="5"/><path d="M244.29618,180.67351c1.17304,0.01812 6.50596,0.10046 9.05219,0.13976c0.82782,0.01278 0.98744,0.4675 0.43362,1.12926c-1.37048,1.63759 -3.84419,4.59345 -4.48887,5.36377c-0.30283,0.36185 -0.88955,0.3408 -1.17014,-0.03905c-0.60403,-0.8177 -2.93753,-3.97666 -4.14677,-5.61366c-0.4437,-0.60065 -0.11677,-0.98684 0.31996,-0.98009z" fill="#6a90d1" stroke="none" stroke-width="0"/></g><path d="M243.68029,181.17121l0.0188,-2.49628l10.30526,0.05652l-0.0188,2.49627z" fill="#6a90d1" stroke="none" stroke-width="0"/><g><path d="M239.74337,187.86988c-5.28543,0 -9.57013,-4.28469 -9.57013,-9.57013c0,-5.28544 4.28469,-9.57012 9.57013,-9.57012c5.28543,0 9.57013,4.28469 9.57013,9.57012c0,0.25072 -0.00964,0.49918 -0.02857,0.74504" fill="none" stroke="#82b0ff" stroke-width="5"/><path d="M244.22166,178.2465c1.17304,0.01812 6.50596,0.10046 9.05219,0.13976c0.82782,0.01278 0.98744,0.4675 0.43362,1.12926c-1.37048,1.63759 -3.84419,4.59345 -4.48887,5.36377c-0.30283,0.36185 -0.88955,0.3408 -1.17014,-0.03905c-0.60403,-0.8177 -2.93753,-3.97666 -4.14677,-5.61366c-0.4437,-0.60065 -0.11677,-0.98684 0.31996,-0.98009z" fill="#82b0ff" stroke="none" stroke-width="0"/></g></g></g></g></svg>