<svg version="1.1" xmlns="http://www.w3.org/2000/svg" xmlns:xlink="http://www.w3.org/1999/xlink" width="84.58826" height="106.10087" viewBox="0,0,84.58826,106.10087"><g transform="translate(-166.08748,-116.34728)"><g data-paper-data="{&quot;isPaintingLayer&quot;:true}" fill-rule="nonzero" stroke-linejoin="miter" stroke-miterlimit="10" stroke-dasharray="" stroke-dashoffset="0" style="mix-blend-mode: normal"><g><path d="M205.22094,142.49669c-0.35464,0 -0.67382,-0.15072 -0.95754,-0.45217c-0.28372,-0.31918 -0.42557,-0.67382 -0.42557,-1.06393c0,-0.28372 0,-0.5763 0,-0.87774c0.01774,-0.30144 0.08866,-0.59404 0.21279,-0.87774c0.12413,-0.30144 0.37238,-0.5763 0.74476,-0.82455c1.15259,-0.85115 2.28747,-1.64024 3.4046,-2.36726c1.11714,-0.74476 2.15449,-1.45405 3.11203,-2.12788c0.95754,-0.67382 1.79982,-1.34766 2.52686,-2.02148c0.72702,-0.67382 1.29446,-1.37425 1.7023,-2.10127c0.40783,-0.74476 0.61178,-1.55158 0.61178,-2.42045c0,-0.86889 -0.17733,-1.61364 -0.53197,-2.23427c-0.33692,-0.62062 -0.86002,-1.10827 -1.5693,-1.46291c-0.69156,-0.35464 -1.56045,-0.53197 -2.60664,-0.53197c-0.74476,0 -1.41858,0.11526 -2.02148,0.34579c-0.58517,0.23053 -1.08167,0.55857 -1.48952,0.98415c-0.40783,0.40783 -0.71815,0.92208 -0.93093,1.54271c-0.21279,0.62062 -0.31918,1.32105 -0.31918,2.10128c0,0.31918 -0.02659,0.58517 -0.07979,0.79795c-0.05319,0.19505 -0.17733,0.34579 -0.37238,0.45218c-0.19505,0.1064 -0.53197,0.15959 -1.01074,0.15959c-0.46104,0 -0.78908,-0.07093 -0.98414,-0.21279c-0.19505,-0.14185 -0.31031,-0.33692 -0.34577,-0.58517c-0.03545,-0.26598 -0.05319,-0.55856 -0.05319,-0.87774c0,-1.0994 0.16846,-2.11014 0.50538,-3.03223c0.33692,-0.92208 0.83342,-1.72004 1.48952,-2.39386c0.6561,-0.67382 1.44518,-1.19692 2.36727,-1.5693c0.9398,-0.37238 2.01261,-0.55856 3.21842,-0.55856c1.54271,0 2.8815,0.28372 4.01637,0.85115c1.13488,0.56743 2.02148,1.40086 2.65985,2.50025c0.63836,1.08167 0.95754,2.42047 0.95754,4.01637c0,0.72702 -0.1064,1.41858 -0.31918,2.07468c-0.21279,0.6561 -0.53197,1.28559 -0.95754,1.8885c-0.40783,0.60291 -0.89548,1.18807 -1.46291,1.7555c-0.54971,0.54971 -1.1792,1.0994 -1.88848,1.6491c-0.70929,0.54971 -1.48065,1.10827 -2.31405,1.67571c-0.81569,0.54971 -1.67569,1.11714 -2.58004,1.7023l-2.02148,1.19694h11.06495c0.30144,0 0.55857,0.03545 0.77136,0.1064c0.21279,0.05319 0.37238,0.18619 0.47877,0.39899c0.12413,0.21279 0.18619,0.53197 0.18619,0.95754c0,0.40783 -0.07093,0.71816 -0.21279,0.93095c-0.12413,0.19505 -0.29257,0.32805 -0.50536,0.39899c-0.21279,0.07093 -0.46991,0.1064 -0.77134,0.1064zM230.80894,142.86907c-1.13488,0 -2.14562,-0.17733 -3.03223,-0.53197c-0.86889,-0.37238 -1.6225,-0.88661 -2.26086,-1.54271c-0.62062,-0.67382 -1.13488,-1.48065 -1.54271,-2.42045c-0.40783,-0.9398 -0.70929,-1.97715 -0.90435,-3.11201c-0.17733,-1.15259 -0.26598,-2.38499 -0.26598,-3.69717c0,-1.27673 0.08866,-2.48252 0.26598,-3.61739c0.19505,-1.13488 0.49651,-2.16333 0.90435,-3.08542c0.40783,-0.9398 0.92208,-1.74663 1.54271,-2.42045c0.62062,-0.69156 1.36538,-1.22353 2.23427,-1.5959c0.88661,-0.37238 1.87963,-0.55856 2.97902,-0.55856c1.0994,0 2.07468,0.18619 2.92583,0.55857c0.86889,0.37238 1.60477,0.90435 2.20768,1.5959c0.62062,0.67382 1.13488,1.48065 1.54271,2.42047c0.40783,0.92208 0.70042,1.95941 0.87776,3.11203c0.19505,1.13488 0.29259,2.34066 0.29259,3.61739c0,1.29446 -0.09753,2.51799 -0.29257,3.67059c-0.17733,1.13488 -0.46991,2.1722 -0.87774,3.11203c-0.40783,0.92208 -0.92208,1.72004 -1.54271,2.39386c-0.60291,0.67382 -1.32105,1.19694 -2.15447,1.56932c-0.83342,0.35464 -1.79982,0.53197 -2.89922,0.53197zM230.67596,139.96983c0.993,0 1.80869,-0.21279 2.44706,-0.63836c0.63836,-0.44331 1.13488,-1.00187 1.48952,-1.67569c0.35464,-0.67382 0.61178,-1.38312 0.77136,-2.12788c0.15959,-0.7625 0.25711,-1.48065 0.29259,-2.15447c0.03545,-0.67382 0.05319,-1.21466 0.05319,-1.6225v-0.18618c0,-1.77324 -0.18618,-3.28934 -0.55856,-4.54833c-0.37238,-1.27673 -0.93093,-2.24314 -1.67569,-2.89922c-0.74476,-0.6561 -1.67569,-0.98414 -2.79283,-0.98414c-1.11714,0 -2.05694,0.32805 -2.81943,0.98415c-0.74476,0.6561 -1.30331,1.61364 -1.67569,2.87263c-0.37238,1.24127 -0.55856,2.77511 -0.55856,4.60154c0,1.77324 0.18619,3.28934 0.55857,4.54834c0.37238,1.24127 0.93095,2.18994 1.67571,2.84604c0.7625,0.6561 1.69343,0.98415 2.79285,0.98415z" fill="#000000" stroke="none" stroke-width="1" stroke-linecap="square"/><g><g fill="#000000" stroke="#000000" stroke-width="4" stroke-linecap="butt"><path d="M168.2209,132.47913c0,-6.85088 5.55373,-12.40461 12.40461,-12.40461c6.85088,0 12.40461,5.55373 12.40461,12.40461c0,6.85088 -5.55373,12.40461 -12.40461,12.40461c-6.85088,0 -12.40461,-5.55373 -12.40461,-12.40461z"/><path d="M168.17106,130.75189c0,-6.85088 5.55373,-12.40461 12.40461,-12.40461c6.85088,0 12.40461,5.55373 12.40461,12.40461c0,6.85088 -5.55373,12.40461 -12.40461,12.40461c-6.85088,0 -12.40461,-5.55373 -12.40461,-12.40461z"/></g><g stroke="none" stroke-width="0" stroke-linecap="butt"><path d="M168.2209,132.47913c0,-6.85088 5.55373,-12.40461 12.40461,-12.40461c6.85088,0 12.40461,5.55373 12.40461,12.40461c0,6.85088 -5.55373,12.40461 -12.40461,12.40461c-6.85088,0 -12.40461,-5.55373 -12.40461,-12.40461z" fill="#d0b153"/><path d="M168.17106,130.75189c0,-6.85088 5.55373,-12.40461 12.40461,-12.40461c6.85088,0 12.40461,5.55373 12.40461,12.40461c0,6.85088 -5.55373,12.40461 -12.40461,12.40461c-6.85088,0 -12.40461,-5.55373 -12.40461,-12.40461z" fill="#ffd966"/></g><path d="M180.54487,123.96828l0.0616,13.56722" fill="none" stroke="#ffbf00" stroke-width="4" stroke-linecap="round"/></g></g><g><path d="M210.40762,180.31968c-0.74476,0 -1.40971,-0.06206 -1.99488,-0.18618c-0.56743,-0.1064 -1.09053,-0.25711 -1.5693,-0.45217c-0.47877,-0.19505 -0.91322,-0.40783 -1.30331,-0.63836c-0.39012,-0.23053 -0.74476,-0.46104 -1.06393,-0.69156c-0.21279,-0.19505 -0.39012,-0.36351 -0.53197,-0.50536c-0.14185,-0.15959 -0.21279,-0.34577 -0.21279,-0.55856c0,-0.14185 0.03545,-0.29257 0.1064,-0.45217c0.08866,-0.17733 0.22166,-0.38125 0.39899,-0.61176c0.19505,-0.24825 0.38125,-0.4167 0.55857,-0.50536c0.17733,-0.1064 0.34579,-0.15959 0.50538,-0.15959c0.12413,0 0.26598,0.03545 0.42557,0.1064c0.17733,0.05319 0.40783,0.20392 0.69156,0.45218c0.24825,0.19505 0.5231,0.39899 0.82456,0.61178c0.31918,0.21279 0.70929,0.38125 1.17033,0.50538c0.46104,0.12413 1.05507,0.18619 1.78211,0.18619c0.83342,0 1.56932,-0.16846 2.20768,-0.50536c0.6561,-0.33692 1.16146,-0.82455 1.51612,-1.46291c0.37238,-0.63836 0.55857,-1.39199 0.55857,-2.26086c0,-0.83342 -0.18618,-1.5693 -0.55856,-2.20766c-0.37238,-0.63836 -0.87774,-1.14372 -1.5161,-1.5161c-0.63836,-0.37238 -1.32992,-0.55856 -2.07468,-0.55856c-0.39012,0 -0.75363,0.04432 -1.09053,0.133c-0.33692,0.08866 -0.64723,0.21279 -0.93093,0.37238c-0.28372,0.15959 -0.53197,0.34579 -0.74476,0.55857c-0.15959,0.14185 -0.30144,0.24825 -0.42557,0.31918c-0.1064,0.07093 -0.23938,0.133 -0.39897,0.18619c-0.19505,0.05319 -0.39012,0.07093 -0.58517,0.05319c-0.19505,-0.03545 -0.46104,-0.11526 -0.79795,-0.23938c-0.37238,-0.17733 -0.64723,-0.33692 -0.82455,-0.47877c-0.15959,-0.15959 -0.23938,-0.37238 -0.23938,-0.63836l1.35653,-9.73503c0.03545,-0.23053 0.08866,-0.45217 0.15959,-0.66495c0.07093,-0.23053 0.20392,-0.42557 0.39899,-0.58517c0.19505,-0.15959 0.48764,-0.23938 0.87776,-0.23938l8.24551,0.05319c0.28372,0 0.5231,0.03545 0.71816,0.1064c0.19505,0.05319 0.34579,0.18619 0.45218,0.39899c0.1064,0.21279 0.15959,0.5231 0.15959,0.93095c0,0.39012 -0.05319,0.68269 -0.15959,0.87776c-0.1064,0.17733 -0.25711,0.30144 -0.45217,0.37238c-0.17733,0.07093 -0.40783,0.1064 -0.69156,0.1064h-7.02199l-0.87774,6.25065c0.24825,-0.21279 0.53197,-0.38125 0.85115,-0.50536c0.33692,-0.12413 0.67382,-0.23053 1.01074,-0.31918c0.35464,-0.08866 0.69156,-0.13298 1.01074,-0.13298h0.21279c0.90435,0 1.76437,0.18619 2.58006,0.55857c0.81569,0.35464 1.53384,0.85115 2.15449,1.48952c0.63836,0.62062 1.14374,1.34766 1.51612,2.18107c0.39012,0.81569 0.58517,1.69343 0.58517,2.63325c0,1.43631 -0.31031,2.70417 -0.93093,3.80359c-0.62062,1.0994 -1.45405,1.96828 -2.50025,2.60664c-1.0462,0.63836 -2.2254,0.95754 -3.53759,0.95754zM228.20476,180.31968c-1.13488,0 -2.14562,-0.17733 -3.03223,-0.53197c-0.86889,-0.37238 -1.6225,-0.88661 -2.26086,-1.54271c-0.62062,-0.67382 -1.13488,-1.48065 -1.54271,-2.42045c-0.40783,-0.9398 -0.70929,-1.97715 -0.90435,-3.11201c-0.17733,-1.15259 -0.26598,-2.38499 -0.26598,-3.69717c0,-1.27673 0.08866,-2.48252 0.26598,-3.61739c0.19505,-1.13488 0.49651,-2.16333 0.90435,-3.08542c0.40783,-0.9398 0.92208,-1.74663 1.54271,-2.42045c0.62062,-0.69156 1.36538,-1.22353 2.23427,-1.5959c0.88661,-0.37238 1.87963,-0.55856 2.97902,-0.55856c1.0994,0 2.07468,0.18619 2.92583,0.55857c0.86889,0.37238 1.60477,0.90435 2.20768,1.5959c0.62062,0.67382 1.13488,1.48065 1.54271,2.42047c0.40783,0.92208 0.70042,1.95941 0.87776,3.11203c0.19505,1.13488 0.29259,2.34066 0.29259,3.61739c0,1.29446 -0.09753,2.51799 -0.29257,3.67059c-0.17733,1.13488 -0.46991,2.1722 -0.87774,3.11203c-0.40783,0.92208 -0.92208,1.72004 -1.54271,2.39386c-0.60291,0.67382 -1.32105,1.19694 -2.15447,1.56932c-0.83342,0.35464 -1.79982,0.53197 -2.89922,0.53197zM228.07176,177.42044c0.993,0 1.80869,-0.21279 2.44706,-0.63836c0.63836,-0.44331 1.13488,-1.00187 1.48952,-1.67569c0.35464,-0.67382 0.61178,-1.38312 0.77136,-2.12788c0.15959,-0.7625 0.25711,-1.48065 0.29259,-2.15447c0.03545,-0.67382 0.05319,-1.21466 0.05319,-1.6225v-0.18618c0,-1.77324 -0.18618,-3.28934 -0.55856,-4.54833c-0.37238,-1.27673 -0.93093,-2.24314 -1.67569,-2.89922c-0.74476,-0.6561 -1.67569,-0.98414 -2.79283,-0.98414c-1.11714,0 -2.05694,0.32805 -2.81943,0.98415c-0.74476,0.6561 -1.30331,1.61364 -1.67569,2.87263c-0.37238,1.24127 -0.55856,2.77511 -0.55856,4.60154c0,1.77324 0.18619,3.28934 0.55857,4.54834c0.37238,1.24127 0.93095,2.18994 1.67571,2.84604c0.7625,0.6561 1.69343,0.98415 2.79285,0.98415z" fill="#000000" stroke="none" stroke-width="1" stroke-linecap="square"/><g><g fill="#000000" stroke="#000000" stroke-width="4" stroke-linecap="butt"><path d="M168.40144,170.58408c0,-6.85088 5.55373,-12.40461 12.40461,-12.40461c6.85088,0 12.40461,5.55373 12.40461,12.40461c0,6.85088 -5.55373,12.40461 -12.40461,12.40461c-6.85088,0 -12.40461,-5.55373 -12.40461,-12.40461z"/><path d="M168.3516,168.85684c0,-6.85088 5.55373,-12.40461 12.40461,-12.40461c6.85088,0 12.40461,5.55373 12.40461,12.40461c0,6.85088 -5.55373,12.40461 -12.40461,12.40461c-6.85088,0 -12.40461,-5.55373 -12.40461,-12.40461z"/></g><g stroke="none" stroke-width="0" stroke-linecap="butt"><path d="M168.40144,170.58408c0,-6.85088 5.55373,-12.40461 12.40461,-12.40461c6.85088,0 12.40461,5.55373 12.40461,12.40461c0,6.85088 -5.55373,12.40461 -12.40461,12.40461c-6.85088,0 -12.40461,-5.55373 -12.40461,-12.40461z" fill="#d0b153"/><path d="M168.3516,168.85684c0,-6.85088 5.55373,-12.40461 12.40461,-12.40461c6.85088,0 12.40461,5.55373 12.40461,12.40461c0,6.85088 -5.55373,12.40461 -12.40461,12.40461c-6.85088,0 -12.40461,-5.55373 -12.40461,-12.40461z" fill="#ffd966"/></g><path d="M180.72541,162.07323l0.0616,13.56722" fill="none" stroke="#ffbf00" stroke-width="4" stroke-linecap="round"/></g></g><g><path d="M211.87055,217.63728c-0.53197,0 -0.90435,-0.11526 -1.11714,-0.34577c-0.19505,-0.21279 -0.29257,-0.5763 -0.29257,-1.09053v-19.36366c0,-0.53197 0.1064,-0.89548 0.31918,-1.09053c0.21279,-0.19505 0.58517,-0.29257 1.11714,-0.29257c0.51423,0 0.86889,0.11526 1.06393,0.34579c0.21279,0.21279 0.31918,0.5763 0.31918,1.09054v19.36366c0,0.49651 -0.1064,0.85115 -0.31918,1.06393c-0.19505,0.21279 -0.55856,0.31918 -1.09053,0.31918zM206.15189,203.4071c-0.40783,0.33692 -0.75363,0.50538 -1.03733,0.50538c-0.26598,-0.01774 -0.56743,-0.21279 -0.90435,-0.58517c-0.33692,-0.39012 -0.49651,-0.73589 -0.47877,-1.03733c0.03545,-0.30144 0.25711,-0.63836 0.66497,-1.01074l6.14425,-5.31969c0.35464,-0.33692 0.68269,-0.48764 0.98415,-0.45217c0.30144,0.01774 0.62062,0.20392 0.95754,0.55857c0.33692,0.37238 0.48764,0.70929 0.45218,1.01074c-0.01774,0.30144 -0.24825,0.64723 -0.69156,1.03735zM224.2667,217.77026c-1.13488,0 -2.14562,-0.17733 -3.03223,-0.53197c-0.86889,-0.37238 -1.6225,-0.88661 -2.26086,-1.54271c-0.62062,-0.67382 -1.13488,-1.48065 -1.54271,-2.42045c-0.40783,-0.9398 -0.70929,-1.97715 -0.90435,-3.11201c-0.17733,-1.15259 -0.26598,-2.38499 -0.26598,-3.69717c0,-1.27673 0.08866,-2.48252 0.26598,-3.61739c0.19505,-1.13488 0.49651,-2.16333 0.90435,-3.08542c0.40783,-0.9398 0.92208,-1.74663 1.54271,-2.42045c0.62062,-0.69156 1.36538,-1.22353 2.23427,-1.5959c0.88661,-0.37238 1.87963,-0.55856 2.97902,-0.55856c1.0994,0 2.07468,0.18619 2.92583,0.55857c0.86889,0.37238 1.60477,0.90435 2.20768,1.5959c0.62062,0.67382 1.13488,1.48065 1.54271,2.42047c0.40783,0.92208 0.70042,1.95941 0.87776,3.11203c0.19505,1.13488 0.29259,2.34066 0.29259,3.61739c0,1.29446 -0.09753,2.51799 -0.29257,3.67059c-0.17733,1.13488 -0.46991,2.1722 -0.87774,3.11203c-0.40783,0.92208 -0.92208,1.72004 -1.54271,2.39386c-0.60291,0.67382 -1.32105,1.19694 -2.15447,1.56932c-0.83342,0.35464 -1.79982,0.53197 -2.89922,0.53197zM224.1337,214.87105c0.993,0 1.80869,-0.21279 2.44706,-0.63836c0.63836,-0.44331 1.13488,-1.00187 1.48952,-1.67569c0.35464,-0.67382 0.61178,-1.38312 0.77136,-2.12788c0.15959,-0.7625 0.25711,-1.48065 0.29259,-2.15447c0.03545,-0.67382 0.05319,-1.21466 0.05319,-1.6225v-0.18618c0,-1.77324 -0.18618,-3.28934 -0.55856,-4.54833c-0.37238,-1.27673 -0.93093,-2.24314 -1.67569,-2.89922c-0.74476,-0.6561 -1.67569,-0.98414 -2.79283,-0.98414c-1.11714,0 -2.05694,0.32805 -2.81943,0.98415c-0.74476,0.6561 -1.30331,1.61364 -1.67569,2.87263c-0.37238,1.24127 -0.55856,2.77511 -0.55856,4.60154c0,1.77324 0.18619,3.28934 0.55857,4.54834c0.37238,1.24127 0.93095,2.18994 1.67571,2.84604c0.7625,0.6561 1.69343,0.98415 2.79285,0.98415zM242.90896,217.77026c-1.13488,0 -2.14562,-0.17733 -3.03223,-0.53197c-0.86889,-0.37238 -1.6225,-0.88661 -2.26086,-1.54271c-0.62062,-0.67382 -1.13488,-1.48065 -1.54271,-2.42045c-0.40783,-0.9398 -0.70929,-1.97715 -0.90435,-3.11201c-0.17733,-1.15259 -0.26598,-2.38499 -0.26598,-3.69717c0,-1.27673 0.08866,-2.48252 0.26598,-3.61739c0.19505,-1.13488 0.49651,-2.16333 0.90435,-3.08542c0.40783,-0.9398 0.92208,-1.74663 1.54271,-2.42045c0.62062,-0.69156 1.36538,-1.22353 2.23427,-1.5959c0.88661,-0.37238 1.87963,-0.55856 2.97902,-0.55856c1.0994,0 2.07468,0.18619 2.92583,0.55857c0.86889,0.37238 1.60477,0.90435 2.20768,1.5959c0.62062,0.67382 1.13488,1.48065 1.54271,2.42047c0.40783,0.92208 0.70042,1.95941 0.87776,3.11203c0.19505,1.13488 0.29259,2.34066 0.29259,3.61739c0,1.29446 -0.09753,2.51799 -0.29257,3.67059c-0.17733,1.13488 -0.46991,2.1722 -0.87774,3.11203c-0.40783,0.92208 -0.92208,1.72004 -1.54271,2.39386c-0.60291,0.67382 -1.32105,1.19694 -2.15447,1.56932c-0.83342,0.35464 -1.79982,0.53197 -2.89922,0.53197zM242.77596,214.87105c0.993,0 1.80869,-0.21279 2.44706,-0.63836c0.63836,-0.44331 1.13488,-1.00187 1.48952,-1.67569c0.35464,-0.67382 0.61178,-1.38312 0.77136,-2.12788c0.15959,-0.7625 0.25711,-1.48065 0.29259,-2.15447c0.03545,-0.67382 0.05319,-1.21466 0.05319,-1.6225v-0.18618c0,-1.77324 -0.18618,-3.28934 -0.55856,-4.54833c-0.37238,-1.27673 -0.93093,-2.24314 -1.67569,-2.89922c-0.74476,-0.6561 -1.67569,-0.98414 -2.79283,-0.98414c-1.11714,0 -2.05694,0.32805 -2.81943,0.98415c-0.74476,0.6561 -1.30331,1.61364 -1.67569,2.87263c-0.37238,1.24127 -0.55856,2.77511 -0.55856,4.60154c0,1.77324 0.18619,3.28934 0.55857,4.54834c0.37238,1.24127 0.93095,2.18994 1.67571,2.84604c0.7625,0.6561 1.69343,0.98415 2.79285,0.98415z" fill="#000000" stroke="none" stroke-width="1" stroke-linecap="square"/><g><g fill="#000000" stroke="#000000" stroke-width="4" stroke-linecap="butt"><path d="M168.13731,208.04355c0,-6.85088 5.55373,-12.40461 12.40461,-12.40461c6.85088,0 12.40461,5.55373 12.40461,12.40461c0,6.85088 -5.55373,12.40461 -12.40461,12.40461c-6.85088,0 -12.40461,-5.55373 -12.40461,-12.40461z"/><path d="M168.08748,206.31631c0,-6.85088 5.55373,-12.40461 12.40461,-12.40461c6.85088,0 12.40461,5.55373 12.40461,12.40461c0,6.85088 -5.55373,12.40461 -12.40461,12.40461c-6.85088,0 -12.40461,-5.55373 -12.40461,-12.40461z"/></g><g stroke="none" stroke-width="0" stroke-linecap="butt"><path d="M168.13731,208.04355c0,-6.85088 5.55373,-12.40461 12.40461,-12.40461c6.85088,0 12.40461,5.55373 12.40461,12.40461c0,6.85088 -5.55373,12.40461 -12.40461,12.40461c-6.85088,0 -12.40461,-5.55373 -12.40461,-12.40461z" fill="#d0b153"/><path d="M168.08748,206.31631c0,-6.85088 5.55373,-12.40461 12.40461,-12.40461c6.85088,0 12.40461,5.55373 12.40461,12.40461c0,6.85088 -5.55373,12.40461 -12.40461,12.40461c-6.85088,0 -12.40461,-5.55373 -12.40461,-12.40461z" fill="#ffd966"/></g><path d="M180.52289,213.09992l-0.0616,-13.56722" fill="none" stroke="#ffbf00" stroke-width="4" stroke-linecap="round"/></g></g></g></g></svg>