<svg version="1.1" xmlns="http://www.w3.org/2000/svg" xmlns:xlink="http://www.w3.org/1999/xlink" width="720" height="540" viewBox="0,0,720,540"><defs><clipPath id="clip-1"><rect x="-240" y="-180" transform="scale(0.5,0.5)" width="1440" height="1080" fill="none" fill-rule="nonzero" stroke-width="0.5" stroke-linecap="butt"/></clipPath></defs><g transform="translate(120,90)"><g clip-path="url(#clip-1)" data-paper-data="{&quot;isPaintingLayer&quot;:true}" stroke="none" stroke-linejoin="miter" stroke-miterlimit="10" stroke-dasharray="" stroke-dashoffset="0" style="mix-blend-mode: normal"><path d="M-240,-180h960v720h-960z" fill-opacity="0" fill="#000000" fill-rule="evenodd" stroke-width="1" stroke-linecap="square"/><path d="M-67.17061,-713.82416h15.49606v52.66144h-15.49606z" fill-opacity="0" fill="#000000" fill-rule="evenodd" stroke-width="1" stroke-linecap="square"/><path d="M-123.94488,-137.67717h251.87402v189.92126h-251.87402z" fill-opacity="0" fill="#000000" fill-rule="evenodd" stroke-width="1" stroke-linecap="square"/><path d="M-68.98171,12.78559c-0.47917,0 -0.92708,-0.05729 -1.34375,-0.17187c-0.41667,-0.11458 -0.79687,-0.26562 -1.14062,-0.45312c-0.33333,-0.19792 -0.63542,-0.41146 -0.90625,-0.64062c-0.26042,-0.23958 -0.46354,-0.47917 -0.60937,-0.71875c-0.13542,-0.19792 -0.22396,-0.35937 -0.26562,-0.48437c-0.03125,-0.13542 -0.02083,-0.26562 0.03125,-0.39062c0.0625,-0.125 0.17708,-0.26042 0.34375,-0.40625c0.19792,-0.14583 0.36979,-0.21354 0.51563,-0.20312c0.15625,0 0.29688,0.05729 0.42188,0.17188c0.13542,0.10417 0.27083,0.25 0.40625,0.4375c0.3125,0.42708 0.69271,0.73958 1.14063,0.9375c0.44792,0.1875 0.89063,0.28125 1.32813,0.28125c0.5625,0 1.05729,-0.07292 1.48438,-0.21875c0.4375,-0.15625 0.78125,-0.38542 1.03125,-0.6875c0.26042,-0.30208 0.39063,-0.69792 0.39063,-1.1875c0,-0.39583 -0.09896,-0.72917 -0.29687,-1c-0.19792,-0.28125 -0.46875,-0.51562 -0.8125,-0.70312c-0.33333,-0.19792 -0.70312,-0.36459 -1.10937,-0.5c-0.40625,-0.14583 -0.82292,-0.28646 -1.25,-0.42187c-0.33333,-0.11458 -0.66146,-0.23958 -0.98437,-0.375c-0.32292,-0.14583 -0.63021,-0.30729 -0.92187,-0.48437c-0.28125,-0.1875 -0.53125,-0.40625 -0.75,-0.65625c-0.21875,-0.25 -0.39062,-0.54167 -0.51562,-0.875c-0.11458,-0.33333 -0.17187,-0.72396 -0.17187,-1.17187c0,-0.6875 0.16667,-1.29167 0.5,-1.8125c0.33333,-0.52083 0.79688,-0.92708 1.39063,-1.21875c0.59375,-0.29167 1.28125,-0.4375 2.0625,-0.4375c0.46875,0 0.89583,0.04167 1.28125,0.125c0.38542,0.08333 0.72396,0.19792 1.01563,0.34375c0.30208,0.14583 0.55729,0.29688 0.76563,0.45313c0.20833,0.15625 0.36979,0.30208 0.48438,0.4375c0.22917,0.22917 0.35417,0.42708 0.375,0.59375c0.03125,0.15625 -0.0625,0.35417 -0.28125,0.59375c-0.19792,0.22917 -0.39062,0.34896 -0.57812,0.35938c-0.1875,0.01042 -0.39062,-0.07812 -0.60937,-0.26562c-0.23958,-0.27083 -0.48958,-0.47917 -0.75,-0.625c-0.25,-0.15625 -0.51562,-0.26042 -0.79687,-0.3125c-0.28125,-0.0625 -0.58854,-0.09375 -0.92187,-0.09375c-0.32292,0 -0.625,0.04167 -0.90625,0.125c-0.28125,0.08333 -0.52604,0.20833 -0.73437,0.375c-0.19792,0.15625 -0.35417,0.34896 -0.46875,0.57813c-0.10417,0.22917 -0.15625,0.49479 -0.15625,0.79688c0,0.33333 0.08854,0.61979 0.26563,0.85938c0.17708,0.22917 0.41146,0.43229 0.70313,0.60938c0.30208,0.16667 0.64063,0.31771 1.01563,0.45313c0.375,0.125 0.76563,0.25 1.17188,0.375c0.44792,0.13542 0.89063,0.30208 1.32813,0.5c0.4375,0.1875 0.82813,0.42188 1.17188,0.70313c0.35417,0.28125 0.63542,0.63542 0.84375,1.0625c0.21875,0.41667 0.32813,0.93229 0.32813,1.54688c0,0.625 -0.125,1.17708 -0.375,1.65625c-0.23958,0.46875 -0.57292,0.86458 -1,1.1875c-0.41667,0.3125 -0.89583,0.54688 -1.4375,0.70313c-0.54167,0.16667 -1.10937,0.25 -1.70312,0.25zM-58.28676,12.69184c-0.73958,0 -1.40104,-0.125 -1.98437,-0.375c-0.58333,-0.25 -1.07812,-0.58854 -1.48437,-1.01562c-0.40625,-0.42708 -0.71875,-0.92187 -0.9375,-1.48437c-0.20833,-0.5625 -0.3125,-1.16667 -0.3125,-1.8125c0,-0.85417 0.19792,-1.61459 0.59375,-2.28125c0.40625,-0.67708 0.95833,-1.20833 1.65625,-1.59375c0.70833,-0.39583 1.51563,-0.59375 2.42188,-0.59375c0.625,0 1.18229,0.09896 1.67188,0.29688c0.48958,0.1875 0.90625,0.44271 1.25,0.76563c0.35417,0.32292 0.625,0.68229 0.8125,1.07813c0.1875,0.39583 0.28125,0.79167 0.28125,1.1875c0,0.63542 -0.15104,1.08334 -0.45312,1.34375c-0.30208,0.25 -0.67187,0.375 -1.10937,0.375h-5.39062c-0.01042,0.55208 0.13542,1.02604 0.4375,1.42188c0.3125,0.38542 0.69792,0.6875 1.15625,0.90625c0.46875,0.20833 0.94271,0.3125 1.42188,0.3125c0.34375,0 0.64063,-0.02083 0.89063,-0.0625c0.25,-0.04167 0.46875,-0.09375 0.65625,-0.15625c0.1875,-0.0625 0.34896,-0.11979 0.48438,-0.17187c0.13542,-0.0625 0.25521,-0.125 0.35938,-0.1875c0.10417,-0.0625 0.20833,-0.10937 0.3125,-0.14062c0.11458,-0.02083 0.22396,-0.01042 0.32813,0.03125c0.10417,0.04167 0.1875,0.125 0.25,0.25c0.07292,0.10417 0.11979,0.19792 0.14063,0.28125c0.03125,0.08333 0.04688,0.17708 0.04688,0.28125c0,0.17708 -0.15104,0.36979 -0.45312,0.57813c-0.30208,0.20833 -0.71875,0.38542 -1.25,0.53125c-0.52083,0.15625 -1.11979,0.23438 -1.79687,0.23438zM-61.27114,7.48871h4.6875c0.23958,0 0.41667,-0.03125 0.53125,-0.09375c0.11458,-0.0625 0.17188,-0.22917 0.17188,-0.5c0,-0.35417 -0.10417,-0.67187 -0.3125,-0.95312c-0.20833,-0.28125 -0.5,-0.50521 -0.875,-0.67187c-0.36458,-0.17708 -0.78125,-0.26562 -1.25,-0.26562c-0.54167,0 -1.04167,0.10938 -1.5,0.32813c-0.45833,0.21875 -0.81771,0.51563 -1.07812,0.89063c-0.26042,0.36458 -0.38542,0.78646 -0.375,1.26563zM-49.61864,12.59809c-0.39583,0 -0.75521,-0.03646 -1.07812,-0.10937c-0.3125,-0.0625 -0.58854,-0.16667 -0.82812,-0.3125c-0.23958,-0.15625 -0.4375,-0.34896 -0.59375,-0.57812c-0.15625,-0.23958 -0.27083,-0.52604 -0.34375,-0.85937c-0.0625,-0.34375 -0.09375,-0.73958 -0.09375,-1.1875v-9.32813c0,-0.1875 0.01563,-0.33854 0.04688,-0.45312c0.03125,-0.125 0.10938,-0.22396 0.23438,-0.29687c0.125,-0.07292 0.30208,-0.10937 0.53125,-0.10937c0.23958,0 0.41667,0.03125 0.53125,0.09375c0.125,0.0625 0.20313,0.15625 0.23438,0.28125c0.04167,0.125 0.0625,0.27604 0.0625,0.45313v9.34375c0,0.25 0.02604,0.46875 0.07813,0.65625c0.05208,0.17708 0.13021,0.32813 0.23438,0.45313c0.10417,0.125 0.23438,0.21354 0.39063,0.26563c0.16667,0.04167 0.36458,0.0625 0.59375,0.0625c0.14583,0 0.27083,0.02083 0.375,0.0625c0.10417,0.03125 0.1875,0.10417 0.25,0.21875c0.0625,0.11458 0.09375,0.28646 0.09375,0.51563c0,0.25 -0.03125,0.4375 -0.09375,0.5625c-0.0625,0.11458 -0.14583,0.1875 -0.25,0.21875c-0.10417,0.03125 -0.22917,0.04688 -0.375,0.04688zM-42.96999,12.69184c-0.73958,0 -1.40104,-0.125 -1.98437,-0.375c-0.58333,-0.25 -1.07812,-0.58854 -1.48437,-1.01562c-0.40625,-0.42708 -0.71875,-0.92187 -0.9375,-1.48437c-0.20833,-0.5625 -0.3125,-1.16667 -0.3125,-1.8125c0,-0.85417 0.19792,-1.61459 0.59375,-2.28125c0.40625,-0.67708 0.95833,-1.20833 1.65625,-1.59375c0.70833,-0.39583 1.51563,-0.59375 2.42188,-0.59375c0.625,0 1.18229,0.09896 1.67188,0.29688c0.48958,0.1875 0.90625,0.44271 1.25,0.76563c0.35417,0.32292 0.625,0.68229 0.8125,1.07813c0.1875,0.39583 0.28125,0.79167 0.28125,1.1875c0,0.63542 -0.15104,1.08334 -0.45312,1.34375c-0.30208,0.25 -0.67187,0.375 -1.10937,0.375h-5.39063c-0.01042,0.55208 0.13542,1.02604 0.4375,1.42188c0.3125,0.38542 0.69792,0.6875 1.15625,0.90625c0.46875,0.20833 0.94271,0.3125 1.42188,0.3125c0.34375,0 0.64063,-0.02083 0.89063,-0.0625c0.25,-0.04167 0.46875,-0.09375 0.65625,-0.15625c0.1875,-0.0625 0.34896,-0.11979 0.48438,-0.17187c0.13542,-0.0625 0.25521,-0.125 0.35938,-0.1875c0.10417,-0.0625 0.20833,-0.10937 0.3125,-0.14062c0.11458,-0.02083 0.22396,-0.01042 0.32813,0.03125c0.10417,0.04167 0.1875,0.125 0.25,0.25c0.07292,0.10417 0.11979,0.19792 0.14063,0.28125c0.03125,0.08333 0.04688,0.17708 0.04688,0.28125c0,0.17708 -0.15104,0.36979 -0.45312,0.57813c-0.30208,0.20833 -0.71875,0.38542 -1.25,0.53125c-0.52083,0.15625 -1.11979,0.23438 -1.79687,0.23438zM-45.95437,7.48871h4.6875c0.23958,0 0.41667,-0.03125 0.53125,-0.09375c0.11458,-0.0625 0.17188,-0.22917 0.17188,-0.5c0,-0.35417 -0.10417,-0.67187 -0.3125,-0.95312c-0.20833,-0.28125 -0.5,-0.50521 -0.875,-0.67187c-0.36458,-0.17708 -0.78125,-0.26562 -1.25,-0.26562c-0.54167,0 -1.04167,0.10938 -1.5,0.32813c-0.45833,0.21875 -0.81771,0.51563 -1.07812,0.89063c-0.26042,0.36458 -0.38542,0.78646 -0.375,1.26563zM-32.89562,12.62934c-0.64583,0 -1.25,-0.10417 -1.8125,-0.3125c-0.5625,-0.20833 -1.0625,-0.51042 -1.5,-0.90625c-0.42708,-0.40625 -0.76042,-0.88542 -1,-1.4375c-0.23958,-0.55208 -0.35937,-1.18229 -0.35937,-1.89062c0,-0.70834 0.11979,-1.33855 0.35938,-1.89063c0.23958,-0.55208 0.57292,-1.02604 1,-1.42187c0.42708,-0.40625 0.92188,-0.71354 1.48438,-0.92187c0.5625,-0.20833 1.16146,-0.3125 1.79688,-0.3125c0.42708,0 0.84375,0.06771 1.25,0.20313c0.40625,0.125 0.76563,0.29167 1.07813,0.5c0.32292,0.19792 0.55208,0.41146 0.6875,0.64063c0.125,0.15625 0.21354,0.28646 0.26563,0.39063c0.0625,0.10417 0.06771,0.22917 0.01563,0.375c-0.04167,0.09375 -0.10937,0.18229 -0.20312,0.26563c-0.08333,0.08333 -0.16667,0.14583 -0.25,0.1875c-0.22917,0.17708 -0.45312,0.20313 -0.67187,0.07813c-0.14583,-0.13542 -0.30208,-0.26042 -0.46875,-0.375c-0.16667,-0.125 -0.34375,-0.23437 -0.53125,-0.32812c-0.1875,-0.10417 -0.38021,-0.18229 -0.57812,-0.23437c-0.1875,-0.05208 -0.38542,-0.07812 -0.59375,-0.07812c-0.58333,0 -1.09896,0.11979 -1.54687,0.35938c-0.44792,0.23958 -0.79687,0.58333 -1.04687,1.03125c-0.23958,0.4375 -0.35937,0.94792 -0.35937,1.53125c0,0.58333 0.11979,1.09375 0.35938,1.53125c0.25,0.4375 0.59375,0.78125 1.03125,1.03125c0.44792,0.23958 0.95833,0.35938 1.53125,0.35938c0.26042,0 0.51042,-0.03125 0.75,-0.09375c0.23958,-0.07292 0.46354,-0.16667 0.67188,-0.28125c0.21875,-0.11458 0.39583,-0.24479 0.53125,-0.39062c0.125,-0.08333 0.22917,-0.15625 0.3125,-0.21875c0.09375,-0.0625 0.20313,-0.09375 0.32813,-0.09375c0.09375,0 0.19792,0.04167 0.3125,0.125c0.11458,0.08333 0.23438,0.20313 0.35938,0.35938c0.09375,0.11458 0.15104,0.23438 0.17188,0.35938c0.02083,0.125 0,0.24479 -0.0625,0.35938c-0.0625,0.10417 -0.16146,0.21354 -0.29687,0.32813c-0.19792,0.19792 -0.46354,0.39063 -0.79687,0.57813c-0.33333,0.17708 -0.69271,0.31771 -1.07812,0.42188c-0.38542,0.11458 -0.76562,0.17188 -1.14062,0.17188zM-23.60491,12.59809c-0.58333,0 -1.07812,-0.05729 -1.48437,-0.17187c-0.39583,-0.11458 -0.72396,-0.28646 -0.98437,-0.51562c-0.26042,-0.23958 -0.44792,-0.54687 -0.5625,-0.92187c-0.11458,-0.38542 -0.17187,-0.85417 -0.17187,-1.40625v-8.25c0,-0.17708 0.01563,-0.32812 0.04688,-0.45312c0.04167,-0.125 0.11979,-0.21875 0.23438,-0.28125c0.11458,-0.07292 0.28646,-0.10937 0.51563,-0.10937c0.23958,0 0.42188,0.03646 0.54688,0.10938c0.125,0.0625 0.20313,0.15625 0.23438,0.28125c0.04167,0.11458 0.0625,0.26042 0.0625,0.4375v8.26563c0,0.32292 0.02604,0.58333 0.07813,0.78125c0.0625,0.1875 0.15104,0.33333 0.26563,0.4375c0.125,0.09375 0.28646,0.15104 0.48438,0.17188c0.19792,0.02083 0.4375,0.03125 0.71875,0.03125c0.19792,0 0.35938,0.02083 0.48438,0.0625c0.125,0.04167 0.21875,0.11979 0.28125,0.23438c0.0625,0.10417 0.09375,0.27083 0.09375,0.5c0,0.22917 -0.03646,0.40625 -0.10937,0.53125c-0.0625,0.11458 -0.16146,0.1875 -0.29687,0.21875c-0.125,0.03125 -0.27083,0.04688 -0.4375,0.04688zM-27.77679,3.76996l1.79688,0.01563l2.59375,-0.03125c0.16667,0 0.3125,0.01563 0.4375,0.04688c0.125,0.03125 0.21875,0.10938 0.28125,0.23438c0.07292,0.11458 0.10938,0.28646 0.10938,0.51563c0,0.23958 -0.03125,0.42188 -0.09375,0.54688c-0.0625,0.11458 -0.15625,0.19271 -0.28125,0.23438c-0.125,0.03125 -0.27083,0.04688 -0.4375,0.04688l-2.5625,-0.04687l-1.875,0.03125c-0.26042,0 -0.4375,-0.0625 -0.53125,-0.1875c-0.09375,-0.125 -0.14062,-0.33333 -0.14062,-0.625c0,-0.27083 0.05208,-0.46875 0.15625,-0.59375c0.11458,-0.125 0.29688,-0.1875 0.54688,-0.1875zM-16.59016,12.69184c-0.73958,0 -1.40104,-0.125 -1.98437,-0.375c-0.58333,-0.25 -1.07812,-0.58854 -1.48437,-1.01562c-0.40625,-0.42708 -0.71875,-0.92187 -0.9375,-1.48437c-0.20833,-0.5625 -0.3125,-1.16667 -0.3125,-1.8125c0,-0.85417 0.19792,-1.61459 0.59375,-2.28125c0.40625,-0.67708 0.95833,-1.20833 1.65625,-1.59375c0.70833,-0.39583 1.51563,-0.59375 2.42188,-0.59375c0.625,0 1.18229,0.09896 1.67188,0.29688c0.48958,0.1875 0.90625,0.44271 1.25,0.76563c0.35417,0.32292 0.625,0.68229 0.8125,1.07813c0.1875,0.39583 0.28125,0.79167 0.28125,1.1875c0,0.63542 -0.15104,1.08334 -0.45312,1.34375c-0.30208,0.25 -0.67187,0.375 -1.10937,0.375h-5.39062c-0.01042,0.55208 0.13542,1.02604 0.4375,1.42188c0.3125,0.38542 0.69792,0.6875 1.15625,0.90625c0.46875,0.20833 0.94271,0.3125 1.42188,0.3125c0.34375,0 0.64063,-0.02083 0.89063,-0.0625c0.25,-0.04167 0.46875,-0.09375 0.65625,-0.15625c0.1875,-0.0625 0.34896,-0.11979 0.48438,-0.17187c0.13542,-0.0625 0.25521,-0.125 0.35938,-0.1875c0.10417,-0.0625 0.20833,-0.10937 0.3125,-0.14062c0.11458,-0.02083 0.22396,-0.01042 0.32813,0.03125c0.10417,0.04167 0.1875,0.125 0.25,0.25c0.07292,0.10417 0.11979,0.19792 0.14063,0.28125c0.03125,0.08333 0.04688,0.17708 0.04688,0.28125c0,0.17708 -0.15104,0.36979 -0.45312,0.57813c-0.30208,0.20833 -0.71875,0.38542 -1.25,0.53125c-0.52083,0.15625 -1.11979,0.23438 -1.79687,0.23438zM-19.57453,7.48871h4.6875c0.23958,0 0.41667,-0.03125 0.53125,-0.09375c0.11458,-0.0625 0.17188,-0.22917 0.17188,-0.5c0,-0.35417 -0.10417,-0.67187 -0.3125,-0.95312c-0.20833,-0.28125 -0.5,-0.50521 -0.875,-0.67187c-0.36458,-0.17708 -0.78125,-0.26562 -1.25,-0.26562c-0.54167,0 -1.04167,0.10938 -1.5,0.32813c-0.45833,0.21875 -0.81771,0.51563 -1.07812,0.89063c-0.26042,0.36458 -0.38542,0.78646 -0.375,1.26563zM-6.85953,12.59809c-0.5625,0 -1.09896,-0.10937 -1.60937,-0.32812c-0.51042,-0.22917 -0.95833,-0.54687 -1.34375,-0.95312c-0.375,-0.41667 -0.67187,-0.90104 -0.89062,-1.45312c-0.20833,-0.55208 -0.3125,-1.15625 -0.3125,-1.8125c0,-0.64584 0.10417,-1.2448 0.3125,-1.79688c0.21875,-0.55208 0.51563,-1.02604 0.89063,-1.42187c0.38542,-0.40625 0.83333,-0.71875 1.34375,-0.9375c0.51042,-0.22917 1.04688,-0.34375 1.60938,-0.34375c0.60417,0 1.15104,0.11458 1.64063,0.34375c0.5,0.21875 0.92708,0.53125 1.28125,0.9375c0.35417,0.39583 0.61979,0.875 0.79688,1.4375c0.1875,0.55208 0.28125,1.15104 0.28125,1.79688c0.02083,0.65625 -0.06771,1.26042 -0.26562,1.8125c-0.1875,0.54167 -0.45833,1.02083 -0.8125,1.4375c-0.34375,0.40625 -0.76562,0.72396 -1.26562,0.95313c-0.48958,0.21875 -1.04167,0.32813 -1.65625,0.32813zM-6.62516,11.00434c0.52083,0 0.98958,-0.11979 1.40625,-0.35937c0.41667,-0.25 0.74479,-0.59375 0.98438,-1.03125c0.25,-0.44792 0.375,-0.95833 0.375,-1.53125c0,-0.58333 -0.125,-1.09375 -0.375,-1.53125c-0.23958,-0.44792 -0.56771,-0.79687 -0.98437,-1.04687c-0.41667,-0.25 -0.88542,-0.375 -1.40625,-0.375c-0.52083,0 -0.99479,0.125 -1.42187,0.375c-0.41667,0.25 -0.75,0.59896 -1,1.04688c-0.23958,0.4375 -0.35937,0.94792 -0.35937,1.53125c0,0.57292 0.11979,1.08333 0.35938,1.53125c0.25,0.4375 0.58854,0.78125 1.01563,1.03125c0.42708,0.23958 0.89583,0.35938 1.40625,0.35938zM-2.96891,12.59809c-0.27083,0 -0.46875,-0.05208 -0.59375,-0.15625c-0.125,-0.09375 -0.19792,-0.26042 -0.21875,-0.5v-11.67188c0,-0.1875 0.01563,-0.34375 0.04688,-0.46875c0.03125,-0.125 0.10417,-0.21875 0.21875,-0.28125c0.11458,-0.07292 0.29167,-0.10937 0.53125,-0.10937c0.23958,0 0.41667,0.03646 0.53125,0.10938c0.11458,0.0625 0.19271,0.15625 0.23438,0.28125c0.04167,0.125 0.0625,0.27604 0.0625,0.45313v11.48438c0,0.17708 -0.02083,0.33333 -0.0625,0.46875c-0.04167,0.125 -0.11979,0.21875 -0.23437,0.28125c-0.10417,0.07292 -0.27604,0.10938 -0.51562,0.10938z" fill="#000000" fill-rule="nonzero" stroke-width="1" stroke-linecap="square"/></g></g></svg>