<svg version="1.1" xmlns="http://www.w3.org/2000/svg" xmlns:xlink="http://www.w3.org/1999/xlink" width="140.99231" height="58.95734" viewBox="0,0,140.99231,58.95734"><g transform="translate(-169.50391,-150.52134)"><g data-paper-data="{&quot;isPaintingLayer&quot;:true}" stroke-linecap="square" stroke-linejoin="miter" stroke-miterlimit="10" stroke-dasharray="" stroke-dashoffset="0" style="mix-blend-mode: normal"><path d="M171.50391,168.38665v0c0,-8.76217 7.10314,-15.86531 15.86531,-15.86531l105.26168,0.20593v0c4.20774,0 8.24314,1.67152 11.21847,4.64684c2.97532,2.97532 4.64685,7.01074 4.64685,11.21848v23.02078c0,8.76217 -7.10314,15.86531 -15.86532,15.86531l-105.26168,-0.20593c-8.76217,0 -15.86531,-7.10314 -15.86531,-15.86531z" fill="#ececec" fill-rule="evenodd" stroke="#000000" stroke-width="4"/><path d="M171.50391,168.38664v0c0,-8.76216 7.10315,-15.86531 15.86532,-15.86531l105.26168,0.20594v0c4.20774,0 8.24314,1.67152 11.21846,4.64684c2.97532,2.97532 4.64685,7.01073 4.64685,11.21847v23.02078c0,8.76217 -7.10314,15.86531 -15.86532,15.86531l-105.26168,-0.20594c-8.76217,0 -15.86532,-7.10314 -15.86532,-15.86531z" fill="#a6a6a6" fill-rule="evenodd" stroke="none" stroke-width="1"/><path d="M171.50391,168.38665v0c0,-8.76217 7.10314,-15.86531 15.86531,-15.86531l105.26168,0.20593v0c4.20774,0 8.24314,1.67152 11.21847,4.64684c2.97532,2.97532 4.64685,7.01073 4.64685,11.21847l-0.00828,19.67943c0,8.76217 -7.10314,15.86531 -15.86531,15.86531l-105.26168,-0.20593c-8.76217,0 -15.86532,-7.10314 -15.86532,-15.86531z" fill="#c8c8c8" fill-rule="evenodd" stroke="none" stroke-width="1"/><path d="M195.98051,189.44683c-0.67451,0 -1.30504,-0.08065 -1.89156,-0.24194c-0.58653,-0.1613 -1.12174,-0.37391 -1.60563,-0.63785c-0.46923,-0.2786 -0.89446,-0.5792 -1.27571,-0.90179c-0.36658,-0.33726 -0.65251,-0.67451 -0.8578,-1.01177c-0.19062,-0.2786 -0.31526,-0.50588 -0.37391,-0.68184c-0.04399,-0.19062 -0.02933,-0.37391 0.04399,-0.54987c0.08798,-0.17596 0.24928,-0.36658 0.48389,-0.57187c0.2786,-0.20529 0.52054,-0.3006 0.72583,-0.28593c0.21995,0 0.4179,0.08065 0.59386,0.24194c0.19062,0.14663 0.38125,0.35192 0.57187,0.61586c0.4399,0.6012 0.97511,1.0411 1.60563,1.3197c0.63052,0.26394 1.25371,0.39591 1.86957,0.39591c0.79182,0 1.48832,-0.10264 2.08952,-0.30793c0.61586,-0.21995 1.09975,-0.54254 1.45167,-0.96778c0.36658,-0.42524 0.54987,-0.98244 0.54987,-1.67162c0,-0.55721 -0.1393,-1.02643 -0.4179,-1.40768c-0.2786,-0.39591 -0.65985,-0.72583 -1.14374,-0.98977c-0.46923,-0.27861 -0.98977,-0.51322 -1.56164,-0.70385c-0.57187,-0.20529 -1.1584,-0.40324 -1.7596,-0.59386c-0.46923,-0.1613 -0.93112,-0.33726 -1.38568,-0.52788c-0.45456,-0.20529 -0.88713,-0.43256 -1.2977,-0.68184c-0.39591,-0.26394 -0.74783,-0.57187 -1.05576,-0.92379c-0.30793,-0.35192 -0.54987,-0.76249 -0.72583,-1.23172c-0.1613,-0.46923 -0.24194,-1.0191 -0.24194,-1.64962c0,-0.96778 0.23461,-1.81825 0.70384,-2.55141c0.46923,-0.73317 1.12174,-1.30504 1.95755,-1.71561c0.83581,-0.41057 1.80358,-0.61586 2.90333,-0.61586c0.65985,0 1.26105,0.05865 1.80358,0.17596c0.54254,0.11731 1.0191,0.2786 1.42967,0.48389c0.42524,0.20529 0.78448,0.4179 1.07775,0.63785c0.29327,0.21995 0.52054,0.42524 0.68184,0.61586c0.32259,0.32259 0.49855,0.6012 0.52788,0.83581c0.04399,0.21995 -0.08798,0.49855 -0.39591,0.83581c-0.2786,0.32259 -0.54987,0.49122 -0.81381,0.50588c-0.26394,0.01466 -0.54987,-0.10997 -0.8578,-0.37391c-0.33726,-0.38125 -0.68918,-0.67451 -1.05576,-0.8798c-0.35192,-0.21995 -0.72583,-0.36658 -1.12174,-0.4399c-0.39591,-0.08798 -0.82847,-0.13197 -1.2977,-0.13197c-0.45456,0 -0.8798,0.05865 -1.27571,0.17596c-0.39591,0.11731 -0.74049,0.29327 -1.03376,0.52788c-0.2786,0.21995 -0.49855,0.49122 -0.65985,0.81381c-0.14663,0.32259 -0.21995,0.6965 -0.21995,1.12174c0,0.46923 0.12464,0.87246 0.37391,1.20972c0.24928,0.32259 0.5792,0.60852 0.98977,0.8578c0.42524,0.23461 0.90179,0.44723 1.42967,0.63785c0.52788,0.17596 1.07775,0.35192 1.64962,0.52788c0.63052,0.19062 1.25371,0.42524 1.86957,0.70384c0.61586,0.26394 1.16573,0.59386 1.64962,0.98977c0.49855,0.39591 0.89446,0.89447 1.18773,1.49566c0.30793,0.58653 0.46189,1.31236 0.46189,2.1775c0,0.8798 -0.17596,1.65695 -0.52788,2.33146c-0.33726,0.65985 -0.80648,1.21706 -1.40768,1.67162c-0.58653,0.4399 -1.26105,0.76982 -2.02353,0.98977c-0.76249,0.23461 -1.56164,0.35192 -2.39745,0.35192zM211.03551,189.31486c-1.0411,0 -1.97221,-0.17596 -2.79336,-0.52788c-0.82115,-0.35192 -1.51765,-0.82847 -2.08952,-1.42967c-0.57187,-0.6012 -1.01177,-1.2977 -1.3197,-2.08952c-0.29327,-0.79182 -0.4399,-1.64229 -0.4399,-2.55141c0,-1.20239 0.2786,-2.27282 0.83581,-3.21127c0.57187,-0.95312 1.34903,-1.70094 2.33146,-2.24348c0.99711,-0.55721 2.13351,-0.83581 3.40922,-0.83581c0.8798,0 1.66428,0.1393 2.35346,0.4179c0.68918,0.26394 1.27571,0.62319 1.7596,1.07775c0.49855,0.45456 0.8798,0.96044 1.14374,1.51765c0.26394,0.55721 0.39591,1.11441 0.39591,1.67162c0,0.89447 -0.21262,1.52499 -0.63785,1.89157c-0.42524,0.35192 -0.94578,0.52788 -1.56164,0.52788h-7.58825c-0.01466,0.77716 0.19062,1.44433 0.61586,2.00154c0.4399,0.54254 0.98244,0.96778 1.62763,1.27571c0.65985,0.29327 1.32703,0.4399 2.00154,0.4399c0.48389,0 0.90179,-0.02933 1.25371,-0.08798c0.35192,-0.05865 0.65985,-0.13197 0.92379,-0.21995c0.26394,-0.08798 0.49122,-0.16863 0.68184,-0.24194c0.19062,-0.08798 0.35925,-0.17596 0.50588,-0.26394c0.14663,-0.08798 0.29327,-0.15396 0.4399,-0.19795c0.1613,-0.02933 0.31526,-0.01466 0.46189,0.04399c0.14663,0.05865 0.26394,0.17596 0.35192,0.35192c0.10264,0.14663 0.16863,0.2786 0.19795,0.39591c0.04399,0.11731 0.06598,0.24928 0.06598,0.39591c0,0.24928 -0.21262,0.52054 -0.63785,0.81381c-0.42524,0.29327 -1.01177,0.54254 -1.7596,0.74783c-0.73317,0.21995 -1.5763,0.32992 -2.52942,0.32992zM206.83449,181.99055h6.59848c0.33726,0 0.58653,-0.04399 0.74783,-0.13197c0.1613,-0.08798 0.24194,-0.3226 0.24194,-0.70385c0,-0.49855 -0.14663,-0.94578 -0.4399,-1.34169c-0.29327,-0.39591 -0.70384,-0.71117 -1.23172,-0.94578c-0.51322,-0.24928 -1.09975,-0.37391 -1.7596,-0.37391c-0.76249,0 -1.46633,0.15396 -2.11151,0.46189c-0.64519,0.30793 -1.15107,0.72583 -1.51765,1.25371c-0.36658,0.51322 -0.54254,1.10708 -0.52788,1.7816zM223.23742,189.18289c-0.55721,0 -1.06309,-0.05132 -1.51765,-0.15396c-0.4399,-0.08798 -0.82847,-0.23461 -1.16573,-0.4399c-0.33726,-0.21995 -0.61586,-0.49122 -0.83581,-0.81381c-0.21995,-0.33726 -0.38125,-0.74049 -0.48389,-1.20972c-0.08798,-0.48389 -0.13197,-1.0411 -0.13197,-1.67162v-13.13098c0,-0.26394 0.02199,-0.47655 0.06598,-0.63785c0.04399,-0.17596 0.15396,-0.31526 0.32992,-0.4179c0.17596,-0.10264 0.42524,-0.15396 0.74783,-0.15396c0.33726,0 0.58653,0.04399 0.74783,0.13197c0.17596,0.08798 0.28593,0.21995 0.32992,0.39591c0.05865,0.17596 0.08798,0.38857 0.08798,0.63785v13.15298c0,0.35192 0.03666,0.65985 0.10997,0.92379c0.07332,0.24928 0.18329,0.46189 0.32992,0.63785c0.14663,0.17596 0.32992,0.3006 0.54987,0.37391c0.23461,0.05865 0.51322,0.08798 0.83581,0.08798c0.20529,0 0.38125,0.02933 0.52788,0.08798c0.14663,0.04399 0.26394,0.14663 0.35192,0.30793c0.08798,0.1613 0.13197,0.40324 0.13197,0.72583c0,0.35192 -0.04399,0.61586 -0.13197,0.79182c-0.08798,0.1613 -0.20529,0.26394 -0.35192,0.30793c-0.14663,0.04399 -0.32259,0.06598 -0.52788,0.06598zM232.59658,189.31486c-1.0411,0 -1.97221,-0.17596 -2.79336,-0.52788c-0.82115,-0.35192 -1.51765,-0.82847 -2.08952,-1.42967c-0.57187,-0.6012 -1.01177,-1.2977 -1.3197,-2.08952c-0.29327,-0.79182 -0.4399,-1.64229 -0.4399,-2.55141c0,-1.20239 0.2786,-2.27282 0.83581,-3.21127c0.57187,-0.95312 1.34903,-1.70094 2.33146,-2.24348c0.99711,-0.55721 2.13351,-0.83581 3.40922,-0.83581c0.8798,0 1.66428,0.1393 2.35346,0.4179c0.68918,0.26394 1.27571,0.62319 1.7596,1.07775c0.49855,0.45456 0.8798,0.96044 1.14374,1.51765c0.26394,0.55721 0.39591,1.11441 0.39591,1.67162c0,0.89447 -0.21262,1.52499 -0.63785,1.89157c-0.42524,0.35192 -0.94578,0.52788 -1.56164,0.52788h-7.58825c-0.01466,0.77716 0.19062,1.44433 0.61586,2.00154c0.4399,0.54254 0.98244,0.96778 1.62763,1.27571c0.65985,0.29327 1.32703,0.4399 2.00154,0.4399c0.48389,0 0.90179,-0.02933 1.25371,-0.08798c0.35192,-0.05865 0.65985,-0.13197 0.92379,-0.21995c0.26394,-0.08798 0.49122,-0.16863 0.68184,-0.24194c0.19062,-0.08798 0.35925,-0.17596 0.50588,-0.26394c0.14663,-0.08798 0.29327,-0.15396 0.4399,-0.19795c0.1613,-0.02933 0.31526,-0.01466 0.46189,0.04399c0.14663,0.05865 0.26394,0.17596 0.35192,0.35192c0.10264,0.14663 0.16863,0.2786 0.19795,0.39591c0.04399,0.11731 0.06598,0.24928 0.06598,0.39591c0,0.24928 -0.21262,0.52054 -0.63785,0.81381c-0.42524,0.29327 -1.01177,0.54254 -1.7596,0.74783c-0.73317,0.21995 -1.5763,0.32992 -2.52942,0.32992zM228.39555,181.99055h6.59848c0.33726,0 0.58653,-0.04399 0.74783,-0.13197c0.1613,-0.08798 0.24194,-0.3226 0.24194,-0.70385c0,-0.49855 -0.14663,-0.94578 -0.4399,-1.34169c-0.29327,-0.39591 -0.70384,-0.71117 -1.23172,-0.94578c-0.51322,-0.24928 -1.09975,-0.37391 -1.7596,-0.37391c-0.76249,0 -1.46633,0.15396 -2.11151,0.46189c-0.64519,0.30793 -1.15107,0.72583 -1.51765,1.25371c-0.36658,0.51322 -0.54254,1.10708 -0.52788,1.7816zM246.77803,189.22688c-0.90913,0 -1.7596,-0.14663 -2.55141,-0.4399c-0.79182,-0.29327 -1.49566,-0.7185 -2.11151,-1.27571c-0.6012,-0.57187 -1.07042,-1.24638 -1.40768,-2.02353c-0.33726,-0.77716 -0.50588,-1.66428 -0.50588,-2.66139c0,-0.99711 0.16863,-1.88424 0.50588,-2.66139c0.33726,-0.77716 0.80648,-1.44433 1.40768,-2.00154c0.6012,-0.57187 1.2977,-1.00443 2.08952,-1.2977c0.79182,-0.29327 1.63496,-0.4399 2.52942,-0.4399c0.6012,0 1.18773,0.09531 1.7596,0.28593c0.57187,0.17596 1.07775,0.41057 1.51765,0.70384c0.45456,0.2786 0.77716,0.5792 0.96778,0.90179c0.17596,0.21995 0.3006,0.40324 0.37391,0.54987c0.08798,0.14663 0.09531,0.32259 0.02199,0.52788c-0.05865,0.13197 -0.15396,0.25661 -0.28593,0.37391c-0.11731,0.11731 -0.23461,0.20529 -0.35192,0.26394c-0.32259,0.24928 -0.63785,0.28593 -0.94578,0.10997c-0.20529,-0.19062 -0.42524,-0.36658 -0.65985,-0.52788c-0.23461,-0.17596 -0.48389,-0.32992 -0.74783,-0.46189c-0.26394,-0.14663 -0.53521,-0.25661 -0.81381,-0.32992c-0.26394,-0.07332 -0.54254,-0.10997 -0.83581,-0.10997c-0.82115,0 -1.54698,0.16863 -2.1775,0.50588c-0.63052,0.33726 -1.12174,0.82115 -1.47366,1.45167c-0.33726,0.61587 -0.50588,1.33436 -0.50588,2.15551c0,0.82115 0.16863,1.53965 0.50588,2.1555c0.35192,0.61586 0.83581,1.09975 1.45167,1.45167c0.63052,0.33726 1.34903,0.50588 2.1555,0.50588c0.36658,0 0.7185,-0.04399 1.05576,-0.13197c0.33726,-0.10264 0.65251,-0.23461 0.94578,-0.39591c0.30793,-0.1613 0.55721,-0.34459 0.74783,-0.54987c0.17596,-0.11731 0.32259,-0.21995 0.4399,-0.30793c0.13197,-0.08798 0.28593,-0.13197 0.46189,-0.13197c0.13197,0 0.2786,0.05865 0.4399,0.17596c0.1613,0.11731 0.32992,0.28593 0.50588,0.50588c0.13197,0.1613 0.21262,0.32992 0.24194,0.50588c0.02933,0.17596 0,0.34459 -0.08798,0.50588c-0.08798,0.14663 -0.22728,0.3006 -0.4179,0.46189c-0.2786,0.2786 -0.65251,0.54987 -1.12174,0.81381c-0.46923,0.24928 -0.97511,0.44723 -1.51765,0.59386c-0.54254,0.1613 -1.07775,0.24194 -1.60563,0.24194zM259.85634,189.18289c-0.82115,0 -1.51765,-0.08065 -2.08952,-0.24194c-0.55721,-0.1613 -1.0191,-0.40324 -1.38568,-0.72583c-0.36658,-0.33726 -0.63052,-0.76982 -0.79182,-1.2977c-0.1613,-0.54254 -0.24194,-1.20239 -0.24194,-1.97954v-11.61333c0,-0.24928 0.02199,-0.46189 0.06598,-0.63785c0.05865,-0.17596 0.16863,-0.30793 0.32992,-0.39591c0.1613,-0.10264 0.40324,-0.15396 0.72583,-0.15396c0.33726,0 0.59386,0.05132 0.76982,0.15396c0.17596,0.08798 0.28593,0.21995 0.32992,0.39591c0.05865,0.1613 0.08798,0.36658 0.08798,0.61586v11.63533c0,0.45456 0.03666,0.82115 0.10997,1.09975c0.08798,0.26394 0.21262,0.46923 0.37391,0.61586c0.17596,0.13197 0.40324,0.21262 0.68184,0.24194c0.2786,0.02933 0.61586,0.04399 1.01177,0.04399c0.2786,0 0.50588,0.02933 0.68184,0.08798c0.17596,0.05865 0.30793,0.16863 0.39591,0.32992c0.08798,0.14663 0.13197,0.38125 0.13197,0.70384c0,0.32259 -0.05132,0.57187 -0.15396,0.74783c-0.08798,0.1613 -0.22728,0.26394 -0.4179,0.30793c-0.17596,0.04399 -0.38125,0.06598 -0.61586,0.06598zM253.98368,176.75574l2.52942,0.02199l3.65116,-0.04399c0.23461,0 0.4399,0.02199 0.61586,0.06598c0.17596,0.04399 0.30793,0.15396 0.39591,0.32992c0.10264,0.1613 0.15396,0.40324 0.15396,0.72583c0,0.33726 -0.04399,0.59386 -0.13197,0.76982c-0.08798,0.1613 -0.21995,0.27127 -0.39591,0.32992c-0.17596,0.04399 -0.38125,0.06598 -0.61586,0.06598l-3.60717,-0.06598l-2.63939,0.04399c-0.36658,0 -0.61586,-0.08798 -0.74783,-0.26394c-0.13197,-0.17596 -0.19795,-0.46923 -0.19795,-0.8798c0,-0.38125 0.07332,-0.65985 0.21995,-0.83581c0.1613,-0.17596 0.4179,-0.26394 0.76982,-0.26394zM269.73084,189.31486c-1.0411,0 -1.97221,-0.17596 -2.79336,-0.52788c-0.82115,-0.35192 -1.51765,-0.82847 -2.08952,-1.42967c-0.57187,-0.6012 -1.01177,-1.2977 -1.3197,-2.08952c-0.29327,-0.79182 -0.4399,-1.64229 -0.4399,-2.55141c0,-1.20239 0.2786,-2.27282 0.83581,-3.21127c0.57187,-0.95312 1.34903,-1.70094 2.33146,-2.24348c0.99711,-0.55721 2.13351,-0.83581 3.40922,-0.83581c0.8798,0 1.66428,0.1393 2.35346,0.4179c0.68918,0.26394 1.27571,0.62319 1.7596,1.07775c0.49855,0.45456 0.8798,0.96044 1.14374,1.51765c0.26394,0.55721 0.39591,1.11441 0.39591,1.67162c0,0.89447 -0.21262,1.52499 -0.63785,1.89157c-0.42524,0.35192 -0.94578,0.52788 -1.56164,0.52788h-7.58825c-0.01466,0.77716 0.19062,1.44433 0.61586,2.00154c0.4399,0.54254 0.98244,0.96778 1.62763,1.27571c0.65985,0.29327 1.32703,0.4399 2.00154,0.4399c0.48389,0 0.90179,-0.02933 1.25371,-0.08798c0.35192,-0.05865 0.65985,-0.13197 0.92379,-0.21995c0.26394,-0.08798 0.49122,-0.16863 0.68184,-0.24194c0.19062,-0.08798 0.35925,-0.17596 0.50588,-0.26394c0.14663,-0.08798 0.29327,-0.15396 0.4399,-0.19795c0.1613,-0.02933 0.31526,-0.01466 0.46189,0.04399c0.14663,0.05865 0.26394,0.17596 0.35192,0.35192c0.10264,0.14663 0.16863,0.2786 0.19795,0.39591c0.04399,0.11731 0.06598,0.24928 0.06598,0.39591c0,0.24928 -0.21262,0.52054 -0.63785,0.81381c-0.42524,0.29327 -1.01177,0.54254 -1.7596,0.74783c-0.73317,0.21995 -1.5763,0.32992 -2.52942,0.32992zM265.52981,181.99055h6.59848c0.33726,0 0.58653,-0.04399 0.74783,-0.13197c0.1613,-0.08798 0.24194,-0.3226 0.24194,-0.70385c0,-0.49855 -0.14663,-0.94578 -0.4399,-1.34169c-0.29327,-0.39591 -0.70384,-0.71117 -1.23172,-0.94578c-0.51322,-0.24928 -1.09975,-0.37391 -1.7596,-0.37391c-0.76249,0 -1.46633,0.15396 -2.11151,0.46189c-0.64519,0.30793 -1.15107,0.72583 -1.51765,1.25371c-0.36658,0.51322 -0.54254,1.10708 -0.52788,1.7816zM283.42839,189.18289c-0.79182,0 -1.54698,-0.15396 -2.26548,-0.46189c-0.7185,-0.32259 -1.34903,-0.76982 -1.89156,-1.34169c-0.52788,-0.58653 -0.94578,-1.26837 -1.25371,-2.04553c-0.29327,-0.77716 -0.4399,-1.62763 -0.4399,-2.55141c0,-0.90913 0.14663,-1.75227 0.4399,-2.52942c0.30793,-0.77716 0.72583,-1.44433 1.25371,-2.00154c0.54254,-0.57187 1.17307,-1.01177 1.89156,-1.3197c0.7185,-0.32259 1.47366,-0.48389 2.26548,-0.48389c0.85047,0 1.62029,0.1613 2.30947,0.48389c0.70384,0.30793 1.30504,0.74783 1.80358,1.3197c0.49855,0.55721 0.87246,1.23172 1.12174,2.02353c0.26394,0.77716 0.39591,1.6203 0.39591,2.52942c0.02933,0.92379 -0.09531,1.77426 -0.37391,2.55141c-0.26394,0.76249 -0.64519,1.437 -1.14374,2.02353c-0.48389,0.57187 -1.07775,1.0191 -1.78159,1.34169c-0.68918,0.30793 -1.46633,0.46189 -2.33146,0.46189zM283.75833,186.93941c0.73317,0 1.39302,-0.16863 1.97954,-0.50588c0.58653,-0.35192 1.04842,-0.83581 1.38568,-1.45167c0.35192,-0.63052 0.52788,-1.34903 0.52788,-2.1555c0,-0.82115 -0.17596,-1.53965 -0.52788,-2.15551c-0.33726,-0.63052 -0.79915,-1.12174 -1.38568,-1.47366c-0.58653,-0.35192 -1.24638,-0.52788 -1.97954,-0.52788c-0.73317,0 -1.40034,0.17596 -2.00154,0.52788c-0.58653,0.35192 -1.05576,0.84314 -1.40768,1.47366c-0.33726,0.61587 -0.50588,1.33436 -0.50588,2.15551c0,0.80648 0.16863,1.52498 0.50588,2.1555c0.35192,0.61586 0.82847,1.09975 1.42967,1.45167c0.6012,0.33726 1.26105,0.50588 1.97954,0.50588zM288.90513,189.18289c-0.38125,0 -0.65985,-0.07332 -0.83581,-0.21995c-0.17596,-0.13197 -0.2786,-0.36658 -0.30793,-0.70384v-16.43023c0,-0.26394 0.02199,-0.48389 0.06598,-0.65985c0.04399,-0.17596 0.14663,-0.30793 0.30793,-0.39591c0.1613,-0.10264 0.41057,-0.15396 0.74783,-0.15396c0.33726,0 0.58653,0.05132 0.74783,0.15396c0.1613,0.08798 0.27127,0.21995 0.32992,0.39591c0.05865,0.17596 0.08798,0.38857 0.08798,0.63785v16.16629c0,0.24928 -0.02933,0.46923 -0.08798,0.65985c-0.05865,0.17596 -0.16863,0.30793 -0.32992,0.39591c-0.14663,0.10264 -0.38857,0.15396 -0.72583,0.15396z" fill="#ffffff" fill-rule="nonzero" stroke="#ffffff" stroke-width="0.5"/></g></g></svg>