<svg viewBox="0,0,68.98099,48.24611" height="48.24611" width="68.98099" xmlns:xlink="http://www.w3.org/1999/xlink" xmlns="http://www.w3.org/2000/svg" version="1.1"><defs><linearGradient id="color-1" gradientUnits="userSpaceOnUse" y2="199.3084" x2="242.15511" y1="160.69161" x1="242.15511"><stop stop-color="#ffc500" offset="0"></stop><stop stop-color="#ffbf00" offset="1"></stop></linearGradient><linearGradient id="color-2" gradientUnits="userSpaceOnUse" y2="191.00526" x2="242.14853" y1="160.6916" x1="242.14853"><stop stop-color="#ffe30e" offset="0"></stop><stop stop-color="#ffbf00" offset="1"></stop></linearGradient><radialGradient id="color-3" gradientUnits="userSpaceOnUse" r="16.32239" cy="163.33333" cx="234.72419"><stop stop-color="#ffffff" offset="0"></stop><stop stop-opacity="0" stop-color="#ffffff" offset="1"></stop></radialGradient><radialGradient id="color-4" gradientUnits="userSpaceOnUse" r="17.17231" cy="163.33333" cx="234.72418"><stop stop-color="#ffffff" offset="0"></stop><stop stop-opacity="0" stop-color="#ffffff" offset="1"></stop></radialGradient><radialGradient id="color-5" gradientUnits="userSpaceOnUse" r="5.29264" cy="163.33333" cx="234.72419"><stop stop-color="#ffffff" offset="0"></stop><stop stop-opacity="0" stop-color="#ffffff" offset="1"></stop></radialGradient><radialGradient id="color-6" gradientUnits="userSpaceOnUse" r="9.57058" cy="179.65458" cx="252.13451"><stop stop-color="#ffffff" offset="0"></stop><stop stop-opacity="0" stop-color="#ffffff" offset="1"></stop></radialGradient><radialGradient id="color-7" gradientUnits="userSpaceOnUse" r="10.06893" cy="179.65458" cx="252.13451"><stop stop-color="#ffffff" offset="0"></stop><stop stop-opacity="0" stop-color="#ffffff" offset="1"></stop></radialGradient><radialGradient id="color-8" gradientUnits="userSpaceOnUse" r="3.10332" cy="179.65459" cx="252.13451"><stop stop-color="#ffffff" offset="0"></stop><stop stop-opacity="0" stop-color="#ffffff" offset="1"></stop></radialGradient><radialGradient id="color-9" gradientUnits="userSpaceOnUse" r="9.57058" cy="191.79744" cx="228.99165"><stop stop-color="#ffffff" offset="0"></stop><stop stop-opacity="0" stop-color="#ffffff" offset="1"></stop></radialGradient><radialGradient id="color-10" gradientUnits="userSpaceOnUse" r="10.06893" cy="191.79744" cx="228.99165"><stop stop-color="#ffffff" offset="0"></stop><stop stop-opacity="0" stop-color="#ffffff" offset="1"></stop></radialGradient><radialGradient id="color-11" gradientUnits="userSpaceOnUse" r="3.10332" cy="191.79744" cx="228.99165"><stop stop-color="#ffffff" offset="0"></stop><stop stop-opacity="0" stop-color="#ffffff" offset="1"></stop></radialGradient><radialGradient id="color-12" gradientUnits="userSpaceOnUse" r="6.29712" cy="170.5" cx="216.17803"><stop stop-color="#ffffff" offset="0"></stop><stop stop-opacity="0" stop-color="#ffffff" offset="1"></stop></radialGradient><radialGradient id="color-13" gradientUnits="userSpaceOnUse" r="6.62502" cy="170.5" cx="216.17803"><stop stop-color="#ffffff" offset="0"></stop><stop stop-opacity="0" stop-color="#ffffff" offset="1"></stop></radialGradient><radialGradient id="color-14" gradientUnits="userSpaceOnUse" r="2.04188" cy="170.5" cx="216.17803"><stop stop-color="#ffffff" offset="0"></stop><stop stop-opacity="0" stop-color="#ffffff" offset="1"></stop></radialGradient><radialGradient id="color-15" gradientUnits="userSpaceOnUse" r="6.29712" cy="179.21429" cx="223.46374"><stop stop-color="#ffffff" offset="0"></stop><stop stop-opacity="0" stop-color="#ffffff" offset="1"></stop></radialGradient><radialGradient id="color-16" gradientUnits="userSpaceOnUse" r="6.62501" cy="179.21429" cx="223.46374"><stop stop-color="#ffffff" offset="0"></stop><stop stop-opacity="0" stop-color="#ffffff" offset="1"></stop></radialGradient><radialGradient id="color-17" gradientUnits="userSpaceOnUse" r="2.04188" cy="179.21429" cx="223.46374"><stop stop-color="#ffffff" offset="0"></stop><stop stop-opacity="0" stop-color="#ffffff" offset="1"></stop></radialGradient></defs><g transform="translate(-205.50951,-152.92693)"><g style="mix-blend-mode: normal" stroke-dashoffset="0" stroke-dasharray="" stroke-miterlimit="10" stroke-linejoin="miter" fill-rule="nonzero" data-paper-data="{&quot;isPaintingLayer&quot;:true}"><path stroke-linecap="butt" stroke-width="5" stroke="#000000" fill="#ffca00" d="M266.2719,175.10618c2.09269,10.31283 -7.00828,20.86408 -20.32762,23.56686c-13.31934,2.70278 -25.81327,-3.46637 -27.90596,-13.7792c-2.09269,-10.31283 7.00828,-20.86409 20.32762,-23.56687c13.31934,-2.70278 25.81327,3.46638 27.90596,13.77921z"></path><path stroke-linecap="butt" stroke-width="5" stroke="#000000" fill="#ffe300" d="M266.2719,175.10618c2.09269,10.31283 -11.03188,14.59087 -22.08285,15.58248c-21.26214,1.90786 -28.02642,-5.13975 -26.06189,-12.20861c1.80047,-7.96087 9.69888,-15.01431 20.23879,-17.15309c13.31934,-2.70278 25.81327,3.46638 27.90596,13.77921z"></path><path stroke-linecap="butt" stroke-width="0" stroke="none" fill="url(#color-1)" d="M266.2719,175.10618c2.09269,10.31283 -7.00828,20.86408 -20.32762,23.56686c-13.31934,2.70278 -25.81327,-3.46637 -27.90596,-13.7792c-2.09269,-10.31283 7.00828,-20.86409 20.32762,-23.56687c13.31934,-2.70278 25.81327,3.46638 27.90596,13.77921z"></path><path stroke-linecap="butt" stroke-width="0" stroke="none" fill="url(#color-2)" d="M266.2719,175.10618c2.09269,10.31283 -11.03188,14.59087 -22.08285,15.58248c-21.26214,1.90786 -28.02642,-5.13975 -26.06189,-12.20861c1.80047,-7.96087 9.69888,-15.01431 20.23879,-17.15309c13.31934,-2.70278 25.81327,3.46638 27.90596,13.77921z"></path><path stroke-linecap="butt" stroke-width="5" stroke="#000000" fill="#ffffff" d="M213.06911,169.07174c0.64133,-2.12616 2.88484,-3.32986 5.011,-2.68853c2.12616,0.64133 3.32986,2.88483 2.68852,5.011c-0.64133,2.12616 -2.88483,3.32986 -5.01099,2.68853c-2.12616,-0.64133 -3.32987,-2.88483 -2.68853,-5.01099z"></path><path stroke-linecap="butt" stroke-width="5" stroke="#000000" fill="#ffffff" d="M210.69163,176.6087c0.64133,-2.12616 2.88483,-3.32987 5.01099,-2.68853c2.12616,0.64133 3.32987,2.88484 2.68854,5.011c-0.64133,2.12616 -2.88483,3.32987 -5.01099,2.68853c-2.12616,-0.64133 -3.32986,-2.88484 -2.68853,-5.011z"></path><path stroke-linecap="butt" stroke-width="5" stroke="#000000" fill="#ffffff" d="M208.33496,184.07662c0.64133,-2.12616 2.88484,-3.32987 5.011,-2.68853c2.12616,0.64133 3.32986,2.88483 2.68852,5.011c-0.64133,2.12616 -2.88483,3.32987 -5.01099,2.68854c-2.12616,-0.64133 -3.32986,-2.88484 -2.68852,-5.011z"></path><path stroke-linecap="butt" stroke-width="5" stroke="#000000" fill="#ffffff" d="M211.31584,183.75592l6.3588,-17.51598c0,0 14.05295,3.54129 15.89249,7.91926c2.01907,4.80524 -1.71747,10.78752 -5.39802,13.05526c-7.9061,4.87129 -17.41295,1.79256 -17.41295,1.79256z"></path><path stroke-linecap="butt" stroke-width="0.5" stroke="none" fill="#ffe690" d="M213.06911,169.07174c0.64133,-2.12616 2.88484,-3.32986 5.011,-2.68853c2.12616,0.64133 3.32986,2.88483 2.68852,5.011c-0.64133,2.12616 -2.88484,3.32986 -5.011,2.68853c-2.12616,-0.64133 -3.32986,-2.88483 -2.68852,-5.01099z"></path><path stroke-linecap="butt" stroke-width="0.5" stroke="none" fill="#ffe690" d="M210.69163,176.6087c0.64133,-2.12616 2.88483,-3.32987 5.01099,-2.68853c2.12616,0.64133 3.32987,2.88484 2.68853,5.011c-0.64133,2.12616 -2.88484,3.32987 -5.011,2.68853c-2.12616,-0.64133 -3.32986,-2.88484 -2.68852,-5.011z"></path><path stroke-linecap="butt" stroke-width="0.5" stroke="none" fill="#ffe690" d="M208.33496,184.07662c0.64133,-2.12616 2.88484,-3.32987 5.011,-2.68853c2.12616,0.64133 3.32986,2.88483 2.68852,5.011c-0.64133,2.12616 -2.88483,3.32987 -5.01099,2.68854c-2.12616,-0.64133 -3.32986,-2.88484 -2.68852,-5.011z"></path><path stroke-linecap="butt" stroke-width="0" stroke="none" fill="#ffe690" d="M210.75616,189.00702c0,0 3.24967,-9.92701 3.76217,-11.61349c1.17636,-3.87113 3.15632,-11.1536 3.15632,-11.1536c0,0 14.05295,3.5413 15.89249,7.91926c2.01907,4.80525 -1.71747,10.78752 -5.39802,13.05526c-7.90612,4.87129 -17.41295,1.79256 -17.41295,1.79256z"></path><path stroke-linecap="butt" stroke-width="2.5" stroke="#000000" fill="#ffd25d" d="M263.28555,165.01268c4.53034,4.63767 6.40658,10.90629 4.19069,14.00136c-2.21588,3.09507 -7.68476,1.84455 -12.2151,-2.79312c-4.53034,-4.63767 -6.40658,-10.90629 -4.19069,-14.00136c2.21588,-3.09507 7.68476,-1.84454 12.2151,2.79313z"></path><path stroke-linecap="round" stroke-width="2.5" stroke="#000000" fill="none" d="M263.23441,172.95451l0.55525,3.37966"></path><path stroke-linecap="butt" stroke-width="5" stroke="#000000" fill="#db5400" d="M263.62399,186.01249c-0.15965,-2.25964 1.54274,-4.22087 3.80238,-4.38052c2.25965,-0.15965 4.22087,1.54274 4.38052,3.80238c0.15965,2.25964 -1.54272,4.22086 -3.80237,4.38051c-2.25964,0.15965 -4.22088,-1.54272 -4.38053,-3.80236z"></path><path stroke-linecap="butt" stroke-width="5" stroke="#000000" fill="#db5400" d="M263.80761,190.10897c-0.15965,-2.25964 1.54272,-4.22088 3.80237,-4.38053c2.25965,-0.15965 4.22087,1.54273 4.38052,3.80237c0.15965,2.25964 -1.54272,4.22086 -3.80237,4.38051c-2.25964,0.15965 -4.22087,-1.54272 -4.38052,-3.80237z"></path><path stroke-linecap="butt" stroke-width="5" stroke="#000000" fill="#db5400" d="M255.46425,194.80792l-0.87025,-12.31714l13.17651,-0.93097l0.87024,12.31715z"></path><path stroke-linecap="butt" stroke-width="5" stroke="#000000" fill="#db5400" d="M249.24846,189.06718c-0.23875,-3.37922 2.30709,-6.31216 5.68631,-6.5509c3.37922,-0.23875 6.31216,2.3071 6.55091,5.68631c0.23875,3.37922 -2.30709,6.31216 -5.68631,6.55091c-3.37922,0.23875 -6.31216,-2.3071 -6.5509,-5.68631z"></path><path stroke-linecap="butt" stroke-width="0.5" stroke="none" fill="#db5400" d="M263.62399,186.01249c-0.15965,-2.25964 1.54273,-4.22087 3.80238,-4.38052c2.25965,-0.15965 4.22087,1.54274 4.38052,3.80238c0.15965,2.25964 -1.54272,4.22086 -3.80237,4.38051c-2.25964,0.15965 -4.22087,-1.54272 -4.38052,-3.80236z"></path><path stroke-linecap="butt" stroke-width="0.5" stroke="none" fill="#dbb300" d="M263.80761,190.10897c-0.15965,-2.25964 1.54272,-4.22088 3.80237,-4.38053c2.25965,-0.15965 4.22086,1.54273 4.38051,3.80237c0.15965,2.25964 -1.54271,4.22086 -3.80237,4.38051c-2.25964,0.15965 -4.22087,-1.54272 -4.38052,-3.80237z"></path><path stroke-linecap="butt" stroke-width="0" stroke="none" fill="#dbb300" d="M255.46425,194.80792l-0.87024,-12.31714l13.17651,-0.93097l0.87024,12.31715z"></path><path stroke-linecap="butt" stroke-width="0.5" stroke="none" fill="#dbb300" d="M249.24846,189.06718c-0.23875,-3.37922 2.30709,-6.31216 5.68631,-6.5509c3.37922,-0.23875 6.31216,2.3071 6.55091,5.68631c0.23875,3.37922 -2.30709,6.31216 -5.68631,6.55091c-3.37922,0.23875 -6.31216,-2.3071 -6.5509,-5.68631z"></path><path stroke-linecap="round" stroke-width="2.5" stroke="#000000" fill="none" d="M271.55057,187.50422l-15.0655,1.15053"></path><path stroke-linecap="butt" stroke-width="0.5" stroke="none" fill="#ffc400" d="M263.62399,186.01249c-0.15965,-2.25964 1.54272,-4.22087 3.80237,-4.38052c2.25964,-0.15965 4.22087,1.54274 4.38052,3.80238c0.15965,2.25964 -1.54273,4.22086 -3.80237,4.38051c-2.25964,0.15965 -4.22087,-1.54272 -4.38052,-3.80236z"></path><path stroke-linecap="butt" stroke-width="0.5" stroke="none" fill="#ffc400" d="M263.80761,190.01806c-0.15965,-2.25964 1.54274,-4.22087 3.80238,-4.38052c2.25964,-0.15965 4.31178,1.54274 4.47143,3.80238c0.00074,0.01032 -0.08949,0.02063 -0.08885,0.03094c-0.30478,0.17734 -0.42891,0.43914 -0.7363,0.60363c-0.26856,0.1437 -0.72004,0.19161 -0.991,0.32555c-0.30563,0.06198 -0.61112,0.11584 -0.91655,0.15851c-1.72713,0.24135 -3.54786,0.33641 -5.37477,0.36396c-0.08742,-0.28844 -0.14421,-0.59108 -0.16636,-0.90444z"></path><path stroke-linecap="butt" stroke-width="0" stroke="none" fill="#ffc400" d="M254.59401,182.49077l13.17651,-0.93097l0.65035,9.20476c-3.75,0.40946 -7.85542,0.21659 -11.46729,0.18665c-0.57213,-0.00474 -1.166,-0.0711 -1.77451,-0.17964z"></path><path stroke-linecap="butt" stroke-width="0.5" stroke="none" fill="#ffc400" d="M249.38503,188.9306c-0.23875,-3.37922 2.3071,-6.31216 5.68631,-6.5509c3.37922,-0.23875 6.31216,2.3071 6.55091,5.68631c0.07022,0.99395 -0.10046,1.94928 -0.4624,2.80881c-1.39431,-0.01726 -2.76423,0.04155 -4.06968,0.03073c-0.9251,-0.00767 -1.90707,-0.09942 -2.91585,-0.36416c-1.56826,-0.41156 -3.20134,-1.11237 -4.78637,-1.57154c-0.001,-0.01307 -0.00198,-0.02614 -0.0029,-0.03924z"></path><path stroke-linecap="round" stroke-width="2.5" stroke="#000000" fill="none" d="M271.55059,187.50422l-15.06551,1.15053"></path><path stroke-linecap="butt" stroke-width="0" stroke="none" fill="url(#color-3)" d="M248.25477,154.20406l-13.24968,9.5456l-13.81148,8.71295l13.24968,-9.5456z"></path><path stroke-linecap="butt" stroke-width="0" stroke="none" fill="url(#color-4)" d="M235.13517,163.05603l6.61036,10.6837l-7.43233,-10.1291l-6.61036,-10.6837z"></path><path stroke-linecap="butt" stroke-width="0" stroke="none" fill="url(#color-5)" d="M230.33681,166.29356c-1.63489,-2.42308 -0.99593,-5.71272 1.42715,-7.3476c2.42308,-1.63489 5.71272,-0.99593 7.3476,1.42715c1.63489,2.42308 0.99593,5.71272 -1.42715,7.3476c-2.42308,1.63489 -5.71272,0.99593 -7.3476,-1.42715z"></path><g stroke-linecap="butt" stroke-width="0" stroke="none"><path fill="url(#color-6)" d="M260.62837,184.06484l-8.62956,-4.14891l-8.35816,-4.67161l8.62956,4.14891z"></path><path fill="url(#color-7)" d="M252.39251,179.78854l-3.64994,6.39869l3.13394,-6.66661l3.64994,-6.39868z"></path><path fill="url(#color-8)" d="M249.38032,178.22453c0.7898,-1.5211 2.66315,-2.11393 4.18424,-1.32413c1.5211,0.7898 2.11393,2.66315 1.32413,4.18424c-0.7898,1.5211 -2.66315,2.11393 -4.18424,1.32413c-1.5211,-0.7898 -2.11393,-2.66315 -1.32413,-4.18424z"></path></g><g stroke-linecap="butt" stroke-width="0" stroke="none" data-paper-data="{&quot;index&quot;:null}"><path fill="url(#color-9)" d="M228.85595,191.53609l8.62956,-4.14891l-8.35816,4.67161l-8.62956,4.14891z"></path><path fill="url(#color-10)" d="M225.59971,185.2648l3.64994,6.39869l3.13394,6.66661l-3.64994,-6.39868z"></path><path fill="url(#color-11)" d="M230.4217,194.55163c-1.52109,0.7898 -3.39444,0.19696 -4.18424,-1.32413c-0.7898,-1.5211 -0.19696,-3.39444 1.32413,-4.18425c1.5211,-0.7898 3.39444,-0.19696 4.18424,1.32413c0.7898,1.5211 0.19696,3.39444 -1.32413,4.18425z"></path></g><g stroke-linecap="butt" stroke-width="0" stroke="none" data-paper-data="{&quot;index&quot;:null}"><path fill="url(#color-12)" d="M216.20092,170.3076l6.23014,0.93625l-6.27592,-0.55145l-6.23014,-0.93625z"></path><path fill="url(#color-13)" d="M216.75012,165.69078l-0.38216,4.83181l-0.76203,4.78663l0.38216,-4.83181z"></path><path fill="url(#color-14)" d="M215.93683,172.52759c-1.1198,-0.13321 -1.9196,-1.14898 -1.78639,-2.26878c0.13321,-1.1198 1.14898,-1.9196 2.26878,-1.78639c1.1198,0.13321 1.91959,1.14898 1.78639,2.26878c-0.13321,1.1198 -1.14898,1.9196 -2.26878,1.78639z"></path></g><g stroke-linecap="butt" stroke-width="0" stroke="none" data-paper-data="{&quot;index&quot;:null}"><path fill="url(#color-15)" d="M223.31648,179.08836l4.2398,-4.65997l-3.94529,4.91182l-4.2398,4.65997z"></path><path fill="url(#color-16)" d="M219.7829,176.0667l3.80515,3.00221l3.55654,3.29295l-3.80515,-3.00221z"></path><path fill="url(#color-17)" d="M225.0156,180.54132c-0.7329,0.85707 -2.02183,0.95773 -2.87889,0.22482c-0.85707,-0.7329 -0.95772,-2.02182 -0.22482,-2.87889c0.7329,-0.85707 2.02182,-0.95772 2.87889,-0.22482c0.85707,0.7329 0.95773,2.02182 0.22483,2.87889z"></path></g></g></g></svg>