<svg version="1.1" xmlns="http://www.w3.org/2000/svg" xmlns:xlink="http://www.w3.org/1999/xlink" width="35.2718" height="50.2829" viewBox="0,0,35.2718,50.2829"><g transform="translate(-222.3641,-154.85855)"><g data-paper-data="{&quot;isPaintingLayer&quot;:true}" fill="#ffffff" fill-rule="nonzero" stroke="#ffffff" stroke-width="0.5" stroke-linecap="square" stroke-linejoin="miter" stroke-miterlimit="10" stroke-dasharray="" stroke-dashoffset="0" style="mix-blend-mode: normal"><path d="M239.97067,204.89145c-2.42367,0 -4.67141,-0.35182 -6.74326,-1.05547c-2.03275,-0.74273 -3.83096,-1.75911 -5.39461,-3.04913c-1.56365,-1.29002 -2.79503,-2.75594 -3.69414,-4.39778c-0.89911,-1.64184 -1.40729,-3.34231 -1.52456,-5.10143c0,-1.64184 1.09455,-2.46276 3.28368,-2.46276c0.78183,0 1.34865,0.09772 1.70048,0.29319c0.39091,0.19546 0.68409,0.52773 0.87956,0.99683c0.19546,0.43001 0.39091,1.03592 0.58637,1.81775c0.50818,1.40729 1.27046,2.63867 2.28685,3.69414c1.01638,1.01638 2.24776,1.81775 3.69414,2.40412c1.48548,0.58637 3.14685,0.87956 4.98415,0.87956c2.18912,0 4.10459,-0.39091 5.74643,-1.17274c1.68092,-0.78183 2.99049,-1.85683 3.92868,-3.22504c0.93819,-1.40729 1.40729,-2.97094 1.40729,-4.69097c0,-1.68092 -0.4691,-3.1664 -1.40729,-4.45642c-0.89911,-1.3291 -2.13049,-2.34548 -3.69414,-3.04913c-1.56365,-0.70364 -3.34231,-1.05547 -5.33597,-1.05547c-0.82092,0 -1.50501,-0.05864 -2.0523,-0.17591c-0.54729,-0.15636 -0.95775,-0.44954 -1.23138,-0.87956c-0.23455,-0.4691 -0.35182,-1.15319 -0.35182,-2.0523c0,-0.89911 0.11727,-1.56365 0.35182,-1.99366c0.27363,-0.43001 0.68409,-0.70364 1.23138,-0.82092c0.54729,-0.15636 1.25093,-0.23455 2.11093,-0.23455c1.87639,0 3.44004,-0.29319 4.69097,-0.87956c1.29002,-0.58637 2.26729,-1.34865 2.93185,-2.28685c0.66456,-0.97728 0.99683,-2.01321 0.99683,-3.10776c0,-1.56365 -0.37137,-2.93185 -1.1141,-4.10459c-0.70364,-1.17274 -1.72003,-2.09138 -3.04913,-2.75594c-1.3291,-0.66456 -2.85366,-0.99683 -4.57369,-0.99683c-1.52456,0 -2.85366,0.19546 -3.98732,0.58637c-1.13366,0.39091 -2.16957,0.97728 -3.10776,1.75911c-0.89911,0.74273 -1.73956,1.68092 -2.52139,2.81458c-0.66456,1.05547 -1.30957,1.66139 -1.93502,1.81775c-0.58637,0.15636 -1.42684,-0.09772 -2.52139,-0.76228c-0.78183,-0.50818 -1.27046,-1.01638 -1.46593,-1.52456c-0.19546,-0.50818 -0.13683,-1.13366 0.17591,-1.87639c0.23455,-0.4691 0.58637,-1.05547 1.05547,-1.75911c0.4691,-0.74273 1.09455,-1.50501 1.87639,-2.28685c0.82092,-0.82092 1.77866,-1.5832 2.87322,-2.28685c1.13366,-0.70364 2.4432,-1.27046 3.92868,-1.70048c1.52456,-0.43001 3.30323,-0.64501 5.33597,-0.64501c2.38457,0 4.53461,0.37137 6.45008,1.1141c1.95458,0.70364 3.57686,1.68092 4.86688,2.93185c1.3291,1.25093 2.32593,2.69731 2.99049,4.33914c0.70364,1.60275 1.05547,3.28368 1.05547,5.04279c0,1.48548 -0.29319,2.89277 -0.87956,4.22187c-0.54729,1.29002 -1.3291,2.40412 -2.34548,3.34231c-0.97728,0.89911 -1.97411,1.60275 -2.99049,2.11093c1.25093,0.43001 2.36503,1.07502 3.34231,1.93502c1.01638,0.86 1.85683,1.8373 2.52139,2.93185c0.66456,1.05547 1.17274,2.16957 1.52456,3.34231c0.35182,1.13366 0.52773,2.22821 0.52773,3.28368c0,2.89277 -0.74273,5.49233 -2.22821,7.79873c-1.44637,2.26729 -3.47914,4.06551 -6.09826,5.39461c-2.61912,1.3291 -5.64871,1.99366 -9.08875,1.99366z"/></g></g></svg>