<svg version="1.1" xmlns="http://www.w3.org/2000/svg" xmlns:xlink="http://www.w3.org/1999/xlink" width="68.19318" height="68.19318" viewBox="0,0,68.19318,68.19318"><defs><linearGradient x1="252.5677" y1="172.02137" x2="252.5677" y2="193.93269" gradientUnits="userSpaceOnUse" id="color-1"><stop offset="0" stop-color="#369cbf"/><stop offset="1" stop-color="#369cbf" stop-opacity="0"/></linearGradient><linearGradient x1="227.46877" y1="171.94847" x2="227.46877" y2="193.8598" gradientUnits="userSpaceOnUse" id="color-2"><stop offset="0" stop-color="#369cbf"/><stop offset="1" stop-color="#369cbf" stop-opacity="0"/></linearGradient></defs><g transform="translate(-205.90341,-145.90341)"><g data-paper-data="{&quot;isPaintingLayer&quot;:true}" fill-rule="nonzero" stroke-linejoin="miter" stroke-miterlimit="10" stroke-dasharray="" stroke-dashoffset="0" style="mix-blend-mode: normal"><path d="M207.15341,180c0,-18.14067 14.70592,-32.84659 32.84659,-32.84659c18.14067,0 32.84659,14.70592 32.84659,32.84659c0,18.14067 -14.70592,32.84659 -32.84659,32.84659c-18.14067,0 -32.84659,-14.70592 -32.84659,-32.84659z" fill="#369cbf" stroke="#000000" stroke-width="2.5" stroke-linecap="butt"/><path d="M210.63606,180c0,-16.21726 13.14668,-29.36394 29.36394,-29.36394c16.21726,0 29.36394,13.14668 29.36394,29.36394c0,16.21726 -13.14668,29.36394 -29.36394,29.36394c-16.21726,0 -29.36394,-13.14668 -29.36394,-29.36394z" fill="#7bc4e0" stroke="none" stroke-width="0.5" stroke-linecap="butt"/><g fill="#369cbf" stroke="none" stroke-width="0" stroke-linecap="butt"><path d="M234.49407,188.95662c1.17136,-1.23101 5.68107,-5.97033 5.68107,-5.97033c0,0 3.86563,4.25218 5.04491,5.54937c0.63676,0.70044 0.93003,1.61798 0.03908,1.61798c-1.64441,0 -7.2407,0 -10.13623,0c-1.06747,0 -1.15334,-0.64582 -0.62883,-1.19703z"/><path d="M238.33609,185.80125v-9.11606h3.74484v9.11606z"/><path d="M234.44252,177.0187c-0.07238,-2.20428 0,-7.17234 0,-7.17234h11.26785c0,0 -0.10378,4.63351 0.07724,6.85503c0.2317,2.84354 -1.8677,4.99266 -5.54992,5.18787c-3.69307,0.19579 -5.71795,-2.51863 -5.79517,-4.87057z"/></g><g><path d="M257.49238,172.02137c0,0 -0.32272,4.94462 -1.73071,9.98701c-2.5636,9.18094 -8.11864,11.92432 -8.11864,11.92432" fill="none" stroke="url(#color-1)" stroke-width="1" stroke-linecap="round"/><path d="M247.10608,189.83882c0.43851,-0.08817 0.91756,0.45485 1.06996,1.21287c0.1524,0.75802 -0.51806,1.53215 -0.51806,1.53215c0,0 -0.91757,-0.45486 -1.06997,-1.21287c-0.1524,-0.75802 0.07955,-1.44398 0.51806,-1.53215z" fill="#7bc4e0" stroke="none" stroke-width="0" stroke-linecap="butt"/><path d="M249.02841,188.12434c0.43135,-0.11836 0.94687,0.39015 1.15147,1.13578c0.20459,0.74563 -0.41058,1.56438 -0.41058,1.56438c0,0 -0.94688,-0.39014 -1.15148,-1.13576c-0.20459,-0.74562 -0.02075,-1.44602 0.4106,-1.56438z" fill="#74b9d4" stroke="none" stroke-width="0" stroke-linecap="butt"/><path d="M250.50276,185.72232c0.39137,-0.21656 1.01211,0.15632 1.38645,0.83285c0.37433,0.67653 -0.03084,1.61708 -0.03084,1.61708c0,0 -1.01211,-0.15632 -1.38645,-0.83285c-0.37433,-0.67653 -0.36053,-1.40052 0.03085,-1.61708z" fill="#6eaec8" stroke="none" stroke-width="0" stroke-linecap="butt"/><path d="M252.01743,183.14186c0.38651,-0.22512 1.01528,0.13403 1.40442,0.80216c0.38914,0.66814 0.00474,1.61736 0.00474,1.61736c0,0 -1.0153,-0.13401 -1.40443,-0.80214c-0.38913,-0.66813 -0.39123,-1.39226 -0.00471,-1.61738z" fill="#39a7cc" stroke="none" stroke-width="0" stroke-linecap="butt"/><path d="M252.85312,180.11449c0.35578,-0.2711 1.02408,0.00769 1.4927,0.62267c0.46862,0.61499 0.20431,1.60441 0.20431,1.60441c0,0 -1.02408,-0.00769 -1.4927,-0.62267c-0.46862,-0.61498 -0.56011,-1.33331 -0.20432,-1.60441z" fill="#37a1c4" stroke="none" stroke-width="0" stroke-linecap="butt"/><path d="M253.54723,177.11966c0.34148,-0.28891 1.02314,-0.04462 1.52255,0.54564c0.4994,0.59027 0.28597,1.59189 0.28597,1.59189c0,0 -1.02315,0.04463 -1.52255,-0.54563c-0.4994,-0.59027 -0.62744,-1.30298 -0.28597,-1.59189z" fill="#369cbf" stroke="none" stroke-width="0" stroke-linecap="butt"/><path d="M253.88723,174.34263c0.32324,-0.30917 1.01852,-0.10684 1.55295,0.45191c0.53443,0.55874 0.38239,1.57151 0.38239,1.57151c0,0 -1.01852,0.10684 -1.55295,-0.45191c-0.53443,-0.55874 -0.70564,-1.26235 -0.3824,-1.57152z" fill="#369cbf" stroke="none" stroke-width="0" stroke-linecap="butt"/><path d="M254.35951,171.26279c0.33469,-0.29674 1.02182,-0.06828 1.53476,0.51025c0.51294,0.57854 0.32276,1.58483 0.32276,1.58483c0,0 -1.02183,0.0683 -1.53477,-0.51024c-0.51294,-0.57855 -0.65744,-1.28811 -0.32276,-1.58484z" fill="#369cbf" stroke="none" stroke-width="0" stroke-linecap="butt"/><path d="M255.14015,188.01746c0.7613,-0.13509 1.44179,0.11243 1.51995,0.55284c0.07815,0.4404 -0.47565,0.90696 -1.23693,1.04204c-0.7613,0.13508 -1.51995,-0.55285 -1.51995,-0.55285c0,0 0.47565,-0.90696 1.23693,-1.04204z" data-paper-data="{&quot;index&quot;:null}" fill="#6eafc9" stroke="none" stroke-width="0" stroke-linecap="butt"/><path d="M256.38671,184.8115c0.71303,-0.29902 1.43128,-0.20702 1.60426,0.20546c0.17298,0.41249 -0.26481,0.9893 -0.97784,1.28831c-0.71303,0.29902 -1.60426,-0.20546 -1.60426,-0.20546c0,0 0.2648,-0.98929 0.97783,-1.2883z" data-paper-data="{&quot;index&quot;:null}" fill="#38a5c9" stroke="none" stroke-width="0" stroke-linecap="butt"/><path d="M259.24803,181.45361c0.18323,0.40804 -0.24002,0.99558 -0.94534,1.31232c-0.70533,0.31673 -1.60889,-0.16531 -1.60889,-0.16531c0,0 0.24002,-0.99558 0.94534,-1.31232c0.70533,-0.31673 1.42565,-0.24272 1.60889,0.16532z" data-paper-data="{&quot;index&quot;:null}" fill="#369ec1" stroke="none" stroke-width="0" stroke-linecap="butt"/><path d="M258.3665,178.0552c0.67923,-0.36939 1.40311,-0.35032 1.61681,0.04263c0.2137,0.39294 -0.16369,1.01095 -0.84293,1.38034c-0.67923,0.36939 -1.61681,-0.04263 -1.61681,-0.04263c0,0 0.1637,-1.01094 0.84293,-1.38034z" data-paper-data="{&quot;index&quot;:null}" fill="#369cbf" stroke="none" stroke-width="0" stroke-linecap="butt"/><path d="M258.92825,175.23228c0.69208,-0.34475 1.41478,-0.29966 1.61422,0.10071c0.19944,0.40037 -0.19992,1.00442 -0.89199,1.34916c-0.69208,0.34475 -1.61423,-0.10071 -1.61423,-0.10071c0,0 0.19993,-1.00441 0.89201,-1.34915z" data-paper-data="{&quot;index&quot;:null}" fill="#369cbf" stroke="none" stroke-width="0" stroke-linecap="butt"/><path d="M259.38689,172.21161c0.67855,-0.37065 1.40244,-0.35289 1.61687,0.03966c0.21441,0.39256 -0.16184,1.01124 -0.84039,1.38188c-0.67855,0.37065 -1.61688,-0.03965 -1.61688,-0.03965c0,0 0.16184,-1.01124 0.84039,-1.38188z" data-paper-data="{&quot;index&quot;:null}" fill="#369cbf" stroke="none" stroke-width="0" stroke-linecap="butt"/><path d="M253.03708,191.29604c0.77318,0.00165 1.3992,0.36559 1.39824,0.81289c-0.00096,0.44729 -0.62852,0.80856 -1.4017,0.80691c-0.77318,-0.00166 -1.39825,-0.8129 -1.39825,-0.8129c0,0 0.62853,-0.80857 1.40172,-0.80691z" data-paper-data="{&quot;index&quot;:null}" fill="#75bad5" stroke="none" stroke-width="0" stroke-linecap="butt"/><path d="M251.4698,194.94542c-0.0799,0.4401 -0.76137,0.68495 -1.52213,0.54685c-0.76074,-0.1381 -1.23281,-1.04691 -1.23281,-1.04691c0,0 0.76137,-0.68494 1.52212,-0.54684c0.76075,0.13808 1.3127,0.6068 1.23282,1.04691z" data-paper-data="{&quot;index&quot;:null}" fill="#7bc4e0" stroke="none" stroke-width="0" stroke-linecap="butt"/><path d="M255.81178,169.99586c-0.21627,-0.74233 -0.04348,-1.44551 0.38595,-1.57064c0.42943,-0.12512 0.95291,0.3752 1.16919,1.11753c0.21629,0.74233 -0.38595,1.57065 -0.38595,1.57065c0,0 -0.9529,-0.37521 -1.16918,-1.11753z" data-paper-data="{&quot;index&quot;:null}" fill="#369cbf" stroke="none" stroke-width="0" stroke-linecap="butt"/><path d="M260.15945,169.17104c0.30122,0.33065 0.08207,1.02081 -0.4895,1.5415c-0.57157,0.52069 -1.58034,0.3441 -1.58034,0.3441c0,0 -0.08207,-1.02082 0.48949,-1.54152c0.57157,-0.52069 1.27912,-0.67475 1.58034,-0.3441z" data-paper-data="{&quot;index&quot;:null}" fill="#369cbf" stroke="none" stroke-width="0" stroke-linecap="butt"/></g><g data-paper-data="{&quot;index&quot;:null}"><path d="M232.39345,193.8598c0,0 -5.55503,-2.74338 -8.11864,-11.92432c-1.408,-5.04238 -1.73071,-9.98701 -1.73071,-9.98701" fill="none" stroke="url(#color-2)" stroke-width="1" stroke-linecap="round"/><path d="M232.93041,189.76592c0.4385,0.08817 0.67046,0.77413 0.51806,1.53215c-0.15241,0.75802 -1.06997,1.21287 -1.06997,1.21287c0,0 -0.67046,-0.77413 -0.51806,-1.53215c0.1524,-0.75802 0.63144,-1.30104 1.06996,-1.21287z" fill="#7bc4e0" stroke="none" stroke-width="0" stroke-linecap="butt"/><path d="M231.00807,188.05146c0.43134,0.11836 0.61518,0.81876 0.4106,1.56437c-0.2046,0.74562 -1.15148,1.13576 -1.15148,1.13576c0,0 -0.61518,-0.81876 -0.41058,-1.56438c0.2046,-0.74562 0.72011,-1.25413 1.15147,-1.13577z" fill="#74b9d4" stroke="none" stroke-width="0" stroke-linecap="butt"/><path d="M229.5337,185.64943c0.39138,0.21655 0.40518,0.94055 0.03085,1.61708c-0.37434,0.67652 -1.38644,0.83285 -1.38644,0.83285c0,0 -0.40517,-0.94055 -0.03084,-1.61708c0.37434,-0.67652 0.99507,-1.04941 1.38644,-0.83285z" fill="#6eaec8" stroke="none" stroke-width="0" stroke-linecap="butt"/><path d="M228.01904,183.06896c0.38652,0.22511 0.38441,0.94924 -0.00472,1.61738c-0.38914,0.66813 -1.40443,0.80214 -1.40443,0.80214c0,0 -0.3844,-0.94923 0.00474,-1.61736c0.38914,-0.66813 1.01791,-1.02728 1.40441,-0.80216z" fill="#39a7cc" stroke="none" stroke-width="0" stroke-linecap="butt"/><path d="M227.18336,180.0416c0.35579,0.2711 0.26429,0.98943 -0.20432,1.60441c-0.46861,0.61498 -1.4927,0.62267 -1.4927,0.62267c0,0 -0.2643,-0.98942 0.20432,-1.60441c0.46861,-0.61498 1.13692,-0.89377 1.4927,-0.62267z" fill="#37a1c4" stroke="none" stroke-width="0" stroke-linecap="butt"/><path d="M226.48924,177.04677c0.34148,0.2889 0.21344,1.00162 -0.28597,1.59189c-0.4994,0.59026 -1.52255,0.54563 -1.52255,0.54563c0,0 -0.21343,-1.00161 0.28598,-1.59188c0.4994,-0.59026 1.18107,-0.83455 1.52255,-0.54565z" fill="#369cbf" stroke="none" stroke-width="0" stroke-linecap="butt"/><path d="M226.14924,174.26972c0.32325,0.30917 0.15204,1.01278 -0.3824,1.57152c-0.53444,0.55874 -1.55295,0.45191 -1.55295,0.45191c0,0 -0.15204,-1.01277 0.38239,-1.57151c0.53444,-0.55874 1.22971,-0.76108 1.55296,-0.45191z" fill="#369cbf" stroke="none" stroke-width="0" stroke-linecap="butt"/><path d="M225.67697,171.18989c0.33468,0.29674 0.19018,1.00629 -0.32276,1.58485c-0.51294,0.57853 -1.53477,0.51023 -1.53477,0.51023c0,0 -0.19018,-1.00629 0.32276,-1.58483c0.51294,-0.57853 1.20007,-0.807 1.53476,-0.51026z" fill="#369cbf" stroke="none" stroke-width="0" stroke-linecap="butt"/><path d="M224.89633,187.94455c0.76128,0.13509 1.23693,1.04205 1.23693,1.04205c0,0 -0.75865,0.68792 -1.51995,0.55284c-0.76128,-0.13509 -1.31509,-0.60164 -1.23693,-1.04205c0.07815,-0.4404 0.75866,-0.68793 1.51995,-0.55284z" data-paper-data="{&quot;index&quot;:null}" fill="#6eafc9" stroke="none" stroke-width="0" stroke-linecap="butt"/><path d="M223.64977,184.73861c0.71303,0.29901 0.97783,1.28829 0.97783,1.28829c0,0 -0.89123,0.50449 -1.60426,0.20547c-0.71303,-0.29901 -1.15082,-0.87582 -0.97784,-1.2883c0.17298,-0.41249 0.89124,-0.50449 1.60427,-0.20547z" data-paper-data="{&quot;index&quot;:null}" fill="#38a5c9" stroke="none" stroke-width="0" stroke-linecap="butt"/><path d="M222.39733,181.21539c0.70532,0.31674 0.94534,1.31233 0.94534,1.31233c0,0 -0.90356,0.48204 -1.60889,0.16531c-0.70533,-0.31674 -1.12858,-0.90428 -0.94535,-1.31232c0.18324,-0.40804 0.90356,-0.48205 1.60889,-0.16532z" data-paper-data="{&quot;index&quot;:null}" fill="#369ec1" stroke="none" stroke-width="0" stroke-linecap="butt"/><path d="M221.66997,177.98231c0.67923,0.36939 0.84293,1.38034 0.84293,1.38034c0,0 -0.93759,0.41202 -1.61681,0.04262c-0.67923,-0.36939 -1.05662,-0.9874 -0.84292,-1.38034c0.21369,-0.39295 0.93758,-0.41202 1.61681,-0.04263z" data-paper-data="{&quot;index&quot;:null}" fill="#369cbf" stroke="none" stroke-width="0" stroke-linecap="butt"/><path d="M221.10822,175.15939c0.69208,0.34474 0.89201,1.34915 0.89201,1.34915c0,0 -0.92215,0.44545 -1.61423,0.1007c-0.69208,-0.34474 -1.09143,-0.94879 -0.892,-1.34915c0.19944,-0.40036 0.92214,-0.44546 1.61422,-0.10071z" data-paper-data="{&quot;index&quot;:null}" fill="#369cbf" stroke="none" stroke-width="0" stroke-linecap="butt"/><path d="M220.64958,172.13872c0.67855,0.37064 0.84039,1.38188 0.84039,1.38188c0,0 -0.93833,0.41029 -1.61687,0.03965c-0.67855,-0.37064 -1.05481,-0.98932 -0.8404,-1.38188c0.21443,-0.39255 0.93833,-0.4103 1.61688,-0.03966z" data-paper-data="{&quot;index&quot;:null}" fill="#369cbf" stroke="none" stroke-width="0" stroke-linecap="butt"/><path d="M226.99939,191.22313c0.77319,-0.00165 1.40172,0.80691 1.40172,0.80691c0,0 -0.62508,0.81123 -1.39825,0.81289c-0.77319,0.00165 -1.40075,-0.35961 -1.40171,-0.80691c-0.00096,-0.44729 0.62507,-0.81123 1.39825,-0.81288z" data-paper-data="{&quot;index&quot;:null}" fill="#75bad5" stroke="none" stroke-width="0" stroke-linecap="butt"/><path d="M229.79949,193.82561c0.76076,-0.1381 1.52213,0.54684 1.52213,0.54684c0,0 -0.47207,0.90882 -1.23282,1.04691c-0.76076,0.1381 -1.44223,-0.10675 -1.52212,-0.54685c-0.07988,-0.4401 0.47207,-0.90882 1.23281,-1.04691z" data-paper-data="{&quot;index&quot;:null}" fill="#7bc4e0" stroke="none" stroke-width="0" stroke-linecap="butt"/><path d="M224.22468,169.92297c-0.21628,0.74232 -1.16918,1.11754 -1.16918,1.11754c0,0 -0.60224,-0.82833 -0.38595,-1.57065c0.21628,-0.74232 0.73976,-1.24265 1.16919,-1.11753c0.42942,0.12513 0.60222,0.82832 0.38595,1.57064z" data-paper-data="{&quot;index&quot;:null}" fill="#369cbf" stroke="none" stroke-width="0" stroke-linecap="butt"/><path d="M219.87703,169.09813c0.30122,-0.33066 1.00877,-0.1766 1.58034,0.3441c0.57157,0.52069 0.4895,1.54152 0.4895,1.54152c0,0 -1.00877,0.17659 -1.58034,-0.3441c-0.57157,-0.52069 -0.79072,-1.21086 -0.4895,-1.54151z" data-paper-data="{&quot;index&quot;:null}" fill="#369cbf" stroke="none" stroke-width="0" stroke-linecap="butt"/></g></g></g></svg>